<svg xmlns="http://www.w3.org/2000/svg" viewBox="0 0 420.38 432.96"><defs><style>.cls-1{fill:#fff;}.cls-2{fill:#c5c6ba;}.cls-3{fill:#42c642;}.cls-4{fill:#298e46;}.cls-5{fill:#f9da55;}.cls-6{fill:#de953d;}.cls-7{fill:#8cacba;}.cls-8{fill:#678b9e;}.cls-9{fill:#5199ce;}.cls-10{fill:#ea4256;}.cls-11{fill:#f772a9;}.cls-12{fill:#a89a9f;}.cls-13{fill:#4d7282;}.cls-14{fill:#9dbac6;}.cls-15{fill:#2d4959;}.cls-16{fill:#d34276;}</style></defs><title>mind-maps</title><g id="Layer_2" data-name="Layer 2"><g id="Objects"><path class="cls-1" d="M221.35,379.14c.27-11.33-6.94-23.78-19.68-22.7a1.09,1.09,0,0,1-1.08-1.08c.39-18.2-28.23-20.78-37-8a1.1,1.1,0,0,1-1.7.22c-4.46-3.78-10.52-1.09-13.47,3.08a16.2,16.2,0,0,0-2.6,11.45.56.56,0,0,1-.25.55.91.91,0,0,1-1.15.9c-13.13-3-21.78,13.52-23.13,24.07-1.3,10.18,1,32,16.2,29a1.22,1.22,0,0,1,1.48.84c2.46,12.3,21.22,13.21,29.74,7.08a1.16,1.16,0,0,1,1.18,0c8.7,6,20.85,8.73,30.17,2.36a20.33,20.33,0,0,0,8.43-12.06c.66-3.06-.79-6.84,1.14-9.44,1-1.37,2.72-2.3,3.86-3.6a27.13,27.13,0,0,0,4.23-6.74A41.53,41.53,0,0,0,221.35,379.14Zm-10.18,20c0,.33-.54.45-.61.08a26.73,26.73,0,0,1-.3-3.58c0-.52.78-.51.81,0A27.28,27.28,0,0,1,211.17,399.12Zm2.13-3.33a.27.27,0,0,1-.52.07A26.38,26.38,0,0,0,211.3,391c-.23-.5.51-.94.75-.44A10.28,10.28,0,0,1,213.3,395.79Zm3.18-2.16c0,.41-.66.56-.77.1-.37-1.42-.62-2.88-1.13-4.26s-1.38-2.56-1.9-3.92a.35.35,0,0,1,.5-.39C215.5,386.9,216.79,390.81,216.48,393.63Z"/><path class="cls-1" d="M214.23,349c2.85-2.07-.56-5.85-2.52-5.3-1.09,1.1-1.9,2.67-1.21,4.16A2.54,2.54,0,0,0,214.23,349Z"/><path class="cls-1" d="M218.25,404.87c-1.09.41-1.62,2.37-1.58,3.31.09,1.8,1.8,1.46,3,.89,1-.47,2.67-1.44,1.94-2.74A3.6,3.6,0,0,0,218.25,404.87Z"/><path class="cls-2" d="M198.56,422.06c-9,4.07-18.65,0-22.66-8.62-5.72,4.46-12.59,8.17-20.12,6.67-6.21-1.23-8.15-5.91-10.31-11.16-6,3-13.86,3.34-18.5-2.35-4.92-6-5.48-12.91-5.53-20.05-.06.36-.12.7-.16,1.05-1.3,10.18,1,32,16.2,29a1.22,1.22,0,0,1,1.48.84c2.46,12.3,21.22,13.21,29.74,7.08a1.16,1.16,0,0,1,1.18,0c8.7,6,20.85,8.73,30.17,2.36a20.33,20.33,0,0,0,8.43-12.06,9.64,9.64,0,0,0,.18-1.72A22.31,22.31,0,0,1,198.56,422.06Z"/><path d="M202.65,354.22c.1-19.27-30-21.74-40.32-9-9.87-7-20.06,6.35-18.25,16.23-14.31-4.13-24.14,15.56-25.3,26.86s2.44,33.25,18,30.8c3.16,10.43,16.25,12.7,25.82,10.61,2.11-.46,5.21-2.66,7.23-2.32,2.46.42,5.42,3,8,3.87a28.79,28.79,0,0,0,16.59.75c10.49-2.85,16.45-11.93,16.81-22.36a4.72,4.72,0,0,1,1.74-4.08c.9-.94,1.88-1.76,2.72-2.78a29.45,29.45,0,0,0,4.11-6.86,43.77,43.77,0,0,0,3.77-18.53c-.33-11.78-8.33-23.54-20.91-23.24m14.94,40.84a27.42,27.42,0,0,1-4.23,6.74c-1.14,1.3-2.85,2.23-3.86,3.6-1.94,2.6-.48,6.38-1.15,9.44a20.27,20.27,0,0,1-8.42,12.06c-9.33,6.37-21.47,3.68-30.17-2.36a1.18,1.18,0,0,0-1.19,0c-8.51,6.13-27.27,5.22-29.74-7.08a1.21,1.21,0,0,0-1.48-.84c-15.17,2.95-17.5-18.84-16.19-29,1.35-10.55,10-27,23.13-24.07a.91.91,0,0,0,1.15-.9.58.58,0,0,0,.25-.55,16.19,16.19,0,0,1,2.59-11.45c3-4.17,9-6.86,13.48-3.08a1.1,1.1,0,0,0,1.7-.22c8.78-12.75,37.39-10.17,37,8a1.09,1.09,0,0,0,1.08,1.08c12.74-1.08,19.94,11.37,19.68,22.7a41.71,41.71,0,0,1-3.64,15.92"/><path d="M223.77,405.81a4.39,4.39,0,0,0-5-2.33c-2.33-.26-3.78,2.51-4,4.57-.28,2.94,2.39,4.17,4.92,3.36,2.24-.72,5.21-2.88,4.1-5.6m-4.12,3.26c-1.18.57-2.89.91-3-.89,0-.94.49-2.9,1.58-3.31a3.6,3.6,0,0,1,3.34,1.46c.73,1.3-1,2.27-1.94,2.74"/><path d="M215.57,343a3.87,3.87,0,0,0-3.91-1.15,2.53,2.53,0,0,0-1.61,1.56c-1.51,1.73-2.24,4.11-.76,6.17a4.45,4.45,0,0,0,7,.52c2-2.19,1.38-5.21-.68-7.1m-1.34,6a2.54,2.54,0,0,1-3.73-1.14c-.69-1.49.12-3.06,1.21-4.16,2-.55,5.37,3.23,2.52,5.3"/><path d="M213.06,385.16a.35.35,0,0,0-.51.39c.53,1.36,1.4,2.54,1.91,3.92s.75,2.84,1.12,4.26c.12.46.73.31.78-.1.3-2.82-1-6.73-3.3-8.47"/><path d="M211.92,390.57c-.24-.5-1-.06-.74.44a25.6,25.6,0,0,1,1.47,4.85.27.27,0,0,0,.53-.07,10.19,10.19,0,0,0-1.26-5.22"/><path d="M211,395.62c0-.51-.84-.52-.81,0a26.73,26.73,0,0,0,.3,3.58c.06.37.59.25.61-.08a27.28,27.28,0,0,0-.1-3.5"/><path class="cls-3" d="M166.87,385.8c-.62,1-1.7,1.76-2.83,1.13l0,0c-1.43,1.95-2.92,3.87-4.32,5.84v0a18.7,18.7,0,0,0,2.12.13,16.71,16.71,0,0,0,11.14-4.4c-.89-.37-1.77-.79-2.62-1.15A21.5,21.5,0,0,1,166.87,385.8Z"/><path class="cls-4" d="M134.76,397c-.69.57-1.35,1.15-2,1.75-1.39,1.29-2.66,2.68-3.95,4.06.82.15,1.31-.43,2.06-1.18l2.14-2.09q1.81-1.77,3.65-3.52c-.11-.09-.23-.17-.35-.25C135.79,396.12,135.27,396.53,134.76,397Z"/><path class="cls-3" d="M163.26,386.12a2.78,2.78,0,0,1,.49-3,1.4,1.4,0,0,1,.58-.38,2.39,2.39,0,0,1,1.06-.45c1.65-.26,2.33,1.28,1.9,2.65a34.18,34.18,0,0,0,4.56,1.76c.67.27,1.38.52,2.07.8a14.28,14.28,0,0,0,3.94-9.67c0-8.3-7.76-16.06-16.07-16.06s-16.07,8.76-16.07,17.06a12.57,12.57,0,0,0,1.65,6.24l1.4,2a16.6,16.6,0,0,0,9.4,5.42l.89-1.19A66.11,66.11,0,0,1,163.26,386.12Zm-3.89-20.65a2.94,2.94,0,0,1,3.21-1.41.27.27,0,0,1,.06.49c-.64.36-1.41.37-2,.86s-.76,1.18-.28,1.66,1.82.14,2.35-.16a1.1,1.1,0,0,0,.35-1.68c-.13-.18.08-.39.26-.35,1.09.24,1,1.7.4,2.4a3.57,3.57,0,0,1-3.6.82A2,2,0,0,1,159.37,365.47Zm-6.15,7.33c-.87.66-3.67,3.38-4.36,1.13-.48-1.58,2-4.13,3.18-4.87a.24.24,0,0,1,.32.32c-.54.92-1.28,1.69-1.84,2.59l-.47.79c-.12,1,.07,1.19.58.66a5,5,0,0,0,1.23-.86,24.77,24.77,0,0,0,3-2.45c.26-.25,1-.86,1.06-1.22-.44-1-1-1.18-1.74-.63a4,4,0,0,0-1,.75.21.21,0,0,1-.3-.3c.68-.74,3.29-2.66,3.88-.81S154.42,371.87,153.22,372.8Z"/><path class="cls-4" d="M167.16,386l-.6.25a2,2,0,0,1-2.4.76l-.26.06c-1.4,1.91-2.85,3.79-4.22,5.71v0a18.7,18.7,0,0,0,2.12.13,16.71,16.71,0,0,0,11.14-4.4c-.89-.37-1.77-.79-2.62-1.15A28.71,28.71,0,0,1,167.16,386Z"/><path class="cls-4" d="M146.1,375.6a14.84,14.84,0,0,0-.38,3.23,12.57,12.57,0,0,0,1.65,6.24l1.4,2a16.6,16.6,0,0,0,9.4,5.42l.89-1.19q1.55-2.08,3.21-4C155.1,387.88,148.41,382.38,146.1,375.6Z"/><path class="cls-4" d="M168.31,385.43c1.17.5,2.5.85,3.54,1.27.67.27,1.38.52,2.07.8a14.28,14.28,0,0,0,3.94-9.67c0-.13,0-.27,0-.4A29.8,29.8,0,0,1,168.31,385.43Z"/><path class="cls-1" d="M154.15,368.26a4,4,0,0,0-1,.75.18.18,0,0,1-.09,0,.82.82,0,0,1-.44.23c-.14.14-.27.29-.4.43a.59.59,0,0,1-.18.14c-.49.72-1.07,1.38-1.53,2.12l-.47.79c-.12,1,.07,1.19.58.66a5,5,0,0,0,1.23-.86,24.77,24.77,0,0,0,3-2.45c.26-.25,1-.86,1.06-1.22C155.45,367.91,154.86,367.71,154.15,368.26Z"/><path class="cls-1" d="M162.92,365.17a.61.61,0,0,0-.39-.33.51.51,0,0,1-.2-.16,5.72,5.72,0,0,0-1.68.73c-.43.37-.76,1.18-.28,1.66s1.82.14,2.35-.16a1.06,1.06,0,0,0,.46-1.43A.81.81,0,0,1,162.92,365.17Z"/><path d="M204.88,371.27a1.23,1.23,0,0,0-1.2-1.12h0a1.93,1.93,0,0,0-.49-.08c-.74-.64-1.83.82-2.06,1.45a3.37,3.37,0,0,0,.25,3.18,50.36,50.36,0,0,0-4.56,7.12,47.62,47.62,0,0,0-4,8,50.9,50.9,0,0,0-1.78-5.4,42.05,42.05,0,0,0-1.83-4.53,2.48,2.48,0,0,0,1.4-2.49,2.27,2.27,0,0,0-2.92-1.69,2.57,2.57,0,0,0-.94.62,3,3,0,0,0-1.29,2.28c-.16,1.52,1.13,2.14,2.46,1.83a4,4,0,0,0,.46-.14c.51,1.79,1.26,3.54,1.89,5.28s1.15,3.41,1.88,5a1.9,1.9,0,0,0-1,1.08,2.19,2.19,0,0,0-.25.4c-.56,1.1-1.42,3.12.09,3.87,2.67,1.33,5.7-4.3,2.5-5.44l-.11,0c1.68-2.53,2.93-5.41,4.42-8.05,1.37-2.43,2.9-4.77,4.18-7.25l.1.05c1.52.54,2.73-1.14,3-2.45a2.6,2.6,0,0,0-.2-1.51"/><path d="M179.17,388.08a1.75,1.75,0,0,0-1.55-.54,1.91,1.91,0,0,0-2.17.69,28.38,28.38,0,0,0-3.6-1.53,34.18,34.18,0,0,1-4.56-1.76c.43-1.37-.25-2.91-1.9-2.65a2.39,2.39,0,0,0-1.06.45,1.4,1.4,0,0,0-.58.38,2.78,2.78,0,0,0-.49,3,66.11,66.11,0,0,0-4.2,5.22,52,52,0,0,0-5,7.55,2.8,2.8,0,0,0-2-.14,2.11,2.11,0,0,0-1.05.18,2.17,2.17,0,0,0-.81,3.32c.95,1.22,2.67,1,3.89.28a2,2,0,0,0,.88-2.87c1.71-2.18,3.11-4.65,4.72-6.91,1.4-2,2.89-3.89,4.32-5.84l0,0c1.13.63,2.21-.15,2.83-1.13a21.5,21.5,0,0,0,3.44,1.55,28.61,28.61,0,0,0,4.65,1.83,3.39,3.39,0,0,0,.34,3.4c2.38,2.46,6-2.36,3.87-4.5"/><path d="M161.79,360.77a17,17,0,0,0-15.13,24.93l-.88.78c-2.77,2.45-5.78,4.74-8.39,7.37-1-.47-1.95-.31-3.34.79a42.35,42.35,0,0,0-6.8,6.58,1.15,1.15,0,0,0-.08,1.36.55.55,0,0,0-.07.4c.48,2,2.18,2.68,3.84,1.47,3-2.18,5.59-5.25,8.26-7.81a1.13,1.13,0,0,0,0-1.59l-.17-.13a55,55,0,0,0,9-7.06,17.06,17.06,0,1,0,13.79-27.09M133,399.49l-2.14,2.09c-.75.75-1.24,1.33-2.06,1.18,1.29-1.38,2.56-2.77,3.95-4.06.65-.6,1.31-1.18,2-1.75.51-.42,1-.83,1.55-1.23.12.08.24.16.35.25q-1.83,1.75-3.65,3.52m28.78-6.59a17.09,17.09,0,0,1-13-5.79l-1.4-2a12.57,12.57,0,0,1-1.65-6.24c0-8.3,7.76-17.06,16.07-17.06s16.07,7.76,16.07,16.06-7.76,15.07-16.07,15.07"/><path d="M163.33,364.88c-.18,0-.39.17-.26.35a1.1,1.1,0,0,1-.35,1.68c-.53.3-1.87.63-2.35.16s-.15-1.29.28-1.66,1.35-.5,2-.86a.27.27,0,0,0-.06-.49,2.94,2.94,0,0,0-3.21,1.41,2,2,0,0,0,.76,2.63,3.57,3.57,0,0,0,3.6-.82c.61-.7.69-2.16-.4-2.4"/><path d="M156.74,367.9c-.59-1.85-3.2.07-3.88.81a.21.21,0,0,0,.3.3,4,4,0,0,1,1-.75c.71-.55,1.3-.35,1.74.63,0,.36-.8,1-1.06,1.22a24.77,24.77,0,0,1-3,2.45,5,5,0,0,1-1.23.86c-.51.53-.7.31-.58-.66l.47-.79c.56-.9,1.3-1.67,1.84-2.59a.24.24,0,0,0-.32-.32c-1.18.74-3.66,3.29-3.18,4.87.69,2.25,3.49-.47,4.36-1.13,1.2-.93,4.15-3,3.52-4.9"/><path class="cls-1" d="M311,189a3.5,3.5,0,0,0-3.11,2.64c-.43,1.65.11,4.45,2.36,3.31,1.27-.65,3.29-2.46,2.86-4.06A3.07,3.07,0,0,0,311,189Z"/><path class="cls-1" d="M405,197.19a1.38,1.38,0,0,1-.61-2.28c4.15-4.76,7.83-11.16,6.58-17.69A17,17,0,0,0,400.94,165c-9.94-4.43-20.59-.38-28.86,5.6a1.41,1.41,0,0,1-1.67-.22c-4.82-4.4-10.85-9.15-17.25-11-7.41-2.12-14.43,1.71-20,6.38a31.15,31.15,0,0,0-9.22,35.46,1.28,1.28,0,0,1,.83.77c2,5.2,0,9.78-.93,15-1.07,5.74-.65,12.76,3.48,17.3,8.48,9.29,26.57,6.08,33.73-3.1a1.41,1.41,0,0,1,2.18.28c9,12.8,26.54,9.81,37.34,1.22,5.38-4.28,9.82-10.19,11.57-16.91C413.81,209.33,413.18,198.74,405,197.19Zm-7.15,28.36a14.71,14.71,0,0,1-.4,1.65c-.09.3-.58.26-.56-.07a17.53,17.53,0,0,1,.25-1.77C397.25,224.9,398,225.09,397.88,225.55Zm3.56-1.76c0,.25-.42.34-.47.06a26.44,26.44,0,0,1-.3-3.56c0-.42.62-.41.65,0A25.54,25.54,0,0,1,401.44,223.79Zm3.08-3.82c-.31-.67-.47-1.39-.75-2.06A12.15,12.15,0,0,0,402.7,216c-.26-.39.36-.74.63-.37a8.34,8.34,0,0,1,1.81,4.2A.34.34,0,0,1,404.52,220Zm2-3c-.52-.69-.88-1.49-1.35-2.21s-1-1.36-1.55-2.05c-.2-.27.18-.64.45-.46a7.84,7.84,0,0,1,3.13,4.44A.37.37,0,0,1,406.56,217Z"/><path class="cls-2" d="M377,232.49c-2.35-1.79-4.2-4.16-6.41-6.12-3.73-3.3-6.37-2.86-10.42-.33-5.54,3.45-10.22,5.75-17,4.92-5.31-.67-10.57-2.71-13.92-7.1a15.65,15.65,0,0,1-3.47-7.9c-.23-2.11-.2-4.31-.41-6.46-.37,2.44-1.11,4.89-1.59,7.5-1.07,5.74-.65,12.76,3.48,17.3,8.48,9.29,26.57,6.08,33.73-3.1a1.41,1.41,0,0,1,2.18.28c9,12.8,26.54,9.81,37.34,1.22a37.24,37.24,0,0,0,6.18-6.24C398.7,235.29,386.91,240,377,232.49Z"/><path d="M407.61,195.15c7.18-9.37,9.2-22.08-1.38-30.17s-24.76-4.3-34.86,2.68c-5.43-4.86-12-9.72-19.14-11.31s-14.33,2.16-19.87,6.6c-11.48,9.19-17.2,25.56-10.13,39a1.07,1.07,0,0,0,0,.7c2.47,7-2.51,15.36-1.55,22.89.7,5.54,3.3,10.69,8.18,13.66,9.9,6,25.12,3.65,32.93-4.84,10.84,13.3,30.54,9.54,42.27-1,6.13-5.53,10.79-13.28,11.38-21.64.45-6.33-1.67-14.07-7.87-16.54M412,215.79c-1.75,6.72-6.18,12.63-11.56,16.91-10.8,8.59-28.34,11.58-37.34-1.22a1.41,1.41,0,0,0-2.18-.28c-7.16,9.18-25.25,12.39-33.73,3.1-4.14-4.54-4.55-11.56-3.49-17.3,1-5.21,3-9.79.93-15a1.27,1.27,0,0,0-.82-.77A31.15,31.15,0,0,1,333,165.78c5.58-4.67,12.6-8.5,20-6.38,6.39,1.84,12.43,6.59,17.24,11a1.42,1.42,0,0,0,1.68.22c8.26-6,18.92-10,28.86-5.6a17,17,0,0,1,10.06,12.21c1.25,6.53-2.43,12.93-6.58,17.69a1.38,1.38,0,0,0,.6,2.28c8.16,1.55,8.79,12.14,7.1,18.6"/><path d="M310,187.35a.72.72,0,0,0-.47.64,4.74,4.74,0,0,0-3.48,3.61c-.62,2.56.45,6,3.6,5.75,2.62-.23,5.81-3.25,5.79-5.94s-2.88-5-5.44-4.06m.26,7.56c-2.25,1.14-2.79-1.66-2.36-3.31A3.5,3.5,0,0,1,311,189a3.07,3.07,0,0,1,2.11,1.89c.43,1.6-1.59,3.41-2.86,4.06"/><path d="M404,212.24c-.27-.18-.65.19-.46.46.51.69,1.08,1.33,1.55,2.05s.84,1.52,1.36,2.21a.37.37,0,0,0,.67-.28,7.78,7.78,0,0,0-3.12-4.44"/><path d="M403.21,215.6c-.27-.37-.9,0-.63.37a11.37,11.37,0,0,1,1.06,1.94c.29.67.45,1.39.76,2.06.14.3.63.15.62-.17a8.34,8.34,0,0,0-1.81-4.2"/><path d="M401.19,220.29c0-.41-.66-.42-.64,0a26.44,26.44,0,0,0,.3,3.56c0,.28.45.19.47-.06a27.24,27.24,0,0,0-.13-3.5"/><path d="M397.05,225.36a15.08,15.08,0,0,0-.25,1.77c0,.33.46.37.56.07a14.71,14.71,0,0,0,.4-1.65c.1-.46-.64-.65-.71-.19"/><path class="cls-5" d="M377.19,180.41c-1.32,6.62-2.9,13.19-4.2,19.81-1.05,5.35-1.88,10.76-2.89,16.12,6.86-2.62,13.77-4.78,17.35-12.24,2.34-4.87,1.89-11.62-.54-16.39C384.87,183.72,381.23,181.57,377.19,180.41Zm3.37,3.79a5.08,5.08,0,0,1,2.54.09c.22.09.32.51,0,.56a18.38,18.38,0,0,1-2.46,0C380.3,184.83,380.2,184.25,380.56,184.2Zm4.51,15.33a8.26,8.26,0,0,1-3.08,5.19c-1.34,1.13-3.23,2.79-5.07,2.34a.74.74,0,0,1-.52-.86s0,0,0-.06a35.14,35.14,0,0,1,1.24-6.32,61.12,61.12,0,0,1,1.87-7.06.49.49,0,0,1,.62-.29C382.89,191.65,385.33,197.42,385.07,199.53Zm-1.23-12.75a4.49,4.49,0,0,1-1.32,0,.33.33,0,0,1,0-.65,4.86,4.86,0,0,1,1.32,0A.3.3,0,0,1,383.84,186.78Z"/><path class="cls-5" d="M368.24,183a8.12,8.12,0,0,0-3.91-3.08,27.18,27.18,0,0,0-14.45-2.05c-.32,1.76-.65,3.58-1.05,5.37a20.89,20.89,0,0,1,4.53.1c1.45.2,4.74.38,5.31,2.17.53,1.64-1.81,3.56-2.75,4.56a22.59,22.59,0,0,1-5.35,4.34c3.68,3,6.7,10.85,4.43,14.92-1.68,3-5,2.47-7.64.75-1.46,2.51-2.83,5.07-4,7.7,3.15,2.13,7.31,2.4,11.66.86s7.86-4.24,9.18-8.69c.68-2.31,1.83-11.29-2.51-11.21a1,1,0,0,1-.73-1.75c2-1.84,4.25-3.55,6.14-5.52C369.48,189,370.61,186,368.24,183Zm-2.61,5.32a6.59,6.59,0,0,1-1.09-1.26c-.25-.33.19-.79.46-.46a6.91,6.91,0,0,1,1,1.33C366.12,188.2,365.88,188.55,365.63,188.36Zm1-2.54a9.43,9.43,0,0,1-2.49-2.35c-.2-.25.07-.72.37-.49a9.54,9.54,0,0,1,2.44,2.51A.24.24,0,0,1,366.66,185.82Z"/><path class="cls-6" d="M371.5,210.93a.72.72,0,0,1-.39-.25q-.48,2.83-1,5.66c6.46-2.47,12.95-4.53,16.68-11C382.9,209.53,377.19,212,371.5,210.93Z"/><path class="cls-6" d="M354.94,216.56c-4.28,1.45-8,.25-9.76-2.51-.65,1.24-1.27,2.5-1.86,3.77,3.15,2.13,7.31,2.4,11.66.86s7.86-4.24,9.18-8.69a21.8,21.8,0,0,0,.65-4.84C363.67,210.2,359.53,215,354.94,216.56Z"/><path d="M369.59,181c-4.73-4.87-12.62-5.76-19.43-4.61l-1.4.27-.48,1.46c-.59,1.77-1.19,3.6-1.7,5.43l-.38,1.47.74,0c-.12,1.26.9,1.47,2.41,1.52l4,.12a13.71,13.71,0,0,0,2.72,0,.76.76,0,0,1,0,.16c0,.86-2.78,3-3.41,3.65-1.19,1.16-2.45,2.24-3.6,3.43a.56.56,0,0,0-.17.48.59.59,0,0,0,.05.32l.24.48a2.32,2.32,0,0,0-.56,1.85c.34,1.64,1.51,3.36,2.21,4.86a56.29,56.29,0,0,0,2.49,5.4l0,0a1.06,1.06,0,0,1-.06.19c-1.14,2.69-3.2,1.56-4.61.74l-.2-.13-1.65-1.2-1.3,1.79a52.78,52.78,0,0,0-4.4,7.23l-1.18,2.7,1.3,1c-1.6,5,10.06,4.07,12.53,3.5,5.41-1.27,11-5.66,12.21-11.3a17.84,17.84,0,0,0,1.06-6.23c0-3.07-.41-7.21-3.18-8.49C368.71,193,375.35,187,369.59,181m-8.67,16a1,1,0,0,0,.73,1.75c4.34-.08,3.19,8.9,2.51,11.21-1.32,4.45-5,7.2-9.18,8.69s-8.51,1.27-11.66-.86c1.21-2.63,2.58-5.19,4-7.7,2.65,1.72,6,2.25,7.64-.75,2.27-4.07-.75-12-4.43-14.92a22.59,22.59,0,0,0,5.35-4.34c.94-1,3.28-2.92,2.75-4.56-.57-1.79-3.86-2-5.31-2.17a20.89,20.89,0,0,0-4.53-.1c.4-1.79.73-3.61,1.05-5.37A27.18,27.18,0,0,1,364.33,180a8.12,8.12,0,0,1,3.91,3.08c2.37,3,1.24,5.93-1.18,8.47-1.89,2-4.12,3.68-6.14,5.52"/><path d="M377.44,179.17l-1.47-.29-.34,1.12A205.61,205.61,0,0,0,368,217.2l-.2,2.17,1.39-.17c0,.28,0,.56,0,.84a.67.67,0,0,0,.84.64c4.71-.65,8.92-3.11,12.58-6,2.87-2.3,6.55-5.16,7-9a17.32,17.32,0,0,0,1.55-4.87c1.66-10.76-3.88-19.41-13.67-21.56m10,24.93c-3.58,7.46-10.49,9.62-17.35,12.24,1-5.36,1.84-10.77,2.89-16.12,1.3-6.62,2.88-13.19,4.2-19.81,4,1.16,7.68,3.31,9.72,7.3,2.43,4.77,2.88,11.52.54,16.39"/><path d="M380.12,192.47a.49.49,0,0,0-.62.29,61.12,61.12,0,0,0-1.87,7.06,35.14,35.14,0,0,0-1.24,6.32s0,0,0,.06a.74.74,0,0,0,.52.86c1.84.45,3.73-1.21,5.07-2.34a8.26,8.26,0,0,0,3.08-5.19c.26-2.11-2.18-7.88-4.95-7.06M378.07,205a43.13,43.13,0,0,0,2.16-10.35c1.57,1.62,2,3.59,2.12,5.86a.65.65,0,0,0,.28.48l-.05.11c-1,1.85-2.74,2.92-4.51,3.9"/><path d="M393.27,175.28c-2,1.26-3.25,3.8-4.24,5.86-.4.84.79,1.57,1.27.74a34.41,34.41,0,0,1,1.9-2.9,18.69,18.69,0,0,0,1.93-2.84c.25-.53-.28-1.23-.86-.86"/><path d="M399.88,181.15a7.15,7.15,0,0,0-3.47,1.09,34.92,34.92,0,0,0-3.67,2.2.78.78,0,0,0,.79,1.35c1.2-.62,2.41-1.2,3.63-1.78a8.82,8.82,0,0,0,3.12-1.9.58.58,0,0,0-.4-1"/><path d="M400.2,187.27c-2.27-.53-4.8.62-6.81,1.59-.77.37-.23,1.67.59,1.39,2-.69,4.44-.76,6.4-1.67a.72.72,0,0,0-.18-1.31"/><path d="M400.2,193.75c-1.56-.33-3.35.13-4.94.14-1,0-.94,1.41,0,1.52,1.59.2,3.65.47,5.11-.35a.72.72,0,0,0-.17-1.31"/><path d="M367,185.49a9.54,9.54,0,0,0-2.44-2.51c-.3-.23-.57.24-.37.49a9.43,9.43,0,0,0,2.49,2.35.24.24,0,0,0,.32-.33"/><path d="M366,188a6.91,6.91,0,0,0-1-1.33c-.27-.33-.71.13-.46.46a6.59,6.59,0,0,0,1.09,1.26c.25.19.49-.16.39-.39"/><path d="M383.1,184.29a5.08,5.08,0,0,0-2.54-.09c-.36.05-.26.63.08.62a18.38,18.38,0,0,0,2.46,0c.32,0,.22-.47,0-.56"/><path d="M383.84,186.21a4.86,4.86,0,0,0-1.32,0,.33.33,0,0,0,0,.65,4.49,4.49,0,0,0,1.32,0,.3.3,0,0,0,0-.57"/><path class="cls-1" d="M55.37,78.74a3.91,3.91,0,0,0,3-2.3c.25-.58.53-1.46.14-2s-.89-.49-1.41-.61A5.54,5.54,0,0,0,54.38,76C53.8,76.92,53.88,78.76,55.37,78.74Z"/><path class="cls-1" d="M87,95.31c3.31,1.47,6.55,1.93,10.07,2.54,1.66.28,2.31.42,3.4,1.66,1.77,2,2.61,5.15,4.3,7.35a16.4,16.4,0,0,0,10,6.46c6.82,1.47,14.34-.11,20.76-2.53,6.8-2.58,16.67-7.37,17.46-15.56a1,1,0,0,1,1.54-.89c10.11,5.79,22-.54,24.28-11.64a23.25,23.25,0,0,0-2.4-15.38c-1.1-2.14-4.36-4.85-4.19-7.41.09-1.3.94-1.8,1.6-2.74a22.35,22.35,0,0,0,3.73-7,21,21,0,0,0-1.16-14.33c-4-8.78-14.15-13.2-23.4-11a1.27,1.27,0,0,1-1.54-.87C147.57,8.29,131.17,1.8,116.23,4.86a32.72,32.72,0,0,0-26,29.21,4.81,4.81,0,0,1,0,2.84.47.47,0,0,1-.66.27c-12,4.6-21.16,16.5-21.46,29.57C67.74,79,75.91,90.4,87,95.31ZM139.9,106c1.92-2.94,2.26-5.92,2.34-9.37a.45.45,0,0,1,.89,0c.11,3.33.2,7.5-2.65,9.82C140.18,106.69,139.65,106.37,139.9,106Zm-4.73.37a37.55,37.55,0,0,0,2.28-6.35c.1-.52.87-.29.79.22a14.42,14.42,0,0,1-2.4,6.41C135.61,106.94,135,106.78,135.17,106.36Zm-9,3.15a24.86,24.86,0,0,0,2-6c.06-.41.75-.31.72.09a11.24,11.24,0,0,1-2.12,6.27C126.54,110.17,126,109.86,126.13,109.51Zm-4.52-2a19.76,19.76,0,0,1,1.39-2.23c.29-.43,1,0,.7.41a21.72,21.72,0,0,1-1.66,2.16C121.82,108.06,121.47,107.75,121.61,107.48Z"/><path class="cls-2" d="M150.26,85.68a41.46,41.46,0,0,1-7.16,10.81.5.5,0,0,1,0,.13c.11,3.33.2,7.5-2.65,9.82-.3.25-.83-.07-.58-.45a15.67,15.67,0,0,0,2.31-8.56,37.66,37.66,0,0,1-4.13,3.66,13.4,13.4,0,0,1-2.24,5.55c-.23.3-.84.14-.67-.28.6-1.49,1.24-2.91,1.74-4.41a29.72,29.72,0,0,1-8.39,4.15,9.15,9.15,0,0,1-1.75,3.79c-.23.28-.78,0-.64-.38.44-1.06.89-2.07,1.27-3.1a23.38,23.38,0,0,1-4.8.72c-.18.24-.36.47-.56.69s-.57-.07-.43-.34c0-.11.12-.21.18-.32a20.17,20.17,0,0,1-2.57-.11c-10.39-1-15-10.79-13.49-20.06-11.36,5.17-25.58-3.28-30.81-13.78-4.48-9-2-19.87,3.2-28.72A32.39,32.39,0,0,0,68,66.75C67.74,79,75.91,90.4,87,95.31c3.31,1.47,6.55,1.93,10.07,2.54,1.66.28,2.31.42,3.4,1.66,1.77,2,2.61,5.15,4.3,7.35a16.4,16.4,0,0,0,10,6.46c6.82,1.47,14.34-.11,20.76-2.53,6.8-2.58,16.67-7.37,17.46-15.56a1,1,0,0,1,1.54-.89c10.11,5.79,22-.54,24.28-11.64a20.85,20.85,0,0,0,.26-6.77C174.31,85.59,160,91.75,150.26,85.68Z"/><path d="M181.52,76.34a25.24,25.24,0,0,0-2-7.87c-.88-2.11-2.62-3.93-3.43-6-1.13-2.86-.71-4,.67-6.41a23,23,0,0,0,1.36-2.72,24.88,24.88,0,0,0,1.79-7,22.16,22.16,0,0,0-3.09-14.05c-5-7.86-14.48-11.34-23.43-10-4-16-21-22.77-36.36-20C101.35,5.14,89,18.43,88.9,34.6a.59.59,0,0,0,0,.14c0,.21,0,.43-.06.65-21,6.26-30.4,32.31-17.71,50.34A36,36,0,0,0,82.38,96.07a33.59,33.59,0,0,0,7.32,3.2c3,.9,7.13.69,9.23,3.08,1.71,1.94,2.66,4.65,4.4,6.66a18.76,18.76,0,0,0,6.86,5.09c4.76,2,10.07,2,15.11,1.25,10.08-1.44,26.72-7,29.27-18.48,8,4.38,18,1.5,23.13-6a22.49,22.49,0,0,0,3.82-14.55m-2.9,6.36c-2.32,11.1-14.17,17.43-24.28,11.64a1,1,0,0,0-1.55.89c-.78,8.19-10.65,13-17.45,15.56-6.42,2.42-13.94,4-20.77,2.53a16.46,16.46,0,0,1-10-6.46c-1.68-2.2-2.53-5.32-4.3-7.35-1.09-1.24-1.74-1.38-3.4-1.66-3.51-.61-6.76-1.07-10.06-2.54C75.79,90.4,67.62,79,67.9,66.75c.3-13.07,9.4-25,21.45-29.57a.46.46,0,0,0,.66-.27,4.73,4.73,0,0,0,0-2.84A32.72,32.72,0,0,1,116.11,4.86c14.94-3.06,31.34,3.43,35.15,19.19a1.26,1.26,0,0,0,1.53.87c9.26-2.23,19.36,2.19,23.41,11a21.08,21.08,0,0,1,1.16,14.33,22.56,22.56,0,0,1-3.73,7c-.66.94-1.51,1.44-1.6,2.74-.17,2.56,3.09,5.27,4.19,7.41a23.31,23.31,0,0,1,2.4,15.38"/><path d="M60.07,73.2a3.06,3.06,0,0,0-2-.55.5.5,0,0,0-.3-.11,5.59,5.59,0,0,0-5.24,3.95,3.39,3.39,0,0,0,3.12,4.27,5.8,5.8,0,0,0,5.23-4.51,3,3,0,0,0-.77-3m-1.66,3.24a3.91,3.91,0,0,1-3,2.3c-1.49,0-1.57-1.82-1-2.79a5.54,5.54,0,0,1,2.76-2.13c.52.12,1.11.18,1.41.61s.11,1.43-.14,2"/><path d="M143,96.62a.45.45,0,0,0-.89,0c-.07,3.45-.41,6.43-2.33,9.37-.25.38.27.7.58.45,2.85-2.32,2.76-6.49,2.64-9.82"/><path d="M137.32,100a36.66,36.66,0,0,1-2.27,6.35c-.17.42.44.58.67.28a14.54,14.54,0,0,0,2.4-6.41c.08-.51-.69-.74-.8-.22"/><path d="M128.05,103.53a24.86,24.86,0,0,1-2,6c-.15.35.4.66.64.38a11.23,11.23,0,0,0,2.11-6.27c0-.4-.65-.5-.71-.09"/><path d="M122.88,105.25a19.84,19.84,0,0,0-1.4,2.23c-.13.27.21.58.44.34a21.62,21.62,0,0,0,1.65-2.16c.3-.42-.4-.84-.69-.41"/><path class="cls-7" d="M124,34.62a40.47,40.47,0,0,0-6.2,7.86,20.84,20.84,0,0,1,7.34-.72c0-.13,0-.26.05-.38.2-1.72.26-3.44.33-5.17C125.57,34,126.48,32.24,124,34.62Z"/><path class="cls-7" d="M122.52,22.5c-11.45,0-21.75,9.31-21.75,20.75a24.13,24.13,0,0,0,6.45,16.06l1.31,1.31.15.13,1.76,1.43A18.68,18.68,0,0,0,121.52,66c11.44,0,22.75-9.31,22.75-20.75S134,22.5,122.52,22.5Zm-10.88,7.78a2.63,2.63,0,0,1,2.5-2.15c.29,0,.28.42,0,.45a2,2,0,0,0-1.86,1.64c-.2,1.14.52,1.83,1.63,1.45a2.45,2.45,0,0,0,1.59-1.48c.14-.69-.73-1-1.17-1.35-.19-.16,0-.43.18-.44a1.74,1.74,0,0,1,1.95,2.17,3.44,3.44,0,0,1-3,2.19A2,2,0,0,1,111.64,30.28Zm-4.86,12.8c-1.43,1.36-3.08.72-3.16-1.27-.1-2.46,1.78-5.69,3.65-7.19.28-.23.79.08.54.42a26.71,26.71,0,0,0-2,3,10.7,10.7,0,0,0-1,2.12,4,4,0,0,0-.17,2.12l1.55-.14c.89-.41,1.72-2.23,2.18-3.09a16.65,16.65,0,0,0,.88-1.92c.06-.18.12-.35.19-.53a1.46,1.46,0,0,0-.48-1.88c-.28.23-.69-.14-.41-.41,1.29-1.24,2.16.54,1.94,1.73A14,14,0,0,1,106.78,43.08Zm21.12,1a104.86,104.86,0,0,1-2.84,11.24,1.19,1.19,0,0,1-2.3-.64c.55-3.39,1.35-6.74,1.93-10.13-2.82.1-5.66-.11-8.5.48-1.53,2.6-3,5.23-4.51,7.7a.76.76,0,0,1-1.4-.38c.25-5.44,4.66-10.93,7.74-15.16,1.61-2.2,4.51-7,7.66-7.12,3.78-.13,3.55,6.47,2.4,13A1,1,0,0,1,127.9,44.08Z"/><path class="cls-1" d="M108.74,34.78a6.6,6.6,0,0,1-1,.32A27,27,0,0,0,105.84,38a10.7,10.7,0,0,0-1,2.12,4,4,0,0,0-.17,2.12l1.55-.14c.89-.41,1.72-2.23,2.18-3.09a16.65,16.65,0,0,0,.88-1.92c.06-.18.12-.35.19-.53a1.46,1.46,0,0,0-.48-1.88A.3.3,0,0,1,108.74,34.78Z"/><path class="cls-1" d="M113.91,31.67a2.45,2.45,0,0,0,1.59-1.48c.14-.69-.73-1-1.17-1.35a.21.21,0,0,1-.08-.16.9.9,0,0,1-.21-.08,2,2,0,0,0-1.76,1.62C112.08,31.36,112.8,32.05,113.91,31.67Z"/><path class="cls-8" d="M124.28,57.72c-6.28.76-13.79.41-18.94-3.79a18.24,18.24,0,0,1-3.45-3.74,24.8,24.8,0,0,0,5.33,9.12l1.31,1.31.15.13,1.76,1.43A18.68,18.68,0,0,0,121.52,66c9.59,0,19.08-6.55,21.9-15.4C137.87,54.66,130.46,57,124.28,57.72Z"/><path class="cls-8" d="M95.12,73.74c-3.34,3.41-6.73,6.76-9.84,10.42,1.12,1.61,2.55,2.06,4.14,1,.91-.6,1.62-2,2.33-2.89q1.88-2.31,3.79-4.58c.57-.67,1.13-1.36,1.7-2-.12-.13-.24-.27-.37-.4A17.76,17.76,0,0,0,95.12,73.74Z"/><path d="M122.52,20.5a23.73,23.73,0,0,0-16.89,40.42A89.31,89.31,0,0,0,96.31,72l-1.5-.9L93.3,72.39A85.56,85.56,0,0,0,83,83.23a1.23,1.23,0,0,0-.18,1.4c1.05,1.89,2.75,3.61,5.06,3.77,1.87.13,2.41-.77,3.64-2.16,2.29-2.59,4.44-5.32,6.68-8l.61-.7,1.41-1.6-1.09-1.41c3-2.83,5.67-6.17,8.42-9.24L109,63.76A23.74,23.74,0,1,0,122.52,20.5m-27,57.19Q93.62,80,91.75,82.27c-.71.87-1.42,2.29-2.33,2.89-1.59,1.06-3,.61-4.14-1,3.11-3.66,6.5-7,9.84-10.42a17.76,17.76,0,0,1,1.75,1.5c.13.13.25.27.37.4-.57.69-1.13,1.38-1.7,2m26-11.69a18.68,18.68,0,0,1-11.08-3.82l-1.76-1.43-.15-.13-1.31-1.31a24.13,24.13,0,0,1-6.45-16.06c0-11.44,10.3-20.75,21.75-20.75s21.75,11.31,21.75,22.75S133,66,121.52,66"/><path d="M125.68,30.07c-3.15.11-6.05,4.92-7.66,7.12-3.08,4.23-7.49,9.72-7.74,15.16a.76.76,0,0,0,1.4.38c1.52-2.47,3-5.1,4.51-7.7,2.84-.59,5.68-.38,8.5-.48-.58,3.39-1.38,6.74-1.93,10.13a1.19,1.19,0,0,0,2.3.64,104.86,104.86,0,0,0,2.84-11.24,1,1,0,0,0,.18-1c1.15-6.53,1.38-13.13-2.4-13m-7.92,12.41a40.47,40.47,0,0,1,6.2-7.86c2.52-2.38,1.61-.64,1.52,1.59-.07,1.73-.13,3.45-.33,5.17,0,.12,0,.25-.05.38a20.84,20.84,0,0,0-7.34.72"/><path d="M114.51,28.4c-.2,0-.37.28-.18.44.44.35,1.31.66,1.17,1.35a2.45,2.45,0,0,1-1.59,1.48c-1.11.38-1.83-.31-1.63-1.45a2,2,0,0,1,1.86-1.64c.28,0,.29-.47,0-.45a2.63,2.63,0,0,0-2.5,2.15,2,2,0,0,0,1.79,2.48,3.44,3.44,0,0,0,3-2.19,1.74,1.74,0,0,0-1.95-2.17"/><path d="M108.6,34.31c-.28.27.13.64.41.41a1.46,1.46,0,0,1,.48,1.88c-.07.18-.13.35-.19.53a16.65,16.65,0,0,1-.88,1.92c-.46.86-1.29,2.68-2.18,3.09l-1.55.14a4,4,0,0,1,.17-2.12,10.7,10.7,0,0,1,1-2.12,26.71,26.71,0,0,1,2-3c.25-.34-.26-.65-.54-.42-1.87,1.5-3.75,4.73-3.65,7.19.08,2,1.73,2.63,3.16,1.27a14,14,0,0,0,3.76-7c.22-1.19-.65-3-1.94-1.73"/><path class="cls-1" d="M240.15,50.53A2.34,2.34,0,0,0,243,48.85a2,2,0,0,0-1.58-2.22,4,4,0,0,0-2.4,1.42A1.52,1.52,0,0,0,240.15,50.53Z"/><path class="cls-1" d="M239.15,62a3.3,3.3,0,0,0,2.93,4.52c2.25.18,5-.77,5.22-3.33.21-2.29-1.26-3.25-3-3.8C242.26,59.26,239.93,60,239.15,62Z"/><path class="cls-1" d="M258.07,51.54a1,1,0,0,1,.22,1.37.73.73,0,0,1-.13.85c-8.55,9.34-1,22.31,8.34,27.53s20.24,3.85,28.75-2.19a1.22,1.22,0,0,1,1.81,1c-.39,11.88,20.46,11.3,23.15,1.34a1,1,0,0,1,1.48-.6c5.19,2.78,14.67-3.8,18.32-7.23,4.84-4.55,7.12-12.27,2.54-17.83a1.24,1.24,0,0,1,.25-1.9c6.68-5,13.85-17.29,12.33-25.78C353.85,21,349.18,14.46,343.68,10,330.63-.75,311.79.43,299.4,11.51a1.29,1.29,0,0,1-1.82,0C288.42.12,266.81,2.43,257.82,12.7S246.5,42.28,258.07,51.54Zm82,10.89a3.63,3.63,0,0,1,1.28,3.28.35.35,0,0,1-.63.09,12,12,0,0,1-.61-1.43,12,12,0,0,1-.63-1.48C339.38,62.57,339.76,62.21,340.06,62.43Zm-2.14,3.19a.43.43,0,0,1,.86,0,18.65,18.65,0,0,1-.15,3.08.29.29,0,0,1-.56,0A16.65,16.65,0,0,1,337.92,65.62ZM335.1,70c.11-.55.95-.32.84.23a7.18,7.18,0,0,1-.47,1.72.35.35,0,0,1-.65-.17A6.75,6.75,0,0,1,335.1,70Z"/><path class="cls-2" d="M335.57,71.71a2.6,2.6,0,0,1-.1.25.33.33,0,0,1-.53.06,16.92,16.92,0,0,1-13.49.57c-1.49,4.58-6.64,9.66-11.78,8s-7.83-6.55-9.47-11.49c-6.62,7.12-18.82,12.57-28.2,8.56A15.81,15.81,0,0,1,262.45,66c-.43-2.4-.77-5.08.05-7.43.87-2.5,2.3-4.74,3-7.27-9.46-3.34-13.9-10.48-15.3-18.9-.28,7.3,2,14.47,7.83,19.12a1,1,0,0,1,.22,1.37.73.73,0,0,1-.13.85c-8.55,9.34-1,22.31,8.34,27.53s20.24,3.85,28.75-2.19a1.22,1.22,0,0,1,1.81,1c-.39,11.88,20.46,11.3,23.15,1.34a1,1,0,0,1,1.48-.6c5.19,2.78,14.67-3.8,18.32-7.23,4-3.72,6.21-9.57,4.38-14.62A16,16,0,0,1,335.57,71.71Z"/><path d="M346.42,9.17a36.45,36.45,0,0,0-47.93-.37C288-2.5,265.65,0,256.13,11.13s-12,31.87.14,42.1l.07.05c-8.63,8.53-3.13,21.69,5.47,28.16a28.54,28.54,0,0,0,32.91.86c2.12,11.89,22.77,11.74,26.95.81,6.75,2.38,16.67-4.52,20.82-9.11,4.74-5.23,6.26-12.83,2.42-18.79a31,31,0,0,0,7.39-9.35c2.26-4.07,4.86-8.58,5.29-13.32.8-8.72-4.93-17.76-11.17-23.37m-3.75,44.75a1.24,1.24,0,0,0-.24,1.9c4.58,5.56,2.3,13.28-2.54,17.83-3.65,3.43-13.13,10-18.33,7.23a1,1,0,0,0-1.48.6c-2.68,10-23.53,10.54-23.15-1.34a1.21,1.21,0,0,0-1.8-1c-8.51,6-19.46,7.38-28.75,2.19S249.49,63.1,258,53.76a.72.72,0,0,0,.13-.85,1,1,0,0,0-.21-1.37C246.37,42.28,248.7,23,257.7,12.7S288.29.12,297.45,11.51a1.3,1.3,0,0,0,1.83,0C311.66.43,330.51-.75,343.55,10,349.06,14.46,353.73,21,355,28.14c1.52,8.49-5.66,20.8-12.34,25.78"/><path d="M243.4,57.94a5.85,5.85,0,0,0-6.26,4,5.29,5.29,0,0,0,4.94,6.84c3.69.3,7.62-1.87,7.56-6,0-2.94-3.28-6-6.24-4.86m3.9,5.25c-.23,2.56-3,3.51-5.22,3.33A3.3,3.3,0,0,1,239.15,62c.78-2,3.11-2.74,5.13-2.61,1.76.55,3.23,1.51,3,3.8"/><path d="M241.05,45.15a.71.71,0,0,0-.41.37c-1.64.31-3.13,1-3.63,2.89-.62,2.27,1.3,4,3.43,4.18a4.28,4.28,0,0,0,4.73-3.79,3.37,3.37,0,0,0-4.12-3.65m2,3.7a2.34,2.34,0,0,1-2.89,1.68,1.52,1.52,0,0,1-1.09-2.48,4,4,0,0,1,2.4-1.42A2,2,0,0,1,243,48.85"/><path d="M339.94,62.43c-.3-.22-.68.14-.6.46a13.77,13.77,0,0,0,.64,1.48,10.54,10.54,0,0,0,.6,1.43.36.36,0,0,0,.64-.09,3.63,3.63,0,0,0-1.28-3.28"/><path d="M338.65,65.62a.43.43,0,0,0-.85,0,17.57,17.57,0,0,0,.14,3.08.3.3,0,0,0,.57,0,17.61,17.61,0,0,0,.14-3.08"/><path d="M335,70a7.18,7.18,0,0,0-.28,1.78.35.35,0,0,0,.65.17,6.36,6.36,0,0,0,.47-1.72c.12-.55-.72-.78-.84-.23"/><path class="cls-5" d="M282.87,23.3a29.27,29.27,0,0,0-4.13-1,.49.49,0,0,1-.19-.1,9.34,9.34,0,0,0-7.15,5,7.69,7.69,0,0,0-.95,4.14c.63,3.65,4.6,3.58,7.08,3.05a11,11,0,0,0,6.72-4.41C285.88,27.54,285.87,24.57,282.87,23.3Z"/><path class="cls-9" d="M320.83,39.82h0a7.41,7.41,0,0,0-2,2.51c-2.13,4.38,3.42,5.06,6.19,4.3,2.14-.58,5.42-3.57,3.58-6.18S323.11,38.8,320.83,39.82Z"/><path class="cls-10" d="M293.08,37.26a.67.67,0,0,1-.14-.09c-2.78.49-4.78,2.77-5.73,5.54a10.67,10.67,0,0,0-.85,4.24c.37,2.3,2.44,2.31,4.08,2.34a7.32,7.32,0,0,0,7-4.25c1-1.86,1.7-3.86,0-5.64C296.31,38.16,294.57,37.88,293.08,37.26Z"/><path class="cls-3" d="M310.9,24.08a.78.78,0,0,1-.27-.09c-2.4.59-5.18,2.06-5.54,4.63-.51,3.67,4,3.46,6,2.88a7.9,7.9,0,0,0,4.52-3.28C317.5,25.12,313.09,24.29,310.9,24.08Z"/><path class="cls-11" d="M270.82,43.9c-1.49.24-2.48,1.85-3,3.18-.75,1.91.32,3.68,2.48,3.06a5.09,5.09,0,0,0,3.2-3.06C273.84,46,272.24,44.1,270.82,43.9Z"/><path class="cls-6" d="M330.71,21.8a2.93,2.93,0,0,0-3,2.54,2.83,2.83,0,0,0,.33,2.53c.7.73,1.86.5,2.69.21,1.24-.42,3.22-1.48,3.16-3S332.14,21.88,330.71,21.8Z"/><path d="M280.56,21a10.22,10.22,0,0,0-11.19,6.35c-2.22,5.47.9,9.48,6.65,9.33,4.78-.13,9.85-3.35,11.34-8,1.58-5-2.49-7.72-6.8-7.65m3.69,9a11,11,0,0,1-6.72,4.41c-2.48.53-6.45.6-7.08-3.05a7.69,7.69,0,0,1,.95-4.14,9.34,9.34,0,0,1,7.15-5,.49.49,0,0,0,.19.1,29.27,29.27,0,0,1,4.13,1c3,1.27,3,4.24,1.38,6.64"/><path d="M294.4,35.85c-4.75-.92-8.31,2.84-9.61,7.19-.58,2-1.29,4.77,0,6.6,1.14,1.57,3.34,2,5.16,2.07,5.17.29,9.08-2.94,10.51-7.86a6.37,6.37,0,0,0-6.1-8m3,9.19a7.32,7.32,0,0,1-7,4.25c-1.64,0-3.71,0-4.08-2.34a10.67,10.67,0,0,1,.85-4.24c1-2.77,3-5.05,5.73-5.54a.67.67,0,0,0,.14.09c1.49.62,3.23.9,4.38,2.14,1.65,1.78,1,3.78,0,5.64"/><path d="M310.73,22.8h0c-3.53.39-7,2.26-7.45,6.21s4,5.4,7.23,4.92,7.61-3.24,7.86-6.95-4.74-5.26-7.62-4.19m4.84,5.42a7.9,7.9,0,0,1-4.52,3.28c-2,.58-6.47.79-6-2.88.36-2.57,3.14-4,5.54-4.63a.78.78,0,0,0,.27.09c2.19.21,6.6,1,4.67,4.14"/><path d="M335.81,23.8c-.38-3-3.42-4.16-5.95-3.15a3.52,3.52,0,0,0-2.19.65,5.28,5.28,0,0,0-1.86,3.47,3.81,3.81,0,0,0,4.76,4.49c2.5-.52,5.6-2.55,5.24-5.46m-5.08,3.28c-.83.29-2,.52-2.69-.21a2.83,2.83,0,0,1-.33-2.53,2.93,2.93,0,0,1,3-2.54c1.43.08,3.12.61,3.18,2.26s-1.92,2.6-3.16,3"/><path d="M330.67,39.74c-2.22-3.56-7.93-4.1-10.68-1a.76.76,0,0,0-.19.51c-2,1.45-3.6,3.6-3.09,6,.86,4.12,7,4.2,10,3s5.86-5.5,4-8.54M325,46.64c-2.77.76-8.32.08-6.19-4.3a7.41,7.41,0,0,1,2-2.51h0c2.28-1,6-1.89,7.76.64s-1.44,5.6-3.58,6.18"/><path d="M275.43,45c-.88-1.52-4.48-3.68-6-2.15-1.8.68-3.16,2.85-3.57,4.7-.72,3.16,2.26,5.31,5.19,4.48,2.47-.71,6-4.27,4.36-7m-1.93,2.11a5.09,5.09,0,0,1-3.2,3.06c-2.16.62-3.23-1.15-2.48-3.06.52-1.33,1.51-2.94,3-3.18,1.42.2,3,2.07,2.68,3.18"/><path class="cls-1" d="M321.7,105.58a6.74,6.74,0,0,0-2.36-.71,16.2,16.2,0,0,1-2-.65,4.27,4.27,0,0,0-1.59,3.78c.19,2.21,2.62,2.63,4.34,1.74C321.13,109.18,323.1,106.73,321.7,105.58Z"/><path class="cls-1" d="M333.92,109.29a1.29,1.29,0,0,1-1.33,1.46.65.65,0,0,1-.22.38c-7.84,6.41-7.78,20.53-2.56,28.52,6.45,9.9,19,11.75,29.84,9.95a1.28,1.28,0,0,1,1.55.88c2.36,8.47,17.71,4.91,23.56,2.92a40.43,40.43,0,0,0,17.86-12.13c8.4-10,15-29.74,4.08-40.27a1.39,1.39,0,0,1-.21-1.67c7-10-2-23.42-11.07-28.53C385.13,65,371.72,68,365.75,78.42a1.32,1.32,0,0,1-2,.26c-6.48-5.3-18.5.93-23.19,6C334.34,91.29,332.61,100.55,333.92,109.29Zm13.49-27.88c1.87-.47,4.18-.41,5.67,1,.23.21,0,.55-.29.49a16.55,16.55,0,0,0-5.28-.71C347.08,82.2,347,81.51,347.41,81.41Zm-2.06,2.51a3.16,3.16,0,0,1,2.63,1,.33.33,0,0,1-.37.47,10.49,10.49,0,0,0-2.26-.74A.38.38,0,0,1,345.35,83.92ZM342,89.31a6.05,6.05,0,0,1,1,1c.24.34-.21.67-.52.52a5.75,5.75,0,0,1-1.12-.84C340.92,89.57,341.56,88.94,342,89.31Z"/><path class="cls-2" d="M387.42,140.27c-1.17,4.62-4.25,9-9.74,7.4-5.17-1.54-9.2-5.79-11.46-10.6-7.81,5.67-19.56,9.44-28.7,5-5-2.44-9.22-7.14-10.07-12.83-.73-4.87.15-9.48,1.49-14-4.21,7.16-3.42,17.87.87,24.45,6.45,9.9,19,11.75,29.84,9.95a1.28,1.28,0,0,1,1.55.88c2.36,8.47,17.71,4.91,23.56,2.92a40.43,40.43,0,0,0,17.86-12.13,43.68,43.68,0,0,0,6.8-11.48C404.42,136.14,394.87,145.39,387.42,140.27Z"/><path d="M409.3,99.86c6.83-11.15-2.5-25.83-12.59-31.47-11.19-6.25-25.66-3.3-32.61,7.53-7.25-4.26-18.13.48-23.71,5.56-7.86,7.14-10.45,18.09-8.86,28.3a.62.62,0,0,0-.24.1c-9.44,6.1-9.33,21.5-4.09,30.34,6.58,11.08,19.95,13.63,31.82,12,2.66,6.57,11.49,6.36,17.58,5.61a43.61,43.61,0,0,0,25.57-12.49c10.47-10.64,18.74-32.86,7.13-45.46M384.64,153.4c-5.85,2-21.21,5.55-23.56-2.92a1.29,1.29,0,0,0-1.55-.88c-10.81,1.8-23.39,0-29.85-9.95-5.21-8-5.27-22.11,2.57-28.52a.65.65,0,0,0,.22-.38,1.28,1.28,0,0,0,1.32-1.46c-1.3-8.74.43-18,6.6-24.64,4.7-5,16.72-11.27,23.2-6a1.32,1.32,0,0,0,2-.26C371.59,68,385,65,395.3,70.8c9.1,5.11,18,18.5,11.06,28.53a1.39,1.39,0,0,0,.22,1.67c10.91,10.53,4.32,30.31-4.08,40.27a40.49,40.49,0,0,1-17.86,12.13"/><path d="M318.38,102.89c-2.45-.26-4.07,2.08-4.37,4.44-.38,3.07,1.86,5.1,4.9,4.9a5.86,5.86,0,0,0,5.45-5.86c-.05-3-3.36-3.69-6-3.48m1.67,6.85c-1.72.89-4.15.47-4.34-1.74a4.27,4.27,0,0,1,1.59-3.78,16.2,16.2,0,0,0,2,.65,6.74,6.74,0,0,1,2.36.71c1.4,1.15-.57,3.6-1.65,4.16"/><path d="M353,82.37c-1.49-1.37-3.8-1.43-5.67-1-.4.1-.33.79.1.74a16.55,16.55,0,0,1,5.28.71.3.3,0,0,0,.29-.49"/><path d="M347.85,84.94a3.15,3.15,0,0,0-2.63-1,.38.38,0,0,0,0,.75,10.4,10.4,0,0,1,2.27.74c.26.08.53-.24.36-.47"/><path d="M342.89,90.26a5.75,5.75,0,0,0-1-1c-.44-.37-1.07.26-.63.63a6.14,6.14,0,0,0,1.13.84c.3.15.76-.18.52-.52"/><path d="M390,101a8.74,8.74,0,0,0-.24-12.72c-4.7-4.45-11.25-3.49-16.45-.64-1.92-11-18.12-4.2-17.4,5.32a.88.88,0,0,0-.26.06c-10.31,4.64-5,24.8,5.89,24.68,1.12,4,4.72,6.18,8.91,6,5.15-.14,8.2-2.84,9.57-7.39,4.83.82,9,1.49,12.21-3.62,2.55-4.08.89-8.64-2.23-11.74m.18,10.46c-2.41,3.91-6.71,3.21-10.68,2.56a1.15,1.15,0,0,0-1.37.78c-.94,3.91-3.12,6.31-7.09,6.63-3.75.3-6.87-1.24-7.6-5.14a1.11,1.11,0,0,0-1.33-.75c-9.77,1.38-14.25-17.19-5.64-21.11a.67.67,0,0,0,.41-.5.48.48,0,0,0,.17-.37c0-3.39,1.9-5.71,4.4-7.64a8.81,8.81,0,0,1,3.78-2.15q6.72.33,6.19,5.58a1,1,0,0,0,1.56.9c3.16-2,6.8-3.53,10.59-2.73,5.46,1.15,10.26,8,4.25,12.53a1.11,1.11,0,0,0-.22,1.72c2.92,2.47,4.86,6,2.58,9.69"/><path class="cls-1" d="M387.63,101.76a1.11,1.11,0,0,1,.22-1.72c6-4.48,1.21-11.38-4.25-12.53-3.79-.8-7.43.73-10.59,2.73a1,1,0,0,1-1.56-.9q.54-5.25-6.19-5.58a8.81,8.81,0,0,0-3.78,2.15c-2.5,1.93-4.42,4.25-4.4,7.64a.48.48,0,0,1-.17.37.67.67,0,0,1-.41.5c-8.61,3.92-4.13,22.49,5.64,21.11a1.11,1.11,0,0,1,1.33.75c.73,3.9,3.85,5.44,7.6,5.14,4-.32,6.15-2.72,7.09-6.63a1.15,1.15,0,0,1,1.37-.78c4,.65,8.27,1.35,10.68-2.56C392.49,107.76,390.55,104.23,387.63,101.76Z"/><path class="cls-12" d="M389,108.41c-3.09,1.6-7.24,2.11-9.84-.18-2,3.78-5.91,8.34-10.61,6.9-3.79-1.16-4.72-4.67-5.14-8.19-3.4,1.14-7.31.83-9.51-2.5a10.6,10.6,0,0,1-1.67-4.25c-1.49,6.79,2.81,16.34,9.91,15.34a1.11,1.11,0,0,1,1.33.75c.73,3.9,3.85,5.44,7.6,5.14,4-.32,6.15-2.72,7.09-6.63a1.15,1.15,0,0,1,1.37-.78c4,.65,8.27,1.35,10.68-2.56a6,6,0,0,0,.89-4.42A11.73,11.73,0,0,1,389,108.41Z"/><path class="cls-1" d="M413,256c-.92-.67-2.34-.26-3.38-.29a.58.58,0,0,1-.19,0,2.78,2.78,0,0,0-.47,1.09,1.36,1.36,0,0,0,.94,1.62,3.5,3.5,0,0,0,2.8-.06A1.35,1.35,0,0,0,413,256Z"/><path class="cls-1" d="M310.69,261.27a6.89,6.89,0,0,0-2.83,2.73,3.56,3.56,0,0,0-.58,2.75c.5,1.22,2.09,1,3.07.78,1.68-.43,3.42-1.73,3.36-3.62S312.22,261.52,310.69,261.27Z"/><path class="cls-1" d="M401.91,279.51a1.14,1.14,0,0,1-1.09-1.44c3.26-11.73-8.08-22.25-18.2-25.75a31.76,31.76,0,0,0-16.74-1c-5.4,1.09-13.4,3.93-15.24,9.76h0a1.24,1.24,0,0,1-.9,2c-6.69.05-13.67-.57-19.72,2.82-4.9,2.74-8.62,7.22-11.35,12.05-3.1,5.48-5.35,11.84-4.3,18.22a36.83,36.83,0,0,0,7.9,17.27,14.62,14.62,0,0,0,10.21,5.13c1.14.12,2-.09,3,.58,1.86,1.22,2.57,3.91,4,5.52a20.79,20.79,0,0,0,6.84,5c6.64,3.06,14.93,3.23,22.06,2.12,6.26-1,15.56-3.88,15.73-11.53a1.39,1.39,0,0,1,1.73-1.32c10.17,1.66,20.67-3.07,25.4-12.41C415.58,298,415.23,279.23,401.91,279.51Zm2.83,24.19c-.05.27-.53.28-.57,0a6.32,6.32,0,0,0-.6-2.25c-.23-.41.41-.78.62-.36A4.19,4.19,0,0,1,404.74,303.7Zm1.32-5.57c-.31-.48-.5-1-.81-1.53a5.89,5.89,0,0,0-1.19-1.35c-.41-.35.17-.9.57-.58A5,5,0,0,1,406.7,298,.35.35,0,0,1,406.06,298.13Zm1.83-4.35a23.22,23.22,0,0,0-4.8-4.21.42.42,0,0,1,.43-.73,9.81,9.81,0,0,1,4.86,4.56C408.51,293.71,408.16,294.05,407.89,293.78Z"/><path class="cls-2" d="M413,299.47c-5.45,8.13-17.1,18.67-27.11,12.22-3.88,8.1-11.48,14.56-20.51,16-7.75,1.21-16.08-1-20.75-7.68a22.33,22.33,0,0,1-3.16-6.42c-.19-.65-.64-4.28-1.38-4.35-1.16-.09-2.32-.19-3.47-.36-4.73-.68-9.83-2.05-13.14-5.75-6.76-7.57-6.87-17.05-4.3-26-.17.28-.35.57-.51.86-3.1,5.48-5.35,11.84-4.3,18.22a36.83,36.83,0,0,0,7.9,17.27,14.62,14.62,0,0,0,10.21,5.13c1.14.12,2-.09,3,.58,1.86,1.22,2.57,3.91,4,5.52a20.79,20.79,0,0,0,6.84,5c6.64,3.06,14.93,3.23,22.06,2.12,6.26-1,15.56-3.88,15.73-11.53a1.39,1.39,0,0,1,1.73-1.32c10.17,1.66,20.67-3.07,25.4-12.41a24.18,24.18,0,0,0,2.22-7.84C413.34,298.93,413.18,299.2,413,299.47Z"/><path class="cls-1" d="M415.75,263.91a.55.55,0,0,1-.37.08c-2-.26-4.82,2.13-4.28,4.38.48,2,3.52,2.58,5.08,1.81a3.33,3.33,0,0,0-.43-6.27Z"/><path d="M403.28,277.29c3.05-12.63-9-23.7-20.11-27.42A34.05,34.05,0,0,0,362,249.8c-5.31,1.73-11.91,4.77-13,10.8v0c-7.24,0-14.51-.39-20.93,3.47a34.38,34.38,0,0,0-12,13.22c-3.24,6-5.41,12.68-4.24,19.51,1.13,6.59,4.48,14.14,9.05,19a16.48,16.48,0,0,0,8,5c.14,0,3.44.35,3.52.38,2.56.87,2.8,2.34,4.24,4.2,4.14,5.38,10.69,8.15,17.25,9.09,9.86,1.42,31,.39,32.78-12.75,12.1,1.31,23.88-5.17,28.09-17,3.47-9.75,1-26.47-11.44-27.48m7.88,29.21c-4.73,9.34-15.24,14.07-25.4,12.41a1.39,1.39,0,0,0-1.73,1.32c-.17,7.65-9.47,10.55-15.74,11.53-7.13,1.11-15.42.94-22.05-2.12a20.68,20.68,0,0,1-6.84-5c-1.44-1.61-2.15-4.3-4-5.52-1-.67-1.9-.46-3-.58a14.6,14.6,0,0,1-10.21-5.13,36.94,36.94,0,0,1-7.91-17.27c-1.05-6.38,1.21-12.74,4.31-18.22,2.72-4.83,6.45-9.31,11.35-12.05,6.05-3.39,13-2.77,19.72-2.82a1.24,1.24,0,0,0,.9-2h0c1.84-5.83,9.84-8.67,15.24-9.76a31.76,31.76,0,0,1,16.74,1c10.12,3.5,21.46,14,18.19,25.75a1.15,1.15,0,0,0,1.1,1.44c13.32-.28,13.67,18.5,9.37,27"/><path d="M315.91,263.7c-.23-3.43-3.17-4.82-6.18-3.76a.63.63,0,0,0-.4.38,7,7,0,0,0-4,4.45c-1,3.5,1.84,5.54,5.09,4.94,2.9-.53,5.67-2.86,5.47-6m-5.56,3.83c-1,.25-2.57.44-3.07-.78a3.56,3.56,0,0,1,.58-2.75,6.89,6.89,0,0,1,2.83-2.73c1.53.25,2.95.78,3,2.64s-1.68,3.19-3.36,3.62"/><path d="M420.33,266.21c-.35-2.54-3.58-5.76-6.24-4a.59.59,0,0,0-.25.32,5.82,5.82,0,0,0-4.76,5.06c-.38,3.33,3.57,5.41,6.45,5a5.75,5.75,0,0,0,4.8-6.36m-4.15,4c-1.56.77-4.6.16-5.08-1.81-.54-2.25,2.28-4.64,4.28-4.38a.55.55,0,0,0,.37-.08,3.33,3.33,0,0,1,.43,6.27"/><path d="M415.42,255.84c-.73-1.73-2.6-2.14-4.28-1.79a.63.63,0,0,0-.27-.14c-2.15-.53-3.95,1.86-3.66,3.87.33,2.29,3.22,3.21,5.21,2.83s3.92-2.58,3-4.77m-2.75,2.49a3.5,3.5,0,0,1-2.8.06,1.36,1.36,0,0,1-.94-1.62,2.78,2.78,0,0,1,.47-1.09.58.58,0,0,0,.19,0c1,0,2.46-.38,3.38.29a1.35,1.35,0,0,1-.3,2.32"/><path d="M408.26,293.4a9.79,9.79,0,0,0-4.87-4.56.42.42,0,0,0-.42.73,23.48,23.48,0,0,1,4.8,4.21c.27.27.62-.07.49-.38"/><path d="M404.51,294.67c-.4-.32-1,.23-.58.58a5.93,5.93,0,0,1,1.2,1.35c.3.49.49,1,.8,1.53a.35.35,0,0,0,.65-.18,5.08,5.08,0,0,0-2.07-3.28"/><path d="M404.07,301.09c-.22-.42-.85,0-.63.36a6.55,6.55,0,0,1,.61,2.25c0,.28.52.27.57,0a4.19,4.19,0,0,0-.55-2.61"/><path class="cls-13" d="M367.33,281.49a8.15,8.15,0,0,0-2.22-.84l-.11,0c-4,.11-7.32,4.59-7.1,8.46a25.1,25.1,0,0,1,8.24-4C366.53,283.94,366.93,282.72,367.33,281.49Z"/><path class="cls-14" d="M372.14,274.52c-.71,2.39-1.45,4.76-2.21,7.13a11.35,11.35,0,0,1,3,5.13c1.32,5.1-2.21,9.16-7.31,9.85-.25,0-.51.05-.76.07-1.57,3.2-4,5.72-7.89,3.76s-3.49-6.65-1-9.55a7.92,7.92,0,0,1-.25-2.26c.15-3.59,3.92-9.28,8-9.2a6.47,6.47,0,0,1,4.06.64q1.07-3.29,2.19-6.55l.74-2.11.6-1.62c-4.05-1.06-8.67-.54-13.07.89a.51.51,0,0,1-.16.09c-9.91,3.47-14.87,14.46-12.19,24.45,3.29,12.28,16,13.08,25.9,8.24a19.23,19.23,0,0,0,9.35-24.71,17.55,17.55,0,0,0-1.7-3.2A17.83,17.83,0,0,1,372.14,274.52Z"/><path class="cls-13" d="M370.48,284.92a8.36,8.36,0,0,0-1.07-1.67c-.12.39-.24.79-.37,1.18l-.86,2.65c-.42,1.29-.83,2.58-1.24,3.87-.3.94-.65,2.11-1.09,3.31l.63-.14C370.91,292.92,372.44,288.92,370.48,284.92Z"/><path class="cls-1" d="M359.4,279a8.86,8.86,0,0,1-1.66-2.37,5.17,5.17,0,0,0-2.58-2.28c-1.82-.67-2.59,2.23-.79,2.89.49.18,1.05,1.33,1.38,1.86a8.25,8.25,0,0,0,2.13,2.49,1.51,1.51,0,0,0,2.06-.54A1.54,1.54,0,0,0,359.4,279Z"/><path class="cls-1" d="M362.31,276.86a27.63,27.63,0,0,0-2.12-4.12c-1.08-1.59-3.68-.09-2.59,1.51a27.74,27.74,0,0,1,2.12,4.13,1.51,1.51,0,0,0,2,.54A1.54,1.54,0,0,0,362.31,276.86Z"/><path class="cls-1" d="M366.29,271.92a1.54,1.54,0,0,0-1.85,1.05c-.11.41-.13.84-.25,1.25a1.5,1.5,0,0,0,2.9.8c.11-.41.13-.84.25-1.25A1.53,1.53,0,0,0,366.29,271.92Z"/><path class="cls-1" d="M373,300.19a16,16,0,0,1-1.39-2.08,1.5,1.5,0,0,0-2.59,1.52,19.71,19.71,0,0,0,1.86,2.68,1.51,1.51,0,0,0,2.12,0A1.53,1.53,0,0,0,373,300.19Z"/><path class="cls-1" d="M368.71,302.47l-.37-1.12a1.5,1.5,0,0,0-2.9.79l.38,1.13a1.53,1.53,0,0,0,1.84,1.05A1.51,1.51,0,0,0,368.71,302.47Z"/><path class="cls-1" d="M352,283c-1.13-.14-2.25-.37-3.38-.5a1.5,1.5,0,0,0-1.5,1.5,1.54,1.54,0,0,0,1.5,1.5c1.13.13,2.25.36,3.38.5a1.51,1.51,0,0,0,1.5-1.5A1.53,1.53,0,0,0,352,283Z"/><path d="M391.63,268.59a25.53,25.53,0,0,1-13.49-3,19.83,19.83,0,0,1-3-2.24l-.91-.77-.81,1.91c-.95,2.3-1.83,4.64-2.67,7l-.74,2.11c-1.33,3.86-2.58,7.75-3.83,11.62a22.93,22.93,0,0,0-9.74,5.26c-2.88,2.84-3.71,7.92.54,10,6.33,3.16,8.67-5.33,10-9.51.41-1.29.82-2.58,1.24-3.87l.86-2.65c1.06-3.29,2.12-6.59,3.1-9.91,6.73,2.52,14.64.52,20.19-4.24a1,1,0,0,0-.7-1.69"/><path d="M382.68,277.3c-4.71-10.72-16.51-11.43-26-7.27-10.8,2.82-15.55,15.44-12.83,25.76,3.39,12.86,16.45,14.92,27.41,10.17,6.2-2.69,9.89-7,12.39-13.29,2.12-5.35,1.26-10.2-1-15.37m-10.89,26.18c-9.94,4.84-22.61,4-25.9-8.24-2.68-10,2.28-21,12.19-24.45a.51.51,0,0,0,.16-.09c8.92-2.9,18.75-2.08,22.9,8.07a19.23,19.23,0,0,1-9.35,24.71"/><path d="M372.9,286.78c-1.06-4.09-4.8-8.1-9.18-7.33-4.1-.08-7.87,5.61-8,9.2-.22,5.38,4.92,8.66,9.89,8s8.63-4.75,7.31-9.85m-6.42,7.34c-3.6,1-8.14-.57-8.57-4.7-.4-3.94,3-8.64,7.09-8.75l.11,0a7.58,7.58,0,0,1,5.37,4.27c2,4,.43,8-4,9.2"/><path class="cls-1" d="M365.09,355.56a3.79,3.79,0,0,0-1.76,2.49c-.21,1.61,2.11,1,2.92.7s2.06-1.3,1.39-2.33C367.22,355.77,365.88,355.61,365.09,355.56Z"/><path class="cls-1" d="M353.11,363a1.15,1.15,0,0,1-.79-1.38c6.12-25.57-36.21-39-49.23-18.26a1.35,1.35,0,0,1-.41.69.35.35,0,0,0-.05.08.59.59,0,0,1-1,.06l-.19-.1c-7.86-5.18-20.92-5.37-28,1.58-4.8,4.74-14.32,21.45-7.47,27.08a1.23,1.23,0,0,1,0,1.73c-4.88,3.94-6.92,13.06-7.4,19.07A27.64,27.64,0,0,0,263.21,411c7.86,11.81,23.57,14.94,35.84,8.36a1.27,1.27,0,0,1,1.48.19c4.38,3.78,8.77,7.35,14.66,8.25,5.13.78,10.49-.06,15.51-1.26s9.84-3,13.75-6.28,7.69-8.86,4.16-13.55c-.61-.81.24-1.76,1.05-1.83C370.7,403,372.8,368.69,353.11,363Zm-40.85-25.58a17,17,0,0,1-1,1.56,8.66,8.66,0,0,0-.78,1.79c-.19.58-1.11.33-.92-.26a6.57,6.57,0,0,1,2.18-3.59C312.1,336.69,312.41,337.1,312.26,337.41Zm3-.15c-.52,1.05-1.26,2-1.74,3.06-.19.44-.84.05-.65-.39a8.09,8.09,0,0,1,1.94-3A.29.29,0,0,1,315.25,337.26Zm45.4,55.11c0,.3-.5.25-.57,0a6.68,6.68,0,0,0-.73-1.89c-.27-.4.38-.78.65-.38A3.49,3.49,0,0,1,360.65,392.37Zm1.05-6.84a4.88,4.88,0,0,0-2.05-2.91.4.4,0,0,1,.41-.69,4.11,4.11,0,0,1,2.16,3.53A.27.27,0,0,1,361.7,385.53Zm.61-4.74c0,.31-.41.37-.55.15a4.51,4.51,0,0,0-3.25-2.33c-.57-.05-.59-.93,0-.9A3.79,3.79,0,0,1,362.31,380.79Z"/><path class="cls-1" d="M298,327a5.64,5.64,0,0,0-2.14,2.44c-1,2.16.76,3.86,2.9,3.27,1.43-.39,3.7-2.13,3.32-3.87S299.27,327.24,298,327Z"/><path class="cls-1" d="M308.82,325.43c.44.68,1.49.58,2.1.26a1.56,1.56,0,0,0-.54-3C309.55,322.83,308.28,324.61,308.82,325.43Z"/><path class="cls-2" d="M349.66,404.85c8.2-.73,13.51-6.39,15.79-13.36-5.59,6-13.76,10.29-21.89,8-1.85,12.1-9.95,20.81-22.67,21.78-13,1-20.43-7.51-23.79-19-7.42,6-19.71,7-28.1,2.72-5-2.54-9.23-7.42-9.47-13.28a29.27,29.27,0,0,1,1.64-9.93,43.41,43.41,0,0,0-2.58,11.76A27.64,27.64,0,0,0,263.21,411c7.86,11.81,23.57,14.94,35.84,8.36a1.27,1.27,0,0,1,1.48.19c4.38,3.78,8.77,7.35,14.66,8.25,5.13.78,10.49-.06,15.51-1.26s9.84-3,13.75-6.28,7.69-8.86,4.16-13.55C348,405.87,348.85,404.92,349.66,404.85Z"/><path d="M354.61,361.21c5.83-26.39-40.12-42.84-52.45-19.35-9.2-6.08-24.16-5.29-31.58,3.32-4.83,5.59-13.71,21.23-7.37,28.38-4.43,4.35-6.12,12.09-7,17.93a29.61,29.61,0,0,0,36.52,32.9c1.6-.39,3.07-1.14,4.65-1.58,2.24-.63,1.88-.61,3.7.51,2.92,1.79,5.23,4.16,8.49,5.5,7,2.89,15.24,1.68,22.37-.13,8-2,25.35-11.17,19.59-21.7,21.62-4,23.32-38.16,3-45.78m-5.07,43.64c-.81.07-1.66,1-1.05,1.83,3.53,4.69-.4,10.4-4.16,13.55s-8.86,5.11-13.75,6.28-10.38,2-15.52,1.26c-5.88-.9-10.27-4.47-14.65-8.25a1.27,1.27,0,0,0-1.48-.19c-12.27,6.58-28,3.45-35.84-8.36a27.71,27.71,0,0,1-4.63-17.43c.49-6,2.52-15.13,7.41-19.07a1.23,1.23,0,0,0,0-1.73c-6.85-5.63,2.67-22.34,7.47-27.08,7-7,20.1-6.76,28-1.58l.18.1a.59.59,0,0,0,1-.06.35.35,0,0,0,.05-.08,1.3,1.3,0,0,0,.42-.69c13-20.78,55.35-7.31,49.23,18.26A1.14,1.14,0,0,0,353,363c19.68,5.7,17.59,40-3.45,41.86"/><path d="M304.33,328.89c-.28-3.25-4-4.34-6.62-3.17l0,0a6.2,6.2,0,0,0-4,4.77c-.34,2.84,2.44,4.82,5.09,4.43s5.82-3.12,5.57-6.06m-5.62,3.85c-2.14.59-3.9-1.11-2.9-3.27A5.64,5.64,0,0,1,298,327c1.32.21,3.72.17,4.08,1.84s-1.89,3.48-3.32,3.87"/><path d="M313.65,322.62a3,3,0,0,0-4.7-1,.71.71,0,0,0-.1.14,3.93,3.93,0,0,0-2,4.09c.59,2,3.07,2.56,4.79,1.83a3.79,3.79,0,0,0,2-5.1m-2.73,3.07c-.61.32-1.66.42-2.1-.26s.73-2.6,1.56-2.73a1.56,1.56,0,0,1,.54,3"/><path d="M370,356.51c-.34-2.35-2.55-2.85-4.47-2.38-1.9-.19-3.5,1.58-4.08,3.4-.87,2.72,2,4,4.22,3.64s4.7-2.06,4.33-4.66m-3.73,2.24c-.81.32-3.13.91-2.92-.7a3.79,3.79,0,0,1,1.76-2.49c.79.05,2.13.21,2.55.86.67,1-.57,2-1.39,2.33"/><path d="M358.39,377.71c-.59,0-.57.85,0,.9a4.51,4.51,0,0,1,3.25,2.33c.14.22.58.16.55-.15a3.79,3.79,0,0,0-3.8-3.08"/><path d="M359.93,381.93c-.44-.27-.84.42-.4.69a4.92,4.92,0,0,1,2.05,2.91.27.27,0,0,0,.52-.07,4.12,4.12,0,0,0-2.17-3.53"/><path d="M359.88,390.1c-.27-.4-.92,0-.65.38a6.37,6.37,0,0,1,.72,1.89c.08.25.53.3.57,0a3.43,3.43,0,0,0-.64-2.27"/><path d="M311.64,336.91a6.52,6.52,0,0,0-2.19,3.59c-.18.59.74.84.93.26a8.66,8.66,0,0,1,.78-1.79c.3-.53.73-1,1-1.56.15-.31-.16-.72-.5-.5"/><path d="M314.67,336.91a8.06,8.06,0,0,0-1.93,3c-.19.44.46.83.65.39.48-1.09,1.22-2,1.74-3.06a.29.29,0,0,0-.46-.35"/><path class="cls-10" d="M309.83,353.48c-11.18,2.73-20.25,10.49-27.36,19.25-5.27,6.49-10.3,13.66-13.51,21.49,1.42-.05,2.85-.06,4.27-.07a81.67,81.67,0,0,1,13.58-21c5.45-6.25,11.67-11.51,19.78-13.83A29.44,29.44,0,0,1,328,361.1a26.24,26.24,0,0,1,13.22,15.36c1.28,4.24,1.21,8.8,1.08,13.18,0,.42-.05.83-.06,1.24.66,0,1.33-.1,2-.12.76-8.7.06-17.76-4.58-25.13C333.64,356.06,320.72,350.83,309.83,353.48Z"/><path class="cls-3" d="M308.32,366.65c-13.08,4.14-22.07,15.35-27.53,27.49h4.51c4.85-14.31,17.27-28.17,33.41-27.2,8.11.49,12.64,7.17,14,14.62a44,44,0,0,1,.78,10.15l2.87-.32c.13-6.64-.91-13.29-5.32-18.57C325.38,366.11,316.55,364,308.32,366.65Z"/><path class="cls-5" d="M301.89,362.52c-7,3.3-12.42,9.16-17.15,15.17a111.35,111.35,0,0,0-10.45,16.44h5.63a49.82,49.82,0,0,1,8.43-14.89c7.64-9.34,21-18.09,33.49-14.08a22.44,22.44,0,0,1,13.37,11.94,28.58,28.58,0,0,1,2.22,14.19c1.17-.13,2.34-.24,3.51-.34,0-.91.07-1.83.08-2.75.05-4.62-.08-9.32-1.92-13.63C332.91,360.1,315.3,356.21,301.89,362.52Z"/><path d="M341.64,364.47c-5.58-8.94-17.48-15-28-13.87-12.14,1.3-22.68,9.12-30.5,18-6.34,7.24-13.24,16.09-16.3,25.66l-.46,1.59,1.9.05,4.21.06h.79l6,.06h.66l2.27,0,2.45.07,1.55.06.81-2.09c4.59-11.1,12.54-20.93,24.65-24.16,9.38-2.5,16.75,1.63,18.75,11.3a36.11,36.11,0,0,1,.67,10.68l-.25,1.91,2.43-.12,3-.2,1,0c1.19-.06,2.39-.09,3.59-.12l1.29,0,1.86,0,2.37-.08.31-2.51c.9-9.1-.34-18.8-5-26.28m-5.3,26.93-2.87.32a44,44,0,0,0-.78-10.15c-1.34-7.45-5.87-14.13-14-14.62-16.14-1-28.56,12.89-33.41,27.2h-4.51c5.46-12.14,14.45-23.35,27.53-27.49,8.23-2.61,17.06-.54,22.7,6.18,4.41,5.28,5.45,11.93,5.32,18.57m4.68-3.2c0,.92,0,1.84-.08,2.75-1.17.1-2.34.21-3.51.34a28.58,28.58,0,0,0-2.22-14.19,22.44,22.44,0,0,0-13.37-11.94c-12.51-4-25.85,4.74-33.49,14.08a49.82,49.82,0,0,0-8.43,14.89h-5.63a111.35,111.35,0,0,1,10.45-16.44c4.73-6,10.13-11.87,17.15-15.17,13.41-6.31,31-2.42,37.21,12.05,1.84,4.31,2,9,1.92,13.63m3.22,2.56c-.67,0-1.34.08-2,.12,0-.41.05-.82.06-1.24.13-4.38.2-8.94-1.08-13.18A26.24,26.24,0,0,0,328,361.1a29.44,29.44,0,0,0-21.41-1.75c-8.11,2.32-14.33,7.58-19.78,13.83a81.67,81.67,0,0,0-13.58,21c-1.42,0-2.85,0-4.27.07,3.21-7.83,8.24-15,13.51-21.49,7.11-8.76,16.18-16.52,27.36-19.25,10.89-2.65,23.81,2.58,29.83,12.15,4.64,7.37,5.34,16.43,4.58,25.13"/><path class="cls-1" d="M106.81,361.29c5-9.9,7.17-20.94-.81-30-7-7.91-18.33-8.32-27.13-3.45a1.25,1.25,0,0,1-1.94.51c-10.78-8.86-29.59-7.33-41.06-.68C25,334,14.72,350,22,362.42a1.22,1.22,0,0,1-.19,1.44c-7.75,7.72-11,18.74-7.8,29.35s13.85,20.92,25.46,15.66a1.29,1.29,0,0,1,1.71.45c2.45,4.24,5.05,8.82,9.61,11.09,4.35,2.16,9.51,1.87,14.14,1,9.24-1.71,21.68-5.73,22.78-16.68a1.25,1.25,0,0,1,1.55-1.18c10.62,2.74,20.45-4.07,23.49-14.25,2.83-9.47-.37-19-5.92-26.79A1.23,1.23,0,0,1,106.81,361.29Zm-5.46,35.26c-.13.33-.69.32-.67-.09a36.47,36.47,0,0,0,.18-4.67c0-.61.89-.6.94,0A10.66,10.66,0,0,1,101.35,396.55ZM105,393c0,.34-.59.32-.65,0a20,20,0,0,0-1.22-4.87c-.22-.49.5-.92.74-.43A9.46,9.46,0,0,1,105,393Zm2.68-1.3c-.28.18-.58-.17-.44-.44.54-1-.64-3.29-1.09-4.24a17.76,17.76,0,0,0-2.25-3.51c-.32-.4.2-1,.59-.58a13.34,13.34,0,0,1,3.21,4.89C108.12,389,108.91,390.92,107.69,391.74Z"/><path class="cls-2" d="M108.32,390.56a1.48,1.48,0,0,1-.63,1.18.29.29,0,0,1-.43-.16,28.93,28.93,0,0,1-5.63,4,7.94,7.94,0,0,1-.28.95c-.13.33-.69.32-.67-.09l0-.39c-5.15,2.54-10.94,3.29-16.35,1.14A34.58,34.58,0,0,1,73.53,411.3c-4.09,3.26-8.94,6.56-14.43,5.95-8.56-1-9.91-13-11.13-20-8.34,5.46-22.93,8.35-30.1-.24a24.13,24.13,0,0,1-5.1-12.3A28.36,28.36,0,0,0,14,393.21c3.19,10.47,13.85,20.92,25.46,15.66a1.29,1.29,0,0,1,1.71.45c2.45,4.24,5.05,8.82,9.61,11.09,4.35,2.16,9.51,1.87,14.14,1,9.24-1.71,21.68-5.73,22.78-16.68a1.25,1.25,0,0,1,1.55-1.18c10.62,2.74,20.45-4.07,23.49-14.25a24.85,24.85,0,0,0,1-6.13A29.7,29.7,0,0,1,108.32,390.56Z"/><path d="M115.54,375.92a35.36,35.36,0,0,0-2.65-7.8c-1.7-3.61-4-5.39-2.3-9.38,4.51-10.32,4.6-21.95-4-30.18a22.54,22.54,0,0,0-28.38-2c-10.57-8.75-28.08-8.18-40-2.8-12.23,5.52-22.37,18.69-20.8,32.65a37,37,0,0,0,.91,4.15c.6,2.6,1,1.72-.49,4-1.85,2.92-3.91,5.4-5.23,8.68a31.35,31.35,0,0,0-.93,20.61c3.55,11.87,15.12,22.55,27.81,17.7,2.68,4.56,5.69,9.05,10.68,11.3,4.82,2.17,10.25,1.92,15.33.95,10.2-1.95,22.17-6.4,24.35-17.57,10.37,2.15,20.37-3.88,24.38-13.67a28.44,28.44,0,0,0,1.38-16.62m-2.93,13.39c-3,10.18-12.87,17-23.49,14.25a1.25,1.25,0,0,0-1.55,1.18c-1.1,10.95-13.54,15-22.79,16.68-4.63.86-9.78,1.15-14.13-1-4.57-2.27-7.16-6.85-9.61-11.09a1.3,1.3,0,0,0-1.72-.45c-11.6,5.26-22.26-5.19-25.45-15.66s.05-21.63,7.8-29.35a1.21,1.21,0,0,0,.18-1.44C14.6,350,24.87,334,35.74,327.7c11.47-6.65,30.28-8.18,41.06.68a1.26,1.26,0,0,0,2-.51c8.79-4.87,20.13-4.46,27.13,3.45,8,9,5.77,20.07.81,30a1.23,1.23,0,0,0,0,1.23c5.55,7.76,8.75,17.32,5.92,26.79"/><path d="M107.59,387.86a13.24,13.24,0,0,0-3.22-4.89c-.38-.38-.91.18-.58.58a17.27,17.27,0,0,1,2.24,3.51c.46.95,1.64,3.23,1.1,4.24-.14.27.16.62.44.44,1.22-.82.42-2.78,0-3.88"/><path d="M103.75,387.74c-.24-.49-1-.06-.73.43a20.45,20.45,0,0,1,1.22,4.87.34.34,0,0,0,.65,0,9.47,9.47,0,0,0-1.14-5.3"/><path d="M101.68,391.79c-.05-.6-1-.61-1,0a36.46,36.46,0,0,1-.17,4.67c0,.41.53.42.67.09a10.66,10.66,0,0,0,.45-4.76"/><path class="cls-8" d="M75.11,372.76a8.31,8.31,0,0,0-.3-1.45,4.4,4.4,0,0,0-1,.12l-.86.23-.29-.73a8,8,0,0,0-.84-1.44l-.52-.64.54-.69c.37-.5.68-1,.54-1.25a5.6,5.6,0,0,0-2.21-1.53,10.69,10.69,0,0,0-.69,1.18l-.34.6-.7-.34a6.2,6.2,0,0,0-2.6-.44l-.68-.09-.25-.26a5.09,5.09,0,0,0-.28-1.15,6.07,6.07,0,0,0-1.36.64,5.37,5.37,0,0,0-1.31.88.83.83,0,0,0-.08.89l.39.57-.44.6a7.56,7.56,0,0,0-1.23,1.47l-.4.87-.07,0-.85-.41c-.28-.1-.86-.21-1.07.07s-.14,1.41-.15,1.8a10.84,10.84,0,0,0,.09,1.51l.37-.12.92-.3v1.13a6.71,6.71,0,0,0,.14.88,9,9,0,0,0,.32,1l.33.75-.63.59a4.59,4.59,0,0,0-.36.41c.43.39.85.8,1.26,1.21.18.18,1,1.25,1.24,1.22a1.73,1.73,0,0,1,.18-.38l.34-.61.75.49a6.65,6.65,0,0,0,1.13.49l.81.17,0,.71A2.59,2.59,0,0,0,65,382c.31,1.17,1.44.63,2.26.41l1-.29q.49-.15.18-.06c-.06-.2-.12-.4-.19-.6l0-.11-.28-.88.82-.32a8.73,8.73,0,0,0,1-.56l.7-.5.7.77a4.2,4.2,0,0,0,.57.55c.64-.47,1.66-1.68,1.52-2.3a.74.74,0,0,0-.25-.35l-.84-.51.44-.75a8,8,0,0,0,.34-.8l.19-.74.86.13h0a3.21,3.21,0,0,0,.91.15c.21.11.32,0,.3-.21a.55.55,0,0,0,.06-.43A10.22,10.22,0,0,0,75.11,372.76Zm-8,4.3a3.43,3.43,0,1,1,2.55-4.14A3.44,3.44,0,0,1,67.13,377.06Z"/><path class="cls-15" d="M65.78,370.74a3.14,3.14,0,0,0-2.31,3.66,2.74,2.74,0,0,0,3.31,2.25,3.09,3.09,0,0,0,2.46-3.49A3,3,0,0,0,65.78,370.74Z"/><path class="cls-15" d="M48.61,348.32a6.55,6.55,0,0,0-6.45,6.3c0,3.39,2.24,6.15,5.63,6.15s6.66-2.5,6.66-5.89S52,348.32,48.61,348.32Z"/><path class="cls-8" d="M56.78,364.35l-.69-1,.71-.64a11.84,11.84,0,0,0,1.93-2.38l.47-.86L60,360a9.38,9.38,0,0,0,1.45.73,18.52,18.52,0,0,0,.57-2.28c.2-.73.38-1.47.57-2.2.06-.25.13-.49.19-.74s.09-.32-.17-.28c-.22-.17-.88-.15-1.19-.2l-.25,0-1-.14,0-.82a14,14,0,0,0-.65-3.15l-.37-1,1-.47,1.32-.64c.63-.29,1-.28.84-.92-.09-.45-.66-1-.9-1.42-.4-.64-.73-1.57-1.71-1.52-.41,0-1.06.56-1.39.75l-.45.27-.75.45-.64-.67a11.39,11.39,0,0,0-1.62-1.4l-1-.63L54,343c.1-.42.22-.84.33-1.26.29-1,1-1.75-.47-2.23-.7-.24-3.09-.44-3.59.15-.28.32-.28,1.6-.36,2.12l-.12.64-.73,0h-.14a10.84,10.84,0,0,0-1.62.13s0,.09,0,.13l-1,0-.18-.8s0,0,0-.07c-.08-.32-.14-1.37-.39-1.62-.46-.46-1-.1-1.61.11a6.54,6.54,0,0,0-2.09.86c-.37.05-.53.25-.46.6a1.69,1.69,0,0,0,.06.89c0,.28.08.57.13.86l.2,1.1-.74.54a13.17,13.17,0,0,0-1.58,1.5l-.73.88-1-.54c-.85-.43-1.21-.49-1.62.51-.7,1.7-1.54,3.51-1.3,5.38l.55-.08,1-.1-.13,1.19c0,.23,0,.46,0,.7a13.37,13.37,0,0,0,.18,2.12l.16,1-.88.28c-.46.16-.88.35-1,.54s.66,2,.81,2.41c.28.76.61,1.5,1,2.23a14.52,14.52,0,0,0,1.22-1l.52-.48.62.84a10.66,10.66,0,0,0,2.31,2.19l.83.51-.31.54-.28.47A1.3,1.3,0,0,1,41,367l.54.12a7.85,7.85,0,0,0,1.89.41c.74.17,2.68,1,3.28.45a1,1,0,0,0,.17-.54l.09-.93s0-.08,0-.11l.89.1a14,14,0,0,0,4-.75l.87-.34.5,1.13.13.28c.13.31.27.62.41.92a.77.77,0,0,1,.5-.41c.35-.25.76-.44,1.12-.66a11,11,0,0,0,1.48-1.05c.6-.52.39-.6,0-1.21Zm-8.47-2.79a6.94,6.94,0,1,1,6.94-6.94A6.94,6.94,0,0,1,48.31,361.56Z"/><path class="cls-15" d="M77.45,351.59a3.14,3.14,0,0,0-3.09,3,2.75,2.75,0,0,0,2.7,2.95,3.07,3.07,0,0,0,3.2-2.83A3,3,0,0,0,77.45,351.59Z"/><path class="cls-8" d="M85.11,354.12l-.89,0-.11-.77a8.69,8.69,0,0,0-.48-1.6l-.37-.74.69-.55c.48-.4.89-.8.81-1.09a5.52,5.52,0,0,0-1.79-2,9.8,9.8,0,0,0-.94,1l-.48.5L81,348.4a6.3,6.3,0,0,0-2.44-1l-.63-.25-.18-.31a5.79,5.79,0,0,0,0-1.18,6.37,6.37,0,0,0-1.48.3,5.32,5.32,0,0,0-1.47.56.78.78,0,0,0-.28.84l.24.65-.57.48a7.71,7.71,0,0,0-1.53,1.14l-.59.76-.06-.05-.74-.59c-.25-.17-.79-.41-1-.19s-.47,1.34-.57,1.73a12.39,12.39,0,0,0-.26,1.48l.39,0,1-.07-.25,1.1a6.4,6.4,0,0,0-.07.88,9.48,9.48,0,0,0,.07,1.08l.15.81-.75.44c-.15.09-.3.2-.45.31.33.48.64,1,1,1.47.13.21.69,1.45.92,1.47a2.52,2.52,0,0,1,.27-.33l.47-.51.62.65a5.43,5.43,0,0,0,1,.73l.74.36-.19.68a2.06,2.06,0,0,0-.06.55c0,1.21,1.25.95,2.09.93.36,0,.71,0,1.07-.05s.4,0,.19,0c0-.21,0-.42,0-.62a.49.49,0,0,0,0-.12l-.06-.92.87-.12a10.77,10.77,0,0,0,1.15-.3l.8-.32.5.9a4.58,4.58,0,0,0,.42.68c.74-.32,2-1.25,2-1.89a.73.73,0,0,0-.17-.4l-.69-.68.6-.64a5,5,0,0,0,.51-.7l.37-.67.8.33h0a2.86,2.86,0,0,0,.85.36c.18.15.29.11.34-.14a.49.49,0,0,0,.15-.4,10.14,10.14,0,0,0,.18-1.83,8.05,8.05,0,0,0,0-1.48A5.26,5.26,0,0,0,85.11,354.12Zm-7.8,3.94a3.44,3.44,0,1,1,3.44-3.44A3.44,3.44,0,0,1,77.31,358.06Z"/><path d="M63.82,355.11c-.12-.69-.79-.73-1.39-.84-.41-.07-.82-.12-1.23-.16a12.7,12.7,0,0,0-.69-3.71l.62-.31a10.31,10.31,0,0,0,2.42-1.33.52.52,0,0,0,.13-.49,14.52,14.52,0,0,0-1.86-3.08c-.34-.5-.81-1.36-1.48-1.49s-1.6.56-2.11.85-.74.44-1.1.67A12.94,12.94,0,0,0,55,343.57c.07-.33.14-.65.22-1,.23-.87,1-2.27.64-3.18-.23-.62-.86-.76-1.43-.85a15.15,15.15,0,0,0-4.46,0,.42.42,0,0,0-.4.3c-.15.95-.3,1.89-.42,2.83-.27,0-.53,0-.8,0s-.8,0-1.2.06a8.56,8.56,0,0,0-.62-2.34c-.53-1-1.82-.31-2.68,0s-3,.81-3.31,1.83a4.47,4.47,0,0,0,.24,1.95l.18.87a13.48,13.48,0,0,0-2.29,2c-1.05-.57-2.18-.9-2.75-.22a12.23,12.23,0,0,0-1.54,3.7,8.63,8.63,0,0,0-.33,4.1.55.55,0,0,0,.52.39l.9,0c0,.21,0,.4,0,.61a13,13,0,0,0,.27,2.51c-.59.24-1.5.46-1.72,1.16s.46,2,.69,2.67A32.65,32.65,0,0,0,36,364.2a.5.5,0,0,0,.69.18A11.55,11.55,0,0,0,38.51,363,12.84,12.84,0,0,0,41,365.24a4.32,4.32,0,0,0-.85,1.83c-.06,1.27,1.86,1.2,2.73,1.4,1.06.24,2.15.58,3.23.72a1.42,1.42,0,0,0,1.19-.19c.39-.35.39-1,.44-1.49.2,0,.39,0,.59,0a12.78,12.78,0,0,0,4-.65,4,4,0,0,0,.83,1.69c.81.64,2.47-.81,3.13-1.23s2.28-1.27,2.15-2.3a3.39,3.39,0,0,0-.89-1.42,12.87,12.87,0,0,0,2.05-2.75,7.48,7.48,0,0,0,2,.95.54.54,0,0,0,.57-.23,10.53,10.53,0,0,0,.92-3.12c.24-.93.9-2.4.72-3.37m-1,.4c-.06.25-.13.49-.19.74-.19.73-.37,1.47-.57,2.2a18.52,18.52,0,0,1-.57,2.28A9.38,9.38,0,0,1,60,360l-.84-.48-.47.86a11.84,11.84,0,0,1-1.93,2.38l-.71.64.69,1,.06.07c.42.61.63.69,0,1.21a11,11,0,0,1-1.48,1.05c-.36.22-.77.41-1.12.66a.77.77,0,0,0-.5.41c-.14-.3-.28-.61-.41-.92l-.13-.28-.5-1.13-.87.34a14,14,0,0,1-4,.75l-.89-.1s0,.07,0,.11l-.09.93a1,1,0,0,1-.17.54c-.6.57-2.54-.28-3.28-.45a7.85,7.85,0,0,1-1.89-.41L41,367a1.3,1.3,0,0,0,.58-.76l.28-.47.31-.54-.83-.51A10.66,10.66,0,0,1,39,362.54l-.62-.84-.52.48a14.52,14.52,0,0,1-1.22,1c-.34-.73-.67-1.47-1-2.23-.15-.39-1-2.07-.81-2.41s.51-.38,1-.54l.88-.28-.16-1a13.37,13.37,0,0,1-.18-2.12c0-.24,0-.47,0-.7l.13-1.19-1,.1-.55.08c-.24-1.87.6-3.68,1.3-5.38.41-1,.77-.94,1.62-.51l1,.54.73-.88a13.17,13.17,0,0,1,1.58-1.5l.74-.54-.2-1.1c-.05-.29-.1-.58-.13-.86a1.69,1.69,0,0,1-.06-.89c-.07-.35.09-.55.46-.6a6.54,6.54,0,0,1,2.09-.86c.6-.21,1.15-.57,1.61-.11.25.25.31,1.3.39,1.62,0,0,0,.05,0,.07l.18.8,1,0s0-.09,0-.13a10.84,10.84,0,0,1,1.62-.13H49l.73,0,.12-.64c.08-.52.08-1.8.36-2.12.5-.59,2.89-.39,3.59-.15,1.44.48.76,1.21.47,2.23-.11.42-.23.84-.33,1.26l-.16.64,1,.63a11.39,11.39,0,0,1,1.62,1.4l.64.67.75-.45.45-.27c.33-.19,1-.73,1.39-.75,1,0,1.31.88,1.71,1.52.24.4.81,1,.9,1.42.13.64-.21.63-.84.92l-1.32.64-1,.47.37,1a14,14,0,0,1,.65,3.15l0,.82,1,.14.25,0c.31.05,1,0,1.19.2.26,0,.32.06.17.28"/><path d="M86.66,353.4a3.37,3.37,0,0,0-1.65-.12,7.71,7.71,0,0,0-.64-2l.44-.35c.34-.27.84-.55,1-1,.33-.86-.78-1.92-1.33-2.46s-1.21-1.3-1.91-.86a6.35,6.35,0,0,0-1.15,1.32l0,0a7.86,7.86,0,0,0-2.89-1.06,5.51,5.51,0,0,0-.1-1.73.36.36,0,0,0-.27-.27A6.4,6.4,0,0,0,74,346.14c-.43.36-.28.83-.17,1.33l0,.12a8.11,8.11,0,0,0-2,1.43,2,2,0,0,0-1.91-.34,2.49,2.49,0,0,0-1,1.54,13.57,13.57,0,0,0-.61,3c0,.26.24.46.47.47l.73,0a8.47,8.47,0,0,0-.07.88,7.63,7.63,0,0,0,.17,1.53c-.34.22-.69.44-1,.64a.43.43,0,0,0-.15.59c.47.91,1,1.77,1.59,2.65.25.39.54,1.26,1.11,1.27.4,0,.76-.43,1-.78a8.82,8.82,0,0,0,1.2.88,4.49,4.49,0,0,0-.13,1.54c.13,1.11,1,1.25,2,1.28a16.83,16.83,0,0,0,2.13,0c.37,0,.69-.08.89-.43a2.3,2.3,0,0,0,0-1.38A7.86,7.86,0,0,0,79.8,362a3.3,3.3,0,0,0,.81,1.19c.62.44,1.64-.48,2.1-.86s1.7-1.41,1.33-2.3a2.59,2.59,0,0,0-.51-.7,6.54,6.54,0,0,0,.59-.89l.78.33A1.84,1.84,0,0,0,86,359c.92-.26.83-1.86.9-2.58s.55-2.58-.28-3.06m-.6,2.32a10.14,10.14,0,0,1-.18,1.83.49.49,0,0,1-.15.4c0,.25-.16.29-.34.14a2.86,2.86,0,0,1-.85-.36h0l-.8-.33-.37.67a5,5,0,0,1-.51.7l-.6.64.69.68a.73.73,0,0,1,.17.4c0,.64-1.28,1.57-2,1.89a4.58,4.58,0,0,1-.42-.68l-.5-.9-.8.32a10.77,10.77,0,0,1-1.15.3l-.87.12.06.92a.49.49,0,0,1,0,.12c0,.2,0,.41,0,.62.21,0,.15,0-.19,0s-.71,0-1.07.05c-.84,0-2.06.28-2.09-.93a2.06,2.06,0,0,1,.06-.55l.19-.68-.74-.36a5.43,5.43,0,0,1-1-.73l-.62-.65-.47.51a2.52,2.52,0,0,0-.27.33c-.23,0-.79-1.26-.92-1.47-.31-.5-.62-1-1-1.47.15-.11.3-.22.45-.31l.75-.44-.15-.81a9.48,9.48,0,0,1-.07-1.08,6.4,6.4,0,0,1,.07-.88l.25-1.1-1,.07-.39,0a12.39,12.39,0,0,1,.26-1.48c.1-.39.26-1.46.57-1.73s.8,0,1,.19l.74.59.06.05.59-.76a7.71,7.71,0,0,1,1.53-1.14l.57-.48-.24-.65a.78.78,0,0,1,.28-.84,5.32,5.32,0,0,1,1.47-.56,6.37,6.37,0,0,1,1.48-.3,5.79,5.79,0,0,1,0,1.18l.18.31.63.25a6.3,6.3,0,0,1,2.44,1l.59.49.48-.5a9.8,9.8,0,0,1,.94-1,5.52,5.52,0,0,1,1.79,2c.08.29-.33.69-.81,1.09l-.69.55.37.74a8.69,8.69,0,0,1,.48,1.6l.11.77.89,0a5.26,5.26,0,0,1,1,.12,8.05,8.05,0,0,1,0,1.48"/><path d="M48.31,361.56a6.94,6.94,0,1,1,6.94-6.94,6.94,6.94,0,0,1-6.94,6.94m.3-13.24a6.55,6.55,0,0,0-6.45,6.3c0,3.39,2.24,6.15,5.63,6.15s6.66-2.5,6.66-5.89-2.45-6.56-5.84-6.56"/><path d="M77.31,358.06a3.44,3.44,0,1,1,3.44-3.44,3.44,3.44,0,0,1-3.44,3.44m.14-6.47a3.14,3.14,0,0,0-3.09,3,2.75,2.75,0,0,0,2.7,2.95,3.07,3.07,0,0,0,3.2-2.83,3,3,0,0,0-2.81-3.15"/><path d="M75.15,370.37a3.33,3.33,0,0,0-1.63.25,7.88,7.88,0,0,0-1.1-1.83c.12-.15.23-.3.35-.44a2.8,2.8,0,0,0,.75-1.18c.12-.91-1.21-1.69-1.87-2.09s-1.48-1-2.06-.39a6.34,6.34,0,0,0-.81,1.55l0,.05a7.66,7.66,0,0,0-3.06-.37,5.61,5.61,0,0,0-.49-1.66.41.41,0,0,0-.32-.2,6.4,6.4,0,0,0-3.73,2.18c-.33.44-.08.86.15,1.33l.06.11a7.7,7.7,0,0,0-1.62,1.85,2,2,0,0,0-1.94.11,2.47,2.47,0,0,0-.62,1.74,13.23,13.23,0,0,0,.11,3.08.47.47,0,0,0,.57.35l.71-.15a6.71,6.71,0,0,0,.14.88,7.15,7.15,0,0,0,.52,1.45l-.88.87a.43.43,0,0,0,0,.6c.67.78,1.43,1.48,2.16,2.2.33.33.82,1.11,1.38,1,.38-.09.64-.59.84-1a8.28,8.28,0,0,0,1.37.58,4.54,4.54,0,0,0,.23,1.53c.39,1.05,1.31,1,2.25.78a16.43,16.43,0,0,0,2.06-.54c.36-.12.66-.23.77-.62a2.17,2.17,0,0,0-.28-1.34,8.52,8.52,0,0,0,1.35-.68,3.24,3.24,0,0,0,1.06,1c.71.28,1.49-.85,1.85-1.33s1.33-1.76.75-2.54a2.65,2.65,0,0,0-.65-.57,7.92,7.92,0,0,0,.37-1l.83.15a1.8,1.8,0,0,0,1.17,0c.83-.46.37-2,.27-2.72s-.06-2.63-1-2.9m0,2.39a10.22,10.22,0,0,1,.25,1.82.55.55,0,0,1-.06.43c0,.25-.09.32-.3.21a3.21,3.21,0,0,1-.91-.15h0l-.86-.13-.19.74a8,8,0,0,1-.34.8l-.44.75.84.51a.74.74,0,0,1,.25.35c.14.62-.88,1.83-1.52,2.3a4.2,4.2,0,0,1-.57-.55l-.7-.77-.7.5a8.73,8.73,0,0,1-1,.56l-.82.32.28.88,0,.11c.07.2.13.4.19.6q.31-.09-.18.06l-1,.29c-.82.22-2,.76-2.26-.41a2.59,2.59,0,0,1-.07-.55l0-.71-.81-.17a6.65,6.65,0,0,1-1.13-.49l-.75-.49-.34.61a1.73,1.73,0,0,0-.18.38c-.23,0-1.06-1-1.24-1.22-.41-.41-.83-.82-1.26-1.21a4.59,4.59,0,0,1,.36-.41l.63-.59-.33-.75a9,9,0,0,1-.32-1,6.71,6.71,0,0,1-.14-.88v-1.13l-.92.3-.37.12a10.84,10.84,0,0,1-.09-1.51c0-.39-.09-1.47.15-1.8s.79-.17,1.07-.07l.85.41.07,0,.4-.87a7.56,7.56,0,0,1,1.23-1.47l.44-.6-.39-.57a.83.83,0,0,1,.08-.89,5.37,5.37,0,0,1,1.31-.88,6.07,6.07,0,0,1,1.36-.64,5.09,5.09,0,0,1,.28,1.15l.25.26.68.09a6.2,6.2,0,0,1,2.6.44l.7.34.34-.6a10.69,10.69,0,0,1,.69-1.18,5.6,5.6,0,0,1,2.21,1.53c.14.26-.17.75-.54,1.25l-.54.69.52.64a8,8,0,0,1,.84,1.44l.29.73.86-.23a4.4,4.4,0,0,1,1-.12,8.31,8.31,0,0,1,.3,1.45"/><path d="M67.13,377.06a3.43,3.43,0,1,1,2.55-4.14,3.44,3.44,0,0,1-2.55,4.14m-1.35-6.32a3.14,3.14,0,0,0-2.31,3.66,2.74,2.74,0,0,0,3.31,2.25,3.09,3.09,0,0,0,2.46-3.49,3,3,0,0,0-3.46-2.42"/><path class="cls-1" d="M5.91,236.33a4.22,4.22,0,0,0,2.7-4.44,2.59,2.59,0,0,0-2.83-2.41.47.47,0,0,1-.1.05c-1.81.6-3.61,2-3.55,4.11A2.87,2.87,0,0,0,5.91,236.33Z"/><path class="cls-1" d="M11,224.07c1.38-.47,2.59-2.56,1-3.47-1.07-.63-2-.19-3.1-.33a.86.86,0,0,1-.21-.07,2.91,2.91,0,0,0-1.43,1.89C6.9,224,9.63,224.53,11,224.07Z"/><path class="cls-1" d="M33,299.61c1.31,17.63,36.37,13,36.8-3.51a1.24,1.24,0,0,1,1.55-1.18C83.81,298.4,96,291.18,99.87,279c3.6-11.29-.84-22.89-8.69-31.18a1.17,1.17,0,0,1-.3-1.14c3.46-8.66,5.79-19-4.15-24.36a23.51,23.51,0,0,0-24.54,1.9,1.2,1.2,0,0,1-1.24,0c-4.76-3.36-9.65-6.88-15.66-7.31a33.91,33.91,0,0,0-15.14,2.68C19.86,223.88,13,233.57,14.39,244.9a.65.65,0,0,1,0,.25,1.11,1.11,0,0,1,.29,1.75C6.3,255.75,1.5,267.22,2.36,279.5c1.13,16.14,14.38,22.61,29.17,19A1.21,1.21,0,0,1,33,299.61Zm57.08-22.23c1.74,3.65,2.63,8.08,1.37,12a.34.34,0,0,1-.66-.09c.12-4.08,0-7.72-1.61-11.55C89,277.25,89.89,276.89,90.12,277.38Zm-2.68,5.14a21.23,21.23,0,0,1,.45,6.69c-.06.43-.63.26-.68-.09-.26-2.12-.21-4.27-.52-6.4C86.62,282.24,87.34,282,87.44,282.52Zm-5,3.49c.08-.52.86-.29.78.22a11,11,0,0,1-1.62,4.71c-.18.25-.61.1-.51-.22A42.25,42.25,0,0,0,82.49,286Zm-5.23,4.1a6.87,6.87,0,0,1,.53-1.32c.14-.2.56-.22.6.08a4.09,4.09,0,0,1-1.11,3,.36.36,0,0,1-.59-.34A12.85,12.85,0,0,1,77.26,290.11Z"/><path class="cls-2" d="M95.36,279.86a38.41,38.41,0,0,1-3.53,2.88,14.14,14.14,0,0,1-.34,6.66.34.34,0,0,1-.66-.09,42,42,0,0,0-.15-5.76,29.11,29.11,0,0,1-2.82,1.65,15,15,0,0,1,0,4c-.06.43-.63.26-.68-.09-.14-1.15-.19-2.3-.26-3.46a23.91,23.91,0,0,1-3.83,1.42,9.69,9.69,0,0,1-1.47,3.86c-.18.25-.61.1-.51-.22.33-1.16.75-2.26,1.06-3.4A22.32,22.32,0,0,1,67,285.27c-2.89,7.77-5.71,18.28-16,17.87-8.48-.34-5.84-8.64-6.48-14.54-10.44,3.84-24.92,5.51-33-3.75a25.78,25.78,0,0,1-6.11-19.2,49.94,49.94,0,0,1,1.25-7.3A41,41,0,0,0,2.36,279.5c1.13,16.14,14.38,22.61,29.17,19A1.21,1.21,0,0,1,33,299.61c1.31,17.63,36.37,13,36.8-3.51a1.24,1.24,0,0,1,1.55-1.18C83.81,298.4,96,291.18,99.87,279a27.2,27.2,0,0,0,1.16-5.88A35.4,35.4,0,0,1,95.36,279.86Zm-18.08,12a.36.36,0,0,1-.59-.34,12.85,12.85,0,0,1,.57-1.4,6.87,6.87,0,0,1,.53-1.32c.14-.2.56-.22.6.08A4.09,4.09,0,0,1,77.28,291.85Z"/><path d="M102.09,260.91a36.19,36.19,0,0,0-4.16-8.55c-2.17-3.29-4.81-4.71-3.41-8.84,2-6,3.28-13-.85-18.49C89.85,220,83,217.62,76.9,217.41a26.32,26.32,0,0,0-9.48,1.43c-1.34.47-2.53,1.16-3.83,1.67-2.69,1.07-3.14.21-5.48-1.35a26.65,26.65,0,0,0-19.53-4.47c-14.79,2.07-29.34,14.17-25.73,30.42a.61.61,0,0,0,.16.31c-9.74,10-15,25.2-12.32,39.09,2.74,14.28,17.32,20,30.36,16.56,5.66,17.34,38.48,14.36,41.08-3.39,12.61,3.23,25.26-4.4,29.72-16.5a31,31,0,0,0,.24-20.27M99.87,279C96,291.18,83.81,298.4,71.39,294.92a1.24,1.24,0,0,0-1.55,1.18c-.43,16.5-35.49,21.14-36.8,3.51a1.21,1.21,0,0,0-1.51-1.14c-14.79,3.64-28-2.83-29.17-19-.86-12.28,3.94-23.75,12.3-32.6a1.11,1.11,0,0,0-.29-1.75.65.65,0,0,0,0-.25c-1.4-11.33,5.47-21,15.76-25.27A33.91,33.91,0,0,1,45.29,217c6,.43,10.9,4,15.66,7.31a1.2,1.2,0,0,0,1.24,0,23.51,23.51,0,0,1,24.54-1.9c9.94,5.33,7.61,15.7,4.15,24.36a1.17,1.17,0,0,0,.3,1.14c7.85,8.29,12.29,19.89,8.69,31.18"/><path d="M10.64,230.58a3.83,3.83,0,0,0-6.43-1.8.44.44,0,0,0-.11.2,5.5,5.5,0,0,0-3.5,5.61c.36,3,3.56,4.53,6.29,3.61,2.94-1,4.61-4.7,3.75-7.62m-4.73,5.75a2.87,2.87,0,0,1-3.78-2.69c-.06-2.08,1.74-3.51,3.55-4.11a.47.47,0,0,0,.1-.05,2.59,2.59,0,0,1,2.83,2.41,4.22,4.22,0,0,1-2.7,4.44"/><path d="M14.68,220.08c-1.06-1.59-4.58-2.76-6-1.05a3.89,3.89,0,0,0-2.88,3.16c-.45,2.94,3.08,4.13,5.45,3.79s4.91-3.67,3.43-5.9m-3.69,4c-1.36.46-4.09,0-3.7-2a2.91,2.91,0,0,1,1.43-1.89.86.86,0,0,0,.21.07c1.12.14,2-.3,3.1.33,1.55.91.34,3-1,3.47"/><path d="M90.12,277.38c-.23-.49-1.11-.13-.9.38,1.6,3.83,1.73,7.47,1.61,11.55a.34.34,0,0,0,.66.09c1.26-3.94.37-8.37-1.37-12"/><path d="M87.44,282.52c-.1-.5-.82-.28-.75.2.31,2.13.26,4.28.52,6.4.05.35.62.52.68.09a21.23,21.23,0,0,0-.45-6.69"/><path d="M82.49,286a42.25,42.25,0,0,1-1.35,4.71c-.1.32.33.47.51.22a11,11,0,0,0,1.62-4.71c.08-.51-.7-.74-.78-.22"/><path d="M78.39,288.87c0-.3-.46-.28-.6-.08a6.87,6.87,0,0,0-.53,1.32,12.85,12.85,0,0,0-.57,1.4.36.36,0,0,0,.59.34,4.09,4.09,0,0,0,1.11-3"/><path d="M37.41,232.36c-2.15,1-4,3-5.65,4.68-.84.86-1.66,1.74-2.43,2.66l-.68.84c-.31.45-.31.37,0-.24a4.66,4.66,0,0,0-1-1.24.39.39,0,0,0-.64.38,4.94,4.94,0,0,0,1.13,2.64.76.76,0,0,0,.72.19c.63-.16.95-.72,1.37-1.2.86-1,1.74-2,2.66-2.93,1.68-1.73,3.75-3.23,5.2-5.14.3-.42-.27-.81-.64-.64"/><path d="M37.45,245.29a20.53,20.53,0,0,0-6,4.52c-.46.46-.9.93-1.33,1.41s-.82,1.32-1.24,1.49c-.19.42-.3.41-.34,0-.13-.19-.27-.38-.4-.58-.35-.6-.76-1.18-1.16-1.76-.28-.41-1-.17-.85.36.43,1.31,1.57,4.85,3.42,3.47,1.41-1,2.51-2.87,3.8-4.09,1.48-1.42,3.14-2.64,4.59-4.09.37-.38-.1-.88-.53-.69"/><path d="M31.9,264.5v-2.71a.64.64,0,0,0-.64-.64l-2.54.13a2.65,2.65,0,0,0-1.75.44.67.67,0,0,1-.29.68,11,11,0,0,0-.45,2.42,5.09,5.09,0,0,0-.18,1.85c.27,1,2,.74,2.76.72,1,0,2.72.21,3.06-1a7.33,7.33,0,0,0,0-1.93m-1.58,1.55a4.13,4.13,0,0,1-1.32.08,7.27,7.27,0,0,0-1.32,0q-.34-.15-.42.06l.06-.59a14.29,14.29,0,0,0,.13-3.06,4.13,4.13,0,0,0,1.45,0l1.73-.1v3.2c.13.35,0,.49-.31.39"/><path d="M67.64,240.31c-5.06-.68-10.28-.37-15.37-.37-4.75,0-9.8-.49-14.5.24a.46.46,0,0,0,0,.88c4.7.73,9.75.23,14.5.24,5.09,0,10.31.31,15.37-.37a.31.31,0,0,0,0-.62"/><path d="M68.88,253.07c-4.94-.84-10.36-.27-15.36-.28s-10.49-.64-15.36.31a.42.42,0,0,0,0,.8c4.87.94,10.4.31,15.36.3s10.42.56,15.36-.28a.44.44,0,0,0,0-.85"/><path d="M69.51,265.19c-4.83-.94-10.27-.28-15.18-.25s-10.26-.46-15.16.34a.36.36,0,0,0,0,.68c4.9.81,10.2.32,15.16.35s10.35.68,15.18-.26a.45.45,0,0,0,0-.86"/><path class="cls-1" d="M25.87,172.65a1.26,1.26,0,0,1-.53,2.3c-1.08,10.49,4,21.22,14.22,25.14a24.22,24.22,0,0,0,14.91.76c2.15-.58,5.83-3.65,8.34-2.72,1,.37,1.26,1.3,1.93,2a12.85,12.85,0,0,0,9.15,4.3,28.42,28.42,0,0,0,14.72-2.94c9.72-4.88,15.15-15.64,12.06-26.27a1.22,1.22,0,0,1,1.17-1.53c5.85.37,9.12-6.81,11.18-11.26A30.94,30.94,0,0,0,116.18,147C115.28,136.3,106,126.78,94.76,131c-.94.35-1.65-.67-1.49-1.49,1.93-10.28-10.79-16.12-19.18-16.24s-16,4.4-20.6,11.43a1,1,0,0,1-1.3.34c-12.49-6.46-23.28,5.28-28.67,15.32C18.22,150.19,14.34,165.43,25.87,172.65Zm67.21,12.53a16.64,16.64,0,0,1,1.16,7.44.38.38,0,0,1-.75,0,42,42,0,0,0-1.21-7.22C92.12,184.88,92.9,184.68,93.08,185.18Zm-2.52,5a12.16,12.16,0,0,1,0,5.2.33.33,0,0,1-.64-.09c-.08-1.68.1-3.32-.11-5C89.71,189.84,90.49,189.74,90.56,190.18Zm-5.18,3.44c0-.6.86-.57.92,0a8.7,8.7,0,0,1-.6,4.87c-.18.34-.79.2-.75-.2A31.67,31.67,0,0,0,85.38,193.62Z"/><path class="cls-1" d="M123.42,154a.69.69,0,0,1-.34,0,7.59,7.59,0,0,0-.81,1.11c-.33.52-.76,1.19-.19,1.65a2.54,2.54,0,0,0,1.54.34c1.08,0,2.6-.47,2.22-1.85A1.82,1.82,0,0,0,123.42,154Z"/><path class="cls-1" d="M121.1,165.34a4.83,4.83,0,0,0-1.72,1.72,3.8,3.8,0,0,0-.59,2.7c.38,2,2.44,2.52,4.07,1.65,1.2-.64,2.94-2.63,2.25-4.12S122.45,165.76,121.1,165.34Z"/><path class="cls-2" d="M93.93,188.08a13.15,13.15,0,0,1,.31,4.54.38.38,0,0,1-.75,0c-.16-1.26-.28-2.51-.46-3.74-.78.66-1.58,1.27-2.4,1.84a11.08,11.08,0,0,1-.11,4.66.33.33,0,0,1-.64-.09c-.06-1.35,0-2.69,0-4-.71.47-1.43.9-2.15,1.29q-.75.41-1.56.78a.49.49,0,0,1,.16.3,8.7,8.7,0,0,1-.6,4.87c-.18.34-.79.2-.75-.2a31.27,31.27,0,0,0,.43-4.64c-5.9,2.5-13.6,3.31-15.9-3.5-6.79,7-19.47,8.44-28.09,4.51-8.25-3.77-12.65-14.87-6.63-22.18-14.15-1.68-15.41-16.74-12.31-30-4.69,9.83-7.31,23.5,3.42,30.22a1.26,1.26,0,0,1-.53,2.3c-1.08,10.49,4,21.22,14.22,25.14a24.22,24.22,0,0,0,14.91.76c2.15-.58,5.83-3.65,8.34-2.72,1,.37,1.26,1.3,1.93,2a12.85,12.85,0,0,0,9.15,4.3,28.42,28.42,0,0,0,14.72-2.94c9.14-4.59,14.48-14.39,12.52-24.38A24.6,24.6,0,0,1,93.93,188.08Z"/><path d="M118.41,145.54C117,134.4,107,124.73,95.68,128c.25-10.93-12.73-17.2-22.54-16.87A26.14,26.14,0,0,0,58,116.71c-1.67,1.31-4.28,5.48-6.29,5.94a18.83,18.83,0,0,1-3.11-1,16.12,16.12,0,0,0-4-.29c-12.61.55-20.93,13.12-25.81,23.4-4.74,10-5,23.2,5.25,29.67a24.86,24.86,0,0,0,10.58,25.74,25.62,25.62,0,0,0,23.22,2.12c3.16-1.29,3.23-1.68,5.78.37,8.07,6.46,20.36,4.68,28.7-.69a24.64,24.64,0,0,0,11-25.93c5.39-.63,8.62-6.37,10.94-10.86,3.11-6,5.09-12.81,4.22-19.65m-5.52,16.88c-2,4.45-5.32,11.63-11.17,11.26a1.22,1.22,0,0,0-1.17,1.53c3.08,10.63-2.35,21.39-12.07,26.27a28.42,28.42,0,0,1-14.72,2.94,12.82,12.82,0,0,1-9.14-4.3c-.67-.69-.91-1.62-1.93-2-2.51-.93-6.2,2.14-8.34,2.72a24.22,24.22,0,0,1-14.91-.76c-10.2-3.92-15.3-14.65-14.23-25.14a1.26,1.26,0,0,0,.53-2.3c-11.52-7.22-7.64-22.46-2.34-32.34,5.39-10,16.18-21.78,28.67-15.32a1,1,0,0,0,1.29-.34c4.58-7,12.1-11.56,20.61-11.43s21.11,6,19.17,16.24c-.15.82.55,1.84,1.49,1.49,11.19-4.17,20.53,5.35,21.43,16.06a30.84,30.84,0,0,1-3.17,15.41"/><path d="M121.22,163.8c-1.64-.06-3.43,2.06-4,3.45a4.81,4.81,0,0,0,4,6.82c3.13.17,6.56-3,6.51-6.18,0-2.91-3.86-5.19-6.51-4.09m1.64,7.61c-1.63.87-3.69.32-4.07-1.65a3.8,3.8,0,0,1,.59-2.7,4.83,4.83,0,0,1,1.72-1.72c1.35.42,3.38.57,4,1.95s-1,3.48-2.25,4.12"/><path d="M127.57,153.89a3.46,3.46,0,0,0-2.75-1.87,2.66,2.66,0,0,0-1.32.23c-1.43-.2-3.45,2.78-3.61,3.82-.43,2.71,3,3.45,5,3.06a3.56,3.56,0,0,0,2.67-5.24m-3.95,3.25a2.54,2.54,0,0,1-1.54-.34c-.57-.46-.14-1.13.19-1.65a7.59,7.59,0,0,1,.81-1.11.69.69,0,0,0,.34,0,1.82,1.82,0,0,1,2.42,1.3c.38,1.38-1.14,1.83-2.22,1.85"/><path d="M93,185.18c-.17-.5-1-.3-.8.22a41.11,41.11,0,0,1,1.22,7.22.38.38,0,0,0,.75,0A16.5,16.5,0,0,0,93,185.18"/><path d="M90.44,190.18c-.07-.44-.85-.34-.79.11.21,1.68,0,3.32.11,5a.32.32,0,0,0,.63.09,12,12,0,0,0,0-5.2"/><path d="M86.17,193.62c-.06-.57-1-.6-.91,0a33.09,33.09,0,0,1-.43,4.67c0,.4.57.54.75.2a8.61,8.61,0,0,0,.59-4.87"/><path d="M69.38,144.41a32.41,32.41,0,0,0-3.95-.39c.5-1.6,1-3.21,1.44-4.83.18-.61-.69-.81-.92-.25-.69,1.67-1.34,3.35-2,5-1.6,0-3.21,0-4.79,0l-3.28,0a28.85,28.85,0,0,0,1.4-4.53.47.47,0,0,0-.86-.36,31.6,31.6,0,0,0-2.38,4.93,42.64,42.64,0,0,0-5.06.44c-.51.08-.34.81.12.85,1.45.11,2.92.12,4.39.11-.37,1-.73,1.9-1.11,2.82s-.9,2.12-1.36,3.2c-1.48,0-2.95.07-4.42.15a.57.57,0,0,0,0,1.14c1.27.07,2.54.11,3.81.14a24.31,24.31,0,0,0-1.67,5.52.43.43,0,0,0,.78.33A26.3,26.3,0,0,0,52.38,153l5.18,0c1,0,2,0,3.06.07A28,28,0,0,0,59.3,158c-.09.57.67,1,1,.42a29.63,29.63,0,0,0,2.19-5.28,26,26,0,0,0,5.16-.38.54.54,0,0,0,0-1,24.17,24.17,0,0,0-4.59-.37c.22-.7.44-1.39.67-2.07.42-1.25.82-2.5,1.22-3.76a41.29,41.29,0,0,0,4.31-.15c.48,0,.7-.84.12-.94m-7,4c-.34,1-.72,2-1.1,3-1.24,0-2.48.08-3.7.09l-4.62,0c.22-.61.45-1.22.68-1.82.55-1.38,1.16-2.78,1.73-4.19,1.28,0,2.56-.05,3.84,0s2.82,0,4.23.07c-.35,1-.71,1.93-1.06,2.9"/><path d="M78.41,140.41c-1.52.39-3.06.73-4.54,1.23h0c-.64.18-.6,1.3.16,1.24a29.48,29.48,0,0,0,3.94-.67c-.5,2.11-1,4.23-1.51,6.33-.8,3.15-2.13,6.53-2.17,9.79a.56.56,0,0,0,1,.28c1.66-3.15,2.13-7.13,3-10.57a60.54,60.54,0,0,0,1.49-6.25L80,140Z"/><path class="cls-1" d="M244.87,263.11c9.21.83,18.85-1,25.63-7.77,5.62-5.58,10.75-17.58,3.4-23.93a1.24,1.24,0,0,1-.19-1.47c5-9.28,10.33-18.9,10.52-29.73a40.91,40.91,0,0,0-8.21-25c-12.24-16.36-34.68-19.15-52.17-10a.64.64,0,0,1-.18.06,1.1,1.1,0,0,1-1.7.27c-7.57-6.72-17.3-16.51-28.31-14-8.55,2-16.86,7.88-23.27,13.64-10.59,9.53-28.17,31.49-17.28,46.06a1.29,1.29,0,0,1-.2,1.56c-10.78,9.38-17.32,24-11.59,38,6.11,14.91,21.74,17.08,36,16.45a1.31,1.31,0,0,1,1.15.66c6,12.23,20.8,13,32.76,12.42,10.49-.53,31.66-1.68,32.32-16A1.29,1.29,0,0,1,244.87,263.11Zm22.58-22.55a17.54,17.54,0,0,1,1.32,9.81c-.07.34-.54.23-.56-.07a36.16,36.16,0,0,0-1.48-9.54C266.57,240.29,267.28,240.12,267.45,240.56Zm-3,5.83c.71,1.82,1.09,4.13.08,5.9a.24.24,0,0,1-.45-.12c.07-2,.34-3.67-.31-5.6C263.63,246.14,264.3,246,264.46,246.39Zm-3,4.4c0-.52.78-.52.8,0a7.08,7.08,0,0,1-.6,3.67c-.16.27-.66.17-.62-.17A24.06,24.06,0,0,0,261.45,250.79ZM257.13,254a.37.37,0,0,1,.73,0,6.56,6.56,0,0,1-1.29,4.37c-.18.22-.59,0-.48-.27A10.31,10.31,0,0,0,257.13,254ZM143,246.79c.16-2,.83-4.37,2.52-5.62.26-.2.55.17.42.41-.95,1.75-2,3.16-2.21,5.21C143.66,247.25,142.94,247.26,143,246.79Zm2.71,4.59a.35.35,0,0,1-.68-.19,18.9,18.9,0,0,1,.91-3.06.32.32,0,0,1,.59.16A18.53,18.53,0,0,1,145.69,251.38Zm3.14,1.83c-.11.46-.82.27-.71-.2a11.49,11.49,0,0,1,.66-2.53.3.3,0,0,1,.55.15A11.54,11.54,0,0,1,148.83,253.21Zm4.56,5.08c0,.47-.72.47-.74,0a7.78,7.78,0,0,1,.42-3.25c.11-.26.58-.25.54.08A17.66,17.66,0,0,0,153.39,258.29Z"/><path class="cls-2" d="M268.83,250c0,.12,0,.24-.06.36-.07.34-.54.23-.56-.07h0c-.71.32-1.43.6-2.14.86l-1.2.42a4.69,4.69,0,0,1-.33.72.24.24,0,0,1-.45-.12c0-.12,0-.24,0-.35-.59.18-1.22.38-1.88.56a5.27,5.27,0,0,1-.57,2.08c-.16.27-.66.17-.62-.17.06-.56.17-1.11.26-1.65-8,2.11-19.49,3.47-24.05-2.62-6.52,10.33-16.07,20.64-28.92,21.77-6.16.55-12.87-.6-17.9-4.37-5.53-4.13-3-8.36-2.73-13.83-10.71,3.2-24.5,3.75-33-4.67-7.77-7.71-10-21.17-6.2-31.67-8,9.22-12.07,21.67-7.18,33.59,6.11,14.91,21.74,17.08,36,16.45a1.31,1.31,0,0,1,1.15.66c6,12.23,20.8,13,32.76,12.42,10.49-.53,31.66-1.68,32.32-16a1.29,1.29,0,0,1,1.28-1.27c9.21.83,18.85-1,25.63-7.77a26,26,0,0,0,6.14-10.17A38.3,38.3,0,0,1,268.83,250ZM143,246.79c.16-2,.83-4.37,2.52-5.62.26-.2.55.17.42.41-.95,1.75-2,3.16-2.21,5.21C143.66,247.25,142.94,247.26,143,246.79Zm2.71,4.59a.35.35,0,0,1-.68-.19,18.9,18.9,0,0,1,.91-3.06.32.32,0,0,1,.59.16A18.53,18.53,0,0,1,145.69,251.38Zm3.14,1.83c-.11.46-.82.27-.71-.2a11.49,11.49,0,0,1,.66-2.53.3.3,0,0,1,.55.15A11.54,11.54,0,0,1,148.83,253.21Zm4.56,5.08c0,.47-.72.47-.74,0a7.78,7.78,0,0,1,.42-3.25c.11-.26.58-.25.54.08A17.66,17.66,0,0,0,153.39,258.29Zm103.18,0c-.18.22-.59,0-.48-.27a10.31,10.31,0,0,0,1-4.1.37.37,0,0,1,.73,0A6.56,6.56,0,0,1,256.57,258.33Z"/><path d="M280.65,221.67c5.34-11.27,7.65-23.24,3.65-35.33a41.59,41.59,0,0,0-22.39-25.19c-12.36-5.41-27.26-4.63-38.62,2.77-6.49-6.71-16.13-15.71-26.07-15.41-6.12.19-12.21,3-17.67,6.43-3.26-3-6.33-5.63-8.89-9.37a99.46,99.46,0,0,1-6.87-12.42,92.73,92.73,0,0,1-9.24-31.52.53.53,0,0,0-1.06,0c-.62,11.41,3.29,22.62,8.08,32.82,3.54,7.54,8.27,17.49,16,21.78-2.19,1.5-4.26,3.09-6.16,4.63a75.08,75.08,0,0,0-19,23c-3.87,7.29-7.23,16.64-3.92,24.77l0,.08c-7.86-1.61-15.24-4.1-21.77-8.94-7.56-5.59-13.22-13.66-18.4-21.38a.63.63,0,0,0-1.09.64c9.1,16.12,21.71,30.94,41.63,32a.93.93,0,0,0,.67-.24c.28.63.14,1-.88,2.25-1.39,1.68-3,3.14-4.33,4.89a39.16,39.16,0,0,0-6.7,13.32A32.35,32.35,0,0,0,139,252.34c-6.35.41-12.39,1.67-18.82,1A60.59,60.59,0,0,1,98.88,247a.69.69,0,0,0-.7,1.18c11.06,7,28.86,11.28,41.33,5.38a29.36,29.36,0,0,0,2.07,3.66c4.95,7.36,12.89,11.13,21.49,12.35a60.72,60.72,0,0,0,7.86.57c3,0,4.52-.51,6.58,1.81,3,3.33,5.5,6.07,9.64,8,11.22,5.21,25.79,3.63,37.57,1.52,9.16-1.64,19.88-5.38,21.18-15.7,11.87.75,24.28-3.27,30.55-14.07a22.31,22.31,0,0,0,3.05-14.74,19.54,19.54,0,0,0-2.2-5.39c-.85-1.75-.84-1.52.1-3.49,1-2.15,2.23-4.21,3.25-6.37m-6.87,9.74c7.35,6.35,2.22,18.35-3.4,23.93-6.78,6.74-16.42,8.6-25.64,7.77a1.29,1.29,0,0,0-1.27,1.27c-.66,14.31-21.84,15.46-32.33,16-11.95.6-26.79-.19-32.76-12.42a1.29,1.29,0,0,0-1.15-.66c-14.29.63-29.92-1.54-36-16.45-5.73-14,.8-28.63,11.59-38a1.3,1.3,0,0,0,.2-1.56c-10.89-14.57,6.68-36.53,17.27-46.06,6.42-5.76,14.73-11.68,23.27-13.64,11-2.53,20.74,7.26,28.31,14a1.1,1.1,0,0,0,1.71-.27.64.64,0,0,0,.18-.06c17.49-9.19,39.92-6.4,52.17,10a40.91,40.91,0,0,1,8.21,25c-.2,10.83-5.5,20.45-10.52,29.73a1.21,1.21,0,0,0,.19,1.47"/><path d="M304.05,93.72a.81.81,0,0,0-1.58.21C302.8,107,287.31,105.86,279,103c-4.12-1.41-7.77-1.84-11.28-.7a14.1,14.1,0,0,0-5.5-4.11c-5.74-2.53-12.51-2.57-17.88.9-5.09,3.3-7.49,9.37-9.1,15-4.1,14.34-2.14,32.22,10.46,41.7.51.38,1.16-.47.68-.89-10.94-9.59-12.78-26-9-39.32,2-7.26,5.53-14.79,13.77-16.14a16.67,16.67,0,0,1,11.37,2.24,11.84,11.84,0,0,1,2.31,2,17.72,17.72,0,0,0-2.42,1.75c-4.09,3.5-8.09,8.8-6.44,14.5,1.16,4,5.64,7,9.73,5,5.07-2.39,5.53-9.61,5-14.37a17.06,17.06,0,0,0-1.81-6.37c5.95-1.49,11.56,2.84,17.8,3.41,8,.72,19.84-3.9,17.37-13.86m-36.13,20c0,2,0,5.39-1.64,6.82l-5.59,1.64q-3.44-2.75-2.52-6.3c.34-4,4.05-8.09,7.35-10.23l.52-.32a16.28,16.28,0,0,1,1.88,8.39"/><path d="M330.26,150.29a.65.65,0,0,0-1.27.17c.15,4.62-.48,8.4-3.84,11.83-3.14,3.2-7.39,5.92-12,4.76a8.61,8.61,0,0,1-4-2.23,15,15,0,0,0,4.57-3.71c4.33-5.48-.5-19.25-8-12.72-4.18,3.62-3.17,10.32,0,15.22a15.17,15.17,0,0,1-3.9.95c-4,.38-7.57-1.63-11.32-2.73-5.08-1.48-10.09-1.94-14.94.43-.65.32-.08,1.24.56,1,9.28-4,15.58,3.66,24.37,3.92a17,17,0,0,0,6.83-1.43,11.11,11.11,0,0,0,5.9,3.72c5.16,1,10-2.1,13.47-5.58,4-4,5-8.08,3.54-13.56M305.78,158a8.53,8.53,0,0,1-.26-3.85q-.22-4.57,6.84-3c1,1.39,1.23,5.07.55,6.59a11.51,11.51,0,0,1-5.3,5.07,15.72,15.72,0,0,1-1.83-4.8"/><path d="M321.58,207.75c-5.62-.17-11.29.65-16.92.79s-11.3,0-17-.12c-.6,0-.76,1-.15,1.06,10.81,1.77,23.55,2.61,34.22-.26a.75.75,0,0,0-.2-1.47"/><path d="M311.63,286.61c-7.25-3.29-14.65-5.63-21.44-9.91a102.33,102.33,0,0,1-19.11-16.13c-.4-.42-1.17.14-.82.63,9,12.62,25.25,24.84,41.1,26.39a.53.53,0,0,0,.27-1"/><path d="M271.92,337.75c-3.56-1.17-6.61-2.86-8.79-6-.15-.2-.27-.42-.4-.62a7.36,7.36,0,0,0,4.48-3.57c1.93-3.2,1.75-8.62-1.08-11.28-2.22-2.09-5-1.79-6.58.8a12.64,12.64,0,0,0-.74,11.28,9.93,9.93,0,0,1-2.32-.54,17.4,17.4,0,0,1-8.48-7.23c-3.69-5.74-5.27-12.91-6.87-19.46-1.69-6.88-3-13.86-4.35-20.81a.53.53,0,0,0-1,.14,134.14,134.14,0,0,0,3.55,22.18c1.47,6.24,2.94,12.86,6.21,18.46,2.4,4.09,9.06,9.91,14.81,10.24,2.55,4,6.76,7.11,11.22,7.75a.71.71,0,0,0,.38-1.36m-10.35-19.47c3.89-3.42,5.23,6.3,3.55,8.08a6.67,6.67,0,0,1-3.8,1.94,13,13,0,0,1-.54-1.84c-.32-1.55-.72-6.85.79-8.18"/><path d="M193.1,284.77a.57.57,0,0,0-1.13,0c-.59,8.69-.16,17.41-1.29,26.06a70.68,70.68,0,0,1-8,24.5.65.65,0,0,0,1.13.66c10.71-13.88,11.27-34.57,9.29-51.22"/><path d="M170.86,275.16C165.11,288.59,159,302,152,314.86c-7.33,13.41-19.53,24.54-29.43,36.07a.41.41,0,0,0,.58.58c11.37-9.78,23.35-21.32,30.78-34.52,3.88-6.88,7.08-14.19,10.47-21.31,3.06-6.43,6.34-13,7.52-20.09.09-.56-.75-1.06-1-.43"/><path d="M267.33,240.56c-.17-.44-.88-.27-.72.2a36.16,36.16,0,0,1,1.48,9.54c0,.3.49.41.56.07a17.54,17.54,0,0,0-1.32-9.81"/><path d="M264.34,246.39c-.17-.42-.83-.25-.69.18.66,1.93.38,3.63.32,5.6a.24.24,0,0,0,.45.12c1-1.77.63-4.08-.08-5.9"/><path d="M262.13,250.79c0-.52-.83-.52-.81,0a22.76,22.76,0,0,1-.42,3.5c0,.34.47.44.62.17a7,7,0,0,0,.61-3.67"/><path d="M257,254a10.14,10.14,0,0,1-1,4.1c-.11.26.3.49.48.27a6.67,6.67,0,0,0,1.29-4.37.37.37,0,0,0-.74,0"/><path d="M145.38,241.17c-1.69,1.25-2.37,3.61-2.52,5.62,0,.47.68.46.73,0,.25-2,1.26-3.46,2.2-5.21.14-.24-.15-.61-.41-.41"/><path d="M145.8,248.13a18,18,0,0,0-.92,3.06.36.36,0,0,0,.69.19,17.58,17.58,0,0,0,.81-3.09.31.31,0,0,0-.58-.16"/><path d="M148.66,250.48A12.09,12.09,0,0,0,148,253c-.1.47.61.66.72.2a12.13,12.13,0,0,0,.5-2.58.3.3,0,0,0-.55-.15"/><path d="M153.49,255.12c0-.33-.44-.34-.54-.08a8,8,0,0,0-.43,3.25c0,.47.77.47.74,0a17.67,17.67,0,0,1,.23-3.17"/><path class="cls-16" d="M174.33,252.75a4.41,4.41,0,0,0,2.93,2,5.21,5.21,0,0,0,2.57-.58,12.61,12.61,0,0,1-1.41-2.69A10.83,10.83,0,0,1,174.33,252.75Z"/><path class="cls-11" d="M187.55,214.55c5.76,2.28,12.55.54,17.56-2.86s7.65-8.95,8.9-14.59a51,51,0,0,0,1.09-9.78c.09-3.2.32-8.28-3.3-9.69-3.06-1.2-7,1.92-8.27,4.46-1.48,3-.75,6.18.9,8.9a5.63,5.63,0,0,1,4.59-1.58c.41.06.38.7,0,.79a8.86,8.86,0,0,0-4.09,2c-1,.89-1.75,2-2.73,2.93a.33.33,0,0,1-.52-.4,11.08,11.08,0,0,1,2-3l-.07-.05a9.14,9.14,0,0,1-1.55-9.78c-4.37-3.78-9.7-.25-10.54,4.77,0,0,0,0,0,0a.38.38,0,0,1-.19.69c-2.4-.08-4.59-.18-6.68,1.25-2.57,1.75-3.23,4.89-3.05,7.82a8.59,8.59,0,0,0,4.31,7.22,23,23,0,0,0,4.68,1.69,14,14,0,0,1,2.85-9.05,4,4,0,0,1-1.35-3.75.35.35,0,0,1,.66,0,6.08,6.08,0,0,0,1.74,2.75.3.3,0,0,1,.3.26l.33.29a14.6,14.6,0,0,0,3.49,1.44.46.46,0,0,1,0,.88c-1.3.45-3-.14-4.4-1.19a26.21,26.21,0,0,0-2,5,15.86,15.86,0,0,0,.46,8.2.4.4,0,0,1-.72.3,10.84,10.84,0,0,1-1.23-4c-2.48.17-5.32-1.21-7.13-2.72-2.59-2.15-3.53-5.28-3.47-8.56a5.54,5.54,0,0,0-3.85.49,7.29,7.29,0,0,0-2.35,2.78,11,11,0,0,0-1.2,3.66c-.1.82-.33,3.27.53,3.8a.2.2,0,0,1,.09.23s0,0,0,0a.35.35,0,0,1-.34.48c-7.72.21-10.79,9.18-5.83,14.72a12.4,12.4,0,0,0,7.14,3.84c3.3.55,6.15-.53,9.31-1.08a14.62,14.62,0,0,1,1-3.48c.15-.34.67-.09.59.25a14.39,14.39,0,0,0-.62,4.56,8.14,8.14,0,0,0,1.72,4c.22.35-.2.66-.52.52-1.92-.86-2.43-2.79-2.31-4.79-5.11,3.39-13,1.93-17.13-2.53a6.71,6.71,0,0,0-2.18,5.07,8.07,8.07,0,0,0,2.07,5.34,5.91,5.91,0,0,1,4.26-2.3.38.38,0,0,1,.1.74c-5.34,1.13-6.43,9.56-5.26,13.95a7.46,7.46,0,0,0,5.92,5.62c2.36.43,4.53-.29,6.78-.73-1.3-5,.74-10.34,5.11-13.89A10.63,10.63,0,0,1,199,239.11c.34.58-.51,1-.89.52a9.93,9.93,0,0,0-11-3.79c-4.85,1.69-8.8,7.69-7.93,12.76a11.58,11.58,0,0,0,8.36,9.28c4.71,1.2,9.22-1.07,12.23-4.65,3.14-3.75,4.61-8.61,5.95-13.23,1.24-4.24,2.29-8.54,3.21-12.87,1.57-7.36,2.69-14.8,4-22.2a21.7,21.7,0,0,1-5,6.59c-5,4.41-14.56,7.83-20.54,3.53C187.11,214.88,187.25,214.42,187.55,214.55Zm3.68,39.69c-.13.22-.42,0-.39-.16.09-.6.28-1.19.4-1.79.06-.35.61-.2.54.16A6.29,6.29,0,0,1,191.23,254.24Zm3.19.08a.28.28,0,0,1-.55-.07c0-1.18.23-2.32.17-3.5,0-.44.64-.43.68,0A8,8,0,0,1,194.42,254.32Zm2-.28a.29.29,0,0,1-.53-.15c0-1,.22-1.95.27-2.93a26.44,26.44,0,0,0-.13-3c0-.39.51-.4.63-.09C197.38,249.69,197.55,252.39,196.46,254Z"/><path class="cls-11" d="M243.46,236.93a19.88,19.88,0,0,0,7.26-3c2.8-1.87,4.84-4.33,4.71-7.87-.12-3.38-2.53-5.3-5.47-6.4a.26.26,0,0,1,.07-.51,5.36,5.36,0,0,1,2.12.16c.87-1.55,2-2.89,2.62-4.6s.73-5-1.33-5.74c-2.79,4.29-8.37,6.65-13.21,4.43a18,18,0,0,1-.6,2.14c-.11.28-.58.26-.56-.07.13-2,.34-3.93.3-5.9,0-1.65-.35-3.29-.42-4.93a5.09,5.09,0,0,1-3.43-.39c-.29-.13-.11-.52.15-.54,1.58-.13,3,0,4.32-1a6.06,6.06,0,0,0,2.83-3.52.32.32,0,0,1,.61,0c.65,2-1,3.35-2.43,4.41a6.46,6.46,0,0,1-1.23.72,15.09,15.09,0,0,1,.64,8.14c4.8,1.26,9.71-.24,12.23-4.81s.57-12.17-5.82-11a.7.7,0,0,1-.77-1c2.76-4.79-.77-12-6.71-10.47,0,3.53-3.07,7.35-6.08,9a6.88,6.88,0,0,1-.12,4.14.38.38,0,0,1-.74-.1,18.32,18.32,0,0,0-.38-3.84,7.6,7.6,0,0,0-1.94-2.58c-.11-.13-.1-.39.11-.42,1.25-.17,2.22.89,2.74,1.94,2.1-1.82,4.37-3.56,4.77-6.53.59-4.33-3.18-7-7.15-4.9-5,2.64-8.15,9.05-9.36,14.34a32.73,32.73,0,0,0,1.56,18.44,21.4,21.4,0,0,0,4.86,8.28c2.16,2.08,4.67,3.12,7.39,4.21.26.11.25.53-.07.52-7.78-.16-12.18-7.77-14.24-14.28a36,36,0,0,1-1.69-9.69,191.12,191.12,0,0,0-4.41,19.61,143.9,143.9,0,0,0-1.59,26c.14,4.38,1.09,8.57,5.43,10.56a11.21,11.21,0,0,0,10.55-.75.46.46,0,0,1,.61-.47,7,7,0,0,0,1.68-2.08c1.8-3.38.71-8.56-1-11.82a8.84,8.84,0,0,0-11-4.52.33.33,0,0,1-.25-.6c7.09-3.9,13,2.75,14.18,9.31.59,3.23.7,6.87-1.46,9.57a8.11,8.11,0,0,1-1,1c4,2.69,8.7.57,11.61-3.07,3.08-3.85,3.5-8.67,2.38-13.34-.05-.22.27-.37.38-.16a12.72,12.72,0,0,1,1.41,5.8,13.39,13.39,0,0,0,5.68-5.79c1.41-2.79,1-5.57.2-8.38a21,21,0,0,1-9,3.81c-2.73.47-6.61.79-9-1A6.9,6.9,0,0,1,232,240c-.27.17-.63-.18-.45-.45.8-1.23,1.88-2.2,2.33-3.64a26.85,26.85,0,0,0,.52-4.48c0-.25.39-.16.4.05.15,1.64.52,3.47,0,5.08C237.19,237.85,241,237.4,243.46,236.93Zm7.66-9.43a.26.26,0,0,1,.52,0,10.94,10.94,0,0,1,0,3.7c-.07.23-.48.28-.52,0A26.9,26.9,0,0,1,251.12,227.5Zm-2.05,1.75c0-.4.56-.38.61,0a6.57,6.57,0,0,1-.23,3.41c-.13.28-.56.12-.56-.15C248.89,231.41,249.14,230.36,249.07,229.25Zm-3.13,3.5a4.7,4.7,0,0,0,.91-1.83c.08-.38.65-.22.57.16a3.08,3.08,0,0,1-1.16,2C246.07,233.21,245.8,232.94,245.94,232.75Z"/><path class="cls-16" d="M180.63,239.07c-2.55.16-4.82-.73-5.62-3.73-1.11-4.22.59-6.41,2.94-8.31a14.76,14.76,0,0,1-11.59-4.35,6.71,6.71,0,0,0-2.18,5.07,8.07,8.07,0,0,0,2.07,5.34,5.91,5.91,0,0,1,4.26-2.3.38.38,0,0,1,.1.74c-5.34,1.13-6.43,9.56-5.26,13.95a7.46,7.46,0,0,0,5.92,5.62c2.36.43,4.53-.29,6.78-.73A13,13,0,0,1,180.63,239.07Z"/><path class="cls-16" d="M174.3,225.25a17.12,17.12,0,0,0,6.75-.55c.46-.36.92-.73,1.35-1.13-5,1.42-10.85-1-14-5.23a11.33,11.33,0,0,1-2-8.26,9.08,9.08,0,0,0,.78,11.33A12.4,12.4,0,0,0,174.3,225.25Z"/><path class="cls-16" d="M197.1,252.38a4.56,4.56,0,0,1-.64,1.66.29.29,0,0,1-.53-.15,8.61,8.61,0,0,1,.08-1.24c-.41.08-.84.13-1.27.17a5,5,0,0,1-.32,1.5.28.28,0,0,1-.55-.07c0-.46,0-.92.09-1.37h-.78a14.11,14.11,0,0,1-1.47-.11,5,5,0,0,1-.48,1.46c-.13.22-.42,0-.39-.16.07-.47.2-.94.31-1.4a8.81,8.81,0,0,1-6.75-5c-1.66-3.41-.56-7,1.23-10a17.42,17.42,0,0,1-2.84,1c-2.58,2.66-4.18,6.48-3.6,9.89a11.58,11.58,0,0,0,8.36,9.28c4.71,1.2,9.22-1.07,12.23-4.65a21.32,21.32,0,0,0,2.4-3.63A13.87,13.87,0,0,1,197.1,252.38Z"/><path class="cls-16" d="M250.91,235.63a21.21,21.21,0,0,1-7.45,2.8,19.41,19.41,0,0,1-5.44.26c1.64,3.86-2,7.93-5.61,7.45a15.07,15.07,0,0,1,.81,2.82c.59,3.23.7,6.87-1.46,9.57a8.11,8.11,0,0,1-1,1c4,2.69,8.7.57,11.61-3.07,3.08-3.85,3.5-8.67,2.38-13.34-.05-.22.27-.37.38-.16a12.72,12.72,0,0,1,1.41,5.8,13.39,13.39,0,0,0,5.68-5.79c1.39-2.74,1-5.47.24-8.22C252,235.08,251.43,235.36,250.91,235.63Z"/><path class="cls-16" d="M230.67,245.51l-.37-.22c-.85,5.75-7.19,8.05-12.75,5.35a8.54,8.54,0,0,1-4.61-5.71c0,1.47,0,2.94.06,4.4.14,4.38,1.09,8.57,5.43,10.56a11.21,11.21,0,0,0,10.55-.75.46.46,0,0,1,.61-.47,7,7,0,0,0,1.68-2.08C232.94,253.46,232.12,248.77,230.67,245.51Z"/><path d="M254.1,233.21a9.28,9.28,0,0,0,2.51-9.29A6.87,6.87,0,0,0,253,219.7a9.29,9.29,0,0,0,3.54-8.08c-.18-1.31-1.1-3.38-2.46-3.78a12.65,12.65,0,0,0,.59-1.43c1.68-5.18-1.36-11.16-6.89-11.12a8.24,8.24,0,0,0-.85-8.51c-1.77-2.3-5-3.83-7.72-2.57a5.63,5.63,0,0,0-2.36-3.58c-6.24-4.57-13.11,4.9-15.3,9.69a28.64,28.64,0,0,0-2.42,8.92c-3.16,8-4.82,16.75-6,25.16a130.56,130.56,0,0,0-1.53,26.49c.2,3.16,1,6.3,3.39,8.5a12.33,12.33,0,0,0,14.71,1c3.06,3.93,9.56,1.4,12.58-1.54a14.06,14.06,0,0,0,4.23-9c3,0,5.81-3.8,7-6.09a10.15,10.15,0,0,0-.21-9.81c.28-.23.56-.47.82-.72M252.22,243a13.39,13.39,0,0,1-5.68,5.79,12.72,12.72,0,0,0-1.41-5.8c-.11-.21-.43-.06-.38.16,1.12,4.67.7,9.49-2.38,13.34-2.91,3.64-7.65,5.76-11.61,3.07a8.11,8.11,0,0,0,1-1c2.16-2.7,2.05-6.34,1.46-9.57-1.21-6.56-7.09-13.21-14.18-9.31a.33.33,0,0,0,.25.6,8.84,8.84,0,0,1,11,4.52c1.66,3.26,2.75,8.44,1,11.82a7,7,0,0,1-1.68,2.08.46.46,0,0,0-.61.47,11.21,11.21,0,0,1-10.55.75c-4.34-2-5.29-6.18-5.43-10.56a143.9,143.9,0,0,1,1.59-26A191.12,191.12,0,0,1,219,203.74a36,36,0,0,0,1.69,9.69c2.06,6.51,6.46,14.12,14.24,14.28.32,0,.33-.41.07-.52-2.72-1.09-5.23-2.13-7.39-4.21a21.4,21.4,0,0,1-4.86-8.28,32.73,32.73,0,0,1-1.56-18.44c1.21-5.29,4.33-11.7,9.36-14.34,4-2.08,7.74.57,7.15,4.9-.4,3-2.67,4.71-4.77,6.53-.52-1-1.49-2.11-2.74-1.94-.21,0-.22.29-.11.42a7.6,7.6,0,0,1,1.94,2.58,18.32,18.32,0,0,1,.38,3.84.38.38,0,0,0,.74.1,6.88,6.88,0,0,0,.12-4.14c3-1.62,6.07-5.44,6.08-9,5.94-1.51,9.47,5.68,6.71,10.47a.7.7,0,0,0,.77,1c6.39-1.15,8.27,6.55,5.82,11s-7.43,6.07-12.23,4.81a15.09,15.09,0,0,0-.64-8.14,6.46,6.46,0,0,0,1.23-.72c1.44-1.06,3.08-2.44,2.43-4.41a.32.32,0,0,0-.61,0A6.06,6.06,0,0,1,240,202.8c-1.36,1-2.74.83-4.32,1-.26,0-.44.41-.15.54a5.09,5.09,0,0,0,3.43.39c.07,1.64.39,3.28.42,4.93,0,2-.17,3.93-.3,5.9,0,.33.45.35.56.07a18,18,0,0,0,.6-2.14c4.84,2.22,10.42-.14,13.21-4.43,2.06.78,1.93,4,1.33,5.74s-1.75,3.05-2.62,4.6a5.36,5.36,0,0,0-2.12-.16.26.26,0,0,0-.07.51c2.94,1.1,5.35,3,5.47,6.4.13,3.54-1.91,6-4.71,7.87a19.88,19.88,0,0,1-7.26,3c-2.5.47-6.27.92-8.6-.36.5-1.61.13-3.44,0-5.08,0-.21-.37-.3-.4-.05a26.85,26.85,0,0,1-.52,4.48c-.45,1.44-1.53,2.41-2.33,3.64-.18.27.18.62.45.45a6.9,6.9,0,0,0,2.46-2.6c2.35,1.81,6.23,1.49,9,1a21,21,0,0,0,9-3.81c.82,2.81,1.21,5.59-.2,8.38"/><path d="M251.64,227.5a.26.26,0,0,0-.52,0,26.9,26.9,0,0,0-.05,3.7c0,.28.45.23.52,0a10.94,10.94,0,0,0,0-3.7"/><path d="M249.68,229.25c-.05-.38-.64-.4-.61,0,.07,1.11-.18,2.16-.18,3.26,0,.27.43.43.56.15a6.57,6.57,0,0,0,.23-3.41"/><path d="M246.85,230.92a4.7,4.7,0,0,1-.91,1.83c-.14.19.13.46.32.33a3.08,3.08,0,0,0,1.16-2c.08-.38-.49-.54-.57-.16"/><path d="M196.7,247.91c-.12-.31-.66-.3-.63.09a26.44,26.44,0,0,1,.13,3c0,1-.3,1.95-.27,2.93a.29.29,0,0,0,.53.15c1.09-1.65.92-4.35.24-6.13"/><path d="M194.72,250.75c0-.43-.7-.44-.68,0,.06,1.18-.15,2.32-.17,3.5a.28.28,0,0,0,.55.07,8,8,0,0,0,.3-3.57"/><path d="M191.24,252.29c-.12.6-.31,1.19-.4,1.79,0,.21.26.38.39.16a6.29,6.29,0,0,0,.55-1.79c.07-.36-.48-.51-.54-.16"/><path d="M215.11,178.16c-1.73-2.61-5.11-2.68-7.79-1.58a9.5,9.5,0,0,0-4.62,4.07c-3.81-4.66-12.47-.11-11.84,5.63-2.2-1-5-.26-6.91,1a8.74,8.74,0,0,0-3.76,6.7c-2.63-1.73-6,1.19-7.3,3.47-1,1.76-2.64,6.41-.9,8.42-7.18,0-10.44,8.68-7.23,14.59a10.33,10.33,0,0,0,.9,1.36c-4.26,1.54-3.73,9.87-.11,12.21-2.1,3.41-2.45,8.66-1.65,11.82a9.3,9.3,0,0,0,9.32,6.92,4.76,4.76,0,0,0,3.54,3.31,4.82,4.82,0,0,0,3.92-.79l.22.27c5,5.55,13.07,5.28,18.39.45,6.5-5.9,8.35-16.18,10.23-24.33a244.16,244.16,0,0,0,4.94-30.41,44,44,0,0,0,2.11-11.23c.24-3.71.72-8.62-1.46-11.91m-37.85,76.62a4.41,4.41,0,0,1-2.93-2,10.83,10.83,0,0,0,4.09-1.24,12.61,12.61,0,0,0,1.41,2.69,5.21,5.21,0,0,1-2.57.58m37.84-67.46A51,51,0,0,1,214,197.1c-1.25,5.64-4,11.26-8.9,14.59s-11.8,5.14-17.56,2.86c-.3-.13-.44.33-.21.5,6,4.3,15.51.88,20.54-3.53a21.7,21.7,0,0,0,5-6.59c-1.29,7.4-2.41,14.84-4,22.2-.92,4.33-2,8.63-3.21,12.87-1.34,4.62-2.81,9.48-5.95,13.23-3,3.58-7.52,5.85-12.23,4.65a11.58,11.58,0,0,1-8.36-9.28c-.87-5.07,3.08-11.07,7.93-12.76a9.93,9.93,0,0,1,11,3.79c.38.53,1.23.06.89-.52a10.63,10.63,0,0,0-15.88-2.63c-4.37,3.55-6.41,8.91-5.11,13.89-2.25.44-4.42,1.16-6.78.73a7.46,7.46,0,0,1-5.92-5.62c-1.17-4.39-.08-12.82,5.26-13.95a.38.38,0,0,0-.1-.74,5.91,5.91,0,0,0-4.26,2.3,8.07,8.07,0,0,1-2.07-5.34,6.71,6.71,0,0,1,2.18-5.07c4.15,4.46,12,5.92,17.13,2.53-.12,2,.39,3.93,2.31,4.79.32.14.74-.17.52-.52a8.14,8.14,0,0,1-1.72-4,14.39,14.39,0,0,1,.62-4.56c.08-.34-.44-.59-.59-.25a14.62,14.62,0,0,0-1,3.48c-3.16.55-6,1.63-9.31,1.08a12.4,12.4,0,0,1-7.14-3.84c-5-5.54-1.89-14.51,5.83-14.72a.35.35,0,0,0,.34-.48s0,0,0,0a.2.2,0,0,0-.09-.23c-.86-.53-.63-3-.53-3.8a11,11,0,0,1,1.2-3.66,7.29,7.29,0,0,1,2.35-2.78,5.54,5.54,0,0,1,3.85-.49c-.06,3.28.88,6.41,3.47,8.56,1.81,1.51,4.65,2.89,7.13,2.72a10.84,10.84,0,0,0,1.23,4,.4.4,0,0,0,.72-.3,15.86,15.86,0,0,1-.46-8.2,26.21,26.21,0,0,1,2-5c1.37,1,3.1,1.64,4.4,1.19a.46.46,0,0,0,0-.88,14.6,14.6,0,0,1-3.49-1.44l-.33-.29a.3.3,0,0,0-.3-.26,6.08,6.08,0,0,1-1.74-2.75.35.35,0,0,0-.66,0,4,4,0,0,0,1.35,3.75,14,14,0,0,0-2.85,9.05,23,23,0,0,1-4.68-1.69,8.59,8.59,0,0,1-4.31-7.22c-.18-2.93.48-6.07,3.05-7.82,2.09-1.43,4.28-1.33,6.68-1.25a.38.38,0,0,0,.19-.69s0,0,0,0c.84-5,6.17-8.55,10.54-4.77a9.14,9.14,0,0,0,1.55,9.78l.07.05a11.08,11.08,0,0,0-2,3,.33.33,0,0,0,.52.4c1-.9,1.73-2,2.73-2.93a8.86,8.86,0,0,1,4.09-2c.38-.09.41-.73,0-.79a5.63,5.63,0,0,0-4.59,1.58c-1.65-2.72-2.38-5.91-.9-8.9,1.26-2.54,5.21-5.66,8.27-4.46,3.62,1.41,3.39,6.49,3.3,9.69"/></g></g></svg>