<svg xmlns="http://www.w3.org/2000/svg" viewBox="0 0 2185.98 1322.16"><defs><style>.cls-1{fill:#798ee8;}.cls-2{fill:#aec3ff;}.cls-3{fill:#849def;}.cls-4{fill:#8c9df4;}.cls-5{opacity:0.5;}.cls-6{fill:#5d70c1;}.cls-7{fill:#233862;}.cls-8{fill:#f77d48;}.cls-9{fill:#cc613b;}.cls-10{fill:#505aba;}.cls-11{fill:#ffa25c;}.cls-12{fill:#a8d29f;}.cls-13{fill:#739af0;}.cls-14{fill:#152949;}.cls-15{fill:#f99746;}.cls-16{fill:#ed985f;}.cls-17{fill:#ffb27d;}.cls-18{fill:#94b0ed;}.cls-19{fill:#0a2035;}.cls-20{fill:#5a7de0;}.cls-21{fill:#0d2644;}.cls-22{fill:#ebf3fa;}.cls-23{fill:#fff;}.cls-24{fill:#d86036;}.cls-25{fill:#182b49;}.cls-26{fill:#2b478b;}.cls-27{fill:#ed975d;}.cls-28{fill:#b5453c;}.cls-29{fill:#060633;}.cls-30{opacity:0.4;}.cls-31{fill:#4545af;}.cls-32{opacity:0.8;}.cls-33{fill:#e8945b;}.cls-34{fill:#243f77;}.cls-35{fill:#152f54;}.cls-36{fill:#1d3868;}</style></defs><title>play-game</title><g id="Layer_2" data-name="Layer 2"><g id="_Layer_" data-name="&lt;Layer&gt;"><path class="cls-1" d="M967.77,667.74l-51.64,614s-5.41,37.22,22.28,37.28c45.52.11,226.56,0,226.56,0s-34.26-7.75-33.85-25.18c.49-20.54,60.36-631.89,60.36-631.89Z"/><path class="cls-2" d="M1182,1307.84c-9,0-184.22.33-228.55-.24-19.32-.24-22.71-17.18-22.87-28.14a54.59,54.59,0,0,1,.59-9.14l1.34-16,3.43-40.67,3-35.94,3.88-46.17,3.27-39,36.7-436.27,223.7-5.81s-25.21,255.85-43,442.08c-2,20.75-3.88,40.65-5.63,59.22q-.85,8.9-1.65,17.37c-1.65,17.62-3.16,33.8-4.48,48.09-.69,7.53-1.33,14.53-1.91,20.94-2.27,25.11-3.61,41.15-3.63,44.2a26,26,0,0,0,.44,5C1150.28,1307,1178.65,1307.84,1182,1307.84Z"/><polygon class="cls-2" points="424.49 333.37 550.27 838.6 567.49 907.79 626.07 1143.11 1714.43 1143.11 1498.5 333.37 424.49 333.37"/><polygon class="cls-1" points="424.49 333.37 407.06 339.18 602.9 1160.69 626.07 1143.11 424.49 333.37"/><polygon class="cls-3" points="602.9 1160.69 1684.55 1160.69 1714.42 1143.11 626.07 1143.11 602.9 1160.69"/><rect class="cls-2" x="982.74" y="1307.84" width="234.19" height="11.13" transform="translate(2199.68 2626.81) rotate(180)"/><polygon class="cls-4" points="1157.4 1160.68 1156.19 1169.19 935.95 1213.69 938.97 1177.75 940.41 1160.68 1157.4 1160.68"/><g class="cls-5"><path class="cls-4" d="M1182,1307.84c-9,0-184.22.33-228.55-.24-19.32-.24-22.71-17.18-22.87-28.14l219.21-41.24c-2.27,25.11-3.61,41.15-3.63,44.2a26,26,0,0,0,.44,5C1150.28,1307,1178.65,1307.84,1182,1307.84Z"/></g><polygon class="cls-4" points="424.49 333.37 1498.5 333.37 1672.76 984.15 586.5 984.15 424.49 333.37"/><polygon class="cls-6" points="1622.11 955.95 616.5 955.95 580.57 812.79 566.66 757.4 561 734.82 524.06 587.7 522.15 580.04 502.63 502.28 493.89 467.48 486.44 437.8 480.36 413.6 468.97 368.23 1460.08 368.23 1472.59 413.6 1479.26 437.8 1487.44 467.48 1497.03 502.28 1560.23 731.5 1560.23 731.52 1565.58 750.94 1568.07 759.95 1611.7 918.2 1622.11 955.95"/><polygon class="cls-4" points="994.55 984.15 626.44 1145.01 586.5 984.15 994.55 984.15"/><path class="cls-7" d="M288.24,721.37l-72-25c-11.69-4.06-25.45,5-30.74,20.24l-4.51,13,114.78,39.85,3.79-13.89C304.76,740.66,299.68,725.34,288.24,721.37Z"/><path class="cls-7" d="M728.56,874.26l-72-25c-11.69-4.06-25.45,5-30.74,20.24l-4.52,13,114.79,39.86,3.78-13.89C745.08,893.55,740,878.24,728.56,874.26Z"/><path class="cls-8" d="M622.69,1318.68c-3.91-.88-72.38-13.41-90.08-79.25-5.6-20.82-9.81-46.07-12.89-72.83a91.52,91.52,0,0,0-61-75.85l-149.61-51.94a99.73,99.73,0,0,0-102.95,23.6c-17.83,17.7-35.54,33.61-51.78,45.7-54.7,40.7-116.2,8.1-119.81,6.37-35-16.77-43.38-58.32-25.47-90.29L167.39,741.62a66,66,0,0,1,13.92-17.3A31,31,0,0,1,212,718.39l59.17,20.55c3.71,1.29,12.87,4.43,17.35,9.09,23.29,24.21,48.74,42.88,85.16,56L575.48,874.1c23.6,8.19,26.44-.14,50.33-7.46l.08,0a26.79,26.79,0,0,1,16.49.47l89.52,31.09a24.9,24.9,0,0,1,15.77,16.3,66.21,66.21,0,0,1,1.89,29.29L698.63,1263.6C692.88,1299.79,660.56,1327.22,622.69,1318.68Z"/><path class="cls-9" d="M140.16,834c17-48.8,69.82-74.78,118.1-58S331.94,845.93,315,894.73s-69.83,74.78-118.1,58S123.21,882.83,140.16,834Z"/><path class="cls-7" d="M287,999.76a47.08,47.08,0,1,1,29,59.93A47.08,47.08,0,0,1,287,999.76Z"/><path class="cls-10" d="M302.53,1005.17a30.59,30.59,0,1,1,18.86,38.93A30.59,30.59,0,0,1,302.53,1005.17Z"/><path class="cls-7" d="M411.94,1043.16a47.09,47.09,0,1,1,29,59.93A47.08,47.08,0,0,1,411.94,1043.16Z"/><path class="cls-10" d="M427.52,1048.57a30.59,30.59,0,1,1,18.87,38.94A30.59,30.59,0,0,1,427.52,1048.57Z"/><path class="cls-7" d="M495.1,930.71l-130.45-45.3a32.51,32.51,0,0,1-20-41.39l15.68-45.17,191.25,66.41-15.91,45.81A31.83,31.83,0,0,1,495.1,930.71Z"/><path class="cls-11" d="M230.08,798.18,262,809.27c11.45,4,13.21,19.56,3,26.17l-26.21,16.91a9,9,0,0,1-13.49-4.68l-11.34-33.19C210.48,804.42,220.1,794.72,230.08,798.18Z"/><path class="cls-11" d="M224.09,924.14l-31.92-11.08c-11.45-4-13.22-19.56-3-26.18L215.41,870a9.06,9.06,0,0,1,13.5,4.69l11.34,33.18C243.69,917.9,234.07,927.61,224.09,924.14Z"/><path class="cls-11" d="M295.09,867l-11.21,32.27c-4,11.58-19.48,13.46-26,3.16L241.32,876.1a9.26,9.26,0,0,1,4.73-13.64l33-11.66A12.63,12.63,0,0,1,295.09,867Z"/><path class="cls-11" d="M161.16,858.64l11.2-32.27c4-11.57,19.49-13.45,26-3.15l16.59,26.31a9.26,9.26,0,0,1-4.73,13.64l-33,11.66A12.63,12.63,0,0,1,161.16,858.64Z"/><path class="cls-9" d="M530.51,969.57c17-48.81,69.82-74.78,118.1-58s73.68,69.91,56.74,118.71-69.82,74.78-118.1,58S513.57,1018.37,530.51,969.57Z"/><path class="cls-11" d="M618.15,951.32A19.28,19.28,0,1,1,630,975.86,19.28,19.28,0,0,1,618.15,951.32Z"/><path class="cls-12" d="M589.77,1033.08a19.28,19.28,0,1,1,11.88,24.53A19.26,19.26,0,0,1,589.77,1033.08Z"/><path class="cls-13" d="M669.66,994.6a19.28,19.28,0,1,1-24.54,11.89A19.29,19.29,0,0,1,669.66,994.6Z"/><path class="cls-7" d="M588.59,966.47a19.28,19.28,0,1,1-25,11A19.27,19.27,0,0,1,588.59,966.47Z"/><path class="cls-14" d="M1163,823.48a31.41,31.41,0,0,0-30.48,39l67.24,270.09,10.53,42.33L1240.24,1295a31.43,31.43,0,0,0,30.49,23.83h600.39a31.42,31.42,0,0,0,30.36-39.51L1786.13,846.8a31.41,31.41,0,0,0-30.35-23.32Z"/><path class="cls-10" d="M1184.93,823.48a31.41,31.41,0,0,0-30.48,39l67.24,270.09,10.53,42.33L1262.13,1295a31.42,31.42,0,0,0,30.48,23.83H1893a31.42,31.42,0,0,0,30.36-39.51L1808,846.8a31.42,31.42,0,0,0-30.35-23.32Z"/><path class="cls-15" d="M1870.85,1299h-563.2a29.42,29.42,0,0,1-28.6-22.08l-28-111.41-9.88-39.25-26.35-104.58L1178,875.79c-4.63-18.38,9.44-36.17,28.6-36.17h556a29.4,29.4,0,0,1,28.47,21.63l108.21,401.09C1904.31,1280.83,1890.22,1299,1870.85,1299Z"/><g id="girl_2" data-name="girl 2"><path class="cls-7" d="M1735.88,910c-17.73-5.17-37.76.76-50.27,14.35-30.95,33.61-8.13,59.53-23.62,83.06-9.36,14.22-17.22,39.12,11.78,53.85,13.4,6.81,53.35,42.4,61.52,43.24,82.88,8.51,84.37-75.57,56.43-99.94C1752.46,970.34,1788.33,925.32,1735.88,910Z"/><path class="cls-16" d="M1692.57,1040s-75.64,36.65-89.81,36S1500,1044.22,1500,1044.22l2.22,15s67.38,38.75,90.93,41c23.19,2.16,102.49-20.81,110.15-25.66S1714.81,1044.92,1692.57,1040Z"/><path class="cls-17" d="M1684.24,1074.57a74.94,74.94,0,0,0,26.24,11.16c40.45,9.35,56-24.84,61.77-48.3a34.77,34.77,0,0,0-13.71-4.21c-2.92-.35-6-.58-8.54-.7-4.54-3.48-11.31-17.72-12.81-39.82l-1.9.51-31.88,8.72s1.47,10.13,2.18,19.71c.55,7.5.64,14.66-.78,16.41-2.49.54-4,.89-4,.89l0,0A206,206,0,0,0,1684.24,1074.57Z"/><path class="cls-16" d="M1703.41,1001.94s1.47,10.12,2.18,19.71c18.06-1.81,26.44-19,29.7-28.44Z"/><path class="cls-17" d="M1698,1011.45s42.87-2.37,41-29,2.38-44.94-25.07-44.56-32,10.94-33.57,20S1686.82,1011.38,1698,1011.45Z"/><path class="cls-7" d="M1680.57,942.92c6-8.5,11.17-7.09,14.14-4.88,22.48-14.55,38.93,3.39,38.93,3.39a51.08,51.08,0,0,0,18.82,28.91s-7.6,6.07-25.78,2c-23.27-5.16-31.25-25.33-32.34-28.43-2.45,2.54-5.6,4.15-8,9.65-2.87,6.53-4.68,10.32-4.73,21C1681.58,974.65,1671.5,955.67,1680.57,942.92Z"/><path class="cls-13" d="M1784.46,1161.72c3.87-19.79,16.49-98.85,3.87-124.29-4.53-9.14-22.32-10-41.84-9.17-6.07,3.92-29.21,18.74-38.71,16.89l-.54-.12c-4.47-1.12-6.16-4.27-2.43-7a66,66,0,0,0-20.57,2.87c-13.65,4-25.4,12.7-25.4,12.7s8.44,13.13,22,18.88c-2.31,20.65,1.13,29.76,22.55,77.47,18.11,40.33-2.44,76.64-2.44,76.64s106.59,85.7,107.19,42.06C1808.6,1235.82,1779.51,1187,1784.46,1161.72Z"/><path class="cls-18" d="M1695.69,1319.79a19.8,19.8,0,0,1-14.26-8.67l-1.65-2.49c-12.13-18.36-16.85-74.61-44.14-134.54-6.65-14.59-30.51-17.21-37-33.7,0,0-16-53.46,30.66-55s125,148.73,126.21,164.49C1756.69,1265.12,1786.34,1330,1695.69,1319.79Z"/><path class="cls-19" d="M1510.21,1319.49h66.42s2.48-10.88-1.88-18.28c-3.86-6.55-2.38-10.28.48-15.7a25.32,25.32,0,0,1-11.19,2.16c-3.3-.19-6.8-1.73-9.87-3.56-2.86,3.34-15.1,17.59-18.93,20.41C1530.9,1307.72,1511.55,1306.58,1510.21,1319.49Z"/><path class="cls-18" d="M1597.11,1100.81c-4,30-19.62,124.62-47.17,170.79-8.89,14.89,22.38,23.23,22.55,23.19,4.19-1.1,11.17-7.78,14.39-10.68,22.37-20.16,67.78-77.24,67.78-123,0-22.31.39-64.93-15.84-75.76C1628.83,1078.67,1598.69,1088.9,1597.11,1100.81Z"/><path class="cls-20" d="M1781.85,1074.53s-13.48,27.42-76.4,46.79-26.93-29.3-26.93-29.3l88-30.74Z"/><path class="cls-2" d="M1728.12,1319.86a49,49,0,0,1-5.5-12.54c-3.57-12.53-4.84-21.65-11.7-41.17-7.2-20.48-15.75-45.69-26.43-71.92-3.29-8.09-6.79-16.29-10.52-24.47-6.65-14.59-24.93-12.57-31.44-29.06,0,0-25.38-57.18,21.28-58.75s135.34,152.94,140.44,167.9C1809.83,1266.24,1829.87,1335.56,1728.12,1319.86Z"/><path class="cls-21" d="M1559,1319.49h66.42s2.48-10.88-1.88-18.28c-3.86-6.55-2.38-10.28.48-15.7a25.32,25.32,0,0,1-11.19,2.16c-3.31-.19-6.81-1.73-9.88-3.56-2.85,3.34-15.09,17.59-18.92,20.41C1579.66,1307.72,1560.31,1306.58,1559,1319.49Z"/><g class="cls-5"><path class="cls-18" d="M1710.92,1266.15c-7.2-20.48-15.75-45.69-26.43-71.92,2.79-19.87,8.81-37.25,18.92-44.26C1703.41,1150,1728,1226,1710.92,1266.15Z"/></g><path class="cls-2" d="M1635.88,1098.68c-4,30-9.63,126.75-37.19,172.92-8.88,14.89,22.38,23.23,22.55,23.19,4.2-1.1,11.18-7.78,14.4-10.68,22.37-20.16,67.77-77.24,67.77-123,0-22.31-26.18-63.14-42.41-74C1651,1080.46,1637.47,1086.77,1635.88,1098.68Z"/><path class="cls-10" d="M1492.1,1005.58l68-7.22a4.4,4.4,0,0,1,4.57,2.8l24.34,63.95a4.39,4.39,0,0,1-3.93,6l-67.5,2.72a4.37,4.37,0,0,1-4.22-2.69l-24.87-59.45A4.4,4.4,0,0,1,1492.1,1005.58Z"/><path class="cls-7" d="M1486.19,1006.2l68-7.22a4.4,4.4,0,0,1,4.57,2.8l24.34,64a4.39,4.39,0,0,1-3.93,6l-67.49,2.72a4.37,4.37,0,0,1-4.23-2.69l-24.86-59.45A4.39,4.39,0,0,1,1486.19,1006.2Z"/><path class="cls-22" d="M1523.89,1036.06c-.83-2.28.35-4.13,2.63-4.13a6.53,6.53,0,0,1,5.64,4.13c.83,2.28-.34,4.13-2.63,4.13A6.56,6.56,0,0,1,1523.89,1036.06Z"/><path class="cls-22" d="M1488.23,1012.25a1.38,1.38,0,0,1,1.29-2,3.21,3.21,0,0,1,2.77,2,1.37,1.37,0,0,1-1.29,2A3.21,3.21,0,0,1,1488.23,1012.25Z"/><path class="cls-17" d="M1772.25,1037.43s-94.27,34.72-108.44,34c-9.15-.46-85.26-27.21-85.26-27.21l-6.83,12.93s74.07,47.6,94.44,47.37c40.2-.47,108-25.14,115.69-30S1794.5,1042.34,1772.25,1037.43Z"/><path class="cls-17" d="M1578.55,1044.22s-6.83-10.51-13.63-10.82-18.55,4.64-22.57,5.41-15.46,4.49-12.06,10,19.17,6.81,26,5.57,15.46,2.72,15.46,2.72Z"/><path class="cls-17" d="M1566.77,1033.72s-10.82-5-13.91-5.88-2.47,0-1.54,2.94,6.49,5.73,6.49,6.65S1566.77,1033.72,1566.77,1033.72Z"/><path class="cls-17" d="M1493.2,1038.66s4.31-14.22,9-9.76c4.94,4.65,1.94,9.31,1.34,15.23-1.16,11.34-3.45,10.85-4.9,10.34S1491.59,1044.36,1493.2,1038.66Z"/><path class="cls-17" d="M1492.94,1040.82s-2.18,12.11,9.31,18.42l-3.4-8.33Z"/><path class="cls-23" d="M1690,996.11s4.06-1.6,15.46-.68c0,0-.6,4.45-9,4.89C1691.67,1000.57,1690,996.11,1690,996.11Z"/><path class="cls-13" d="M1723.68,1054.55s8.43,26.69,37.39,32.76c0,0,47.82-14.73,24-47.31C1785.08,1040,1761.54,1022.51,1723.68,1054.55Z"/><path class="cls-17" d="M1492.94,1042.53s-2-6.66-2.1-7.81,0-1.73,1.05-.93,2.58,3,2.12,5S1492.94,1042.53,1492.94,1042.53Z"/></g><path class="cls-17" d="M1215.06,710.67c-8,4.32-18.58,4.31-24.55,6.2-5.55,1.76-6.76,7.57-6.76,7.57L1180.22,712l-2.54-3.75s5.81-9.21,7-12.33,4.51-6.59,8-7.47,9.67-5,10.44-4.08c1.88,2.32-8,6.91-8.22,9.12a2.17,2.17,0,0,0,1.49,2.59h0c8.6,2.7,29-5.43,30.61-.53C1227.58,697.42,1218.46,708.83,1215.06,710.67Z"/><path class="cls-8" d="M1191.43,719s-36.35,89.33-77.84,95.9c-5.16.82-10.7-.06-16.45-2.23h0c-18.76-7.08-39.73-27.88-56.81-48.15A495.5,495.5,0,0,1,1006,718.4s5.57-67.3,19.48-59.87c29.2,15.59,64,89.63,84.25,105.14l66.17-56.91S1186.29,709.15,1191.43,719Z"/><path class="cls-24" d="M1097.13,812.67c-18.76-7.08-39.73-27.88-56.81-48.15.25-32.76,1.66-66.77,4.1-46.58C1048.66,753.15,1096.38,811.75,1097.13,812.67Z"/><path class="cls-25" d="M856.93,1318.82H822.5c-4.34-2.25-8.2-7.4-9.42-15.09-1.68-10.61-14.11-16.4-16.8-25.08s11.09-20.89,11.09-20.89l2.31-2.85,2.39-3,22.85,5.15s.57,5.21.91,11.84a144.73,144.73,0,0,1,.1,15.17c-.67,11.57,3.38,24,14.13,26.29C858,1312.07,857.66,1316.58,856.93,1318.82Z"/><path class="cls-25" d="M1056.73,1318.82H978c-3.79-4.42-2.39-20.73-1.82-26.06.12-1.07.2-1.7.2-1.7s26.88-20.58,30.58-4.82c.11.49.25,1,.4,1.45,4.65,14.74,25.52,21.44,37.57,23.3C1052.76,1312.21,1055.66,1316.11,1056.73,1318.82Z"/><path class="cls-26" d="M1041.73,898.33s-4.08,48.73-8.88,107.31c-6.52,79.58-14.37,177.33-15.14,195.85-1.34,32.15-6.72,83.59-6.72,83.59s-12.77,12.22-38.31,7.07c0,0-22.76-73.43-29.26-151.11-.1-1.28-.2-2.56-.31-3.84-6-79.09-15.45-245.62-15.45-245.62Z"/><path class="cls-7" d="M1041.73,898.33s-4.08,48.73-8.88,107.31L943.42,1141c-.1-1.28-.2-2.56-.31-3.84-6-79.09-15.45-245.62-15.45-245.62Z"/><path class="cls-26" d="M1023.08,904.11s-73.58,176.5-122,259.45-63.51,106.09-63.51,106.09-27.72-10.61-30.24-17.84c0,0,18.5-160.13,50.9-199.17,18.31-22.05,39.82-88.25,40.83-111.39s6.55-69,6.55-69Z"/><path class="cls-8" d="M1054.64,873.36c-1.34,17.7-5.07,30.38-13.27,30.38a275.78,275.78,0,0,1-80,13.17c-8.52.07-20.58-1.59-30.58-3.27-10.22-1.73-18.31-3.48-18.31-3.48-8.75-2-18.42-7.43-17.12-17.41.68-5.32,1.18-12.14,1.52-20,0-.5,0-1,.07-1.53.67-16.12.8-36.49.86-57.67,0-9.22,0-18.6.06-27.85,0-8.81.1-17.51.23-25.84.13-9.39.33-18.34.67-26.48,0,0-8-54.74,1.53-64.64,11.19-11.59,43.88-22.19,67.74-21.28,49.75,0,59.28,11.38,68,20.6,3,3.18,15,22.67,15.35,44.06.45,29.84-.71,63.73-.71,63.74.31,4.85.83,11.09,1.4,18.23.61,7.59,1.29,16.18,1.86,25.13.28,4.51.54,9.11.76,13.71C1055.35,847.09,1055.55,861.38,1054.64,873.36Z"/><path class="cls-17" d="M991.31,654.82c-13.66,11-36.74,2.59-44.43-.7a4,4,0,0,1-2.4-3.88,91.71,91.71,0,0,0-3.92-30.89c-.11-.35,2.68-.26,6.91.09,12.61,1,38.13,4.22,39.26,4.36h0s1.17,5.71,3.75,15.86q.33,1.33.72,2.79c.3,1.19.62,2.45,1,3.74a37.25,37.25,0,0,1,.85,4.28A4.76,4.76,0,0,1,991.31,654.82Z"/><path class="cls-27" d="M990.54,639.64c-17.53,6.94-48.74-15.73-48.74-15.73a28.66,28.66,0,0,1,5.67-4.47c12.61,1,38.13,4.22,39.26,4.36h0S988,629.49,990.54,639.64Z"/><path class="cls-17" d="M994,621.2a93.75,93.75,0,0,1-16.39,6.56c-13.63,4-32.12,5.7-40.44-10.27-14-26.88-29-42-2.26-57.93,14.31-8.54,24-10.36,31-9,6.08,1.16,10.1,4.72,13.28,8.37C986.11,566.75,1004.81,614.47,994,621.2Z"/><path class="cls-28" d="M974.82,558.56c-6.4,4.88-15.58,7.61-18.73,9.63a12.11,12.11,0,0,0-4.72,6.95,35.64,35.64,0,0,0-.89,13.16c.45,3.81.44,7.07-9.54,6.28a7.37,7.37,0,0,0-1.33,0,3.69,3.69,0,0,0-2.13.74c-3.63,3,3.23,13.69,5.15,15.95a18.2,18.2,0,0,1,1.28,5.32,9.63,9.63,0,0,1-2,7.23l-.08.09c-.39.42-5.4,3.64-19.56-7.62-2.33-1.84-4.89-4.07-7.72-6.77-3.3-3.13-6.94-6.9-11-11.4-4.52-5-9.94-17.1-6.14-30.1s19-30.68,39.9-33.89c16.57-2.53,18.66,2.9,32.85,2.74C980,536.75,985.84,550.15,974.82,558.56Z"/><path class="cls-23" d="M991.45,602.85s1.16,3.59-6.93,7.82c0,0-6.79,3.56-8.68,0C975.84,610.66,980.71,604.37,991.45,602.85Z"/><path class="cls-24" d="M931.55,742.77c-.43.84-22.95,44-33.74,70.73,0-9.22,0-18.6.06-27.85,0-8.81.1-17.51.23-25.84Z"/><path class="cls-17" d="M827.41,891.44s-5.49,7.31-5.71,10.23c-1.47,19.79,7.57,22.52-15.84,33.51,0,0-10,3.82-10.16-3.94s6.93-7.89,5.63-18.75c-1.5-12.53-1.35-12.65,6.88-19.19l5.44-9Z"/><path class="cls-17" d="M818.75,900.14s5.28,5.51,5.62,7.8c1.07,7.35,3.52,10.53,2.29,11.33-2.55,1.66-5.94-3.78-7.56-8.67A22.45,22.45,0,0,1,818.75,900.14Z"/><path class="cls-8" d="M812,896a71.74,71.74,0,0,0,16.43.92s23.4-72.3,26.42-78.9,85.73-83.71,85.73-83.71-7.28-82.14-27.17-74.57c-37,14.08-88.68,124.33-96,141.21-12.07,27.9-16.26,90.44-16.26,90.44A30.12,30.12,0,0,0,812,896Z"/><path class="cls-29" d="M932.54,612l-10.3,4.33c-2.33-1.84-4.89-4.07-7.72-6.77l12.22-8.88Z"/><path class="cls-2" d="M991.68,591.71l-45.37,23.94a12.16,12.16,0,0,1-5.54,1.39H940c-2.87.05-5.83-2-7.42-5.1l-5.8-11.31c-2-3.86-2-8.27-.11-11.32h0a7.19,7.19,0,0,1,2.73-2.56l46.71-24.64c3.66-1.94,8.67.28,11.12,4.93l6.7,12.7C996.34,584.4,995.35,589.78,991.68,591.71Z"/><path class="cls-29" d="M1005.45,584.46,995,590l-6.52,3.44-7.83,4.13L960.72,608l-5.25,2.77a6.47,6.47,0,0,1-8.72-2.69l-9.59-18.18a6.47,6.47,0,0,1,2.7-8.72l23.49-12.39,10.88-5.75,7.28-3.83,8.32-4.4a6.52,6.52,0,0,1,8.73,2.71l9.58,18.17A6.49,6.49,0,0,1,1005.45,584.46Z"/><g class="cls-30"><path class="cls-31" d="M963.35,568.83c-.65,7.3-1.82,25.85-2.63,39.21l-5.25,2.77a6.47,6.47,0,0,1-8.72-2.69l-9.59-18.18a6.47,6.47,0,0,1,2.7-8.72Z"/></g><g class="cls-32"><polygon class="cls-31" points="981.51 559.25 980.6 597.56 970.15 603.08 974.23 563.08 981.51 559.25"/></g><path class="cls-31" d="M1005.45,584.46,995,590l-.55-35.67a6.44,6.44,0,0,1,4.16,3.24l9.58,18.17A6.49,6.49,0,0,1,1005.45,584.46Z"/><path class="cls-17" d="M1198.81,470.28a6,6,0,0,0-1.07,6.4s0,0,0,0c1.54,4.27,6.64,9,12.57,13.79.76.61,1.43,1.17,2,1.68l.45.41.35.32c5.52,5.09,3.44,6.25,13.37,16.59,11.31,11.77,19.11,12,21.32,10.91,1.88-.91-1.93-7.16-6.15-14.18-.21-.33-.41-.68-.62-1l-1.68-2.82c-4.94-8.45-3.67-12.41-2.5-25,.95-10.22,15.89-57.08,15.89-57.08l-21.69-3.73s-6.53,37.31-13.72,43.06c-3.85,3.06-8.16,3.1-11.86,5.37l-.77.49A28.56,28.56,0,0,0,1198.81,470.28Z"/><path class="cls-7" d="M1198.81,470.28a6,6,0,0,0-1.07,6.4s0,0,0,0c1.89,4.27,6.86,9,12.59,13.75.75.62,1.41,1.19,2,1.72l.45.41.35.32c5.52,5.09,3.44,6.25,13.37,16.59,11.31,11.77,19.11,12,21.32,10.91,1.88-.91-1.93-7.16-6.15-14.18a48.12,48.12,0,0,1-20.18-14.86c-6.56-8.38-11-19.06-15.49-25.62l-1.27-.24A28.73,28.73,0,0,0,1198.81,470.28Z"/><path class="cls-17" d="M1373.69,456.74c1.34,6.69,10.88,5.58,21.54,3s8.13.49,23.3-1.19,19.77-7.33,20.23-9.59c.42-2-7.08-2.71-15.12-3.64-1-.11-2-.23-3-.36-9.08-1.14-15.73-7-24-11.81-7.81-4.56-19.47-23.12-19.47-23.12l-20.81,1.64s10.92,16.59,15.15,23.8c2.48,4.24,2.35,9.85,2,14.18A26.55,26.55,0,0,0,1373.69,456.74Z"/><path class="cls-7" d="M1395.23,459.71c10.66-2.6,8.13.49,23.3-1.19s19.77-7.33,20.23-9.59c.42-2-7.08-2.71-15.12-3.64l-.08.16a42.77,42.77,0,0,1-21.73,6.75c-10.29.26-21.19-2.7-28.3-2.58a26.55,26.55,0,0,0,.16,7.12C1375,463.43,1384.57,462.32,1395.23,459.71Z"/><path class="cls-24" d="M1293.94,323.68,1274.49,376l-25.4,68.34a41,41,0,0,1-13.49-1.23c-6.07-1.76-13-6.35-13-6.35s7-73.39,20.2-115.51c3.37-10.81,7.15-19.56,11.32-24.48C1274.47,272.7,1293.94,323.68,1293.94,323.68Z"/><path class="cls-8" d="M1274.17,240.55c-11.08-3.57-40-.05-71.3,5.62a21.26,21.26,0,0,1-21.95-9.91h0l-78.87-6.16s-26,57.71-11.77,94.48c2.09,5.41,6.69,8.78,13.78,8.9h0s47.65.06,62.9.06c39.22,0,83-27,88.66-28.09,9.28-1.86,13,16.69,22.25,36.16S1365,427.82,1365,427.82s12,.12,16.91-1.73c5.32-2,7.27-4.59,7.27-4.59S1302.91,249.83,1274.17,240.55Z"/><path class="cls-14" d="M1172.54,4.67A28.06,28.06,0,0,0,1157.47.75a42.14,42.14,0,0,1-7.27-.44c-30.1-4.41-48.22,39.31-49.29,52.52-2,24.25-14.78,28-32.84,43.14-36.21,30.45-25.59,65.84-5.79,79,11.88,7.89,32.82,0,32.82,0,.3.21,57.27-31.85,85.35-47.31C1222.56,121.67,1189.45,14.74,1172.54,4.67Z"/><path class="cls-17" d="M1156.91,114.49c.13.08-13.81,4.84-23.13.71-8.77-3.88-15.42-18.3-15.29-18.31,4-.19,8.37-3.67,11.75-26.56l1.69.61,28.57,10.28s-2.07,9.16-3.41,17.89C1156,106.44,1155.36,113.45,1156.91,114.49Z"/><path class="cls-27" d="M1160.5,81.22s-1.14,4.94-2.81,14.18c-16.4-3-23.45-15.59-25.76-24.46Z"/><path class="cls-17" d="M1164.75,90.31s-39.08-5.24-35.44-29.53,1-41.32,26.16-39S1184,34.1,1184.77,42.5,1175,91.05,1164.75,90.31Z"/><path class="cls-14" d="M1183.35,29.19s-25,21.56-42,23.3-23.46-3.73-23.46-3.73A66.4,66.4,0,0,0,1133.93,27a12,12,0,0,1,9.86-7.06C1155.94,18.89,1179,18.42,1183.35,29.19Z"/><path class="cls-14" d="M1167.71,27.26s8.37,8.09,11,14.09c2.54,5.8,3.3,19.65,1.28,25.15,0,0,13-25.35,5.66-37.67C1177.83,15.76,1167.71,27.26,1167.71,27.26Z"/><path class="cls-13" d="M1189.82,172.06c-1.18,79.1-.32,62.57-9,70.08-2.08,1.8-7.94,2.88-15.66,3.39-24.25,1.61-66.89-2.39-68.51-6.87-5.6-15.51-1.65-20.33-6.32-44.07-.48-2.53-1.09-5.26-1.79-8.24-3.89-16.31-7.68-21.86,6.13-48.06,12.52-23.74,25.53-43,26.7-42.3,33,19.61,35.7,3.12,35.7,3.12S1190.4,133.47,1189.82,172.06Z"/><path class="cls-8" d="M1274.49,376l-25.4,68.34a41,41,0,0,1-13.49-1.23c-6.07-1.76-13-6.35-13-6.35s7-73.39,20.2-115.51Z"/><path class="cls-13" d="M1157.09,99.11s34,5.76,38,20.4S1212.2,223,1212.2,223s-9.58,9.36-17.56,1.38-25.13-83.12-25.13-83.12Z"/><path class="cls-20" d="M1165.18,245.53c-24.25,1.61-66.89-2.39-68.51-6.87-5.6-15.51-1.65-20.33-6.32-44.07l11.7-33s-1.93,36.69,8.89,46.34,44.29,18.62,49.55,26.69A29.24,29.24,0,0,1,1165.18,245.53Z"/><path class="cls-17" d="M1137.39,230.1s23.93-5.33,27.79-3.2,13.3,9.85,14.48,12.55-8.59-2-11.77-2.9c-2.06-.55-7.48,1.33-10.17,2.23-11.29,3.76-18.21,1.82-18.21,1.82Z"/><path class="cls-13" d="M1121.37,96s-32.14,2-43.26,17.49c-15.66,21.84-46.72,114.91-28.92,127.33,20,14,91.24,3.65,91.24,3.65s2.37-11.07-.92-16.43-56.87-14-59.34-16.48,30.91-48.21,30.91-55.63S1121.37,96,1121.37,96Z"/><path class="cls-17" d="M1166.34,233.56s5,6.46,6.66,7.24a4.92,4.92,0,0,0,2.7.58l-3.37-6.09Z"/><path class="cls-17" d="M1165.18,226.9l14.58,7.08a2.6,2.6,0,0,1-2.41.93c-1.8-.08-6.33-1.74-6.33-1.74Z"/><polygon class="cls-14" points="1289.67 243.54 1137.39 243.54 1137.39 246.9 1288.32 246.9 1289.67 243.54"/><polygon class="cls-14" points="1173 246.9 1288.32 246.9 1323.01 160.64 1207.87 160.64 1173 246.9"/><path class="cls-22" d="M1259.21,203.77c.87-3-.89-5.49-3.92-5.49a7.86,7.86,0,0,0-7.06,5.49c-.87,3,.88,5.49,3.91,5.49A7.88,7.88,0,0,0,1259.21,203.77Z"/><path class="cls-17" d="M1911.18,791.05c0-.43,6.35-13.56,4.33-14.57s-5.64-.86-6.06,1.44S1911.18,791.05,1911.18,791.05Z"/><path class="cls-7" d="M2006,627.9s37.22-44.73,56.93-16.11c0,0,14.7,6.1,20,31.13,5.42,25.53-11.56,44.94-20.34,40.14-5.63-3.07-9.89,6.78-9.89,6.78Z"/><path class="cls-17" d="M1959.78,865.93c-29.6-10.9-58.1-61.54-58.1-61.54l9.33-6.54c7.78,11.38,42.75,33.21,42.75,33.21.8-9.58,2-18.28,3.39-26.15,9.71-53.53,31.92-69.38,37.88-72.75a15,15,0,0,1,1.5-.76s0,.4-.06,1.14c-.09,1.61-.28,4.86-.59,9.31C1993.57,775,1984.51,875.05,1959.78,865.93Z"/><path class="cls-7" d="M2058.81,607.26s5-20,34.41-13.77c0,0-14.08-1.77-17.94,3.65,0,0,11.16-5.11,18.15-.83s8.13,18.66,7.09,23-8.76,17.41-13.87,17.41-11.16-4.48-11.16-4.48Z"/><path class="cls-17" d="M2102.81,920.58c-14.62-32.79-21.62-42.06-21.86-52.37-.19-8.16,3.83-17,11.64-38.55a80,80,0,0,0,3.89-15.6c6.18-41.61-17.88-86.59-32.83-89.66-4.16-1.1-11.22-16.13-11.13-40.34l-1.87.37-31.49,6.23s.71,9.91.73,19.25c0,7.78-.44,15.15-2.21,16.08l-3.6.34s-26.26,36.47-28.47,70.38,21,48.65-.17,116.42C1963.79,982.35,2110.89,938.7,2102.81,920.58Z"/><path class="cls-33" d="M2019.16,690.66s.71,9.91.73,19.25c17.62-.5,26.94-16.57,30.76-25.48Z"/><path class="cls-7" d="M2053.9,681s9.23-14.59,11.45-27.07c1.58-8.91-2.95-41.92-36.13-37.17a45.09,45.09,0,0,0-18.7,7.07c-7.2,4.86-17.6,15.37-6,44.18l3,9.73Z"/><path class="cls-17" d="M2013.27,699.5s41.69.69,41.72-25.28,5.43-43.37-21.19-44.91-31.8,8.37-33.92,17S2002.43,698.66,2013.27,699.5Z"/><path class="cls-7" d="M2014.81,628.67s11.42,30.47,28.94,35,25.12-.19,25.12-.19a49.64,49.64,0,0,1-16.23-29.31S2023.42,614.17,2014.81,628.67Z"/><path class="cls-7" d="M2017.64,631.15s-8.52,6.8-10.6,13.41-3,20.23-7,19.77c0,0-8.6-20.71,1.06-32.43C2011.37,619.48,2017.64,631.15,2017.64,631.15Z"/><path class="cls-34" d="M2065.89,1235.21a412,412,0,0,1-26.28,73.72l-13.75-1s6.75-32.08,6.36-75.42c-.27-30.3-4-66.1-16-100.29-41.14-117.49-34.49-203-34.49-203l77.36,9.05,3.6.42c.33,35.53,1.24,83.77,2.05,121.49.71,33.92,1.33,59.33,1.33,59.33C2081,1151.6,2075.55,1196.81,2065.89,1235.21Z"/><path class="cls-17" d="M2157,955.41l-12.51,3.75s-42.66-65.21-46.41-83c-1.23-5.81-4-12-6.37-33.73-3-27.74-16.61-59.91-16.61-59.91l-3.08-13.35-10.51-45.52s20.13,2.06,31.9,7c3.9,1.63,6.87,3.57,7.91,5.85,8.65,19,17.28,67,23.35,101.23,3.38,19.08,6,33.89,7.31,37C2135.76,883.46,2147.23,931.64,2157,955.41Z"/><path class="cls-26" d="M2106,1217.19c-6.09,47.29-13.54,82.37-13.54,82.37l-12.82,11.94s-6.21-33.45-10.61-73.24c-4.19-37.82-9.94-77.84-16.44-90.06-25.79-48.45-33.56-231.33-33.56-231.33l78.43-3.9c7.89,13.27,11.33,35,12.15,59.75,2.06,62.42-11,127.74-13.21,139.52C2096.43,1112.24,2116.17,1138.4,2106,1217.19Z"/><path class="cls-7" d="M2016.06,632.18s8.13,31.9,30.24,42.12c0,0-22.11-19.6-24-40.66S2016.06,632.18,2016.06,632.18Z"/><path class="cls-13" d="M2112.64,944.25a18.47,18.47,0,0,1-.49,6.27c-1.66,5.26-7.4,7.65-21.25,6.22-8.47-.89-12.25-15.08-13.93-27.19q-7.63,26-21.42,29.09c-13.43,3-81.19,11.23-85.63-21-4.88-35.43,9.73-98.16,10.54-132a166.23,166.23,0,0,1-2.46-31.34c.56-24.1,7.64-37.6,13.07-43,1.54-1.18,3.08-1.92,9.27-3,3.16-.54,7.53-1.16,13.74-2a24,24,0,0,1,2.47-.19c-1.14,2.05-7.41,11.88-6,20.74,3.56,23.12,34,4.12,38.28,1.36,13.78-8.86,21.6-23.44,21.6-23.44s19.28,2.11,28.71,9l-.1.12a8,8,0,0,1,2.47,2.61c10.06,19.15,20.11,67.48,27.17,102-17.12,9.43-32.08,6.63-36.72,5.38C2098,883.54,2111.74,926.17,2112.64,944.25Z"/><path class="cls-17" d="M1911,797.85c0-1.28,1.08-19.91-2.23-23.82s-10.09-9.48-12.22-9.3-10.45,11.23-8,19.71,13.07,19.95,13.07,19.95Z"/><path class="cls-26" d="M1921.65,775.75l-19.12,5.73a1.3,1.3,0,0,1-1.62-.87L1888.13,738a1.31,1.31,0,0,1,.87-1.63l19.12-5.73a1.32,1.32,0,0,1,1.63.88l12.78,42.64A1.31,1.31,0,0,1,1921.65,775.75Z"/><path class="cls-7" d="M1918.75,776.62l-17.19,5.16a2.32,2.32,0,0,1-2.88-1.55l-12.2-40.72a2.32,2.32,0,0,1,1.55-2.88l17.19-5.15a2.32,2.32,0,0,1,2.88,1.55l12.2,40.72A2.3,2.3,0,0,1,1918.75,776.62Z"/><path class="cls-20" d="M2112.64,944.25c-9.31-3.1-21.25-11.37-35.59-29.91-38-49.07-3.23-106.75,1.43-107.82s13.43,37.31,13.43,37.31C2098,883.54,2111.74,926.17,2112.64,944.25Z"/><path class="cls-13" d="M1991.07,731.29s-23.67,12-32.33,64.79c0,0,8.52,11.67,20.51,15.11a23.59,23.59,0,0,0,5.34.92C1999.32,812.89,1991.07,731.29,1991.07,731.29Z"/><path class="cls-17" d="M1894.57,766.16s8-12.37,10-11.68c2.81,1-7.28,16.67-7.28,16.67s7.47-11.72,8.64-10.84c2.66,2-1.57,9.37-5.77,15,0,0,7.51-6.88,7.76-5.64.86,4.34-8.26,14.86-8.26,14.86l-5.09-11.63Z"/><path class="cls-17" d="M1888.54,777.64c.39-1.52,2.36-31,3.2-28.24s2.83,18.28,2.83,18.28Z"/><path class="cls-23" d="M2021.41,684.09s-.71,3.06-8.33,2.58c0,0-6.39-.39-6.2-3.75C2006.88,682.92,2013.08,680.52,2021.41,684.09Z"/><path class="cls-35" d="M1989.43,1318.87h66.42s2.48-10.88-1.88-18.28c-3.86-6.55-3.89-10.47-3.08-18.18-3,1.27-18.21,2-21.28.17,0,7.73-11.33,18.5-15.15,21.32C2010.12,1307.1,1990.76,1306,1989.43,1318.87Z"/><path class="cls-36" d="M2035.12,1318.87h66.42s2.48-10.88-1.88-18.28c-3.86-6.55-4.67-10.3-3.86-18-3,1.27-17.43,1.83-20.5,0,0,7.73-11.33,18.5-15.15,21.32C2055.81,1307.1,2036.45,1306,2035.12,1318.87Z"/><path class="cls-17" d="M2157,955.41s15.1,10,17.41,14.27,7.7,19.81,7.7,19.81-3.85.58-7.7-6.15-16.54-6.16-20.77-9.81-9.15-14.37-9.15-14.37Z"/><path class="cls-17" d="M2146.16,962.48s2.51,11.82,5.58,15.28,7.32,9.23,9.05,7.69-1.93-14.42-1.93-14.42Z"/><path class="cls-17" d="M2172.33,971c.38.57,13.65,14.68,13.65,14.68s-4.81,2.18-6.15,0S2172.33,971,2172.33,971Z"/><path class="cls-8" d="M623.53,825.51a2,2,0,0,1-1.92-1.38c-1.46-4.39-2.81-8.74-4-12.91a2,2,0,0,1,3.88-1.12c1.19,4.12,2.52,8.41,4,12.76a2,2,0,0,1-1.28,2.55A2,2,0,0,1,623.53,825.51Zm-7.41-25.83a2,2,0,0,1-2-1.56c-1.07-4.55-2-9-2.71-13.29a2,2,0,1,1,4-.68c.71,4.19,1.61,8.58,2.66,13.05a2,2,0,0,1-1.51,2.42A1.82,1.82,0,0,1,616.12,799.68Zm108.43-8h-.19a88.2,88.2,0,0,1-13.54-2.35,2,2,0,1,1,1-3.91,83.88,83.88,0,0,0,12.93,2.24,2,2,0,0,1-.18,4Zm13.41,0a2,2,0,0,1-.2-4,58.62,58.62,0,0,0,12.68-2.71,2,2,0,0,1,1.28,3.83,63.69,63.69,0,0,1-13.55,2.9Zm704.18-6.12a2,2,0,0,1-1.53-.71,2,2,0,0,1,.23-2.84,76.25,76.25,0,0,0,9.21-9.29,2,2,0,1,1,3.09,2.58,79.93,79.93,0,0,1-9.69,9.78A2,2,0,0,1,1442.14,785.48Zm-743.62-.28a1.94,1.94,0,0,1-.74-.14,132.26,132.26,0,0,1-12.43-5.65,2,2,0,0,1,1.85-3.58,131.75,131.75,0,0,0,12,5.48,2,2,0,0,1-.73,3.89Zm64.73-2.06a2,2,0,0,1-1-3.74,65.84,65.84,0,0,0,10-7.49l.38-.35,2.75,3-.42.38a69.23,69.23,0,0,1-10.6,8A2,2,0,0,1,763.25,783.14Zm-151.57-10a2,2,0,0,1-2-1.84c-.38-4.2-.58-8.31-.58-12.22,0-.47,0-.94,0-1.41a2,2,0,0,1,2-2h0a2,2,0,0,1,2,2v1.36c0,3.79.18,7.78.55,11.86a2,2,0,0,1-1.82,2.19Zm62.94-.27a2,2,0,0,1-1.08-.32,135.42,135.42,0,0,1-11.16-7.9,2,2,0,1,1,2.51-3.16,130.52,130.52,0,0,0,10.82,7.66,2,2,0,0,1-1.09,3.72ZM1459.3,765a2,2,0,0,1-1-.28,2,2,0,0,1-.73-2.76,84.69,84.69,0,0,0,5.71-11.81,2,2,0,0,1,3.75,1.47,89.46,89.46,0,0,1-6,12.38A2,2,0,0,1,1459.3,765Zm-676.64-.11a2,2,0,0,1-1.09-.32,2,2,0,0,1-.6-2.79,36.43,36.43,0,0,0,5-11.63,2,2,0,1,1,3.93.89,40.25,40.25,0,0,1-5.56,12.93A2,2,0,0,1,782.66,764.85Zm-128.18-9.63a2,2,0,0,1-1.54-.71c-2.85-3.36-5.72-6.9-8.54-10.54a2,2,0,0,1,3.2-2.47c2.77,3.59,5.6,7.09,8.41,10.4a2,2,0,0,1-1.53,3.32Zm-42.33-8.85-.3,0a2,2,0,0,1-1.7-2.29,79.31,79.31,0,0,1,3.13-13.4,2,2,0,0,1,3.83,1.27,75.36,75.36,0,0,0-3,12.72A2,2,0,0,1,612.15,746.37Zm857-6.33a1.88,1.88,0,0,1-.46-.06,2,2,0,0,1-1.5-2.42,101.72,101.72,0,0,0,2.15-13,2,2,0,1,1,4,.4,104.3,104.3,0,0,1-2.24,13.51A2,2,0,0,1,1469.12,740Zm-680.81-.81a2,2,0,0,1-2-1.69,39.43,39.43,0,0,0-4.19-12,2,2,0,0,1,3.56-1.9,43.19,43.19,0,0,1,4.61,13.25,2,2,0,0,1-1.66,2.32ZM638,733.92a2,2,0,0,1-1.65-.85c-2.61-3.7-5.15-7.49-7.56-11.25a2,2,0,0,1,3.4-2.17c2.37,3.71,4.88,7.44,7.46,11.09a2,2,0,0,1-.49,2.81A2,2,0,0,1,638,733.92Zm-17.27-12.81a2,2,0,0,1-1-.28,2,2,0,0,1-.71-2.77,60.48,60.48,0,0,1,4.73-6.82,2,2,0,0,1-2-1c-2.27-4-4.44-8-6.45-11.92a2,2,0,0,1,3.6-1.83c2,3.89,4.11,7.84,6.35,11.74a2,2,0,0,1,.27.87c.61-.69,1.25-1.38,1.9-2.05a2,2,0,1,1,2.89,2.81,55.59,55.59,0,0,0-7.85,10.26A2,2,0,0,1,620.73,721.11Zm155.44-5.45a2,2,0,0,1-1.51-.67,70.6,70.6,0,0,0-9.6-8.85,2,2,0,0,1,2.46-3.2,75.65,75.65,0,0,1,10.15,9.36,2,2,0,0,1-.16,2.84A2,2,0,0,1,776.17,715.66Zm695.67-2.3a2,2,0,0,1-2-2,117.49,117.49,0,0,0-1-13.17,2,2,0,0,1,4-.53,122.83,122.83,0,0,1,1.06,13.61,2,2,0,0,1-2,2.06ZM639.21,701.94a2,2,0,0,1-1.12-3.7,79.8,79.8,0,0,1,12.14-6.51,2,2,0,1,1,1.6,3.7,74.29,74.29,0,0,0-11.51,6.18A2.05,2.05,0,0,1,639.21,701.94Zm115.85-2.74a2,2,0,0,1-1-.26,101.82,101.82,0,0,0-11.92-5.62,2,2,0,1,1,1.49-3.75A105.05,105.05,0,0,1,756,695.42a2,2,0,0,1-1,3.78Zm-91.36-8.06a2,2,0,0,1-.55-4c4.15-1.17,8.62-2.19,13.3-3a2,2,0,1,1,.71,4c-4.55.81-8.89,1.8-12.91,2.94A2.09,2.09,0,0,1,663.7,691.14Zm66.43-1.84a1.79,1.79,0,0,1-.51-.07,111,111,0,0,0-13-2.55,2,2,0,1,1,.55-4,116.87,116.87,0,0,1,13.41,2.65,2,2,0,0,1-.5,4Zm-118.78-2a2,2,0,0,1-1.85-1.21c-1.84-4.21-3.54-8.45-5-12.6a2,2,0,1,1,3.79-1.38c1.48,4.08,3.15,8.24,5,12.36a2,2,0,0,1-1,2.66A2,2,0,0,1,611.35,687.26Zm856.94-.48a2,2,0,0,1-2-1.54,127.06,127.06,0,0,0-3.84-12.65,2,2,0,1,1,3.79-1.37,129.2,129.2,0,0,1,4,13.06,2,2,0,0,1-1.47,2.44A2.05,2.05,0,0,1,1468.29,686.78Zm-778.17-.5a2,2,0,0,1-.26-4h.07a118.88,118.88,0,0,1,12-.62l1.68,0a2,2,0,0,1,0,4h-1.8a109.55,109.55,0,0,0-11.34.59Zm441.91-23a2,2,0,0,1,0-4,65.42,65.42,0,0,0,12.93-1.47,2,2,0,0,1,.8,4,71.06,71.06,0,0,1-13.72,1.55ZM602.2,662a2,2,0,0,1-1.94-1.47c-1.25-4.42-2.33-8.87-3.19-13.22a2,2,0,1,1,3.95-.79c.85,4.25,1.9,8.59,3.12,12.91a2,2,0,0,1-1.39,2.49A1.7,1.7,0,0,1,602.2,662Zm857-.43a2,2,0,0,1-1.82-1.13,120.11,120.11,0,0,0-6.43-11.54,2,2,0,0,1,3.41-2.16,128.38,128.38,0,0,1,6.65,11.93,2,2,0,0,1-.93,2.7A2,2,0,0,1,1459.15,661.55Zm-340.32-.41a2.1,2.1,0,0,1-.7-.12,31.65,31.65,0,0,1-10.84-6.78l-1-1a2,2,0,0,1,2.84-2.87l1,.93a27.46,27.46,0,0,0,9.47,5.93,2,2,0,0,1-.7,3.9Zm39.52-2.78a2,2,0,0,1-.6-3.94c3.83-1.19,8-2.61,12.61-4.34a2,2,0,0,1,1.41,3.78c-4.73,1.76-8.92,3.2-12.82,4.41A2.08,2.08,0,0,1,1158.35,658.36Zm25.25-9.24a2,2,0,0,1-.75-3.89c4.41-1.77,9-3.65,12.42-5.09a2,2,0,1,1,1.54,3.72c-3.47,1.44-8,3.33-12.46,5.12A2,2,0,0,1,1183.6,649.12Zm-84.08-5.9a2,2,0,0,1-1.77-1.05,41.68,41.68,0,0,1-4.63-13.25,2,2,0,1,1,4-.7,37.88,37.88,0,0,0,4.19,12,2,2,0,0,1-1.76,3Zm345.29-4.34a2,2,0,0,1-1.57-.76,113,113,0,0,0-8.83-9.8,2,2,0,0,1,2.83-2.87,118,118,0,0,1,9.15,10.15,2,2,0,0,1-.32,2.83A2,2,0,0,1,1444.81,638.88Zm-236.36,0a2,2,0,0,1-.77-3.88c4-1.68,8.19-3.4,12.44-5.13a2,2,0,0,1,1.53,3.74q-6.37,2.59-12.42,5.12A2.16,2.16,0,0,1,1208.45,638.84ZM597,635.63a2,2,0,0,1-2-1.81c-.48-4.58-.74-9.16-.76-13.61a2,2,0,0,1,2-2h0a2,2,0,0,1,2,2c0,4.33.27,8.77.74,13.22a2,2,0,0,1-1.79,2.21Zm636.35-6.91a2,2,0,0,1-.74-3.89c4.38-1.72,8.5-3.3,12.6-4.82a2,2,0,0,1,1.4,3.78c-4.07,1.51-8.17,3.08-12.53,4.79A2.1,2.1,0,0,1,1233.37,628.72Zm192.33-8.65a2,2,0,0,1-1.23-.42,105,105,0,0,0-10.92-7.37,2,2,0,0,1,2-3.48,109.84,109.84,0,0,1,11.34,7.65,2,2,0,0,1,.36,2.83A2,2,0,0,1,1425.7,620.07Zm-167.12-.7a2,2,0,0,1-.66-3.93c4.31-1.49,8.62-2.93,12.8-4.27A2,2,0,1,1,1272,615c-4.15,1.33-8.43,2.76-12.71,4.24A1.92,1.92,0,0,1,1258.58,619.37Zm-164.06-2.18h-.13a2,2,0,0,1-1.88-2.14,110,110,0,0,1,1.83-13.56,2,2,0,1,1,4,.76,105.83,105.83,0,0,0-1.77,13.06A2,2,0,0,1,1094.52,617.19Zm189.68-6a2,2,0,0,1-.56-4c4.35-1.26,8.73-2.46,13-3.56a2,2,0,0,1,1,3.91c-4.26,1.09-8.6,2.28-12.91,3.52A1.85,1.85,0,0,1,1284.2,611.19Zm-687.28-2.4h-.21a2,2,0,0,1-1.8-2.21,121,121,0,0,1,2.2-13.5A2,2,0,1,1,601,594a114.85,114.85,0,0,0-2.11,13A2,2,0,0,1,596.92,608.79Zm805.66-2.28a1.88,1.88,0,0,1-.79-.17,106.79,106.79,0,0,0-12.41-4.39,2,2,0,1,1,1.1-3.88,110.83,110.83,0,0,1,12.9,4.56,2,2,0,0,1-.8,3.88Zm-92.34-2a2,2,0,0,1-.44-4c4.41-1,8.86-1.9,13.24-2.71a2,2,0,1,1,.74,4c-4.33.81-8.74,1.72-13.1,2.69A2.28,2.28,0,0,1,1310.24,604.52Zm26.42-4.95a2,2,0,0,1-.3-4l3-.43c3.53-.51,7.08-.88,10.54-1.11a2,2,0,1,1,.27,4c-3.37.22-6.81.58-10.24,1.07l-3,.43A1.51,1.51,0,0,1,1336.66,599.57Zm40.15-.41-.31,0a115.6,115.6,0,0,0-13.13-1.28,2,2,0,0,1-1.94-2.09,2.05,2.05,0,0,1,2.1-1.94,121.2,121.2,0,0,1,13.59,1.32,2,2,0,0,1-.31,4Zm-277.55-8.39a2.12,2.12,0,0,1-.49-.06,2,2,0,0,1-1.47-2.44c1.07-4.32,2.29-8.95,3.36-13a2,2,0,0,1,2.47-1.44,2,2,0,0,1,1.43,2.46c-1.07,4.08-2.28,8.7-3.34,13A2,2,0,0,1,1099.26,590.77Zm-496.49-8.16a1.93,1.93,0,0,1-.67-.12,2,2,0,0,1-1.24-2.57,120,120,0,0,1,5.27-12.61,2,2,0,0,1,3.62,1.76,114.08,114.08,0,0,0-5.08,12.19A2,2,0,0,1,602.77,582.61ZM1106,564.74a2.14,2.14,0,0,1-.5-.06,2,2,0,0,1-1.46-2.45c1.19-4.71,2.22-9,3.15-13a2,2,0,1,1,3.93.9c-.93,4.08-2,8.37-3.17,13.11A2,2,0,0,1,1106,564.74Zm-491.51-6.27a2,2,0,0,1-1.7-3.09c.5-.79,1-1.58,1.53-2.38,2.06-3.1,4.19-6,6.36-8.76a2,2,0,0,1,3.15,2.51c-2.09,2.62-4.16,5.48-6.14,8.48-.51.77-1,1.53-1.49,2.3A2,2,0,0,1,614.48,558.47ZM1112,538.53a2.58,2.58,0,0,1-.39,0,2,2,0,0,1-1.59-2.37c.86-4.41,1.65-8.84,2.34-13.16a2,2,0,0,1,4,.63c-.69,4.37-1.49,8.84-2.37,13.31A2,2,0,0,1,1112,538.53ZM631.3,537.6a2,2,0,0,1-1.38-3.48,78.59,78.59,0,0,1,10.78-8.58,2,2,0,1,1,2.21,3.37,75.35,75.35,0,0,0-10.22,8.14A2,2,0,0,1,631.3,537.6Zm141.8-7.91h0c-4.3,0-8.75-.27-13.6-.76a2,2,0,1,1,.4-4c4.73.48,9.05.72,13.22.73a2,2,0,0,1,0,4Zm13.4-.82a2,2,0,0,1-.26-4,79.16,79.16,0,0,0,12.8-2.77,2,2,0,0,1,1.18,3.86,82.69,82.69,0,0,1-13.45,2.9A1.23,1.23,0,0,1,786.5,528.87Zm-40.13-1.73-.33,0c-4.83-.79-9.63-1.71-13.28-2.41a2,2,0,1,1,.76-4c3.63.7,8.4,1.6,13.18,2.39a2,2,0,0,1-.33,4ZM653.68,523a2,2,0,0,1-.75-3.88,71.35,71.35,0,0,1,13.25-3.88,2,2,0,1,1,.76,4,67.87,67.87,0,0,0-12.5,3.66A2,2,0,0,1,653.68,523Zm66.26-.85-.38,0c-5.29-1-9.36-1.73-13.18-2.32a2,2,0,0,1,.62-4c3.87.6,8,1.32,13.32,2.34a2,2,0,0,1-.38,4Zm92.11-1.2a2,2,0,0,1-.92-3.81,78,78,0,0,0,11-7,2,2,0,1,1,2.43,3.22A81.84,81.84,0,0,1,813,520.74,2,2,0,0,1,812.05,521Zm-118.71-2.75h-.16a113,113,0,0,0-13.21-.39,2,2,0,0,1-2.08-1.95,2,2,0,0,1,2-2.08,118.49,118.49,0,0,1,13.66.4,2,2,0,0,1-.17,4ZM1116.16,512h-.25a2,2,0,0,1-1.76-2.24c.53-4.41,1-8.88,1.32-13.3a2,2,0,1,1,4,.32c-.35,4.47-.8,9-1.33,13.45A2,2,0,0,1,1116.16,512Zm-282.68-7.06a2,2,0,0,1-1.43-3.43,115.87,115.87,0,0,0,8.7-9.93,2,2,0,0,1,3.17,2.49,115.79,115.79,0,0,1-9,10.27A2,2,0,0,1,833.48,504.92Zm284.29-19.73a2,2,0,0,1-2-1.84,45.23,45.23,0,0,0-2.89-12.47,2,2,0,1,1,3.76-1.46,49.77,49.77,0,0,1,3.15,13.58,2,2,0,0,1-1.83,2.19Zm-266.9-.74a2,2,0,0,1-1.35-.53,2,2,0,0,1-.14-2.84c3-3.3,6.27-6.53,9.7-9.61a2,2,0,0,1,2.69,3c-3.33,3-6.49,6.13-9.41,9.32A2,2,0,0,1,850.87,484.45Zm20-18a2,2,0,0,1-1.61-.8,2,2,0,0,1,.4-2.83c3.56-2.66,7.33-5.25,11.22-7.7a2,2,0,1,1,2.14,3.41c-3.79,2.39-7.47,4.92-10.94,7.52A2,2,0,0,1,870.82,466.46Zm237.41-6a2,2,0,0,1-1.62-.8,57.73,57.73,0,0,0-8.93-9.38,2,2,0,0,1,2.61-3.08,62,62,0,0,1,9.55,10,2,2,0,0,1-1.61,3.22Zm-214.7-8.37a2,2,0,0,1-.95-3.79c3.92-2.09,8-4.1,12.19-6a2,2,0,1,1,1.66,3.68c-4.09,1.84-8.11,3.81-11.95,5.85A1.92,1.92,0,0,1,893.53,452.11ZM1088,443.06a2.08,2.08,0,0,1-1-.27,99.6,99.6,0,0,0-11.79-5.86,2,2,0,0,1,1.56-3.72A106.22,106.22,0,0,1,1089,439.3a2,2,0,0,1,.72,2.76A2,2,0,0,1,1088,443.06Zm-170-2a2,2,0,0,1-.71-3.9c4.17-1.58,8.49-3.07,12.82-4.43a2,2,0,1,1,1.21,3.85c-4.26,1.34-8.5,2.8-12.6,4.35A2,2,0,0,1,918,441.06ZM943.68,433a2,2,0,0,1-.49-4c4.33-1.1,8.78-2.11,13.21-3a2,2,0,1,1,.79,4c-4.36.87-8.74,1.86-13,2.95A2.07,2.07,0,0,1,943.68,433Zm119.64-.45a2,2,0,0,1-.59-.08c-4.09-1.24-8.41-2.34-12.85-3.28a2,2,0,1,1,.83-3.95c4.55,1,9,2.1,13.19,3.37a2,2,0,0,1-.58,3.94ZM970,427.74a2,2,0,0,1-.29-4c4.46-.65,9-1.19,13.45-1.62a2,2,0,1,1,.38,4c-4.4.42-8.86.95-13.24,1.59A1.53,1.53,0,0,1,970,427.74Zm67-.79-.28,0c-4.3-.59-8.76-1.05-13.24-1.36a2,2,0,0,1,.28-4c4.57.33,9.12.8,13.5,1.39a2,2,0,0,1-.26,4Zm-40.25-1.74a2,2,0,0,1-.09-4c4.53-.19,9.09-.26,13.56-.2a2,2,0,0,1,0,4h0c-4.4-.06-8.88,0-13.34.2Z"/><path class="cls-8" d="M1399.69,599.14a2,2,0,0,1-.68-3.91s4.73-1.7,12.5-5a2,2,0,1,1,1.56,3.72c-7.89,3.3-12.51,5-12.7,5A2.08,2.08,0,0,1,1399.69,599.14Zm25-10.38a2,2,0,0,1-.83-3.85c4-1.83,8.12-3.75,12.16-5.71a2,2,0,0,1,1.76,3.63c-4.07,2-8.19,3.91-12.26,5.75A2,2,0,0,1,1424.65,588.76ZM1448.91,577a2,2,0,0,1-.93-3.81c4-2,8-4.18,11.84-6.33a2,2,0,1,1,2,3.53c-3.92,2.17-7.94,4.31-11.93,6.38A2,2,0,0,1,1448.91,577Zm23.59-13a2,2,0,0,1-1-3.75c3.88-2.29,7.74-4.63,11.46-7a2,2,0,0,1,2.15,3.42c-3.76,2.36-7.65,4.73-11.56,7A2,2,0,0,1,1472.5,564Zm22.79-14.35a2,2,0,0,1-1.67-.89,2,2,0,0,1,.54-2.8c3.74-2.51,7.43-5.09,11-7.66a2,2,0,1,1,2.37,3.26c-3.6,2.6-7.33,5.21-11.1,7.75A2,2,0,0,1,1495.29,549.61Zm21.81-15.79a2,2,0,0,1-1.59-.78,2,2,0,0,1,.35-2.83c3.55-2.77,7.05-5.61,10.38-8.43a2,2,0,1,1,2.6,3.07c-3.37,2.86-6.9,5.73-10.5,8.54A2,2,0,0,1,1517.1,533.82Zm20.51-17.39a2,2,0,0,1-1.37-3.5c3.31-3.06,6.53-6.19,9.57-9.3a2,2,0,1,1,2.88,2.82c-3.09,3.16-6.36,6.33-9.72,9.44A2,2,0,0,1,1537.61,516.43Zm18.81-19.23a2,2,0,0,1-1.33-.5,2,2,0,0,1-.19-2.85c3-3.39,5.85-6.84,8.52-10.27a2,2,0,0,1,3.18,2.48c-2.72,3.49-5.63,7-8.67,10.46A2,2,0,0,1,1556.42,497.2Zm16.5-21.26a2,2,0,0,1-1.13-.34,2,2,0,0,1-.54-2.8c2.51-3.72,4.88-7.52,7-11.29a2,2,0,0,1,3.5,2c-2.21,3.85-4.63,7.74-7.2,11.54A2,2,0,0,1,1572.92,475.94Zm13.32-23.32a2,2,0,0,1-.85-.19,2,2,0,0,1-1-2.68c1.89-4,3.6-8.14,5.08-12.21a2,2,0,0,1,3.79,1.38c-1.53,4.18-3.28,8.4-5.22,12.54A2,2,0,0,1,1586.24,452.62Zm9.16-25.17a1.79,1.79,0,0,1-.51-.07,2,2,0,0,1-1.45-2.46c1.12-4.27,2-8.62,2.7-12.93a2,2,0,1,1,4,.63c-.69,4.44-1.63,8.92-2.77,13.32A2,2,0,0,1,1595.4,427.45Zm4.14-26.46h-.11a2,2,0,0,1-1.9-2.12c.13-2.38.19-4.8.19-7.2,0-2,0-4-.13-6a2,2,0,0,1,4-.18c.09,2.07.14,4.16.14,6.22,0,2.47-.07,5-.21,7.42A2,2,0,0,1,1599.54,401Zm-1.2-26.82a2,2,0,0,1-2-1.73c-.62-4.31-1.45-8.69-2.47-13a2,2,0,1,1,3.92-.93c1.06,4.45,1.91,8.95,2.54,13.38a2,2,0,0,1-1.71,2.28A1.42,1.42,0,0,1,1598.34,374.17ZM1592.2,348a2,2,0,0,1-1.92-1.39c-1.34-4.12-2.89-8.31-4.6-12.46a2,2,0,1,1,3.73-1.54c1.75,4.24,3.33,8.53,4.71,12.75a2,2,0,0,1-1.3,2.54A1.87,1.87,0,0,1,1592.2,348ZM1582,323.18a2,2,0,0,1-1.81-1.13c-2-4-4-8-6.08-11.91a2,2,0,1,1,3.56-1.89c2.08,3.92,4.15,8,6.14,12a2,2,0,0,1-.93,2.7A2.09,2.09,0,0,1,1582,323.18Zm-12.63-23.72a2,2,0,0,1-1.75-1c-2.25-3.89-4.58-7.73-6.92-11.43a2,2,0,1,1,3.41-2.15c2.37,3.74,4.72,7.63,7,11.56a2,2,0,0,1-.73,2.76A2.07,2.07,0,0,1,1569.37,299.46ZM1555,276.76a2,2,0,0,1-1.66-.87c-2.56-3.7-5.21-7.33-7.85-10.79a2,2,0,1,1,3.2-2.45c2.69,3.51,5.36,7.19,8,10.94a2,2,0,0,1-1.65,3.17Zm-172.73-2c-.56,0-1.12,0-1.67,0a2,2,0,0,1-1.92-2.11,2,2,0,0,1,2.11-1.92,42.54,42.54,0,0,0,12.69-1.56,2,2,0,0,1,2.46,1.43,2,2,0,0,1-1.44,2.47A48.61,48.61,0,0,1,1382.26,274.78Zm-14.17-4.11a2,2,0,0,1-1.2-.39,23.24,23.24,0,0,1-8.19-11.9,2,2,0,0,1,3.84-1.25,19.23,19.23,0,0,0,6.74,9.9,2,2,0,0,1-1.19,3.64Zm38.5-2.18a2,2,0,0,1-.85-3.85,102.87,102.87,0,0,0,11.56-6.35,2,2,0,0,1,2.16,3.41,107,107,0,0,1-12,6.6A2.14,2.14,0,0,1,1406.59,268.49Zm132.07-13.07a2,2,0,0,1-1.54-.71c-2.9-3.43-5.89-6.77-8.88-9.94a2,2,0,1,1,2.92-2.77c3,3.22,6.09,6.62,9,10.1a2,2,0,0,1-1.54,3.32Zm-109.33-1.22a2,2,0,0,1-1.26-3.59,122.23,122.23,0,0,0,9.87-8.81,2,2,0,1,1,2.85,2.86,126.74,126.74,0,0,1-10.2,9.1A2,2,0,0,1,1429.33,254.2Zm-70.49-7.69h0a2,2,0,0,1-2-2,50.51,50.51,0,0,1,2-13.79,2,2,0,1,1,3.87,1.14,46.9,46.9,0,0,0-1.89,12.7A2,2,0,0,1,1358.84,246.51Zm161.34-10.59a2,2,0,0,1-1.38-.54c-3.28-3.07-6.64-6-10-8.78a2,2,0,0,1,2.56-3.12c3.43,2.81,6.86,5.82,10.2,9a2,2,0,0,1-1.38,3.48Zm-71.86-.71a2,2,0,0,1-1.58-3.26,88.3,88.3,0,0,0,7.36-10.88,2,2,0,1,1,3.5,2,91.1,91.1,0,0,1-7.69,11.38A2,2,0,0,1,1448.32,235.21Zm-82-14.13a2.05,2.05,0,0,1-1.08-.32,2,2,0,0,1-.62-2.78,54.66,54.66,0,0,1,8.93-10.68,2,2,0,1,1,2.75,3,49.78,49.78,0,0,0-8.27,9.88A2,2,0,0,1,1366.35,221.08Zm133-2.16a2.07,2.07,0,0,1-1.16-.37c-3.66-2.59-7.41-5-11.14-7.22a2,2,0,1,1,2.05-3.47c3.83,2.26,7.67,4.75,11.42,7.39a2,2,0,0,1-1.17,3.67Zm-38.08-7.1a1.91,1.91,0,0,1-.62-.1,2,2,0,0,1-1.31-2.53,42.5,42.5,0,0,0,2.14-12.6,2,2,0,0,1,2-2h0a2,2,0,0,1,2,1.93c3.86,1.44,7.76,3.09,11.59,4.92a2,2,0,0,1-1.74,3.64c-3.34-1.59-6.72-3.05-10.09-4.34a50,50,0,0,1-2.08,9.68A2,2,0,0,1,1461.31,211.82Zm-75.54-9a2,2,0,0,1-1-3.77,71.88,71.88,0,0,1,12.59-5.68,2,2,0,1,1,1.3,3.81,68.07,68.07,0,0,0-11.87,5.37A2.07,2.07,0,0,1,1385.77,202.86Zm65.26-6.7a2,2,0,0,1-.48-.06,109.48,109.48,0,0,0-13-2.39,2,2,0,0,1,.49-4,115.43,115.43,0,0,1,13.44,2.48,2,2,0,0,1-.48,4Zm-40-2.06a2,2,0,0,1-.32-4,94.18,94.18,0,0,1,13.68-1.16h0a2,2,0,0,1,0,4,89,89,0,0,0-13.08,1.1Zm50-8.6a2,2,0,0,1-1.87-1.25,32.92,32.92,0,0,0-3.48-6.36c-1-1.49-2.18-3-3.37-4.44a2,2,0,1,1,3.12-2.55c1.25,1.53,2.45,3.1,3.55,4.68a36.07,36.07,0,0,1,3.91,7.14,2,2,0,0,1-1.1,2.63A2.06,2.06,0,0,1,1461.07,185.5Zm-16.44-21a2,2,0,0,1-1.35-.52,107.81,107.81,0,0,0-10.32-8.21,2,2,0,1,1,2.32-3.3A111.43,111.43,0,0,1,1446,161a2,2,0,0,1,.14,2.85A2,2,0,0,1,1444.63,164.48ZM1260,155a2,2,0,0,1-1.47-.64,2,2,0,0,1,.1-2.85,87.48,87.48,0,0,1,9-7.28,2,2,0,1,1,2.33,3.29,81.75,81.75,0,0,0-8.54,6.94A2,2,0,0,1,1260,155Zm162.73-6a2,2,0,0,1-1-.25c-3.76-2.11-7.76-4.1-11.86-5.93a2,2,0,1,1,1.64-3.68c4.21,1.88,8.32,3.92,12.19,6.08a2,2,0,0,1-1,3.78Zm-142.47-8.06a2,2,0,0,1-.92-3.82,108.73,108.73,0,0,1,12.58-5.41,2,2,0,0,1,1.36,3.8,104.8,104.8,0,0,0-12.11,5.2A2,2,0,0,1,1280.25,140.92Zm118-2.89a2.24,2.24,0,0,1-.67-.11c-4.12-1.45-8.4-2.76-12.69-3.91a2,2,0,1,1,1-3.9c4.39,1.17,8.76,2.52,13,4a2,2,0,0,1-.67,3.92Zm-92.72-6.23a2,2,0,0,1-.46-4c4.32-1,8.84-1.85,13.41-2.47a2,2,0,1,1,.54,4c-4.44.6-8.82,1.4-13,2.4A2.59,2.59,0,0,1,1305.48,131.8Zm66.77-.7a2.31,2.31,0,0,1-.37,0c-4.36-.82-8.78-1.49-13.15-2a2,2,0,0,1,.45-4c4.47.51,9,1.19,13.44,2a2,2,0,0,1-.37,4Zm-40.16-2.93a2,2,0,0,1-.09-4c4.48-.2,9.07-.22,13.61-.06a2,2,0,1,1-.14,4c-4.43-.16-8.92-.14-13.28.06Z"/><path class="cls-8" d="M1905.13,699.59a2.05,2.05,0,0,1-1.17-.37,2,2,0,0,1-.47-2.81,94.2,94.2,0,0,0,6.86-11.24,2,2,0,0,1,3.58,1.87,98.73,98.73,0,0,1-7.16,11.71A2,2,0,0,1,1905.13,699.59Zm12.46-23.75a1.89,1.89,0,0,1-.7-.13,2,2,0,0,1-1.2-2.59,104.43,104.43,0,0,0,3.79-12.63,2,2,0,0,1,3.93.92,110.6,110.6,0,0,1-3.93,13.11A2,2,0,0,1,1917.59,675.84Zm6.12-26.12h-.22a2,2,0,0,1-1.79-2.22,112.88,112.88,0,0,0,.66-12.25v-.93a2,2,0,0,1,2-2h0a2,2,0,0,1,2,2v1a118.47,118.47,0,0,1-.68,12.69A2,2,0,0,1,1923.71,649.72Zm-.19-26.82a2,2,0,0,1-2-1.78c-.51-4.3-1.26-8.69-2.22-13a2,2,0,1,1,3.93-.87,133.87,133.87,0,0,1,2.29,13.44,2,2,0,0,1-1.77,2.24Zm-5.77-26.22a2,2,0,0,1-1.92-1.4c-.57-1.78-1.18-3.58-1.82-5.36a57.52,57.52,0,0,0-3-6.83,2,2,0,1,1,3.59-1.83,62,62,0,0,1,3.16,7.29c.66,1.83,1.29,3.68,1.87,5.5a2,2,0,0,1-1.31,2.53A1.86,1.86,0,0,1,1917.75,596.68Zm-12.17-23.78a2,2,0,0,1-1.59-.77,83.65,83.65,0,0,0-8.9-9.63,2,2,0,0,1,2.75-3,89.09,89.09,0,0,1,9.33,10.09,2,2,0,0,1-1.59,3.26Zm-99.67-7.51h0c-4.65-.06-9.22-.3-13.59-.71a2,2,0,0,1,.38-4c4.26.4,8.72.63,13.26.69a2,2,0,0,1,0,4Zm13.44-.31a2,2,0,0,1-.12-4c4.42-.25,8.89-.66,13.27-1.22a2,2,0,1,1,.51,4c-4.48.57-9,1-13.54,1.25Zm-40.17-2.3a1.81,1.81,0,0,1-.4,0,92.89,92.89,0,0,1-13.25-3.6,2,2,0,1,1,1.36-3.79,88,88,0,0,0,12.68,3.43,2,2,0,0,1-.39,4Zm66.85-1.09a2,2,0,0,1-.4-4c4.45-.89,8.8-1.94,12.91-3.12a2,2,0,1,1,1.11,3.88c-4.22,1.21-8.67,2.29-13.23,3.2A2.58,2.58,0,0,1,1846,561.69Zm40-7.16a2,2,0,0,1-1.18-.39c-1.57-1.14-3.21-2.26-4.9-3.37-2.35,1.16-4.82,2.25-7.41,3.29a2,2,0,0,1-1.5-3.75q2.52-1,4.87-2.08c-.71-.44-1.44-.87-2.17-1.29a2,2,0,1,1,2-3.49c1.5.88,3,1.77,4.42,2.68.94-.48,1.85-1,2.73-1.48a2,2,0,0,1,2,3.5l-.89.5c1.09.73,2.15,1.48,3.19,2.23a2,2,0,0,1-1.19,3.65Zm-131.84-1.28a2,2,0,0,1-1.16-.37,27,27,0,0,1-8.44-9.08c-.32-.61-.62-1.22-.88-1.82a2,2,0,0,1,3.69-1.62q.33.75.75,1.53a23,23,0,0,0,7.2,7.7,2,2,0,0,1,.48,2.81A2,2,0,0,1,1754.23,553.25ZM1862.89,541a2,2,0,0,1-.86-.19c-3.91-1.86-8-3.63-12.22-5.27a2,2,0,1,1,1.47-3.76c4.29,1.68,8.49,3.49,12.48,5.39a2,2,0,0,1-.87,3.83Zm32-.3a2,2,0,0,1-1.51-.67,2,2,0,0,1,.16-2.85,36.52,36.52,0,0,0,8-9.84,2,2,0,1,1,3.55,1.9,40.68,40.68,0,0,1-8.82,10.95A2,2,0,0,1,1894.91,540.65Zm-57.06-9.48a1.9,1.9,0,0,1-.61-.1c-4.2-1.33-8.51-2.54-12.82-3.61a2,2,0,0,1,1-3.92c4.38,1.09,8.78,2.33,13.06,3.69a2,2,0,0,1-.61,3.94Zm-91.08-.58a2,2,0,0,1-1.31-.49,2,2,0,0,1-.22-2.84c2.6-3,6.83-5.4,12.57-7a2,2,0,1,1,1.11,3.87c-5,1.42-8.54,3.37-10.62,5.8A2,2,0,0,1,1746.77,530.59Zm65-5.91a1.55,1.55,0,0,1-.37,0c-4.43-.81-8.87-1.47-13.17-2a2,2,0,0,1,.46-4c4.39.5,8.91,1.18,13.44,2a2,2,0,0,1-.36,4ZM1771.6,522a2,2,0,0,1-.16-4,124,124,0,0,1,13.67-.26,2,2,0,0,1,2,2.08,2,2,0,0,1-2.08,2,118.34,118.34,0,0,0-13.22.25Zm135-4.54h0a2,2,0,0,1-2-2v-.3a31.77,31.77,0,0,0-2.54-12,2,2,0,1,1,3.73-1.53,35.58,35.58,0,0,1,2.84,13.54v.32A2,2,0,0,1,1906.64,517.41Zm-9.34-24.72a2,2,0,0,1-1.64-.83,92.4,92.4,0,0,0-8.52-10,2,2,0,1,1,2.88-2.81,94.53,94.53,0,0,1,8.91,10.44,2,2,0,0,1-.45,2.81A1.94,1.94,0,0,1,1897.3,492.69Zm-18.68-19.23a2,2,0,0,1-1.26-.43,116.19,116.19,0,0,0-10.79-7.63,2,2,0,0,1,2.14-3.42,121.48,121.48,0,0,1,11.16,7.89,2,2,0,0,1,.32,2.84A2,2,0,0,1,1878.62,473.46Zm-22.73-14.3a2.07,2.07,0,0,1-.89-.21c-3.85-1.91-7.93-3.71-12.13-5.35a2,2,0,1,1,1.47-3.76c4.31,1.69,8.5,3.54,12.45,5.5a2,2,0,0,1-.9,3.82Zm-251.22-3.62a2,2,0,0,1-.51-4s4.9-1.28,13.2-3.09a2,2,0,0,1,.87,3.94c-8.22,1.79-13,3-13,3.05A1.79,1.79,0,0,1,1604.67,455.54Zm26.3-5.8a2,2,0,0,1-.38-4c4.36-.85,8.83-1.68,13.27-2.45a2,2,0,1,1,.69,4c-4.41.77-8.85,1.59-13.19,2.44A1.72,1.72,0,0,1,1631,449.74Zm199.94-.43a2,2,0,0,1-.59-.09c-4.12-1.27-8.44-2.45-12.85-3.5a2,2,0,0,1,.94-3.93c4.49,1.08,8.9,2.28,13.1,3.58a2,2,0,0,1-.6,3.94Zm-173.43-4.2a2,2,0,0,1-.31-4c4.45-.69,8.94-1.34,13.36-1.93a2,2,0,1,1,.53,4c-4.39.59-8.85,1.23-13.27,1.91A1.63,1.63,0,0,1,1657.48,445.11Zm147.31-2.1-.37,0c-4.26-.77-8.7-1.47-13.19-2.06a2,2,0,1,1,.52-4c4.56.6,9.07,1.31,13.39,2.09a2,2,0,0,1-.35,4Zm-120.64-1.47a2,2,0,0,1-.23-4c4.49-.5,9-1,13.43-1.36a2,2,0,1,1,.36,4c-4.39.4-8.88.85-13.34,1.35Zm94-2.08h-.18c-4.34-.39-8.83-.7-13.34-.93a2,2,0,1,1,.2-4c4.57.23,9.11.55,13.5.94a2,2,0,0,1-.18,4Zm-67.18-.32a2,2,0,0,1-.13-4c4.52-.3,9.06-.54,13.48-.72a2,2,0,0,1,2.1,1.93,2,2,0,0,1-1.94,2.1c-4.38.17-8.88.41-13.37.71Zm40.32-1.06h0c-2.47-.05-5-.05-7.54-.07-2,0-3.89,0-5.84,0a2,2,0,1,1,0-4c2,0,4,0,6,0,2.52,0,5,0,7.51.06a2,2,0,0,1,0,4Z"/><path class="cls-8" d="M1690,881.91c-39.78,20-87.53-28.19-78.3,36.29s-83.79,64.63-149.5,56.45-58,70.92-124.32,80-123.11-33-123.11-33L1178,875.79c-4.63-18.38,9.44-36.17,28.6-36.17h491.09S1729.77,861.9,1690,881.91Z"/><path class="cls-23" d="M1250.46,887.87h18.11c10.7,0,18.83,6.12,20.94,15.52,2.31,10.32-4.75,15.72-14.85,15.72h-9.12l3.32,14.79h-8.07Zm22.82,23.94c6.11,0,9.14-3.42,8-8.35-1.21-5.39-5.72-8.22-11.75-8.22h-9.39l3.72,16.57Z"/><path class="cls-23" d="M1294.29,887.87h8.07l8.67,38.67h24.15l1.65,7.36h-32.22Z"/><path class="cls-23" d="M1351.1,887.55h7.48l30.6,46.35h-8.53l-7.15-11.11h-21.72l-2.23,11.11h-8.26Zm17.84,28.07-12.07-18.41-3.74,18.41Z"/><path class="cls-23" d="M1399.28,915.75l-24.49-27.88h9.51l17.43,20.39,8.42-20.39h9.25l-12,27.69,4.12,18.34h-8.14Z"/><path class="cls-23" d="M1429.87,928.28a6.14,6.14,0,1,1,6.13,6.14A6.14,6.14,0,0,1,1429.87,928.28Z"/><circle class="cls-23" cx="1462.2" cy="928.28" r="6.14"/><path class="cls-23" d="M1482,928.28a6.14,6.14,0,1,1,6.14,6.14A6.14,6.14,0,0,1,1482,928.28Z"/></g></g></svg>