<svg xmlns="http://www.w3.org/2000/svg" viewBox="0 0 439.22 288.42"><defs><style>.cls-1{fill:#004370;}.cls-2{fill:#00548a;}.cls-3{fill:#002c47;}.cls-4{fill:#42a5f6;}.cls-5{fill:#ba6c56;}.cls-6{fill:#0c1633;}.cls-7{fill:#aa563c;}.cls-15,.cls-17,.cls-18,.cls-19,.cls-20,.cls-25,.cls-28,.cls-8{fill:none;}.cls-8{stroke:#aa563c;stroke-width:0.69px;}.cls-15,.cls-17,.cls-19,.cls-20,.cls-22,.cls-26,.cls-8{stroke-linecap:round;stroke-linejoin:round;}.cls-9{fill:#d4d4d0;}.cls-10{fill:#5e4ecb;}.cls-11{fill:#4a3ea1;}.cls-12{fill:#f4c35c;}.cls-13{fill:#1d89e4;}.cls-14{fill:#ba6047;}.cls-15{stroke:#0c1633;}.cls-16{fill:#1870ba;}.cls-17,.cls-19,.cls-20,.cls-26,.cls-28{stroke:#fff;}.cls-17,.cls-19,.cls-20,.cls-22,.cls-26{stroke-width:0.5px;}.cls-17{stroke-dasharray:2;}.cls-18{stroke:#4a3ea1;}.cls-18,.cls-25,.cls-28{stroke-miterlimit:10;}.cls-20{stroke-dasharray:1.99 1.99;}.cls-21{fill:#ff9ad6;}.cls-22{fill:#cf7dad;}.cls-22,.cls-25{stroke:#cf7dad;}.cls-23{fill:#e3b04e;}.cls-24{fill:#c99c45;}.cls-26,.cls-30{fill:#fff;}.cls-27{fill:#d97265;}.cls-28{stroke-width:0.75px;}.cls-29{fill:#bed6e8;}</style></defs><title>podcast</title><g id="Layer_2" data-name="Layer 2"><g id="OBJECTS"><rect class="cls-1" x="186.95" y="126.96" width="65.86" height="88.09"/><path class="cls-1" d="M202.56,283.63A4.59,4.59,0,1,1,198,279,4.59,4.59,0,0,1,202.56,283.63Z"/><path class="cls-2" d="M199.63,283.63A1.66,1.66,0,1,1,198,282,1.66,1.66,0,0,1,199.63,283.63Z"/><path class="cls-3" d="M198,278.17a5.46,5.46,0,0,0-5.46,5.46h10.92A5.45,5.45,0,0,0,198,278.17Z"/><path class="cls-1" d="M224.47,283.63a4.59,4.59,0,1,1-4.59-4.59A4.59,4.59,0,0,1,224.47,283.63Z"/><circle class="cls-2" cx="219.88" cy="283.63" r="1.66"/><path class="cls-3" d="M219.88,278.17a5.46,5.46,0,0,0-5.46,5.46h10.92A5.45,5.45,0,0,0,219.88,278.17Z"/><path class="cls-1" d="M246.38,283.63a4.59,4.59,0,1,1-4.59-4.59A4.59,4.59,0,0,1,246.38,283.63Z"/><circle class="cls-2" cx="241.79" cy="283.63" r="1.66"/><path class="cls-3" d="M241.79,278.17a5.46,5.46,0,0,0-5.46,5.46h10.92A5.45,5.45,0,0,0,241.79,278.17Z"/><rect class="cls-3" x="215.04" y="255.2" width="9.69" height="11.56"/><rect class="cls-3" x="215.04" y="224.1" width="9.69" height="11.56"/><rect class="cls-3" x="216.94" y="233.91" width="5.89" height="22.06"/><polygon class="cls-3" points="196.68 280.03 196.68 274.41 196.68 273.62 197.47 273.23 217.21 263.43 219.24 268.22 198.48 275.6 199.26 274.41 199.26 280.03 196.68 280.03"/><polygon class="cls-3" points="240.5 280.03 240.5 274.41 241.29 275.6 220.53 268.22 222.56 263.43 242.3 273.23 243.08 273.62 243.08 274.41 243.08 280.03 240.5 280.03"/><polygon class="cls-3" points="222.77 265.6 221.34 279.42 218.43 279.42 217 265.6 222.77 265.6"/><path class="cls-1" d="M233.72,228.28H206a5.8,5.8,0,0,1-5.79-5.8v-1.15h39.27v1.15A5.8,5.8,0,0,1,233.72,228.28Z"/><path class="cls-3" d="M184.73,209.57H255a5.11,5.11,0,0,1,5.11,5.11v6.65a0,0,0,0,1,0,0H179.63a0,0,0,0,1,0,0v-6.65A5.11,5.11,0,0,1,184.73,209.57Z"/><circle class="cls-1" cx="190.3" cy="122.45" r="12.1" transform="translate(27.21 279.32) rotate(-76.65)"/><circle class="cls-1" cx="251.24" cy="122.45" r="12.1" transform="translate(89.99 350.74) rotate(-80.75)"/><rect class="cls-1" x="190.3" y="110.35" width="60.95" height="24.21"/><rect class="cls-3" x="379.7" y="234.88" width="5.8" height="21.75" transform="translate(765.2 491.52) rotate(180)"/><path class="cls-3" d="M346.65,223.06h28.77a5.1,5.1,0,0,1,5.1,5.1v1.75a0,0,0,0,1,0,0H346.65a0,0,0,0,1,0,0v-6.85A0,0,0,0,1,346.65,223.06Z" transform="translate(727.18 452.97) rotate(180)"/><path class="cls-1" d="M374.87,229.91h26.77a5.1,5.1,0,0,0,5.1-5.1v-1.75H368A6.85,6.85,0,0,0,374.87,229.91Z"/><path class="cls-1" d="M399.68,283.9a4.52,4.52,0,1,0,4.52-4.52A4.52,4.52,0,0,0,399.68,283.9Z"/><path class="cls-2" d="M402.56,283.9a1.64,1.64,0,1,0,1.64-1.64A1.65,1.65,0,0,0,402.56,283.9Z"/><path class="cls-3" d="M404.2,278.51a5.38,5.38,0,0,1,5.38,5.39H398.82A5.38,5.38,0,0,1,404.2,278.51Z"/><path class="cls-1" d="M378.08,283.9a4.52,4.52,0,1,0,4.52-4.52A4.52,4.52,0,0,0,378.08,283.9Z"/><path class="cls-2" d="M381,283.9a1.64,1.64,0,1,0,1.64-1.64A1.64,1.64,0,0,0,381,283.9Z"/><path class="cls-3" d="M382.6,278.51A5.38,5.38,0,0,1,388,283.9H377.21A5.39,5.39,0,0,1,382.6,278.51Z"/><path class="cls-1" d="M356.48,283.9a4.52,4.52,0,1,0,4.52-4.52A4.52,4.52,0,0,0,356.48,283.9Z"/><path class="cls-2" d="M359.36,283.9a1.64,1.64,0,1,0,1.64-1.64A1.64,1.64,0,0,0,359.36,283.9Z"/><path class="cls-3" d="M361,278.51a5.38,5.38,0,0,1,5.38,5.39H355.61A5.39,5.39,0,0,1,361,278.51Z"/><rect class="cls-3" x="377.82" y="255.87" width="9.56" height="11.39" transform="translate(765.2 523.14) rotate(180)"/><rect class="cls-1" x="377.82" y="225.21" width="9.56" height="11.39" transform="translate(765.2 461.81) rotate(180)"/><polygon class="cls-3" points="402.91 280.36 402.91 274.81 403.7 276 383.22 268.74 385.25 263.95 404.7 273.63 405.49 274.02 405.49 274.81 405.49 280.36 402.91 280.36"/><polygon class="cls-3" points="359.71 280.36 359.71 274.81 359.71 274.02 360.49 273.63 379.95 263.95 381.97 268.74 361.5 276 362.29 274.81 362.29 280.36 359.71 280.36"/><polygon class="cls-3" points="385.49 266.12 384.05 279.75 381.15 279.75 379.71 266.12 385.49 266.12"/><path class="cls-1" d="M307.07,211.14h96.83a0,0,0,0,1,0,0v5.18a6.93,6.93,0,0,1-6.93,6.93H307.07a0,0,0,0,1,0,0v-12.1A0,0,0,0,1,307.07,211.14Z" transform="translate(710.98 434.38) rotate(180)"/><path class="cls-3" d="M427.82,213.94l7.26-91.34a2.13,2.13,0,0,0-2.13-2.3H382.77a2.14,2.14,0,0,0-2.13,2l-7.84,98.67a2.13,2.13,0,0,0,2.13,2.3h42.82A10.09,10.09,0,0,0,427.82,213.94Z"/><polygon class="cls-1" points="368.45 108.19 422.68 108.19 422.68 132.4 365.73 132.4 368.45 108.19"/><circle class="cls-1" cx="368.94" cy="120.3" r="12.1"/><polygon class="cls-1" points="414.98 217.62 423.16 120.3 368.69 120.3 360.51 217.62 414.98 217.62"/><circle class="cls-3" cx="423.16" cy="120.3" r="12.1"/><path class="cls-3" d="M377.4,211.14h46.83a0,0,0,0,1,0,0v5.18a6.93,6.93,0,0,1-6.93,6.93H366.62a0,0,0,0,1,0,0v-1.32A10.78,10.78,0,0,1,377.4,211.14Z" transform="translate(790.86 434.38) rotate(180)"/><rect class="cls-3" x="62.67" y="234.88" width="5.8" height="21.75"/><path class="cls-3" d="M67.65,225.21h33.87a0,0,0,0,1,0,0V227a5.1,5.1,0,0,1-5.1,5.1H67.65a0,0,0,0,1,0,0v-6.85A0,0,0,0,1,67.65,225.21Z"/><path class="cls-1" d="M73.31,232.06H46.54a5.1,5.1,0,0,1-5.1-5.1v-1.75H80.16A6.85,6.85,0,0,1,73.31,232.06Z"/><path class="cls-1" d="M48.49,283.9A4.52,4.52,0,1,1,44,279.38,4.52,4.52,0,0,1,48.49,283.9Z"/><path class="cls-2" d="M45.61,283.9A1.64,1.64,0,1,1,44,282.26,1.64,1.64,0,0,1,45.61,283.9Z"/><path class="cls-3" d="M44,278.51a5.38,5.38,0,0,0-5.38,5.39H49.36A5.39,5.39,0,0,0,44,278.51Z"/><path class="cls-1" d="M70.1,283.9a4.52,4.52,0,1,1-4.52-4.52A4.53,4.53,0,0,1,70.1,283.9Z"/><path class="cls-2" d="M67.22,283.9a1.64,1.64,0,1,1-1.64-1.64A1.65,1.65,0,0,1,67.22,283.9Z"/><path class="cls-3" d="M65.58,278.51a5.39,5.39,0,0,0-5.39,5.39H71A5.38,5.38,0,0,0,65.58,278.51Z"/><path class="cls-1" d="M91.7,283.9a4.52,4.52,0,1,1-4.52-4.52A4.52,4.52,0,0,1,91.7,283.9Z"/><path class="cls-2" d="M88.82,283.9a1.64,1.64,0,1,1-1.64-1.64A1.65,1.65,0,0,1,88.82,283.9Z"/><path class="cls-3" d="M87.18,278.51a5.38,5.38,0,0,0-5.38,5.39H92.56A5.38,5.38,0,0,0,87.18,278.51Z"/><rect class="cls-3" x="60.8" y="255.87" width="9.56" height="11.39"/><rect class="cls-1" x="60.8" y="225.21" width="9.56" height="11.39"/><polygon class="cls-3" points="42.69 280.36 42.69 274.81 42.69 274.02 43.47 273.63 62.92 263.95 64.95 268.74 44.48 276 45.26 274.81 45.26 280.36 42.69 280.36"/><polygon class="cls-3" points="85.89 280.36 85.89 274.81 86.68 276 66.2 268.74 68.23 263.95 87.68 273.63 88.47 274.02 88.47 274.81 88.47 280.36 85.89 280.36"/><polygon class="cls-3" points="68.46 266.12 67.03 279.75 64.13 279.75 62.69 266.12 68.46 266.12"/><path class="cls-1" d="M44.27,213.29h89.91a6.93,6.93,0,0,1,6.93,6.93v5.18a0,0,0,0,1,0,0H44.27a0,0,0,0,1,0,0v-12.1A0,0,0,0,1,44.27,213.29Z"/><path class="cls-3" d="M20.35,216.09l-7.26-91.33a2.13,2.13,0,0,1,2.13-2.31H65.4a2.14,2.14,0,0,1,2.13,2l7.85,98.67a2.14,2.14,0,0,1-2.13,2.3H30.42A10.1,10.1,0,0,1,20.35,216.09Z"/><polygon class="cls-1" points="79.72 110.35 25.5 110.35 25.5 134.55 82.44 134.55 79.72 110.35"/><circle class="cls-1" cx="79.24" cy="122.45" r="12.1" transform="translate(-54.36 180.97) rotate(-80.75)"/><polygon class="cls-1" points="33.2 219.77 25.01 122.45 79.48 122.45 87.67 219.77 33.2 219.77"/><circle class="cls-3" cx="25.01" cy="122.45" r="12.1" transform="translate(-99.87 127.45) rotate(-80.75)"/><path class="cls-3" d="M23.94,213.29H74.63a6.93,6.93,0,0,1,6.93,6.93v5.18a0,0,0,0,1,0,0H34.72a10.78,10.78,0,0,1-10.78-10.78v-1.32A0,0,0,0,1,23.94,213.29Z"/><path class="cls-4" d="M203,92.4a1,1,0,0,1-1-1V81.32A13.32,13.32,0,0,1,215.29,68h9.07a13.17,13.17,0,0,1,8.1,2.75,1,1,0,0,1-1.22,1.58A11.19,11.19,0,0,0,224.36,70h-9.07A11.32,11.32,0,0,0,204,81.32V91.4A1,1,0,0,1,203,92.4Z"/><path class="cls-5" d="M196.81,276.88a6.65,6.65,0,0,0,13.25-.92l-.44-24.11L194,253.77Z"/><path class="cls-5" d="M233.31,253.06l-.42,22.9a6.65,6.65,0,0,0,13.26.92l2.79-23.27Z"/><path class="cls-6" d="M236.73,81.39c-.42-2.48-1.41-5.12-3.63-6.3-.87-.46-1.86-.66-2.74-1.13a2.58,2.58,0,0,1-1.57-2.31,7.6,7.6,0,0,1,.43-1.38,3.77,3.77,0,0,0-.79-3.35,6.49,6.49,0,0,0-3-1.9,10,10,0,0,0-7.38.44c-3.84,1.81-6.23,5.92-10.11,7.64a26.54,26.54,0,0,0-2.45,1.05c-2.44,1.4-3.46,4.54-3.08,7.33A17.36,17.36,0,0,0,206,89.05l28.66.75a6.72,6.72,0,0,0,2.15-3.9A12.9,12.9,0,0,0,236.73,81.39Z"/><rect class="cls-5" x="212.62" y="102.37" width="14.15" height="19.08"/><path class="cls-7" d="M226.76,102.37v6.23a17.25,17.25,0,0,1-4.74.93,34.22,34.22,0,0,1-6.4-.26,11,11,0,0,1-3-.79v-6.11Z"/><path class="cls-5" d="M242.38,177.22H197V124.49a9.78,9.78,0,0,1,7.1-9.4L219,110.85l16.12,4.32a9.77,9.77,0,0,1,7.25,9.44Z"/><path class="cls-5" d="M237.94,88.64a4,4,0,0,0-2.81-1.54,3.08,3.08,0,0,0-2.86,1.32l-.43,5.7a3.05,3.05,0,0,0,2.79,1.59,4.17,4.17,0,0,0,3-1.37,4.54,4.54,0,0,0,1.1-2.86A4.43,4.43,0,0,0,237.94,88.64Z"/><path class="cls-8" d="M235,93.92a5,5,0,0,1,.34-5.3"/><path class="cls-8" d="M234.64,90.93a3.75,3.75,0,0,1,2,2"/><path class="cls-5" d="M201.86,88.64a4,4,0,0,1,2.81-1.54,3.07,3.07,0,0,1,2.85,1.32l.43,5.7a3,3,0,0,1-2.79,1.59,4.19,4.19,0,0,1-3-1.37,4.54,4.54,0,0,1-1.1-2.86A4.44,4.44,0,0,1,201.86,88.64Z"/><path class="cls-8" d="M204.81,93.92a5,5,0,0,0-.34-5.3"/><path class="cls-8" d="M205.15,90.93a3.78,3.78,0,0,0-2,2"/><path class="cls-5" d="M234.09,88.31c0-9.31-6.36-16.87-14.21-16.87s-14.2,7.56-14.2,16.87a20.59,20.59,0,0,0,.21,2.86v4.18a12,12,0,0,0,5,9.72,10.87,10.87,0,0,0,4.86,1.88,31.71,31.71,0,0,0,6.16.26,14.19,14.19,0,0,0,6.52-1.88,11.81,11.81,0,0,0,4.12-4.58c.1-.19.19-.39.28-.58a12.07,12.07,0,0,0,1-4.82V91.17A19.15,19.15,0,0,0,234.09,88.31Z"/><path class="cls-6" d="M202.69,268.6h1.49a6.21,6.21,0,0,1,6.21,6.21v6a0,0,0,0,1,0,0H196.48a0,0,0,0,1,0,0v-6A6.21,6.21,0,0,1,202.69,268.6Z"/><path class="cls-6" d="M204.83,273.86H202a9.11,9.11,0,0,0-9.11,9.11v5.27h21V283A9.11,9.11,0,0,0,204.83,273.86Z"/><rect class="cls-9" x="192.92" y="284.83" width="21.03" height="1.38"/><path class="cls-9" d="M208.35,277h-9.83a.3.3,0,1,1,0-.59h9.83a.3.3,0,0,1,0,.59Z"/><path class="cls-9" d="M207.49,279h-8.11a.3.3,0,1,1,0-.59h8.11a.3.3,0,0,1,0,.59Z"/><path class="cls-9" d="M198.17,273.33a2.17,2.17,0,0,1,1.29-2,2.14,2.14,0,0,1,2.34.35l1.67,1.47a.25.25,0,0,1,.08.22,2.46,2.46,0,0,1-2.42,2.13h-.77A2.19,2.19,0,0,1,198.17,273.33Zm3.29-1.26a1.67,1.67,0,0,0-2.77,1.26,1.67,1.67,0,0,0,1.67,1.66h.77a1.93,1.93,0,0,0,1.89-1.54Z"/><path class="cls-9" d="M206.51,275.51h-.77a2.46,2.46,0,0,1-2.43-2.13.26.26,0,0,1,.09-.22l1.67-1.47a2.18,2.18,0,0,1,3.62,1.64A2.19,2.19,0,0,1,206.51,275.51Zm-2.66-2.06a1.93,1.93,0,0,0,1.89,1.54h.77a1.67,1.67,0,0,0,1.67-1.66,1.67,1.67,0,0,0-2.77-1.26Z"/><path class="cls-10" d="M248.86,198l-.72-.31-3.9-1.75-1.86-19.41H197l-2,21.09-.16.07-.73.32a9.46,9.46,0,0,0-5.58,9.8L194,262.17l16.57-1.62-1.66-46.39c1.69-.61,3.38-1.25,5.08-1.85l.86-.35a10.63,10.63,0,0,0,3.24-2.32h6.72a10.51,10.51,0,0,0,4.1,2.67c1.69.6,3.38,1.24,5.07,1.85l-1.83,46.68,17,1,5.27-54A9.49,9.49,0,0,0,248.86,198Z"/><path class="cls-6" d="M232.56,268.6h13.91a0,0,0,0,1,0,0v6a6.21,6.21,0,0,1-6.21,6.21h-1.49a6.21,6.21,0,0,1-6.21-6.21v-6A0,0,0,0,1,232.56,268.6Z" transform="translate(479.04 549.44) rotate(180)"/><path class="cls-6" d="M238.12,273.86h2.8A9.11,9.11,0,0,1,250,283v5.27H229V283A9.11,9.11,0,0,1,238.12,273.86Z"/><rect class="cls-9" x="229.01" y="284.83" width="21.03" height="1.38" transform="translate(479.04 571.04) rotate(180)"/><path class="cls-9" d="M234.61,277h9.82a.3.3,0,1,0,0-.59h-9.82a.3.3,0,1,0,0,.59Z"/><path class="cls-9" d="M235.47,279h8.1a.3.3,0,1,0,0-.59h-8.1a.3.3,0,1,0,0,.59Z"/><path class="cls-9" d="M242.6,275.51h-.78a2.46,2.46,0,0,1-2.42-2.13.24.24,0,0,1,.09-.22l1.67-1.47a2.18,2.18,0,0,1,3.62,1.64A2.19,2.19,0,0,1,242.6,275.51Zm-2.67-2.06a1.93,1.93,0,0,0,1.89,1.54h.78a1.67,1.67,0,0,0,1.67-1.66,1.64,1.64,0,0,0-1-1.52,1.62,1.62,0,0,0-1.78.26Z"/><path class="cls-9" d="M234.26,273.33a2.18,2.18,0,0,1,3.62-1.64l1.67,1.47a.24.24,0,0,1,.09.22,2.46,2.46,0,0,1-2.42,2.13h-.78A2.19,2.19,0,0,1,234.26,273.33Zm3.28-1.26a1.67,1.67,0,0,0-2.77,1.26,1.67,1.67,0,0,0,1.67,1.66h.78a1.93,1.93,0,0,0,1.89-1.54Z"/><path class="cls-5" d="M303.14,104.4c1.79-2.6-6.41,1.1-8.93,2.74,0,0,6.58-4.31,8.12-7.2s-7.1,2-10.13,4.52c0,0,5.76-5.56,6.33-7.83s-6.29,3.28-8.75,5.9-4,2.31-3.92,1.58.94-3.47,1.29-4.91c.29-1.2.08-3.4-1.07-2.6-.68.47-1.72,2.72-2.31,4.09-1.49,3.5-4.62,9-6.9,11.13a5.39,5.39,0,0,0-1.8,2.19l-13.13,29.1-.8-1.17c-1.12-1.64-2.28-3.25-3.45-4.86-2.31-3.25-4.73-6.4-7.21-9.51s-5.09-6.13-7.92-9a10.11,10.11,0,0,0-16,12.08c2,3.5,4.2,6.8,6.47,10.06s4.69,6.43,7.18,9.54c1.23,1.56,2.47,3.12,3.74,4.65s2.54,3.07,3.83,4.58c2.6,3,5.24,6,8.06,8.87l1.43,1.45a8.89,8.89,0,0,0,14.89-3.93l13.12-48c4.09-2,9.12-4.38,11-5.07,3.35-1.25,5.83-2.73,6.39-3.48s-2.28-1.51-7.11.46C295.56,109.78,301.35,107,303.14,104.4Z"/><path class="cls-5" d="M210.76,118.42a10.11,10.11,0,0,0-14.29.13c-2.81,2.86-5.34,5.92-7.83,9s-4.85,6.28-7.12,9.53c-1.15,1.61-2.3,3.23-3.41,4.88-.32.46-.62.94-.94,1.4L164,116a5.86,5.86,0,0,0-2.05-2.35c-2.23-2.37-5.05-7.4-6.44-10.66-.58-1.37-1.62-3.62-2.31-4.1-1.14-.79-1.35,1.4-1.06,2.61.34,1.44,1.2,4.17,1.28,4.91s-1.44,1-3.91-1.58-9.31-8.16-8.75-5.9,6.33,7.83,6.33,7.83c-3-2.54-11.68-7.42-10.14-4.53s8.12,7.21,8.12,7.21c-2.51-1.64-10.71-5.34-8.92-2.74s7.57,5.37,7.57,5.37c-4.83-2-7.66-1.2-7.1-.45s3,2.23,6.38,3.47c1.7.64,6,2.68,9.88,4.54a4.34,4.34,0,0,0,.17.69l14.29,45.82a9,9,0,0,0,2.29,3.74,8.92,8.92,0,0,0,12.61-.17l1.36-1.4c2.79-2.87,5.4-5.87,8-8.9,1.28-1.52,2.55-3,3.79-4.6s2.48-3.1,3.69-4.67c2.46-3.11,4.8-6.32,7.09-9.56a119.21,119.21,0,0,0,6.38-10.09A10.12,10.12,0,0,0,210.76,118.42Z"/><path class="cls-6" d="M220.48,69.89l-.28,10.2c0,.35.1.57.05.92a28,28,0,0,0-8.67,1.21,3.57,3.57,0,0,0-2.45,2.62,41.21,41.21,0,0,0-1,6.15,2.51,2.51,0,0,1-2,2.32l-.08,0a66.27,66.27,0,0,0-.61-8.08c-.32-2.36.79-4.66,1.75-6.85A16.29,16.29,0,0,1,213,71.33a14.52,14.52,0,0,1,3.33-1.64,5.65,5.65,0,0,1,1.76-.37A6.05,6.05,0,0,1,220.48,69.89Z"/><path class="cls-6" d="M219.41,69.89l-.19,10.23.84.88a30.36,30.36,0,0,1,8.14,1.22,3.59,3.59,0,0,1,2.47,2.63,39.81,39.81,0,0,1,1,6.14,2.51,2.51,0,0,0,2,2.32l.08,0a68.31,68.31,0,0,1,.6-8.08c.33-2.36-.79-4.66-1.74-6.85a16.25,16.25,0,0,0-5.78-7.07,14.25,14.25,0,0,0-3.32-1.64,4.69,4.69,0,0,0-4.07.2Z"/><polygon class="cls-11" points="192.92 260.76 211.14 258.57 211.47 261.79 193.63 264.01 192.92 260.76"/><polygon class="cls-11" points="250.18 260.41 231.91 258.69 231.66 261.91 249.55 263.69 250.18 260.41"/><path class="cls-12" d="M243.81,156.19c-7.53-12.36-12.59-27.58-8.89-41.47a32.81,32.81,0,0,0-4.17-1.11,35.59,35.59,0,0,1-1.73,5.81,12.73,12.73,0,0,1-3.47,4.9,9.76,9.76,0,0,1-9.65,1.51,11.7,11.7,0,0,1-2.39-1.34,14.16,14.16,0,0,1-5.78-10.9,13,13,0,0,0-3.9,1c4.2,14.47,1.38,30.94-9,42.34l-.06,4.67c-.12,8.23.3,21.44-1.11,29.55a87.53,87.53,0,0,0,43.35.45c2.87-.7,5.74-1.74,8.63-2.36A301.25,301.25,0,0,1,243.81,156.19Z"/><rect class="cls-13" x="202.89" y="85.82" width="2.41" height="11.16"/><path class="cls-13" d="M207.61,91.4c0,3.09-1,5.58-2.31,5.58S203,94.49,203,91.4s1-5.58,2.32-5.58S207.61,88.32,207.61,91.4Z"/><path class="cls-4" d="M205.3,91.4c0,3.09-1,5.58-2.32,5.58s-2.32-2.49-2.32-5.58,1-5.58,2.32-5.58S205.3,88.32,205.3,91.4Z"/><rect class="cls-13" x="234.49" y="85.82" width="2.41" height="11.16" transform="translate(471.4 182.81) rotate(180)"/><path class="cls-13" d="M232.18,91.4c0,3.09,1,5.58,2.31,5.58s2.32-2.49,2.32-5.58-1-5.58-2.32-5.58S232.18,88.32,232.18,91.4Z"/><path class="cls-4" d="M234.49,91.4c0,3.09,1,5.58,2.32,5.58s2.32-2.49,2.32-5.58-1-5.58-2.32-5.58S234.49,88.32,234.49,91.4Z"/><path class="cls-4" d="M236.66,92.4a1,1,0,0,1-1-1V81.32a11.23,11.23,0,0,0-4.42-9,1,1,0,1,1,1.22-1.58,13.22,13.22,0,0,1,5.2,10.55V91.4A1,1,0,0,1,236.66,92.4Z"/><path class="cls-14" d="M230.45,97.85A2.49,2.49,0,1,1,228,95.36,2.48,2.48,0,0,1,230.45,97.85Z"/><path class="cls-14" d="M213.58,97.85a2.49,2.49,0,1,1-2.49-2.49A2.48,2.48,0,0,1,213.58,97.85Z"/><path class="cls-6" d="M215.49,91.27a1.35,1.35,0,1,1-1.35-1.35A1.34,1.34,0,0,1,215.49,91.27Z"/><path class="cls-6" d="M227,91.27a1.35,1.35,0,1,1-1.35-1.35A1.34,1.34,0,0,1,227,91.27Z"/><path class="cls-15" d="M220.35,91a8.53,8.53,0,0,1-.56,3.43c-.21.56-.49,1.1-.66,1.67a2.9,2.9,0,0,0,0,1.77,1.52,1.52,0,0,0,1.32,1.06"/><path class="cls-15" d="M216.37,101.47a7.36,7.36,0,0,0,6.48,1"/><path class="cls-1" d="M225.28,171.08h-2a.49.49,0,0,1,0-1h1.83l9.13-9.71a.48.48,0,0,1,.69,0,.49.49,0,0,1,0,.68l-9.28,9.86A.48.48,0,0,1,225.28,171.08Z"/><path class="cls-1" d="M246,171.08h-2a.5.5,0,0,1-.36-.16l-9.28-9.86a.48.48,0,0,1,0-.68.47.47,0,0,1,.68,0l9.14,9.71H246a.49.49,0,0,1,0,1Z"/><path class="cls-2" d="M235.23,157.58h-.87a.48.48,0,0,1,0-1h.87a2.11,2.11,0,0,0,1.94-2.24v-6.86a.48.48,0,1,1,1,0v6.86A3.06,3.06,0,0,1,235.23,157.58Z"/><path class="cls-2" d="M234.07,137.37l-8.27,8.27-6.22-6.22a5.84,5.84,0,0,1,0-8.27h0a5.85,5.85,0,0,1,8.27,0Z"/><path class="cls-1" d="M233,142.37h5.26a3.22,3.22,0,0,1,3.22,3.22v6.52a0,0,0,0,1,0,0h-11.7a0,0,0,0,1,0,0v-6.52A3.22,3.22,0,0,1,233,142.37Z" transform="translate(506.41 84.71) rotate(135)"/><rect class="cls-3" x="224.35" y="140.2" width="13.44" height="4.9" rx="0.8" transform="translate(-33.19 205.18) rotate(-45)"/><path class="cls-1" d="M232.6,142.65a1.53,1.53,0,1,1-1.53-1.52A1.52,1.52,0,0,1,232.6,142.65Z"/><path class="cls-2" d="M234.36,157.58h-.86a3.06,3.06,0,0,1-2.91-3.2V142.65a.49.49,0,0,1,1,0v11.73a2.11,2.11,0,0,0,1.94,2.24h.86a.48.48,0,1,1,0,1Z"/><rect class="cls-3" x="233.34" y="155.17" width="2.44" height="9.28" rx="1.22"/><rect class="cls-3" x="232.02" y="158.75" width="5.08" height="3.95" rx="0.64"/><path class="cls-1" d="M235.85,170.11h-.8v-9.38a.49.49,0,1,0-1,0v9.38h-.8a.49.49,0,0,0,0,1h2.57a.49.49,0,0,0,0-1Z"/><path class="cls-13" d="M83.76,92.09a5.28,5.28,0,1,1-5.27-5.58A5.43,5.43,0,0,1,83.76,92.09Z"/><path class="cls-4" d="M82.29,92.09A5.28,5.28,0,1,1,77,86.51,5.43,5.43,0,0,1,82.29,92.09Z"/><path class="cls-4" d="M79.24,90.16a1,1,0,0,1-1-1V80.89A13.42,13.42,0,0,0,64.83,67.48H64.6a13.3,13.3,0,0,0-7.9,2.57,1,1,0,1,1-1.18-1.61,15.22,15.22,0,0,1,9.08-3h.23A15.42,15.42,0,0,1,80.24,80.89v8.27A1,1,0,0,1,79.24,90.16Z"/><path class="cls-5" d="M148.09,270.22l-5.61-20.64-14.81,4.15,7.78,20.59a6.65,6.65,0,0,0,12.64-4.1Z"/><path class="cls-13" d="M128.78,199.21a8.78,8.78,0,0,0-5.71-6l-3.14-1a81.84,81.84,0,0,0-10.65-2.52q-5.34-.92-10.73-1.41c-3.59-.34-7.2-.53-10.81-.58a78.35,78.35,0,0,0-10.9.55,10.86,10.86,0,0,0-1.73,21.15,76.67,76.67,0,0,0,10.67,2.31c3.57.55,7.16.94,10.75,1.19s7.21.38,10.83.35c1.64,0,3.29-.08,4.93-.17l16.84,47.67,16.41-5.18Z"/><path class="cls-6" d="M133.68,274.94c0,.11.07.22.11.33.21.67.48,1.38.73,2.11.19.51.38,1,.58,1.53.28.73.57,1.46.86,2.18.62,1.56,1.24,3,1.74,4.19.71,1.66,1.2,2.75,1.2,2.75l37.47-11.31a2.43,2.43,0,0,0-.84-2.83,18.26,18.26,0,0,0-11.37-4.5c-5.78-.18-9.64-1.54-12.46-3.21l-.25-.16a20.05,20.05,0,0,1-2.29-1.62,1.32,1.32,0,0,1-.22-.18c-.36-.3-.68-.59-1-.87-1.18-1.06-2.23-.12-3.08,1.43a9.36,9.36,0,0,1-9.24,4.74,4.42,4.42,0,0,0-2.71.24c-.34.27-.28,1.2,0,2.52C133.1,273.05,133.37,274,133.68,274.94Z"/><path class="cls-9" d="M137.7,285.28c.4,1.74.76,2.89.76,2.89l37.92-11.46a2.43,2.43,0,0,0-.85-2.83Z"/><path class="cls-9" d="M147,267.94l1.57,1.12a.58.58,0,0,0,.81-.14l2-2.91a20,20,0,0,1-2.29-1.6l-.22-.19-2.06,2.91A.57.57,0,0,0,147,267.94Z"/><path class="cls-9" d="M133.68,274.94c0,.11.07.22.11.33l.88-.15a.58.58,0,0,0,.48-.67l-.33-1.91a.57.57,0,0,0-.67-.47l-1.22.21C133.1,273.05,133.37,274,133.68,274.94Z"/><path class="cls-9" d="M146.41,275.42a3,3,0,1,1-3.7-2A3,3,0,0,1,146.41,275.42Z"/><polygon class="cls-16" points="127.67 259.39 146.12 253.36 147.37 257.26 128.74 262.6 127.67 259.39"/><line class="cls-17" x1="130.49" y1="256.69" x2="114.16" y2="212.06"/><path class="cls-5" d="M118.14,255.07l-15.47.49,3.79,23.54a6.65,6.65,0,0,0,13.2-1.5Z"/><path class="cls-6" d="M76.52,84.59a9.88,9.88,0,0,0,3.16.64,3.38,3.38,0,0,0,2.81-1.36,4.12,4.12,0,0,0,0-3.73A10.6,10.6,0,0,0,80.57,77a3.8,3.8,0,0,0,2.75-3.16,2.41,2.41,0,0,0-2.52-3.28,9.88,9.88,0,0,0-5.21.38,6.18,6.18,0,0,0,.93-3.4,3,3,0,0,0-.73-2,3.3,3.3,0,0,0-2.06-.78A9.34,9.34,0,0,0,65.39,68a5.82,5.82,0,0,0,.43-1.82,2.06,2.06,0,0,0-.71-1.68,2.62,2.62,0,0,0-2.34-.13,10.21,10.21,0,0,0-6.18,6.45c-.38-1.16-1.42-2.27-2.63-2.12a3,3,0,0,0-1.76,1.11,9,9,0,0,0-1.69,8.43,7.07,7.07,0,0,0-1.74-2.54,2.38,2.38,0,0,0-1.61-.78,2.13,2.13,0,0,0-1.27.58,5,5,0,0,0-1.55,3.14,9.24,9.24,0,0,0,.35,3.54,17.47,17.47,0,0,0,5.74,9c4.93-2.79,10.75-3.28,16.31-4.37A83.17,83.17,0,0,0,76.52,84.59Z"/><rect class="cls-5" x="58.11" y="102.75" width="14.15" height="19.08"/><path class="cls-7" d="M72.26,102.75v5.9c-3.23.13-10.62-.21-13.63-5.87l2.08,0Z"/><path class="cls-5" d="M123.41,153.51,119,103.31a5,5,0,0,0-9.91,0L106.36,134c-1.49-1.27-3-2.5-4.54-3.72-1-.85-2.08-1.66-3.13-2.48a66.18,66.18,0,0,1-4.4,10.94c-1.61,3.24-3.07,6.52-4.51,9.82,1.16.85,2.32,1.71,3.51,2.54,1.61,1.16,3.25,2.29,4.9,3.41,3.3,2.23,6.63,4.41,10.1,6.42l1.8,1.05a8.9,8.9,0,0,0,13.32-8.48Z"/><path class="cls-5" d="M84.55,178.28H45.82l-1.55-52.57c-.14-4.73,2.44-8.94,6.34-10.26l13.93-4.73,15.08,4.82c4,1.26,6.61,5.51,6.47,10.3Z"/><path class="cls-4" d="M114.52,201.14a9.29,9.29,0,0,0-7.15-8.41l-2.59-.61a113.54,113.54,0,0,0-13-2.11c-1.93-.22-3.86-.4-5.8-.56l-1.58-14.84H45.92l-2.5,23.47c-.49,4.61,1.19,8.84,3.85,10.58A10.7,10.7,0,0,0,52,211a115.39,115.39,0,0,0,13,1.91q6.5.6,13,.77c4.34.12,8.69.11,13-.06,1.64-.07,3.28-.16,4.92-.28l6.55,47.4L119.5,259Z"/><path class="cls-5" d="M79.39,89.24a21.18,21.18,0,0,1-.15,2.4v5.94a8.35,8.35,0,0,1-.39,2.53A8.18,8.18,0,0,1,77,103.37a7.8,7.8,0,0,1-3.1,2,14.7,14.7,0,0,1-4.18.57c-1.19.05-2.39.07-3.58.05a17.42,17.42,0,0,1-3.31-.19,12.21,12.21,0,0,1-4.51-2,15.94,15.94,0,0,1-5-6,19.62,19.62,0,0,1-1.88-8.49c0-9.35,6.25-16.93,14-16.93S79.39,79.89,79.39,89.24Z"/><path class="cls-5" d="M54.57,89.11a3.07,3.07,0,0,0-2.85-1.32,4,4,0,0,0-2.81,1.54,4.37,4.37,0,0,0-.83,2.84A4.54,4.54,0,0,0,49.18,95a4.17,4.17,0,0,0,3,1.37A3,3,0,0,0,55,94.81Z"/><path class="cls-8" d="M51.87,94.61a5.05,5.05,0,0,0-.34-5.3"/><path class="cls-8" d="M52.2,91.62a3.73,3.73,0,0,0-2,2"/><path class="cls-6" d="M104.19,274.37c0,.11,0,.23,0,.35,0,.7,0,1.46.09,2.23,0,.54.07,1.08.11,1.63.06.78.12,1.57.2,2.33.14,1.67.31,3.25.46,4.52.2,1.79.35,3,.35,3l39.14,0a2.42,2.42,0,0,0,0-2.95,18.27,18.27,0,0,0-9.59-7.59c-5.48-1.83-8.78-4.25-11-6.67a1.86,1.86,0,0,1-.19-.22,18.54,18.54,0,0,1-1.73-2.21,1.25,1.25,0,0,1-.16-.24c-.26-.39-.48-.76-.72-1.12-.82-1.35-2.09-.76-3.36.48a9.34,9.34,0,0,1-10.21,1.88,4.35,4.35,0,0,0-2.67-.55c-.4.15-.61,1.06-.7,2.42C104.18,272.39,104.17,273.34,104.19,274.37Z"/><path class="cls-9" d="M105.06,285.43c-.12,1.78-.11,3-.11,3l39.61,0a2.43,2.43,0,0,0,0-2.95Z"/><path class="cls-9" d="M119,271.52l1.18,1.52a.6.6,0,0,0,.82.1l2.79-2.19a20.35,20.35,0,0,1-1.72-2.2c-.06-.08-.11-.17-.16-.25l-2.81,2.2A.57.57,0,0,0,119,271.52Z"/><path class="cls-9" d="M104.19,274.37c0,.11,0,.23,0,.35l.88.1a.56.56,0,0,0,.65-.5l.24-1.92a.58.58,0,0,0-.51-.65l-1.23-.14C104.18,272.39,104.17,273.34,104.19,274.37Z"/><path class="cls-9" d="M116.24,278.5a3,3,0,1,1-3-3A3,3,0,0,1,116.24,278.5Z"/><path class="cls-5" d="M119.09,109.27s.74-15.1,1.28-18.63.46-6.41.08-7.27-2.43,1.25-3.07,6.43c0,0,.4-6.41-1-9.24s-2.16,6.14-1.95,9.13c0,0-.56-7.84-2.34-10.6s-1.73,7.17-1,11c0,0-2-7.74-3.75-9.34s-.2,7.09.89,10.52.07,4.61-.53,4.19A30.82,30.82,0,0,1,104.05,92c-.6-.71-2.93-1.72-2.8-.34.09.83,1.54,2.84,2.45,4,2.43,3.14,5.92,8.91,6.44,11.83v.09a3.67,3.67,0,0,0,4.6,2.9Z"/><path class="cls-6" d="M48.82,89c2,1.23,4.32,2.27,6.63,1.82A3,3,0,0,0,58,88.59a3.13,3.13,0,0,0-1.28-2.66c.2.17.26.14.5.21a10.19,10.19,0,0,0,3.16.29,1.9,1.9,0,0,0,1.49-.62A1.71,1.71,0,0,0,62,84.34a5,5,0,0,0-.57-1.16,4.47,4.47,0,0,0,2.79.89,2.13,2.13,0,0,0,.93-.23,1,1,0,0,0,.55-.76,1.27,1.27,0,0,0-.12-.6,4.49,4.49,0,0,0-1-1.54A6.19,6.19,0,0,0,69,82.62a1.83,1.83,0,0,0,.88-.28,1.56,1.56,0,0,0,.54-1.47,4.47,4.47,0,0,0-.59-1.53,6.53,6.53,0,0,0,3.3,3.19,3,3,0,0,0,1.43.3,1.58,1.58,0,0,0,1.25-.68A2.63,2.63,0,0,0,76.05,81,5.06,5.06,0,0,0,77,83.22a2.26,2.26,0,0,0,2.29.75,1.14,1.14,0,0,0,.35-.17,1.79,1.79,0,0,0,.31-.36,4.31,4.31,0,0,0,.42-.83,29.36,29.36,0,0,0-6.48-8.43,14.14,14.14,0,0,0-9.82-3.67,20,20,0,0,0-4.87,1.11A11.23,11.23,0,0,0,55,73.68a10.6,10.6,0,0,0-2.21,3.19A43.33,43.33,0,0,0,48.82,89Z"/><path class="cls-10" d="M86.1,175.13c0-13.65.57-29.93.84-42.61a39.11,39.11,0,0,0-.56-9.24c-.68-3-1.46-5.13-3.94-7a19,19,0,0,0-6.79-2.63,7.63,7.63,0,0,1-4.56,7.14,11,11,0,0,1-9.55,0A13.55,13.55,0,0,1,55,113.75c-2.86.57-6.54,2.19-7.78,4.57s-.38,5.07-.69,7.74C44.3,144.73,44.42,165,43.1,183.75a108.3,108.3,0,0,0,44,.12Z"/><path class="cls-11" d="M87.12,183.87a108.42,108.42,0,0,1-44-.12c.06-.79.11-1.57.16-2.37a113.3,113.3,0,0,0,43.58.13Z"/><path class="cls-5" d="M83.5,162.38l-37-6.87c1.3-2.49,2.6-5,3.92-7.46l1.64-3.16c-6.16-1-12.29-2-18.14-4.5-3.1,5.83-6.24,11.65-9.27,17.52l-.43.82a8.58,8.58,0,0,0,7.62,12.47l50.82.16a4.53,4.53,0,0,0,.84-9Z"/><path class="cls-5" d="M82.16,162.22a15.25,15.25,0,0,1,7.07,2.16,36.47,36.47,0,0,1,3,2.12c3.5,2.73,6.58,2.29,10.19,3.17a2.54,2.54,0,0,1,1,.4,1.26,1.26,0,0,1,.47,1H80.13Z"/><path class="cls-10" d="M55,113.75l-4.33,1.46a13.57,13.57,0,0,0-7.56,6.3L29.13,146.26l19.77,7.58,13.52-28.39-7.61-8.77Z"/><path class="cls-10" d="M78.37,114.37l2.85,1.13a28.32,28.32,0,0,1,6.6,3.69l17.37,13.27-9,21-15.43-9.34L76.69,116.9Z"/><polygon class="cls-13" points="101.32 259.25 120.57 256.69 121.08 260.74 101.79 262.6 101.32 259.25"/><path class="cls-11" d="M78.32,114.36c-.12,4-2.13,6.82-5.71,8.67a13.82,13.82,0,0,1-12,0,16.94,16.94,0,0,1-8.13-8.63,15.39,15.39,0,0,1,2.45-.69,13.65,13.65,0,0,0,6.59,7.08,11,11,0,0,0,9.55,0,7.64,7.64,0,0,0,4.56-7.14A23.6,23.6,0,0,1,78.32,114.36Z"/><polygon class="cls-11" points="29.55 143.68 50.4 152.25 48.73 154.9 28.43 146.96 29.55 143.68"/><polygon class="cls-11" points="93.43 153.01 103.89 130.85 106.48 132.44 96.98 155.02 93.43 153.01"/><path class="cls-1" d="M114,171.08h-2a.49.49,0,0,1,0-1h1.82l9.14-9.71a.48.48,0,1,1,.7.66l-9.27,9.86A.5.5,0,0,1,114,171.08Z"/><path class="cls-1" d="M134.7,171.08h-2a.48.48,0,0,1-.35-.16L123,161.06a.49.49,0,0,1,0-.68.48.48,0,0,1,.69,0l9.13,9.71h1.83a.49.49,0,0,1,0,1Z"/><path class="cls-2" d="M123.91,157.58h-.86a.48.48,0,0,1,0-1h.86a2.11,2.11,0,0,0,1.94-2.24v-6.86a.48.48,0,0,1,.49-.48.47.47,0,0,1,.48.48v6.86A3.06,3.06,0,0,1,123.91,157.58Z"/><path class="cls-2" d="M122.76,137.37l-8.28,8.27-6.22-6.22a5.85,5.85,0,0,1,0-8.27h0a5.87,5.87,0,0,1,8.28,0Z"/><path class="cls-1" d="M121.72,142.37H127a3.22,3.22,0,0,1,3.22,3.22v6.52a0,0,0,0,1,0,0H118.5a0,0,0,0,1,0,0v-6.52A3.22,3.22,0,0,1,121.72,142.37Z" transform="translate(316.39 163.42) rotate(135)"/><rect class="cls-3" x="113.04" y="140.2" width="13.44" height="4.9" rx="0.8" transform="translate(-65.79 126.47) rotate(-45)"/><path class="cls-1" d="M121.29,142.65a1.53,1.53,0,1,1-1.53-1.52A1.53,1.53,0,0,1,121.29,142.65Z"/><path class="cls-2" d="M123.05,157.58h-.86a3.06,3.06,0,0,1-2.91-3.2V142.65a.49.49,0,0,1,1,0v11.73a2.11,2.11,0,0,0,1.94,2.24h.86a.48.48,0,0,1,0,1Z"/><rect class="cls-3" x="122.03" y="155.17" width="2.44" height="9.28" rx="1.22"/><rect class="cls-3" x="120.71" y="158.75" width="5.08" height="3.95" rx="0.64"/><path class="cls-1" d="M124.54,170.11h-.8v-9.38a.49.49,0,0,0-.49-.49.48.48,0,0,0-.48.49v9.38H122a.49.49,0,1,0,0,1h2.57a.49.49,0,0,0,0-1Z"/><path class="cls-18" d="M50.39,150.68q3-6.84,6.39-13.48"/><path class="cls-18" d="M53.37,144.32c.25,1.47.45,3,.6,4.43"/><path class="cls-18" d="M86.36,147.19c-.34-3.16-.69-6.33-1-9.49"/><line class="cls-19" x1="48.66" y1="186.07" x2="48.63" y2="187.07"/><path class="cls-20" d="M48.57,189.06l-.31,10.78a7.41,7.41,0,0,0,7.11,7.63l40.78,1.68a3.16,3.16,0,0,1,3,2.75l5.54,42.75"/><line class="cls-19" x1="104.82" y1="255.64" x2="104.95" y2="256.64"/><path class="cls-13" d="M56.47,92.09a5.28,5.28,0,1,1-5.27-5.58A5.43,5.43,0,0,1,56.47,92.09Z"/><path class="cls-4" d="M55,92.09a5.28,5.28,0,1,1-5.27-5.58A5.43,5.43,0,0,1,55,92.09Z"/><path class="cls-4" d="M50.19,93a1,1,0,0,1-1-1V80.89a15.45,15.45,0,0,1,6.33-12.45,1,1,0,0,1,1.18,1.61,13.47,13.47,0,0,0-5.51,10.84V92A1,1,0,0,1,50.19,93Z"/><path class="cls-14" d="M79.24,95.17v2.41a8.35,8.35,0,0,1-.39,2.53h-.1a2.5,2.5,0,0,1,0-5A2.63,2.63,0,0,1,79.24,95.17Z"/><path class="cls-14" d="M65.45,97.61A2.5,2.5,0,1,1,63,95.12,2.49,2.49,0,0,1,65.45,97.61Z"/><path class="cls-6" d="M77.06,90.09a1.35,1.35,0,1,1-1.35-1.35A1.35,1.35,0,0,1,77.06,90.09Z"/><path class="cls-6" d="M71.61,100.73c0,1.13-.61,2-1.35,2s-1.35-.91-1.35-2,.6-2,1.35-2S71.61,99.61,71.61,100.73Z"/><path class="cls-6" d="M66.8,90.09a1.36,1.36,0,1,1-1.35-1.35A1.35,1.35,0,0,1,66.8,90.09Z"/><path class="cls-15" d="M70.84,90.79c.4,1.2.76,2.41,1.11,3.62a1.9,1.9,0,0,1,.09.94,1.23,1.23,0,0,1-.59.74,3.22,3.22,0,0,1-.92.31,8.65,8.65,0,0,1-2,.15"/><path class="cls-4" d="M370.34,96.26a1,1,0,0,0,1-1V87a13.43,13.43,0,0,1,13.41-13.41H385a13.27,13.27,0,0,1,7.9,2.58,1,1,0,1,0,1.18-1.62,15.33,15.33,0,0,0-9.08-3h-.24A15.44,15.44,0,0,0,369.34,87v8.27A1,1,0,0,0,370.34,96.26Z"/><path class="cls-13" d="M365.82,98.2a5.29,5.29,0,1,0,5.28-5.58A5.43,5.43,0,0,0,365.82,98.2Z"/><path class="cls-4" d="M367.29,98.2a5.29,5.29,0,1,0,5.28-5.58A5.43,5.43,0,0,0,367.29,98.2Z"/><path class="cls-5" d="M312.19,152.46a3.76,3.76,0,0,0-1.38,7.37l28.64,8,1.6-12.61Z"/><path class="cls-5" d="M318.79,161.29s-13.08-1.53-16.19-1.57-5.58-.53-6.26-1,1.42-1.91,6-1.71c0,0-5.56-.59-7.79-2.19s5.58-1,8.13-.37c0,0-6.66-1.61-8.78-3.53s6.41-.45,9.64.74c0,0-6.36-2.87-7.48-4.57s6.11.85,8.91,2.28,3.95.72,3.67.14a27.36,27.36,0,0,0-2.5-3.65c-.52-.61-1.06-2.76.11-2.45.7.19,2.22,1.73,3.1,2.68,2.34,2.54,6.8,6.37,9.24,7.23l3.4,1.2Z"/><path class="cls-21" d="M368.51,125.86l-3,3.66a23,23,0,0,0-1.91,2.69c-3.13,5.22-13.86,23-14.07,23s-13.19-.92-13.19-.92l-2.23,13,17.79,4.72a8.46,8.46,0,0,0,9-3.12l12.45-16.63Z"/><polygon class="cls-22" points="338.19 154.26 336.25 168.61 333.39 168.05 335.56 153.98 338.19 154.26"/><path class="cls-5" d="M300.92,274.22a5.51,5.51,0,0,0,10.43,3.49L323.05,249l-14.65-3.18Z"/><path class="cls-5" d="M340.28,279a5.51,5.51,0,0,0,11,.46l3.34-31.08-15.06.64Z"/><path class="cls-6" d="M368.84,86.84a12.68,12.68,0,0,0,1.7,8.4,21.54,21.54,0,0,0,2.92,3.62,9.38,9.38,0,0,0-.15-7C372.36,89.76,371,87.71,368.84,86.84Z"/><path class="cls-6" d="M400.75,157.9c6-.68,12-2.9,15.83-7.53,3.24-3.89,3.1-9.7,1.27-14.43s-5.06-8.74-7.71-13.06-4.79-9.32-4-14.33c.73-4.84,4.07-9,4.67-13.86a13,13,0,0,0-6.26-12.58c-3.45-2-7.71-2.3-11.08-4.43-2.55-1.61-4.43-4.08-6.74-6a16.33,16.33,0,0,0-8-3.9c-8.59-1.16-14.66,7.51-13.8,15.42a8.58,8.58,0,0,0,3.35,6.11c3.22,2.26,6.79,3.81,10.72,3.62,1.93,12.41,8.08,24.21,12.5,36A273.72,273.72,0,0,1,400.75,157.9Z"/><path class="cls-23" d="M392,196.16a12.63,12.63,0,0,0-14.08-11c-7.91,1-15.83,1.86-23.74,2.79s-15.82,1.79-23.74,2.61l-1,.1a9.63,9.63,0,0,0-8.29,7.12L304.73,255.4l15.54,4.17,18.09-48c5.81-.2,11.62-.37,17.42-.57,8-.2,15.93-.45,23.89-.61.43,0,.87,0,1.31-.09A12.63,12.63,0,0,0,392,196.16Z"/><path class="cls-6" d="M315.32,275.59c0,.75,0,1.54-.09,2.35,0,.5-.06,1-.1,1.5-.05.71-.12,1.43-.18,2.12-.13,1.53-.29,3-.42,4.13-.18,1.64-.32,2.72-.32,2.72l-35.74,0a2.22,2.22,0,0,1,0-2.7,16.79,16.79,0,0,1,8.76-6.93,22.81,22.81,0,0,0,10-6.09,1.62,1.62,0,0,0,.18-.2,19.21,19.21,0,0,0,1.58-2c.05-.07.1-.16.14-.23.24-.35.45-.69.65-1,1.95-3.2,6.69,5.51,6.69,5.51s6.36-4.51,8.15-3.86C315.22,271.08,315.37,273,315.32,275.59Z"/><path class="cls-9" d="M314.53,285.68c.11,1.63.1,2.74.1,2.74l-36.17,0a2.25,2.25,0,0,1,0-2.71Z"/><path class="cls-9" d="M301.82,273l-1.08,1.38a.53.53,0,0,1-.75.09l-2.55-2a19.21,19.21,0,0,0,1.58-2c.05-.07.1-.16.14-.23l2.57,2A.52.52,0,0,1,301.82,273Z"/><path class="cls-9" d="M315.23,277.94c0,.5-.06,1-.1,1.5a13.9,13.9,0,0,1-4.46,1.78,13.72,13.72,0,0,1-3.33.29c-1.11,0-2.15-.16-3.13-.21a7.86,7.86,0,0,0-2.67.28,6.63,6.63,0,0,0-2.24,1.22,7.6,7.6,0,0,0-2.59,4.28l-3.55-.93a10.78,10.78,0,0,1,4.37-5.8,9.3,9.3,0,0,1,3.37-1.41,10.23,10.23,0,0,1,3.53,0c1.1.17,2.11.4,3.07.53a11.64,11.64,0,0,0,2.89,0A12.54,12.54,0,0,0,315.23,277.94Z"/><rect class="cls-5" x="378.35" y="108.95" width="14.15" height="19.08"/><path class="cls-7" d="M378.35,109v5.9c3.22.13,10.62-.21,13.62-5.88l-2.07,0Z"/><path class="cls-5" d="M399.14,95.43a19.65,19.65,0,0,1-1.89,8.5,15.85,15.85,0,0,1-5,6,12.25,12.25,0,0,1-4.5,2,18.28,18.28,0,0,1-3.31.19c-1.2,0-2.39,0-3.58,0a14.7,14.7,0,0,1-4.18-.57,7.68,7.68,0,0,1-3.1-2,8.65,8.65,0,0,1-2.25-5.78v-6a20.87,20.87,0,0,1-.16-2.4c0-9.34,6.25-16.92,14-16.92S399.14,86.09,399.14,95.43Z"/><path class="cls-5" d="M396,95.31A3.08,3.08,0,0,1,398.89,94a4,4,0,0,1,2.81,1.54,4.47,4.47,0,0,1,.83,2.84,4.54,4.54,0,0,1-1.1,2.86,4.17,4.17,0,0,1-3,1.37A3.07,3.07,0,0,1,395.6,101Z"/><path class="cls-8" d="M398.74,100.81a5,5,0,0,1,.34-5.3"/><path class="cls-8" d="M398.4,97.82a3.75,3.75,0,0,1,2,2"/><path class="cls-5" d="M366.34,137.83c5.26-.4,10.55-.67,15.82-1,8.49-.46,17-1.08,25.47-1.72.23-5.17-1.83-9.8-5.41-11.41l-14.68-6.58-15.92,6.7c-4,1.69-6.19,7.16-5.42,13Z"/><path class="cls-12" d="M407,195.93a14.08,14.08,0,0,0-.32-1.52,16.83,16.83,0,0,0-.49-3L401.27,173H372.43l-4.11,15.46c-6.75.86-13.5,1.75-20.25,2.57l-1.08.13a9.82,9.82,0,0,0-8.61,10l0,57.84,16.38-.47,3.76-46.76,13.83-.61c7.5-.28,15-.61,22.5-.84.45,0,.92-.06,1.38-.12A12.64,12.64,0,0,0,407,195.93Z"/><path class="cls-6" d="M354,275.59c0,.75,0,1.54-.09,2.35,0,.5-.06,1-.1,1.5-.05.71-.12,1.43-.18,2.12-.13,1.53-.29,3-.42,4.13-.18,1.64-.32,2.72-.32,2.72l-35.74,0a2.22,2.22,0,0,1,0-2.7,16.75,16.75,0,0,1,8.76-6.93,22.81,22.81,0,0,0,10-6.09,1.62,1.62,0,0,0,.18-.2,19.21,19.21,0,0,0,1.58-2c.05-.07.1-.16.14-.23.24-.35.44-.69.65-1,1.95-3.2,6.68,5.51,6.68,5.51s6.37-4.51,8.15-3.86C353.88,271.08,354,273,354,275.59Z"/><path class="cls-9" d="M353.19,285.68c.11,1.63.1,2.74.1,2.74l-36.17,0a2.25,2.25,0,0,1,0-2.71Z"/><path class="cls-9" d="M340.48,273l-1.08,1.38a.53.53,0,0,1-.75.09l-2.55-2a19.21,19.21,0,0,0,1.58-2c.05-.07.1-.16.14-.23l2.57,2A.53.53,0,0,1,340.48,273Z"/><path class="cls-9" d="M353.89,277.94c0,.5-.06,1-.1,1.5a13.9,13.9,0,0,1-4.46,1.78,13.72,13.72,0,0,1-3.33.29c-1.11,0-2.15-.16-3.13-.21a7.86,7.86,0,0,0-2.67.28A6.63,6.63,0,0,0,338,282.8a7.6,7.6,0,0,0-2.59,4.28l-3.55-.93a10.81,10.81,0,0,1,4.36-5.8,9.42,9.42,0,0,1,3.38-1.41,10.23,10.23,0,0,1,3.53,0c1.1.17,2.11.4,3.07.53a11.64,11.64,0,0,0,2.89,0A12.54,12.54,0,0,0,353.89,277.94Z"/><path class="cls-1" d="M336.4,171.08h2a.49.49,0,1,0,0-1h-1.82l-9.14-9.71a.48.48,0,1,0-.7.66l9.28,9.86A.48.48,0,0,0,336.4,171.08Z"/><path class="cls-1" d="M315.68,171.08h2a.48.48,0,0,0,.35-.16l9.28-9.86a.49.49,0,0,0,0-.68.48.48,0,0,0-.69,0l-9.13,9.71h-1.82a.49.49,0,1,0,0,1Z"/><path class="cls-2" d="M326.46,157.58h.86a.48.48,0,1,0,0-1h-.86a2.11,2.11,0,0,1-1.94-2.24v-6.86a.49.49,0,0,0-1,0v6.86A3.06,3.06,0,0,0,326.46,157.58Z"/><path class="cls-2" d="M327.62,137.37l8.27,8.27,6.22-6.22a5.85,5.85,0,0,0,0-8.27h0a5.85,5.85,0,0,0-8.27,0Z"/><path class="cls-1" d="M320.17,142.37h11.7a0,0,0,0,1,0,0v6.52a3.22,3.22,0,0,1-3.22,3.22h-5.26a3.22,3.22,0,0,1-3.22-3.22v-6.52A0,0,0,0,1,320.17,142.37Z" transform="translate(199.6 -187.41) rotate(45)"/><rect class="cls-3" x="323.89" y="140.2" width="13.44" height="4.9" rx="0.8" transform="translate(463.52 477.29) rotate(-135)"/><path class="cls-1" d="M329.09,142.65a1.52,1.52,0,1,0,1.52-1.52A1.52,1.52,0,0,0,329.09,142.65Z"/><path class="cls-2" d="M327.32,157.58h.87a3.06,3.06,0,0,0,2.9-3.2V142.65a.48.48,0,1,0-1,0v11.73a2.11,2.11,0,0,1-1.94,2.24h-.87a.48.48,0,0,0,0,1Z"/><path class="cls-3" d="M327.12,164.45h0a1.22,1.22,0,0,0,1.22-1.22v-6.84a1.21,1.21,0,0,0-1.22-1.22h0a1.22,1.22,0,0,0-1.22,1.22v6.84A1.22,1.22,0,0,0,327.12,164.45Z"/><rect class="cls-3" x="324.58" y="158.75" width="5.08" height="3.95" rx="0.64" transform="translate(654.24 321.46) rotate(180)"/><path class="cls-1" d="M325.84,170.11h.8v-9.38a.48.48,0,1,1,1,0v9.38h.8a.49.49,0,1,1,0,1h-2.56a.49.49,0,1,1,0-1Z"/><path class="cls-6" d="M368.51,88.73a17.78,17.78,0,0,0,20.57,1.6,37.08,37.08,0,0,0,3.26,6.81c1.44,2.11,4.38,5.63,6.73,6.63,4.85.18,6.09-6.2,2.64-13.73-1.78-3.91-2.86-8.34-6.48-10.67A19.68,19.68,0,0,0,390,77.12c-5.05-1.45-10.79-1.58-15.23,1.24C371.26,80.59,369.5,84.67,368.51,88.73Z"/><polygon class="cls-24" points="304.32 253.89 321.71 258.61 320.58 262.41 303.59 257.04 304.32 253.89"/><polygon class="cls-23" points="337.47 257.11 355.48 256.25 355.57 260.2 337.75 260.33 337.47 257.11"/><path class="cls-17" d="M350.38,253.89c0-.69,3.12-34.37,4-43.82a2.91,2.91,0,0,1,2.68-2.64l36.63-3a9.22,9.22,0,0,0,8.25-11.14l-2.8-12.83"/><path class="cls-21" d="M376.79,121.36a23.79,23.79,0,0,0-6.13,2.75,9.32,9.32,0,0,0-3.76,4.22,41.48,41.48,0,0,0-1.29,4.1c-.71,2.27-2.35,4-3.19,6.26a17.07,17.07,0,0,0-.58,9,50.58,50.58,0,0,0,2.63,8.72c.58,1.57,2,2.59,2.73,4.1a19.84,19.84,0,0,1,1.21,4c.83,3.71,2.31,11,1.29,16.46a35.22,35.22,0,0,0,6.85,1c9.21.22,18.63.34,27.35-2.6-.61-6.17.08-12.46,1-18.59q1.13-7.42,2.26-14.84c.69-4.49,1.37-9.08.53-13.54s-3.51-8.85-7.74-10.5c-1.7-.66-3.83-1.43-5.76-2.12l-5,6.38-9.34,5.64-1.54-1.24Z"/><line class="cls-17" x1="318.6" y1="255.55" x2="337.61" y2="206.79"/><path class="cls-5" d="M373.09,151.93l-29.81-6.28a4.16,4.16,0,0,0-2.35,7.95l30.72,11.85A111.52,111.52,0,0,0,373.09,151.93Z"/><path class="cls-5" d="M345.54,154.34s-13.06-1.66-16.17-1.73-5.58-.58-6.25-1,1.44-1.89,6-1.65c0,0-5.56-.64-7.78-2.26s5.6-.92,8.13-.3c0,0-6.64-1.67-8.74-3.61s6.42-.39,9.64.83c0,0-6.34-2.93-7.45-4.63s6.11.9,8.89,2.35,3.95.76,3.67.18a28.17,28.17,0,0,0-2.46-3.67c-.52-.62-1-2.78.13-2.45.7.2,2.2,1.75,3.07,2.71,2.32,2.56,6.75,6.43,9.17,7.31l3.39,1.24Z"/><path class="cls-21" d="M396.26,120.5l4.1,1.62a11.9,11.9,0,0,1,7.48,10.25l.28,4.32-13.7,29.92a7.91,7.91,0,0,1-9.82,4.17l-24.07-8.47,3.28-13,17.23,3,9.17-26.59Z"/><polygon class="cls-22" points="365.27 149.22 361.85 163.29 359.05 162.44 362.68 148.67 365.27 149.22"/><polyline class="cls-25" points="371.48 150.69 381.04 152.35 386.11 137.64"/><path class="cls-25" d="M372.74,166.61l11.78,4.22a7.94,7.94,0,0,0,9.89-4.17l11.31-24.72"/><path class="cls-26" d="M393,119.32c-7.48,10.31-13.29,12.14-13.29,12.14A22.48,22.48,0,0,1,378.2,121l-2.65.78s.11,7,3.81,10.64a30.07,30.07,0,0,0,16.05-12.28Z"/><path class="cls-25" d="M365.61,148.67a12.19,12.19,0,0,1-2.06-6.79c.12-3,1.66-5.68,3.17-8.24"/><path class="cls-4" d="M399.4,99.07a1,1,0,0,0,1-1V87a15.49,15.49,0,0,0-6.33-12.45,1,1,0,1,0-1.18,1.62A13.46,13.46,0,0,1,398.4,87V98.07A1,1,0,0,0,399.4,99.07Z"/><path class="cls-27" d="M373.7,104.21a2.48,2.48,0,0,1-1.84,2.4,8.22,8.22,0,0,1-.49-2.83v-2A2.49,2.49,0,0,1,373.7,104.21Z"/><path class="cls-27" d="M390.16,104.21a2.49,2.49,0,1,1-2.49-2.49A2.49,2.49,0,0,1,390.16,104.21Z"/><path class="cls-15" d="M372.83,98.81a2.59,2.59,0,0,1,2-1,3.22,3.22,0,0,1,2.13.78"/><path class="cls-15" d="M386.86,98.81a2.59,2.59,0,0,0-2-1,3.22,3.22,0,0,0-2.13.78"/><path class="cls-15" d="M379.94,98.64a4.76,4.76,0,0,1-.37,2.09,13.32,13.32,0,0,1-.83,1.28,2.06,2.06,0,0,0-.36,1.45,2.66,2.66,0,0,0,1,1.33"/><path class="cls-15" d="M378.45,107.82a6.36,6.36,0,0,0,4.79-.87"/><circle class="cls-28" cx="374.05" cy="98.64" r="4.25"/><circle class="cls-28" cx="385.18" cy="98.64" r="4.25"/><line class="cls-28" x1="378.29" y1="98.3" x2="380.92" y2="98.3"/><line class="cls-28" x1="389.24" y1="98.3" x2="397.75" y2="98.3"/><path class="cls-13" d="M393.11,98.2a5.29,5.29,0,1,0,5.28-5.58A5.43,5.43,0,0,0,393.11,98.2Z"/><path class="cls-4" d="M394.58,98.2a5.29,5.29,0,1,0,5.28-5.58A5.43,5.43,0,0,0,394.58,98.2Z"/><path class="cls-29" d="M436.28,177H2.94A2.94,2.94,0,0,1,0,174.05H0a2.94,2.94,0,0,1,2.94-2.94H436.28a2.94,2.94,0,0,1,2.94,2.94h0A2.94,2.94,0,0,1,436.28,177Z"/><path class="cls-1" d="M317.51,119.89a.75.75,0,0,0,0-1.5.75.75,0,0,0,0,1.5Z"/><path class="cls-30" d="M328.47,37.61c16.91,0,30.62,11.24,30.62,25.1,0,6.78-3.29,12.93-8.62,17.44a29.45,29.45,0,0,0,5.72,7.8,1.57,1.57,0,0,1-1.08,2.72,30.3,30.3,0,0,1-15.54-4.58,36.44,36.44,0,0,1-11.1,1.71c-16.91,0-30.62-11.23-30.62-25.09S311.56,37.61,328.47,37.61Z"/><path class="cls-21" d="M336.16,52.38c-2.39-1.64-6.12-1.23-7.69,1.2-1.57-2.43-5.3-2.84-7.68-1.2a8,8,0,0,0-3,7.73,14.3,14.3,0,0,0,4.08,7.57,77.68,77.68,0,0,0,6.58,5.7h0a76.29,76.29,0,0,0,6.59-5.7,14.35,14.35,0,0,0,4.07-7.57A8,8,0,0,0,336.16,52.38Z"/><path class="cls-30" d="M245.06,0c-16.91,0-30.62,11.24-30.62,25.09,0,6.79,3.28,12.93,8.62,17.45a29.67,29.67,0,0,1-5.72,7.8,1.57,1.57,0,0,0,1.08,2.72A30.36,30.36,0,0,0,234,48.48a36.44,36.44,0,0,0,11.1,1.71c16.91,0,30.62-11.24,30.62-25.1S262,0,245.06,0Z"/><path class="cls-12" d="M263.47,16H225.73a2.05,2.05,0,0,1-2-2.05h0a2,2,0,0,1,2-2h37.74a2,2,0,0,1,2,2h0A2,2,0,0,1,263.47,16Z"/><path class="cls-12" d="M255.86,23.37H225.73a2.05,2.05,0,0,1-2-2.05h0a2,2,0,0,1,2-2h30.13a2,2,0,0,1,2.05,2h0A2.05,2.05,0,0,1,255.86,23.37Z"/><path class="cls-12" d="M244.56,30.76H225.73a2.05,2.05,0,0,1-2-2.05h0a2.05,2.05,0,0,1,2-2.05h18.83a2,2,0,0,1,2,2.05h0A2,2,0,0,1,244.56,30.76Z"/><path class="cls-12" d="M234,38.15h-8.23a2.05,2.05,0,0,1-2-2h0a2.05,2.05,0,0,1,2-2.05H234a2.05,2.05,0,0,1,2,2.05h0A2.05,2.05,0,0,1,234,38.15Z"/><path class="cls-30" d="M122,8.51c-16.91,0-30.62,11.24-30.62,25.1,0,6.78,3.29,12.92,8.62,17.44a29.45,29.45,0,0,1-5.72,7.8,1.58,1.58,0,0,0,1.08,2.72A30.3,30.3,0,0,0,110.93,57,36.44,36.44,0,0,0,122,58.7c16.91,0,30.62-11.24,30.62-25.09S138.94,8.51,122,8.51Z"/><path class="cls-10" d="M119.55,33.61a13.84,13.84,0,0,1,2-2.18,10.37,10.37,0,0,0,1.31-1.38,1.94,1.94,0,0,0,.43-1.2,1.67,1.67,0,0,0-.75-1.42,3.29,3.29,0,0,0-1.93-.53,4.27,4.27,0,0,0-2.21.58,4.41,4.41,0,0,0-1.6,1.61l-4.53-2.44a8.49,8.49,0,0,1,3.53-3.31,11.71,11.71,0,0,1,5.51-1.19,10.13,10.13,0,0,1,5.83,1.51,4.82,4.82,0,0,1,2.21,4.21,5.44,5.44,0,0,1-.43,2.21,5.92,5.92,0,0,1-1,1.61,18.87,18.87,0,0,1-1.54,1.48,10.75,10.75,0,0,0-1.52,1.51,2.3,2.3,0,0,0-.49,1.44h-5.42A4.44,4.44,0,0,1,119.55,33.61Zm-.42,9.62a3,3,0,0,1-1-2.26,2.93,2.93,0,0,1,1-2.26,3.52,3.52,0,0,1,2.48-.88,3.57,3.57,0,0,1,2.5.88,2.91,2.91,0,0,1,1,2.26,3,3,0,0,1-1,2.26,3.47,3.47,0,0,1-2.5.93A3.42,3.42,0,0,1,119.13,43.23Z"/></g></g></svg>