<svg xmlns="http://www.w3.org/2000/svg" viewBox="0 0 651.71 343.64"><defs><style>.cls-1{isolation:isolate;}.cls-2{opacity:0.05;}.cls-18,.cls-2,.cls-20,.cls-25,.cls-28,.cls-30,.cls-4,.cls-9{mix-blend-mode:multiply;}.cls-3{fill:#68b0ff;}.cls-4{opacity:0.11;}.cls-5{fill:#b948a5;}.cls-6{fill:#536bbe;}.cls-7{fill:#afd9f2;}.cls-8{fill:#2f3281;}.cls-9{opacity:0.41;}.cls-10{fill:#ea8193;}.cls-11{fill:#ed7c8e;}.cls-12{fill:#b75063;}.cls-13,.cls-33,.cls-34{fill:#fff7ff;}.cls-14{fill:#8fc5de;}.cls-15{fill:#fa8f9c;}.cls-16{fill:#d8c3e4;}.cls-17{fill:#2c1e66;}.cls-18{opacity:0.13;}.cls-19{fill:none;stroke:#0068ba;stroke-miterlimit:10;stroke-width:2.84px;}.cls-20{opacity:0.14;}.cls-21{fill:#f7edff;}.cls-22{fill:#9cddf3;}.cls-23{fill:#a53c99;}.cls-24{fill:#292d75;}.cls-25{opacity:0.18;}.cls-26{fill:#e8e7ff;}.cls-27{fill:#bc586a;}.cls-28{opacity:0.1;}.cls-29,.cls-30{fill:#b751aa;}.cls-30{opacity:0.23;}.cls-31{fill:#9dc9e1;}.cls-32{fill:#cadbff;}.cls-33{opacity:0.71;}.cls-34{opacity:0.42;}.cls-35{fill:#a33b98;}.cls-36{fill:#bed1ff;}.cls-37{fill:#4d9ac8;}</style></defs><title>scientists</title><g class="cls-1"><g id="Layer_2" data-name="Layer 2"><g id="OBJECTS"><g class="cls-2"><path class="cls-3" d="M31.67,325.94c-5.51-42.47-6.28-86.16,4.57-127.58s34.21-80.6,69.62-104.67,83.51-31,122-12.3c17.17,8.35,31.7,21.14,46.68,33C309,141.62,351.17,167.82,396,169.84a370.48,370.48,0,0,0,57.78-1.92c19-2.13,38-5.73,57.08-5.21,36.69,1,74.6,15.74,91.18,50.36,19.28,40.23,25,87,15.32,130.57"/></g><g class="cls-4"><path class="cls-3" d="M639.31,323.31c5.71-48.75,6.51-98.91-4.72-146.47S599.14,84.3,562.45,56.66,475.94,21,436,42.54c-17.79,9.59-32.84,24.28-48.35,37.87-35.72,31.28-79.38,61.36-125.86,63.68a346.07,346.07,0,0,1-59.85-2.2c-19.7-2.44-39.34-6.58-59.14-6-38,1.16-77.29,18.07-94.47,57.81A256.51,256.51,0,0,0,32.51,343.64"/></g><circle class="cls-5" cx="338.47" cy="50.43" r="8.19"/><path class="cls-6" d="M338.47,100.86c-10,0-17.91-22.15-17.91-50.43S328.43,0,338.47,0s17.91,22.15,17.91,50.43S348.51,100.86,338.47,100.86Zm0-99.46c-9,0-16.51,22.45-16.51,49s7.56,49,16.51,49S355,77,355,50.43,347.42,1.4,338.47,1.4Z"/><path class="cls-6" d="M309.21,88.35a8.69,8.69,0,0,1-6.4-2.26c-7.1-7.1,3-28.33,23-48.32,15.11-15.11,32-25.26,41.93-25.26a8.7,8.7,0,0,1,6.4,2.26c3.48,3.48,2.92,10.48-1.56,19.71-4.38,9-12,19.17-21.44,28.62C336,78.2,319.18,88.35,309.21,88.35Zm58.52-74.44c-9.62,0-26.07,10-40.94,24.85-18.79,18.79-29.32,40-23,46.34A7.36,7.36,0,0,0,309.21,87c9.62,0,26.07-10,40.93-24.85,9.34-9.33,16.86-19.36,21.17-28.24,4.14-8.52,4.81-15.12,1.83-18.1A7.36,7.36,0,0,0,367.73,13.91Z"/><path class="cls-6" d="M338.47,68.34c-28.28,0-50.43-7.87-50.43-17.91s22.15-17.91,50.43-17.91,50.43,7.87,50.43,17.91S366.75,68.34,338.47,68.34Zm0-34.42c-26.58,0-49,7.56-49,16.51s22.45,16.51,49,16.51,49-7.56,49-16.51S365.05,33.92,338.47,33.92Z"/><path class="cls-6" d="M367.73,88.35c-10,0-26.82-10.15-41.93-25.25-20-20-30.09-41.23-23-48.33a8.69,8.69,0,0,1,6.4-2.26c10,0,26.82,10.15,41.92,25.26,20,20,30.1,41.22,23,48.32A8.7,8.7,0,0,1,367.73,88.35ZM309.21,13.91a7.36,7.36,0,0,0-5.41,1.85c-6.33,6.33,4.2,27.55,23,46.34C341.66,77,358.1,87,367.73,87a7.36,7.36,0,0,0,5.41-1.85c6.33-6.33-4.2-27.55-23-46.34C335.28,23.9,318.83,13.91,309.21,13.91Z"/><path class="cls-7" d="M303.55,39.6a3.73,3.73,0,1,0-3.73,3.73A3.72,3.72,0,0,0,303.55,39.6Z"/><path class="cls-7" d="M377.46,29.5a3.73,3.73,0,1,0-3.73,3.72A3.73,3.73,0,0,0,377.46,29.5Z"/><path class="cls-7" d="M377.46,70.41a3.73,3.73,0,1,0-3.73,3.73A3.73,3.73,0,0,0,377.46,70.41Z"/><circle class="cls-7" cx="322.89" cy="74.15" r="3.73"/><path class="cls-7" d="M18,76.9,53,66.31a.84.84,0,0,0-.49-1.6L17.52,75.31A.83.83,0,0,0,18,76.9Z"/><path class="cls-7" d="M20.18,84.08l35-10.59a.84.84,0,0,0-.48-1.6l-35,10.6a.83.83,0,0,0,.49,1.59Z"/><path class="cls-7" d="M28.46,89.41l22.75-6.89a.84.84,0,0,0-.49-1.6L28,87.82a.83.83,0,0,0,.49,1.59Z"/><path class="cls-7" d="M32.61,102.81,56,95.73a.84.84,0,0,0-.48-1.6l-23.36,7.08a.84.84,0,0,0,.49,1.6Z"/><path class="cls-7" d="M30.28,111.15l32.8-10a.84.84,0,0,0-.48-1.6l-32.81,10a.84.84,0,0,0,.49,1.6Z"/><path class="cls-7" d="M29.06,119.15l38.37-11.63a.84.84,0,0,0-.49-1.6L28.58,117.55a.84.84,0,0,0,.48,1.6Z"/><path class="cls-7" d="M32.29,125.8,69,114.68a.84.84,0,0,0-.48-1.6l-36.7,11.13a.83.83,0,0,0,.48,1.59Z"/><path class="cls-7" d="M37.19,132l32.25-9.78a.83.83,0,0,0-.48-1.59l-32.25,9.78a.83.83,0,0,0,.48,1.59Z"/><path class="cls-7" d="M45.43,137.09l21.68-6.58a.83.83,0,0,0-.48-1.59L45,135.49a.84.84,0,0,0,.48,1.6Z"/><path class="cls-7" d="M45.91,152l26-7.89a.83.83,0,0,0-.48-1.59l-26,7.89a.83.83,0,0,0,.48,1.59Z"/><path class="cls-7" d="M43.54,160.15l32.13-9.74a.83.83,0,0,0-.49-1.59l-32.12,9.73a.84.84,0,0,0,.48,1.6Z"/><path class="cls-7" d="M42.84,167.79,81.61,156a.84.84,0,0,0-.49-1.6L42.35,166.2a.83.83,0,0,0,.49,1.59Z"/><path class="cls-5" d="M12.89,73c3.73,10.82,12.67,18,23.59,20.82,6.34,1.62,12.61,2.07,18.35,5.52A23.42,23.42,0,0,1,65,112.85c3.77,13-9,23.75-16.34,32.57-7.1,8.55-13.27,21.05-6,31.41,1.95,2.77,6.42,0,4.46-2.81-8.4-11.94,5.5-25.12,12.76-33.52S72.72,122.62,70,111.32C67.62,101.15,58.5,93.89,48.87,91.06c-6.48-1.9-13.06-2.16-19.13-5.44a25.57,25.57,0,0,1-11.8-14.15c-1.11-3.2-6.16-1.68-5.05,1.53Z"/><path class="cls-8" d="M50.2,61.69a26.24,26.24,0,0,1-1.42,17.18c-2.65,6.21-8,10.46-12.48,15.24a30.34,30.34,0,0,0-7.63,28.59C31.58,133.83,42.25,139,52.36,142c10.89,3.28,30.88,6,30.5,21.16-.08,3.41,5.19,3.25,5.27-.13.3-12.21-10.86-19-21.07-22.38-11.37-3.82-27.2-4.79-32.63-17.4-2.25-5.22-1.79-11.08-.06-16.37,2.06-6.33,7.32-10.72,11.84-15.3,8.23-8.35,12-19.95,9-31.44-.86-3.29-5.9-1.75-5,1.53Z"/><path class="cls-5" d="M584.87,257.21c8.7-4.87,18-10.71,21.07-20.2,2.53-7.83,0-16.14-2.27-23.68-1.89-6.17-8.16-10.76-13.52-14.08-3.77-2.34-7.84-4.28-11.06-7.31-5.25-4.94-4.84-11.2-2.45-17.36s-.3-12.71-4.06-17.89-9.49-8.11-15.22-10.84A25.78,25.78,0,0,1,550.8,142c-4.83-4.45-5.07-11.82-6.84-18.15-4-14.24-19.28-29-34.63-21.9a6.26,6.26,0,0,1-2.2.76,6.54,6.54,0,0,1-2.55-.55c-4.24-1.39-8.82-1.2-13.27-.86-7.07.53-14.19,1.38-20.89,3.69-16.95,5.84-34.14,28-18.91,44.63,1.72,1.87,3.91,3.84,3.74,6.38a6.87,6.87,0,0,1-1.19,3.07c-3.39,5.52-8.52,9.74-12.33,15s-6.19,12.41-3.19,18.14c1.92,3.65,5.64,6,8,9.36,2.69,3.79,3.49,8.67,3.13,13.3-.63,8.07-2.74,16.13-4.25,24.07,5.8,2.16,12.21,1.55,18.4,1.51,9.34-.07,18.64,1.21,28,1.41s19-.73,27.29-4.94c5.36-2.7,10.39-7.34,10.93-13.32"/><g class="cls-9"><path class="cls-5" d="M487.38,111.35a75.64,75.64,0,0,0-21.45,5.41c-4.16,1.73-8.39,4-10.58,8-3.09,5.58-1.15,12.53,1.22,18.45s5.18,12.26,3.61,18.44c-1.64,6.45-7.67,11-9.67,17.34a15.06,15.06,0,0,0,.64,10.63c2.38,5.27,7.53,8.67,11.18,13.15a30.8,30.8,0,0,1,6.5,20.69,41.29,41.29,0,0,1-7.07,20.72,73,73,0,0,0,41.9,1.41,19.11,19.11,0,0,0,6.71-2.87,18.11,18.11,0,0,0,3.88-4.35,48.85,48.85,0,0,0-2-57.83"/></g><path class="cls-10" d="M485.5,215.85h91.66c-4.15-4.38-7.95-7.19-11.09-7.78a126.39,126.39,0,0,0-27.73-1.62l-17.79-30.81L506,189.69l4.67,22.44S496.34,209.48,485.5,215.85Z"/><path class="cls-11" d="M460.48,157.54a7.62,7.62,0,0,0-7.65,2.38,11.27,11.27,0,0,0-2.6,7.85,15,15,0,0,0,3.63,9.32c4.73,5.44,12.11,7.15,18.43,3.22"/><path class="cls-12" d="M466.25,175.33a6.84,6.84,0,0,0-.71-2.48,19.46,19.46,0,0,0-3.12-5.4,11,11,0,0,0-5.19-3.51,4.25,4.25,0,0,0-2.6-.18c0,.15,1,.19,2.4.76a12.25,12.25,0,0,1,4.73,3.49,26.53,26.53,0,0,1,3.22,5.1A9.23,9.23,0,0,0,466.25,175.33Z"/><path class="cls-12" d="M465.39,176.25a12.62,12.62,0,0,1-1.93-.14,4.34,4.34,0,0,1-1.76-.94,4.82,4.82,0,0,1-1.3-2,7.42,7.42,0,0,1,.11-4.52c.36-1.15.71-1.85.6-1.92s-.63.53-1.17,1.7a6.93,6.93,0,0,0-.36,5,5.12,5.12,0,0,0,1.61,2.37,4.4,4.4,0,0,0,2.15.93C464.71,176.87,465.45,176.33,465.39,176.25Z"/><path class="cls-13" d="M619.82,289.1c-14-33.91-40.09-78.47-53.75-81a126.29,126.29,0,0,0-26.75-1.67,22.23,22.23,0,0,1-13.63,8,29.84,29.84,0,0,1-16.82-2.51c-5.53-.63-22.57-1.45-30.78,10.92-9.87,14.89-32,83.18-44.28,99.95l38.43,3.85s13.29-18.12,16.12-32.1c0,0,.56,22.51-1.14,32.1s103.56,0,103.56,0S633.78,323,619.82,289.1Z"/><path class="cls-14" d="M548.85,206.35c-4.43-.13-7.91,0-9.53.05a22.23,22.23,0,0,1-13.63,8,29.84,29.84,0,0,1-16.82-2.51,48.66,48.66,0,0,0-10.12-.07,45.62,45.62,0,0,0,21.13,26.84S541.19,227,548.85,206.35Z"/><path class="cls-14" d="M529.33,296.19c0,2.31-.81,4.19-1.82,4.19s-1.81-1.88-1.81-4.19.81-4.18,1.81-4.18S529.33,293.89,529.33,296.19Z"/><path class="cls-15" d="M518.37,302.67c-5,1.55-10.42.23-15.54-1s-10.65-2.23-15.48-.17c-.77.32-1.61,1.22-1.05,1.83a1.4,1.4,0,0,0,1.19.25c4.57-.46,9.57-.86,13.38,1.71q-5.14.53-10.25,1.43a35.42,35.42,0,0,0-9.17,2.62,14.33,14.33,0,0,0-6.88,6.38c2.74.41,5.18-1.58,7.5-3.1a25.69,25.69,0,0,1,15.31-4.11,77.39,77.39,0,0,0-11,4.73,21.52,21.52,0,0,0-6.11,4.33,8.85,8.85,0,0,0-2.49,6.87c5.83-5.41,12.32-11.13,20.26-11.65a26.73,26.73,0,0,0-14.12,12.81c2.26-2.31,4.84-4.78,8.07-4.93,3.48-.16,6.41,2.4,9.66,3.67a21,21,0,0,0,8.64,1.1c6.24-.29,12.62-2,17.4-6a11.65,11.65,0,0,0,3.92-5.48"/><path class="cls-16" d="M520.52,239h0a3.31,3.31,0,0,1-.73-.32,89.22,89.22,0,0,1,.52,11c0,4.78-.47,10.46-1.09,16.79s-1.35,13.3-1.43,20.7,1,14.4,1.28,20.69a109.46,109.46,0,0,1-.48,16.76c-.47,4.77-1,8.62-1.36,11.29a20.36,20.36,0,0,0-.39,4.17,18.37,18.37,0,0,0,1.05-4.06c.55-2.64,1.29-6.47,1.92-11.26a99.74,99.74,0,0,0,.86-17c-.25-6.41-1.22-13.34-1.14-20.61s.76-14.23,1.28-20.57a163.23,163.23,0,0,0,.73-16.94A70.44,70.44,0,0,0,520.52,239Z"/><path class="cls-13" d="M625.36,300c-.84-6.3-3.41-11.85-5.75-17.68-1.91-4.73-2.9-9-5.54-13.53-6.58-11.35-11.7-23-19.35-34-6-8.57-14.44-23.29-26.15-24.62-13.47-1.52-14.55,18.26-13.9,27.2a74.84,74.84,0,0,0,8.05,27.79c1.8,3.66,3,7.33,5.09,10.83,2.26,3.75,3.57,9.35,3.77,13.69a3.9,3.9,0,0,1-.7,2.89,4,4,0,0,1-2,1c-8.06,2.14-16.48,2.5-24.82,2.86l-30.56,1.29a109.19,109.19,0,0,0-.18,25.8c3.39.67,6.81,1.26,10.11,2.2,2.94.85,5.49,2.52,8.39,3.46,8.94,2.92,20.34,2.62,29.64,2.22,14.91-.63,29.92-2.11,44.2-6.68,5.92-1.9,10.28-2.38,14.51-7.47A22.38,22.38,0,0,0,625.36,300Z"/><path class="cls-17" d="M415.15,312.89h80.27a3.6,3.6,0,0,1,3.6,3.6v5.65a0,0,0,0,1,0,0H411.55a0,0,0,0,1,0,0v-5.65A3.6,3.6,0,0,1,415.15,312.89Z"/><path class="cls-13" d="M451.64,162.26,467,160.5c.89-.11.9-1.51,0-1.4l-15.39,1.76c-.89.1-.9,1.5,0,1.4Z"/><path class="cls-15" d="M496,194.56a35.05,35.05,0,0,0,20.59-6.43c6.66-4.83,9.59-11.43,12.87-18.68a5.42,5.42,0,0,0,4.31.63c10.26-2,17.49-14.07,9.62-23-3.65-4.14-11-4.87-14.58-.66a47.42,47.42,0,0,0-6.73-21.29c-9.1-14.79-27.35-19.49-43.16-12.92-9.92,4.12-17.93,13.26-19.47,23.9a51.13,51.13,0,0,0,.17,12.42c.9,8.85,2.19,17.78,5.59,26C470.51,187.27,482.43,194.55,496,194.56Z"/><g class="cls-18"><path class="cls-5" d="M475.42,113a12.21,12.21,0,0,0,7.72,13.91c3.42,1.15,7.43.78,10.29,3,2.57,2,3.4,5.39,4.58,8.4a24.06,24.06,0,0,0,10.42,12.43,17.48,17.48,0,0,0,15.9.71,2.68,2.68,0,0,0,.93-.66c.85-1.09-.2-2.6-1.15-3.6a47.8,47.8,0,0,1-9.19-13.92c-1.29-3-2.28-6.16-3.94-9s-4.15-5.35-7.32-6.15"/></g><polyline class="cls-19" points="555.14 27.48 570.67 62.17 616.3 79.31 627.72 126.41"/><line class="cls-19" x1="570.67" y1="62.17" x2="555.14" y2="98.71"/><circle class="cls-7" cx="570.67" cy="62.17" r="12.7" transform="translate(485.54 629.87) rotate(-87.69)"/><path class="cls-6" d="M612,87.18a9,9,0,1,0-3.61-12.13A8.94,8.94,0,0,0,612,87.18Z"/><path class="cls-6" d="M550.87,35.35a9,9,0,1,0-3.6-12.14A9,9,0,0,0,550.87,35.35Z"/><path class="cls-5" d="M550.88,106.57a8.94,8.94,0,1,0-3.61-12.13A8.95,8.95,0,0,0,550.88,106.57Z"/><path class="cls-7" d="M623.46,134.28a8.95,8.95,0,1,0-3.61-12.13A8.95,8.95,0,0,0,623.46,134.28Z"/><path class="cls-12" d="M474.83,160.3c.37,2.27-.16,4.25-1.18,4.42s-2.15-1.55-2.51-3.83.17-4.26,1.19-4.42S474.47,158,474.83,160.3Z"/><path class="cls-12" d="M498.4,155.59c.36,2.28-.17,4.26-1.19,4.42s-2.14-1.55-2.51-3.83.17-4.25,1.19-4.41S498,153.32,498.4,155.59Z"/><path class="cls-5" d="M472.86,143.55c.67,1.36-.67,3.39-3,4.53s-4.75.95-5.42-.41.67-3.4,3-4.53S472.19,142.18,472.86,143.55Z"/><path class="cls-5" d="M499.44,140.78c-.43,1.46-2.78,2.06-5.26,1.33s-4.16-2.48-3.73-3.94,2.78-2.06,5.26-1.34S499.86,139.32,499.44,140.78Z"/><path class="cls-12" d="M487.54,167.66c-.05,0-.35.31-.91.89a4.2,4.2,0,0,1-1.13.84,2,2,0,0,1-1.68.1,1.28,1.28,0,0,1-.78-1.59,24.42,24.42,0,0,0,.4-2.73,26.7,26.7,0,0,0-.25-6.37,46.21,46.21,0,0,0-3.36-11,24,24,0,0,0-2.1-4.26,27.75,27.75,0,0,0,1.53,4.48,57.35,57.35,0,0,1,3.08,10.89,28.66,28.66,0,0,1,.3,6.18c-.05,1-.18,1.81-.31,2.7a2.35,2.35,0,0,0,.22,1.42,1.87,1.87,0,0,0,1.06.84,2.56,2.56,0,0,0,2.12-.25,4.12,4.12,0,0,0,1.15-1C487.39,168.1,487.58,167.69,487.54,167.66Z"/><path class="cls-12" d="M491.26,168.52c-.13,0-.17.66-.54,1.59a5.89,5.89,0,0,1-2.4,2.91,6,6,0,0,1-3.7.74c-1-.12-1.59-.4-1.66-.28s.46.58,1.54.88a5.51,5.51,0,0,0,6.81-4.07C491.56,169.2,491.36,168.51,491.26,168.52Z"/><path class="cls-12" d="M533.53,167.75c0-.07-.3-.19-.78-.54a4.86,4.86,0,0,1-1.48-2,8.59,8.59,0,0,1-.52-3.65,17.78,17.78,0,0,1,.75-4.55,18.91,18.91,0,0,1,4.1-7.29c1.45-1.62,2.59-2.39,2.5-2.51a8,8,0,0,0-2.94,2.09,17.27,17.27,0,0,0-4.49,7.46,17,17,0,0,0-.72,4.79,8.61,8.61,0,0,0,.76,3.92,4.46,4.46,0,0,0,1.86,2C533.15,167.79,533.52,167.8,533.53,167.75Z"/><path class="cls-12" d="M534.28,164.11c.05.09.77-.25,1.48-1.28a6.21,6.21,0,0,0,.92-4.66,6.93,6.93,0,0,0-2.52-4c-1-.75-1.72-.94-1.76-.84s.56.49,1.36,1.3a7.57,7.57,0,0,1,2.07,3.73,6.52,6.52,0,0,1-.59,4.17C534.73,163.52,534.19,164,534.28,164.11Z"/><g class="cls-20"><circle class="cls-5" cx="509.26" cy="168.52" r="10.59" transform="translate(-14.86 282.72) rotate(-30.6)"/><path class="cls-5" d="M481.4,181.86a10.58,10.58,0,0,0-16.66-8.68c.17.45.33.91.51,1.36A31.59,31.59,0,0,0,478,189.61,10.55,10.55,0,0,0,481.4,181.86Z"/></g><path class="cls-5" d="M506,108.48a56.64,56.64,0,0,0-15.11-.92c-2,.11-14.92,1.92-15.19,3.46-.69,4,3.65,7.41,6.73,9a68.5,68.5,0,0,0,11,4.45c2.06.62,4.38,1.34,5.36,3.26a9.93,9.93,0,0,1,.61,3.89c.37,6.26,3.71,8.92,7.81,12.86s9.68,7.1,15.7,5.68a7.89,7.89,0,0,0,5.16-3.41c2.45-4.26.88-11.76-1.55-15.73-3-4.93-5.32-10.26-8.78-14.92C514.45,111.6,511.67,109.73,506,108.48Z"/><path class="cls-16" d="M488.43,292.92c0-.07-.84-.63-2.31-1.77a31.19,31.19,0,0,1-5.57-5.56,29.26,29.26,0,0,1-2.88-4.58,25.5,25.5,0,0,1-2.14-5.82,25.84,25.84,0,0,1,.56-14,102.19,102.19,0,0,1,5.57-13.23,67.84,67.84,0,0,0,4.31-11A28.86,28.86,0,0,0,487,229a20.33,20.33,0,0,0-.17-2.16,2.64,2.64,0,0,0-.13-.75,25.57,25.57,0,0,0,0,2.91,31.56,31.56,0,0,1-1.32,7.75,71.84,71.84,0,0,1-4.44,10.85,97.49,97.49,0,0,0-5.68,13.32,26.25,26.25,0,0,0-.51,14.46,25.82,25.82,0,0,0,2.28,6,28.77,28.77,0,0,0,3,4.63,28.12,28.12,0,0,0,5.85,5.45,18,18,0,0,0,1.83,1.16C488.18,292.83,488.41,293,488.43,292.92Z"/><path class="cls-16" d="M481.83,246.36c.21,0,1.07-3.5.53-7.91s-2.17-7.67-2.36-7.56,1,3.39,1.5,7.66S481.57,246.32,481.83,246.36Z"/><path class="cls-16" d="M551.06,221.16a4.05,4.05,0,0,0-.13,1.34c0,.52,0,1.06,0,1.63s.06,1.38.11,2.22a54.67,54.67,0,0,0,2.9,13.85c1.89,5.7,5,12.13,8.43,19.17q1.29,2.65,2.58,5.44c.85,1.87,1.72,3.75,2.43,5.73a34.09,34.09,0,0,1,2.34,12.6,13.92,13.92,0,0,1-1.53,6.08,10.72,10.72,0,0,1-1.81,2.41,11.31,11.31,0,0,1-2.42,1.75,16.52,16.52,0,0,1-5.71,1.69c-2,.25-4,.45-6,.59-7.8.54-14.88.4-20.83.52s-10.77.39-14.09.78c-1.65.19-2.93.39-3.8.56a3.77,3.77,0,0,0-1.3.34,4,4,0,0,0,1.35,0c.87-.06,2.15-.15,3.81-.24,3.31-.18,8.1-.3,14-.22s13,.3,20.92-.16c2-.12,4-.3,6.06-.53a18.6,18.6,0,0,0,6.3-1.84,12.83,12.83,0,0,0,2.81-2,12.07,12.07,0,0,0,2.14-2.82,15.61,15.61,0,0,0,1.74-6.82A35.16,35.16,0,0,0,568.94,270c-.74-2-1.65-4-2.52-5.84s-1.76-3.68-2.64-5.44c-3.54-7-6.71-13.32-8.71-18.88a61.71,61.71,0,0,1-3.39-13.51c-.1-.82-.22-1.55-.27-2.18s-.09-1.09-.13-1.61A4.18,4.18,0,0,0,551.06,221.16Z"/><path class="cls-21" d="M519.88,238.65l18.46,14.49s16.61-16.21,10.93-46.78l-2.49-.06Z"/><path class="cls-21" d="M500.56,211.66c-.66,0-1.33.1-2,.17-1.2,6.43-3.9,24.8,1.73,37.53l19.61-10.71Z"/><path class="cls-22" d="M535.61,217.5a30.12,30.12,0,0,0,11.6-11.19c-3.64-.06-6.48,0-7.89.09a22.23,22.23,0,0,1-13.63,8,29.84,29.84,0,0,1-16.82-2.51,49.3,49.3,0,0,0-7.78-.25,21.51,21.51,0,0,0,10.59,7.67A30.12,30.12,0,0,0,535.61,217.5Z"/><path class="cls-14" d="M529,257.23c0,2.31-.82,4.18-1.82,4.18s-1.82-1.87-1.82-4.18.82-4.18,1.82-4.18S529,254.92,529,257.23Z"/><path class="cls-14" d="M529,277.71c0,2.31-.82,4.18-1.82,4.18s-1.82-1.87-1.82-4.18.82-4.18,1.82-4.18S529,275.4,529,277.71Z"/><path class="cls-16" d="M601.43,281.93a39.55,39.55,0,0,0-4.16-10.16c-3.56-6.27-8.07-11.53-12.09-16.66-8.09-10.25-14.5-20.16-18.71-29.08-2.13-4.45-3.67-8.65-5.18-12.28-.19-.45-.37-.9-.56-1.33l-.49.46.45,1.11c1.45,3.64,2.94,7.88,5,12.38,4.14,9,10.53,19.07,18.61,29.39,4,5.17,8.47,10.42,11.95,16.56a39,39,0,0,1,4,9.88,29.34,29.34,0,0,1,.79,5.38,25.24,25.24,0,0,1-.24,5.49,23.5,23.5,0,0,1-1.46,5.27,18.75,18.75,0,0,1-2.8,4.58,21.21,21.21,0,0,1-8.61,5.94,46.37,46.37,0,0,1-10,2.58c-.84.13-1.67.31-2.5.4l-2.5.27c-1.65.22-3.3.3-4.92.39a165.21,165.21,0,0,1-18.5-.28l-16.14-1.12c-4.19-.29-8-.43-11.51-.45.1-5.16.46-9.77.86-13.35l-.84,0a111.14,111.14,0,0,0-1.15,13.32c-3,0-5.77.12-8.16.29,0,.17,0,.34,0,.51,2.38-.12,5.11-.18,8.14-.14,0,1.47,0,3,0,4.52.06,3.29.27,6.42.56,9.32l1.11.29c-.26-3-.45-6.22-.52-9.63,0-1.53,0-3,0-4.48,3.46.06,7.29.25,11.46.58,4.93.35,10.32.87,16.14,1.27a161.38,161.38,0,0,0,18.61.38c1.64-.08,3.31-.15,5-.37l2.53-.27c.85-.08,1.69-.26,2.54-.4a46.78,46.78,0,0,0,10.25-2.61,22.33,22.33,0,0,0,9.07-6.25,19.9,19.9,0,0,0,3-4.87,24.11,24.11,0,0,0,1.54-5.54,26.26,26.26,0,0,0,.25-5.73A29.8,29.8,0,0,0,601.43,281.93Z"/><path class="cls-16" d="M514.44,259c0-.32-1.85-.58-4.12-.58s-4.13.26-4.13.58,1.85.58,4.13.58S514.44,259.34,514.44,259Z"/><path class="cls-16" d="M512.36,279c-.06-.32-1.51-.28-3.26-.21s-3.2.15-3.24.47,1.43.76,3.28.68S512.43,279.34,512.36,279Z"/><path class="cls-21" d="M620.15,317.22A22.38,22.38,0,0,0,625.36,300a42.11,42.11,0,0,0-2-8.12,32.9,32.9,0,0,0-10,7.67,34.53,34.53,0,0,0-8.08,25.28l.34-.11C611.56,322.79,615.92,322.31,620.15,317.22Z"/><path class="cls-14" d="M579.85,232.9c-2.26-3.87-7.56-8.91-12.5-7.5-4.57,1.31-6,6.72-5,10.75,1.55,6.65,7.17,12.59,14,13a5.33,5.33,0,0,0,2.35-.28,4.74,4.74,0,0,0,2-1.71C583.55,243.08,582.39,237.27,579.85,232.9Z"/><path class="cls-5" d="M518.86,141.07a46.13,46.13,0,0,1,6.61,33.71c-1.88,9.66-6.89,18.81-6.67,28.65a25.89,25.89,0,0,0,9.9,19.88,22.79,22.79,0,0,0,21.76,3.12c4-1.61,7.38-4.4,11.21-6.36a30,30,0,0,1,19.48-2.67c1.75-4.62-1.37-9.86-5.55-12.51s-9.19-3.48-13.91-5a51.16,51.16,0,0,1-17.39-9.53,16.59,16.59,0,0,1-4.72-5.63c-1.24-2.75-1.15-5.88-1.08-8.89.14-6.72,0-13.55-1.87-20s-5.83-12.55-11.74-15.76"/><path class="cls-23" d="M577.06,211.33a2.83,2.83,0,0,0-.25-.7,14.33,14.33,0,0,0-1-1.87,21.33,21.33,0,0,0-5.28-5.7,33.11,33.11,0,0,0-10.29-5.18c-2.08-.66-4.29-1.16-6.53-1.81a25,25,0,0,1-6.57-2.72,13.76,13.76,0,0,1-2.75-2.26,15.32,15.32,0,0,1-2-2.82,23.42,23.42,0,0,1-2.23-6.23,112.61,112.61,0,0,1-1.48-11.31c-.34-3.24-.64-5.87-.86-7.68a17.41,17.41,0,0,0-.43-2.8,17.75,17.75,0,0,0,.1,2.83c.12,1.82.31,4.45.58,7.71a97.8,97.8,0,0,0,1.31,11.41,23.63,23.63,0,0,0,2.26,6.48,17.44,17.44,0,0,0,2.13,3,15.11,15.11,0,0,0,2.92,2.41,25.8,25.8,0,0,0,6.81,2.8c2.27.64,4.48,1.13,6.52,1.76a33.74,33.74,0,0,1,10.16,4.9,22.32,22.32,0,0,1,5.36,5.39C576.57,210.44,577,211.37,577.06,211.33Z"/><path class="cls-13" d="M465.84,176.34a14.81,14.81,0,1,1,14.8-14.81A14.82,14.82,0,0,1,465.84,176.34Zm0-28.11a13.31,13.31,0,1,0,13.3,13.3A13.32,13.32,0,0,0,465.84,148.23Z"/><path class="cls-13" d="M501.09,169a14.8,14.8,0,1,1,14.8-14.8A14.81,14.81,0,0,1,501.09,169Zm0-28.1a13.3,13.3,0,1,0,13.3,13.3A13.31,13.31,0,0,0,501.09,140.88Z"/><path class="cls-13" d="M513,147.09a137.76,137.76,0,0,1,16.26-4.25c2.93-.58,5.9-1,8.87-1.32,5.15-.55,7.91,2,10.23,6.1.44.79,1.65.08,1.21-.71-3.17-5.61-6.66-7.3-13.11-6.61a117.94,117.94,0,0,0-23.83,5.44c-.86.28-.49,1.63.37,1.35Z"/><path class="cls-13" d="M480.18,157.62a3.48,3.48,0,0,1,6.29-1.4c.55.71,1.54-.29,1-1a4.86,4.86,0,0,0-8.63,2c-.19.88,1.16,1.26,1.35.37Z"/><path class="cls-24" d="M130.92,98.39A23.6,23.6,0,0,1,120.76,67a29.94,29.94,0,0,1,11-11.62c12.68-8,32.85-6.8,40.62,7.56,3.78,7,5.36,14.66,2.36,22.31A24.2,24.2,0,0,1,163.6,97.66"/><path class="cls-8" d="M129.25,161.86c-4.55,2.42-10.77.19-13.27-4.32s-1.43-10.53,2-14.36c-2.57-2.61-3.62-6.42-3.6-10.09,0-10,4.32-23.89,10.08-32,5.35-7.51,15.34-12.57,24-9.3,3.23-2.6,7.47-3.67,11.61-3.87,7.79-.38,15.52,2.07,22.39,5.78,7.19,3.88,13,9.14,19.28,14.22,6,4.85,11.23,8.26,13,16.4A23.74,23.74,0,0,1,213.19,139c-1,2.27-2.69,4.05-3.78,6.22s-1.67,4.53-2.77,6.68c-1.78,3.46-4.46,7.1-8.34,7.42-2.19.17-4.81-.63-6.3,1"/><path class="cls-10" d="M126.53,156l-14.3,32.32a34.69,34.69,0,0,0-3.92-.41,27.55,27.55,0,0,0,19.52,12,29.71,29.71,0,0,0,16-2.75l-5.3-.94,3.59-19.77Z"/><g class="cls-25"><path class="cls-8" d="M152.63,121.56c12.15,5.1,26,4.35,38.85,1.36,4.08-1,8.28-2.12,12.38-1.31s8,4.38,7.59,8.54c-.28,2.62-2.14,4.75-3.39,7.06-3,5.55-2.88,12.91-7.57,17.13s-11.7,3.34-17.82,2.26a8.3,8.3,0,0,1-4-1.45"/></g><path class="cls-15" d="M202,132.71a50.74,50.74,0,0,1-2.83,19.35c-1.68,5.08-3.86,10.5-7,14.83-3.43,4.67-5.9,10-10.32,14-6.34,5.74-15.79,9.91-24.35,8.9-9.29-1.1-18.87-4.85-25.35-11.79a27.09,27.09,0,0,1-6.53-24c-5,.22-10.34-3.44-12.7-7.77-4.12-7.54-2.44-20.26,7.49-21.84a11.77,11.77,0,0,1,10.27,3.52c3.35-5.74,6.34-12,10.85-17,6.45-7.07,14.4-11,24-10.07,12.53,1.26,25.55,7.72,32.38,18.6A28.8,28.8,0,0,1,202,132.71Z"/><path class="cls-13" d="M180.15,248.62c-5-36.77-21.59-47.65-35.11-51.21l-1.2-.21a29.71,29.71,0,0,1-16,2.75,27.55,27.55,0,0,1-19.52-12c-8.8-.53-30.42.53-43.95,21.08-17.32,26.29-28.53,55.56-22,84.48,0,0-9.66,22.06-7.24,33.06l117,5s6.34-27.61,6.23-51.31c0,0,8.68,27.56,32,39.27l18.95-12.91S185.11,285.39,180.15,248.62Z"/><path class="cls-26" d="M105.26,188A60.6,60.6,0,0,0,94.59,231.3a10,10,0,0,0,1.65,4.83c2.25,2.86,6.54,2.72,10.16,2.31,2.69,13,12.21,25.8,26.41,26.75.69.05.84-15.68.89-17.34"/><path class="cls-26" d="M183,301.79a48.59,48.59,0,0,1-5.33-10.67,62.53,62.53,0,0,1-2.75-12.55c-.55-4.39-.83-8.72-1.17-12.91s-.75-8.23-1.33-12.06a89.17,89.17,0,0,0-5.1-19.9,58,58,0,0,0-3.13-6.61,3,3,0,0,1-.73,0,62.23,62.23,0,0,1,3.1,6.88,92.49,92.49,0,0,1,4.81,19.77c.54,3.8.94,7.81,1.26,12s.58,8.52,1.14,13a62.71,62.71,0,0,0,2.83,12.78,49.43,49.43,0,0,0,5.51,10.89,72.71,72.71,0,0,0,12.67,14l.72-.49A74.54,74.54,0,0,1,183,301.79Z"/><path class="cls-26" d="M149.22,199.52c5.07,9.68,8.33,20.74,6.65,31.54-.67,4.34-2.38,8.87-6.09,11.23a8.61,8.61,0,0,0-2.57,1.92,7.31,7.31,0,0,0-.82,3.73c-.67,8.48-7.11,15.77-15.17,18.12-1.36-16.14,0-32.28-.33-48.53"/><path class="cls-7" d="M143.84,197.2a29.71,29.71,0,0,1-16,2.75,27.55,27.55,0,0,1-19.52-12c-.93-.06-2-.09-3.19-.09,0,13,1,26,4.34,38.47,3.83,14.31,11,28,22,37.93C139.68,252.65,144.7,239,147.14,225a143.57,143.57,0,0,0,2-26.28c-1.38-.51-2.74-.93-4.08-1.29Z"/><path class="cls-27" d="M161.9,150.27c-1,2.09-2.51,3.44-3.45,3s-.92-2.48.05-4.58,2.51-3.44,3.45-3S162.86,148.18,161.9,150.27Z"/><g class="cls-28"><path class="cls-29" d="M130.24,130.07c.06,7.12,8.5,5.08,12.53,3.25a24.87,24.87,0,0,0,6.83-4.6c1.07-1,5-4.71,4.7-6.36a9.25,9.25,0,0,0,4,5.89,17.48,17.48,0,0,0,6.75,2.63c11.84,2.36,24.16-1.89,36.09-.1-.41-3.83-3.59-6.8-7-8.69-8.83-5-19.92-5.06-28.3-10.75-3.78-2.56-7.11-6.29-11.63-7-3.85-.56-7.6,1.28-11.06,3.07"/></g><path class="cls-27" d="M184.75,158.82c-.67,2.2-2,3.75-3,3.45s-1.25-2.33-.58-4.53,2-3.76,3-3.46S185.42,156.61,184.75,158.82Z"/><path class="cls-8" d="M169.39,135c0,1.52-2.19,2.68-4.77,2.59s-4.64-1.39-4.58-2.91,2.18-2.68,4.77-2.59S169.44,133.45,169.39,135Z"/><path class="cls-8" d="M192.74,148.28c-1,1.17-3.37.77-5.35-.89s-2.8-3.95-1.83-5.12,3.38-.76,5.36.9S193.72,147.11,192.74,148.28Z"/><circle class="cls-30" cx="142.6" cy="159.24" r="10.33" transform="translate(-49.84 66.19) rotate(-22.35)"/><path class="cls-30" d="M185.16,168.33a10.32,10.32,0,0,0-8.39,16.33,36.24,36.24,0,0,0,5.06-3.82c3.56-3.21,5.86-7.27,8.42-11.17A10.3,10.3,0,0,0,185.16,168.33Z"/><path class="cls-8" d="M130.54,125.35a13,13,0,0,0-.43,6.07c.51,2,2.32,3.81,4.35,3.59a6,6,0,0,0,2.75-1.28,59.1,59.1,0,0,0,16.48-17.48c1.23,6.09,7.09,10.34,13.13,11.81s12.36.75,18.57.47c8.14-.36,15.55,1.45,23.56,3.07a6.37,6.37,0,0,0,1.94.19,4.08,4.08,0,0,0,3.23-3.12,8.31,8.31,0,0,0-.44-4.69c-2.11-6-7.39-10.42-12.79-13.87a19.24,19.24,0,0,0-8.58-3c-3.18-.43-5.14-2.08-8-3.58a42.36,42.36,0,0,0-32.2-3.15c-10.55,3.38-19.55,11.64-23.26,22.07"/><path class="cls-26" d="M156.93,279.89a13.92,13.92,0,0,0,1.69-2.27c1-1.5,2.52-3.67,4.19-6.48a48.65,48.65,0,0,0,2.48-4.76,28.38,28.38,0,0,0,2-5.88,25.63,25.63,0,0,0,.53-6.86,34.71,34.71,0,0,0-1.42-7.21c-1.45-4.8-3.27-9.17-4.63-13.23a44.06,44.06,0,0,1-2.43-11,27.8,27.8,0,0,1,.58-7.56,16,16,0,0,0,.67-2.74,10.76,10.76,0,0,0-1.1,2.63,24.27,24.27,0,0,0-1,7.71,42.06,42.06,0,0,0,2.23,11.29c1.32,4.13,3.11,8.51,4.53,13.22a35,35,0,0,1,1.4,7,25.19,25.19,0,0,1-.44,6.56,37.53,37.53,0,0,1-4.12,10.45c-1.56,2.84-2.95,5.08-3.86,6.65A13.18,13.18,0,0,0,156.93,279.89Z"/><path class="cls-26" d="M164.88,223.87c-.25-.17-2,2.29-2.93,5.81s-.72,6.52-.42,6.51.61-2.84,1.53-6.2S165.18,224,164.88,223.87Z"/><path class="cls-31" d="M145,197.41l-1.2-.21a29.71,29.71,0,0,1-16,2.75,27.55,27.55,0,0,1-19.52-12c-1.27-.08-2.81-.12-4.54-.08,1.93,7.88,9.11,14.36,17,17.05,8.3,2.83,17.85,2.36,25.43-2a32.78,32.78,0,0,0,4.72-3.39A42.71,42.71,0,0,0,145,197.41Z"/><path class="cls-26" d="M130.34,264.7c0,.58-.05,1.16-.08,1.76-.38,8.19-1,19.5-2.18,32s-2.6,23.69-3.74,31.81c-.49,3.54-.93,6.73-1.34,9.63a14.06,14.06,0,0,0-.29,3.57,15,15,0,0,0,1-3.45c.51-2.24,1.16-5.51,1.88-9.56,1.45-8.09,3.09-19.34,4.25-31.84s1.62-23.87,1.68-32.09c0-.49,0-1,0-1.44A3.22,3.22,0,0,1,130.34,264.7Z"/><path class="cls-13" d="M106,319.33a54.46,54.46,0,0,0,3.72-10.5c1.3-5.62.89-11.2.52-16.8-5.06-1.12-12.3-2.89-13.47-3.14-5.27-1.14-11.88-4.53-14.74-9.34a14.43,14.43,0,0,1-1.71-7.43c0-23.46,30-43,14.11-67.11-2.26-3.45-5.33-6.63-9.29-7.76-10.4-2.95-20,7.23-25.73,14.49-6.85,8.68-11.59,18.8-16,28.92-4.9,11.15-8.44,22.44-8.63,34.74-.21,14.1,8.7,25.67,20.38,32.94,8.32,5.18,17.23,7.13,26.65,9.12C88.84,319,98.17,320.51,106,319.33Z"/><g class="cls-28"><path class="cls-29" d="M127.69,140.26a14.16,14.16,0,0,0-5.61-9.24,4.32,4.32,0,0,0-2.07-.93,4.61,4.61,0,0,0-3.2,1.39,9.72,9.72,0,0,0-2.46,2.81c-1.69,3.15-1.13,7.25.56,10.28,1.57,2.8,6,6.35,9.48,5.7S128.07,142.85,127.69,140.26Z"/></g><path class="cls-27" d="M166.33,164.14c0,.05.27.34.9.78a5.81,5.81,0,0,0,1.26.67,3.73,3.73,0,0,0,1.93.22,2.73,2.73,0,0,0,2-1.4,6.35,6.35,0,0,0,.59-2.62,30.89,30.89,0,0,1,4.73-15.3c1.41-2.29,2.54-3.53,2.43-3.63s-.36.24-.9.78a19.93,19.93,0,0,0-2,2.51,27.66,27.66,0,0,0-4.32,9.75,29.16,29.16,0,0,0-.7,5.85,5.86,5.86,0,0,1-.42,2.32,2.08,2.08,0,0,1-1.46,1.14,4.53,4.53,0,0,1-2.91-.58A3.93,3.93,0,0,0,166.33,164.14Z"/><path class="cls-27" d="M164.71,169.21c0-.13-.54-.2-1.33-.52a5.61,5.61,0,0,1-3.64-4.92c-.07-.84,0-1.39-.11-1.42s-.42.48-.5,1.42a5.22,5.22,0,0,0,4.08,5.51C164.14,169.47,164.72,169.32,164.71,169.21Z"/><path class="cls-27" d="M126.16,149.84a11,11,0,0,0,1.22-3.3,19,19,0,0,0,.49-8.5,11.69,11.69,0,0,0-4.5-7.22c-1.85-1.29-3.31-1.34-3.3-1.26a20.47,20.47,0,0,1,2.93,1.75,12,12,0,0,1,4,6.9,22,22,0,0,1-.23,8.2A20.23,20.23,0,0,0,126.16,149.84Z"/><path class="cls-27" d="M125,146.51c.06-.12-.78-.51-1.65-1.6a6.86,6.86,0,0,1-1.39-5.06,10.22,10.22,0,0,1,2-5c.87-1.11,1.69-1.5,1.63-1.63s-1,.12-2.09,1.22a9.29,9.29,0,0,0-2.45,5.31,7.2,7.2,0,0,0,.37,3.28,6.31,6.31,0,0,0,1.42,2.28C124,146.42,125,146.6,125,146.51Z"/><path class="cls-26" d="M109.82,308.07a44.54,44.54,0,0,0-7.23-1.84,81.88,81.88,0,0,0,1.33-9.38c.09-1.64.2-3.2.19-4.66,0-.54,0-1.05,0-1.56l-.91-.21c0,.57,0,1.14,0,1.75,0,1.44-.17,3-.29,4.6a90.93,90.93,0,0,1-1.41,9.26l-1.31-.23a75.94,75.94,0,0,1-11.89-2.68,52.46,52.46,0,0,1-12.58-5.93,39.59,39.59,0,0,1-11-10.54,34,34,0,0,1-6-15.13,29,29,0,0,1,.12-8.28A39.26,39.26,0,0,1,61,255.45a75.72,75.72,0,0,1,3.26-7.18c.58-1.16,1.16-2.3,1.78-3.4s1.19-2.22,1.81-3.29c4.9-8.59,9.79-16.09,13.41-22.68a103.33,103.33,0,0,0,7.52-16.12l.9-2.65.09-.36-.26-.22-.16.47-1,2.6a115.85,115.85,0,0,1-7.81,15.88c-3.69,6.51-8.65,13.94-13.62,22.55-.63,1.08-1.24,2.18-1.85,3.3s-1.21,2.25-1.8,3.42A74.38,74.38,0,0,0,59.94,255a39.79,39.79,0,0,0-2.27,8,29.89,29.89,0,0,0-.14,8.61,35.22,35.22,0,0,0,6.19,15.63,40.75,40.75,0,0,0,11.37,10.79A52.91,52.91,0,0,0,88,304,74.32,74.32,0,0,0,100,306.61l1.28.2c0,.13,0,.25-.07.37a88.82,88.82,0,0,1-3,10.13l-.9,2.37,1.07,0c.28-.66.55-1.34.83-2a81.76,81.76,0,0,0,3.09-10.24c0-.15.05-.3.08-.45a45.91,45.91,0,0,1,7.26,1.72C109.74,308.49,109.78,308.28,109.82,308.07Z"/><path class="cls-15" d="M110.82,317c.54.14,1.09.28,1.63.4L107.9,316a.36.36,0,0,1,0,.11C108.84,316.43,109.83,316.74,110.82,317Z"/><path class="cls-15" d="M145.48,304.77c-2.75-3-7-4.33-10.92-4.94a28.49,28.49,0,0,0-9,.08c4-1.61,8-1.06,12.17-1.3a6.77,6.77,0,0,0,3.78-1.07.92.92,0,0,0,.32-.36c.18-.47-.36-.88-.82-1.06-2.69-1-5.62-.65-8.42-.74a34.9,34.9,0,0,0-9.28.95,12.58,12.58,0,0,0,4.64-7.48,2.89,2.89,0,0,0,0-1.49,1.12,1.12,0,0,0-1.14-.79,1.67,1.67,0,0,0-.91.6c-3.15,3.28-6.77,6.86-11.37,7.91a14,14,0,0,1-4.67.13,27.68,27.68,0,0,1,.55,11.39s0,.11,0,.16a28.52,28.52,0,0,1-.84,4.11c-.44,1.71-1,3.39-1.57,5,3.71,1,7.52.3,11.28-.32a34.88,34.88,0,0,1,12.6-.13,20,20,0,0,0,3,.54,1.71,1.71,0,0,0,.87-.12.73.73,0,0,0,.46-.69,1,1,0,0,0-.38-.6c-1.14-1.09-2.47-1.27-3.94-1.68a20.42,20.42,0,0,0-5.86-1.57,33.5,33.5,0,0,1-5.37-1.19,8.54,8.54,0,0,0,2.39-.4c.86-.12,1.71-.2,2.57-.26a31.78,31.78,0,0,1,5.07.1c3.35.33,6.51,1.43,9.8,2,.66.11,2,.67,2.22-.25s-1.34-2.12-1.94-2.53c-1.93-1.33-4.34-1.73-6.54-2.39a76.5,76.5,0,0,0-10.24-2.3,32.74,32.74,0,0,1,11.3.1c3,.48,5.83,1.55,8.81,2.08a3,3,0,0,0,2-.12A1.52,1.52,0,0,0,145.48,304.77Z"/><path class="cls-7" d="M83.76,221c-2.54-5.32-8.1-4.62-12.07-1.51a16.58,16.58,0,0,0-6.37,12.44c0,3.23,1.75,6.63,4.78,7.72a7.59,7.59,0,0,0,5.79-.47,12.92,12.92,0,0,0,4.48-3.84,20,20,0,0,0,3.82-8.58A9.43,9.43,0,0,0,83.76,221Z"/><path class="cls-26" d="M106.58,318.91c0-.28-4.32.25-11.24.23A77.88,77.88,0,0,1,69,314.48a62.41,62.41,0,0,1-22.57-14.13c-4.9-4.86-7-8.66-7.32-8.47a10.1,10.1,0,0,0,1.38,2.72c.5.85,1.22,1.81,2,3,.41.57.91,1.12,1.4,1.74s1,1.27,1.65,1.9a58.35,58.35,0,0,0,22.85,14.91,71.71,71.71,0,0,0,35.22,3.48A9.73,9.73,0,0,0,106.58,318.91Z"/><path class="cls-26" d="M109.5,291.8c0-.14-1.08-.26-3-.55a59.44,59.44,0,0,1-8.11-1.7,41.82,41.82,0,0,1-5.33-2,25.32,25.32,0,0,1-5.52-3.28c-.42-.36-.9-.69-1.3-1.1L85,282c-.37-.45-.71-.93-1.07-1.4a10.7,10.7,0,0,1-.92-1.53,16.24,16.24,0,0,1-1.78-7.17c-.1-5.21,1.61-10.09,3.37-14.33s3.69-8.06,5.11-11.28c2.9-6.45,4.58-10.49,4.36-10.59s-2.29,3.75-5.47,10.07c-1.57,3.17-3.5,6.89-5.46,11.17s-3.74,9.35-3.64,15a17.73,17.73,0,0,0,2,7.94,14.5,14.5,0,0,0,1,1.69c.4.51.79,1,1.2,1.53l1.35,1.33c.44.44,1,.78,1.42,1.17a25.83,25.83,0,0,0,5.93,3.33,37.94,37.94,0,0,0,5.58,1.82,43.26,43.26,0,0,0,8.36,1.19A9.26,9.26,0,0,0,109.5,291.8Z"/><path class="cls-26" d="M105.91,319.57c.17.12,1.29-1.14,2.54-3.52a27.82,27.82,0,0,0,1.8-4.38,33.26,33.26,0,0,0,1.21-5.67,33.65,33.65,0,0,0,.11-5.81,28,28,0,0,0-.76-4.66c-.68-2.62-1.47-4.09-1.67-4s.12,1.68.47,4.25a41.69,41.69,0,0,1,.36,4.52,42.5,42.5,0,0,1-.23,5.52,43.73,43.73,0,0,1-1,5.43,42.84,42.84,0,0,1-1.38,4.32C106.41,318,105.68,319.43,105.91,319.57Z"/><path class="cls-14" d="M238.45,272.91h22.77a7.48,7.48,0,0,1,7.48,7.48v3.67a0,0,0,0,1,0,0H231a0,0,0,0,1,0,0v-3.67A7.48,7.48,0,0,1,238.45,272.91Z"/><rect class="cls-17" x="209.2" y="282.18" width="8.54" height="27.39"/><path class="cls-17" d="M273.93,287H219.28v-4.76h54.65a2.39,2.39,0,0,1,2.38,2.38h0A2.38,2.38,0,0,1,273.93,287Z"/><path class="cls-17" d="M207.51,208.72c-15.39,6.82-23.08,24.66-22.59,40.74.5,16.62,11.07,31.36,25,39.7,4,2.41,7.66-3.86,3.65-6.26-12-7.21-20.42-19.25-21.4-33.44-.94-13.66,6.16-28.79,19-34.49,4.26-1.89.57-8.13-3.66-6.25Z"/><circle class="cls-14" cx="213.47" cy="284.42" r="9.9"/><path class="cls-6" d="M217.73,284.42a4.26,4.26,0,1,0-4.26,4.27A4.26,4.26,0,0,0,217.73,284.42Z"/><path class="cls-32" d="M281,322.62v-6.89a11.63,11.63,0,0,0-11.63-11.63H196.78a11.63,11.63,0,0,0-11.63,11.63v6.89Z"/><path class="cls-13" d="M185.17,315.27H281a11.68,11.68,0,0,0-.55-3.15H185.73A11.69,11.69,0,0,0,185.17,315.27Z"/><circle class="cls-13" cx="235.98" cy="241.23" r="17.31"/><rect class="cls-17" x="196.49" y="164.3" width="10.2" height="19.01" transform="translate(-54.37 100.8) rotate(-24.85)"/><path class="cls-14" d="M204.42,164.54,192.69,170a2.77,2.77,0,0,1-3.68-1.35h0a2.79,2.79,0,0,1,1.35-3.69l11.73-5.43a2.77,2.77,0,0,1,3.68,1.35h0A2.78,2.78,0,0,1,204.42,164.54Z"/><path class="cls-6" d="M257.37,241.48,212,168.9l-19.68,9.69,30.9,80.65C234.47,253.11,246,247.34,257.37,241.48Z"/><path class="cls-17" d="M198.05,193.64q11.26-5.52,22.61-10.83L218,178.56q-10.92,5.12-21.74,10.41Z"/><path class="cls-17" d="M203.22,207.12q12.53-6.1,25.15-12l-2.66-4.25c-8.13,3.78-16.22,7.66-24.28,11.58Z"/><path class="cls-17" d="M208.38,220.61q13.8-6.72,27.71-13.15l-2.65-4.24Q220,209.45,206.6,215.94Z"/><circle class="cls-14" cx="206.62" cy="212.59" r="9.9"/><circle class="cls-6" cx="206.62" cy="212.59" r="4.26"/><path class="cls-33" d="M330.69,248H309.57a3.74,3.74,0,0,1-3.74-3.74h0a3.74,3.74,0,0,1,3.74-3.74h21.12a3.74,3.74,0,0,1,3.74,3.74h0A3.74,3.74,0,0,1,330.69,248Z"/><path class="cls-34" d="M329,271.74V244.09H311.27v27.65c-12,3.45-20.73,13.72-20.73,25.85,0,9.79,5.68,18.37,14.18,23.13h30.82c8.5-4.76,14.18-13.34,14.18-23.13C349.72,285.46,341,275.19,329,271.74Z"/><path class="cls-35" d="M338,292.84l2.81-4.56c.23-.36.42-.91.07-1.15a.72.72,0,0,0-.32-.11,29.7,29.7,0,0,0-14.45.52c-4.37,1.4-8.23,4-12.15,6.3-2.34,1.38-5.11,1.73-7.75,2.2a25,25,0,0,1-5.32.42l-4.27-.25c.48,1.55,2.28,3,3.52,4a8.23,8.23,0,0,0,4.69,1.53"/><path class="cls-5" d="M321.09,295.49c-8.63,4.46-17,5.09-24.46,1.36,0,.27,0,.54,0,.82,0,11.91,10.54,21.56,23.54,21.56s23.54-9.65,23.54-21.56a20.1,20.1,0,0,0-2.78-10.17C334,288.93,327.15,292.35,321.09,295.49Z"/><path class="cls-34" d="M336.4,322.94H303.86a2.07,2.07,0,0,1-2.07-2.07h0a2.07,2.07,0,0,1,2.07-2.07H336.4a2.07,2.07,0,0,1,2.07,2.07h0A2.07,2.07,0,0,1,336.4,322.94Z"/><path class="cls-35" d="M306.18,304.14a1.64,1.64,0,1,1-1.63-1.64A1.64,1.64,0,0,1,306.18,304.14Z"/><path class="cls-35" d="M326.63,311.38a1.2,1.2,0,1,1-1.2-1.2A1.19,1.19,0,0,1,326.63,311.38Z"/><path class="cls-35" d="M318.91,304.14a1.79,1.79,0,1,1-1.79-1.79A1.79,1.79,0,0,1,318.91,304.14Z"/><path class="cls-35" d="M335.79,304.14a1.79,1.79,0,1,1-1.79-1.79A1.79,1.79,0,0,1,335.79,304.14Z"/><path class="cls-35" d="M315.26,313.7a.61.61,0,1,1-.61-.61A.6.6,0,0,1,315.26,313.7Z"/><path class="cls-35" d="M335,297.08a.61.61,0,1,1-.61-.6A.61.61,0,0,1,335,297.08Z"/><path class="cls-35" d="M326.74,297.08a.86.86,0,1,1-1.71,0,.85.85,0,0,1,.85-.85A.86.86,0,0,1,326.74,297.08Z"/><path class="cls-36" d="M475.27,201.77a4.13,4.13,0,0,0-4.13-4.14H330.57c-7.87,0-6.94,8.14-6.94,8.14l2.81,1.08v90.78a4.13,4.13,0,0,0,4.13,4.13h133l3.23,4.67s8.45,1.05,8.45-7.68c0-.27,0-.55,0-.82,0-.1,0-.2,0-.3Z"/><rect class="cls-32" x="323.56" y="202.36" width="146.71" height="104.13" rx="4.11"/><path class="cls-32" d="M426.55,322.75v-4a3.47,3.47,0,0,0-3.47-3.48H378.25a3.48,3.48,0,0,0-3.47,3.48v4Z"/><circle class="cls-13" cx="396.92" cy="245.51" r="9.57"/><path class="cls-17" d="M406,323a4.05,4.05,0,0,0,.07-.7V268.11a3.82,3.82,0,0,0-3.82-3.82H388.9a3.82,3.82,0,0,0-3.82,3.82v54.16a4.05,4.05,0,0,0,.07.7Z"/><path class="cls-37" d="M642.11,340.67H9.6A9.6,9.6,0,0,1,0,331.06H0a9.6,9.6,0,0,1,9.6-9.6H642.11a9.6,9.6,0,0,1,9.6,9.6h0A9.6,9.6,0,0,1,642.11,340.67Z"/></g></g></g></svg>