<svg xmlns="http://www.w3.org/2000/svg" viewBox="0 0 2070.37 1069.09"><defs><style>.cls-1{fill:#b0d4ff;}.cls-2{fill:#95c0f4;}.cls-3{fill:#cae5ff;}.cls-4{fill:#ffb27d;}.cls-5{fill:#233862;}.cls-6{fill:#a9453d;}.cls-7{fill:#ed975d;}.cls-8{fill:#2a4e96;}.cls-9{fill:#fff;}.cls-10{fill:#5f9aa8;}.cls-11{fill:#f99746;}.cls-12{fill:#1e3d70;}.cls-13{fill:#ed7d2b;}.cls-14{fill:#163560;}.cls-15{fill:#b0d0ff;}.cls-16{fill:#98baf4;}.cls-17{fill:#e8945b;}.cls-18{fill:#ebf3fa;}.cls-19{fill:#f2ccaa;}.cls-20{fill:#b5453c;}.cls-21{fill:#2b478b;}.cls-22{fill:#ebf3ff;}.cls-23{fill:#78acea;}.cls-24{fill:#dfedfb;}.cls-25{fill:#213f7a;}.cls-26{fill:#e2915a;}</style></defs><title>team</title><g id="Layer_2" data-name="Layer 2"><g id="Слой_1" data-name="Слой 1"><path class="cls-1" d="M1204.7,1064h.35a3.63,3.63,0,0,0,3.63-3.71l-5.5-238.41L1187,820l13.82,240.31A3.92,3.92,0,0,0,1204.7,1064Z"/><path class="cls-2" d="M1299.12,1064h.35a3.63,3.63,0,0,0,3.62-3.71l-5.5-238.41-16.2-1.89,13.82,240.31A3.92,3.92,0,0,0,1299.12,1064Z"/><path class="cls-1" d="M1038.58,1064h-.35a3.63,3.63,0,0,1-3.62-3.71l5.5-238.41,16.2-1.89-13.82,240.31A3.92,3.92,0,0,1,1038.58,1064Z"/><path class="cls-1" d="M1309.86,807.13V643.76a52.05,52.05,0,0,0-52-52h-117.7a52,52,0,0,0-52,52V813.37Z"/><path class="cls-2" d="M1082.6,807.13h227.26a0,0,0,0,1,0,0v25.79a0,0,0,0,1,0,0H1067a0,0,0,0,1,0,0V822.75A15.63,15.63,0,0,1,1082.6,807.13Z" transform="translate(2376.83 1640.04) rotate(180)"/><rect class="cls-3" x="1028.18" y="807.13" width="195.04" height="25.79" rx="11.56" transform="translate(2251.4 1640.04) rotate(180)"/><path class="cls-4" d="M1532.48,1055.5c-.68,9.28-13.77,9.38-28.63,7.66s-10.91,2-31.72,2.32-28-6.58-29-9.56c-.89-2.64,9.13-4.86,19.85-7.47,1.35-.32,2.7-.66,4-1,12.09-3.08,20.1-12.12,30.44-20,9.8-7.49,22.43-34.57,22.43-34.57l28.43-1.28s-12,24.27-16.47,34.74c-2.65,6.16-1.52,13.72-.37,19.53A36.3,36.3,0,0,1,1532.48,1055.5Z"/><path class="cls-5" d="M1503.85,1063.16c-14.86-1.73-10.91,2-31.72,2.32s-28-6.58-29-9.56c-.89-2.64,9.13-4.86,19.85-7.47l.13.2a58.3,58.3,0,0,0,30.53,5.47c14-1.4,28.21-7.23,37.85-8.27a36.3,36.3,0,0,1,1,9.65C1531.8,1064.78,1518.71,1064.88,1503.85,1063.16Z"/><path class="cls-4" d="M1728.79,1057.43c-.67,9.28-13.76,9.39-28.63,7.68s-10.9,2.05-31.71,2.36-28-6.56-29-9.53c-.9-2.64,9.12-4.87,19.84-7.49l4-1c12.09-3.09,20.08-12.14,30.42-20,9.79-7.5,0-51.86,0-51.86l31.26-3s-1.5,37.35-1.48,54.33c0,6.7,3.09,13.15,4.25,19A36,36,0,0,1,1728.79,1057.43Z"/><path class="cls-5" d="M1700.16,1065.11c-14.86-1.71-10.9,2.05-31.71,2.36s-28-6.56-29-9.53c-.9-2.64,9.12-4.87,19.84-7.49l.13.2a58.34,58.34,0,0,0,30.54,5.43c14-1.41,28.21-7.26,37.84-8.31a36,36,0,0,1,1,9.66C1728.12,1066.71,1715,1066.82,1700.16,1065.11Z"/><path class="cls-6" d="M1637.55,290.69c-5.38-22.13,2.42-32.44,9.46-37.93,3.34-8.15,7.15-14,11-16.23,7.1-4,15.62-4.48,21.57-4.13a10.11,10.11,0,0,0-4.55-2.16c3.7-.55,11.94,3.11,11.94,3.11,51.37-19.79,59.45,55.85,58.37,73.42s-.93,38.27,25.79,52.12c51,26.41-16.94,126-16.94,126,1.29-14.2-64.23-89.14-98.41-111.59-8.33-12.25-11.29-33.89-11.51-35.59,1.44,17.16,4.38,26.78,7,32.2C1635.74,355.54,1633.43,321.11,1637.55,290.69Z"/><path class="cls-4" d="M1657.85,374.39c-.17.08,16.5,8.74,29.05,5.31,11.8-3.22,19.51-18.52,19.34-18.55-5-1-6.43-7.86-6.33-37.37l-2.26.44-38,7.52s.87,12,.89,23.22C1660.59,364.41,1660,373.38,1657.85,374.39Z"/><path class="cls-7" d="M1659.67,331.74s.87,12,.89,23.22c21.26-.6,32.49-20,37.09-30.74Z"/><path class="cls-8" d="M1505.13,1007.91a9.33,9.33,0,0,0,8.45,12.14l14.84.69,15.7.48a12.62,12.62,0,0,0,10.16-4.63c12.53-15.38,51.11-66.62,74.5-141.07q1-3.13,2.09-6.34c15.46-45.06,47.49-101.62,64.37-152.81,2.69-8.16,5.1-15.83,7.27-23.1.69-2.32,1.37-4.61,2-6.86,12.44-43.22,16-71.61,19.36-101.93l-121.9,1S1576.31,784.93,1505.13,1007.91Z"/><path class="cls-9" d="M1619,515.41c.31,58-8.51,82.89-8.51,82.89s52.2,26.52,114.23,7c.73-.23,51.37-11.78,51.37-11.78-1-2.35-10.27-41.45-11.28-43.6-13.1-28.13-23-40.46-24.6-49.11-2.88-16.14-2.94-32.84-1.51-48.6a390.57,390.57,0,0,1,15-76.32c-16.9-3.85-32.73-10.6-50.32-17.2-4,5-16.42,10.31-27.15,10.07-12.35-.27-16.36-5.56-15.72-11.34-13.17,7.33-23.68,14.25-23.68,14.25-11.19,19.44-33.89,38.32-35.53,68.14C1601,447.14,1619,513.78,1619,515.41Z"/><path class="cls-10" d="M1723.88,521.87c5.33,7.54,15.55,53.38,41,59.15-13.1-32.67-23-47-24.6-57-2.88-18.75-2.94-38.16-1.51-56.46-8.51-14.91-14.86-25.14-14.86-25.14-.67-2.41-13.52-42.15-17.64-6.63S1717.93,513.44,1723.88,521.87Z"/><path class="cls-4" d="M1652.57,342.41s50.29.83,50.33-30.5,6.54-52.31-25.56-54.17-38.36,10.1-40.91,20.55S1639.49,341.38,1652.57,342.41Z"/><path class="cls-6" d="M1654.43,257s13.77,36.75,34.9,42.18,30.3-.23,30.3-.23-16.21-12.87-19.57-35.35C1700.06,263.58,1664.82,239.49,1654.43,257Z"/><path class="cls-6" d="M1657.85,260s-10.29,8.21-12.79,16.18-3.64,24.4-8.42,23.84c0,0-10.38-25,1.28-39.11C1650.28,245.89,1657.85,260,1657.85,260Z"/><polygon class="cls-4" points="1573.45 555.67 1549.69 628.08 1563.24 633.52 1602.51 569.54 1573.45 555.67"/><path class="cls-11" d="M1637.48,367.41s-28,11.11-36.11,28.44S1581,529.39,1576.11,541.33s-8.57,21.38-8.57,21.38,14.12,11.9,28.33,12.78S1637.48,367.41,1637.48,367.41Z"/><path class="cls-11" d="M1660.59,357.42s-29.1,71.88-29.95,86.42-3.42,237.88-3.42,237.88,1.71,10.26-18,6-24.82-8.56-24.82-8.56,18.83-137.76,13.69-185.68,39.36-126.06,39.36-126.06Z"/><path class="cls-12" d="M1528.42,1020.74l17,.53a9.87,9.87,0,0,0,7.91-3.57c11.46-13.88,51.42-65.82,75.41-142.18q1-3.13,2.09-6.34c15.46-45.06,47.49-101.62,64.37-152.81,2.69-8.16,5.1-15.83,7.27-23.1.69-2.32,1.37-4.61,2-6.86l-18-13.62s-53.9,87.28-70.59,169.41C1601.49,913.55,1543.44,999.39,1528.42,1020.74Z"/><path class="cls-8" d="M1684.69,849.85c-.29,37.79,1.5,122,6.1,163.18a7.44,7.44,0,0,0,7.4,6.61h12.72c5.36,0,9.37,0,12-.08a4.9,4.9,0,0,0,4.72-3.95c12.64-64.37,21.7-117.84,28.33-164.05,5.54-38.67,10.47-71.83,14.26-100.37,3.82-28.73,6.47-52.78,7.42-73.1.14-3.2.25-6.32.31-9.34s.08-6,0-8.85l-105.33-10.27C1674,719.61,1684.86,826.64,1684.69,849.85Z"/><path class="cls-12" d="M1710.91,1019.64c4.82,0,8.54,0,11.18-.07a5.93,5.93,0,0,0,5.74-4.79c12.56-64,21.57-117.21,28.17-163.22,5.54-38.67,10.47-71.83,14.26-100.37,3.82-28.73,6.47-52.78,7.42-73.1L1739,700.82s24.67,8.7,15.25,74.59S1724,1010.31,1710.91,1019.64Z"/><path class="cls-11" d="M1705.94,677.44s7.41,26.81,33.08,23.38S1801.2,682,1801.2,682s-11-34.66-24.61-80.2c-16.52-55.13-37-126.2-46.59-171a277.28,277.28,0,0,1-5.24-30.56l-21.3-41.32s-31.75,71.26-33.46,89.23S1705.94,677.44,1705.94,677.44Z"/><path class="cls-4" d="M1731.57,445.44l-28.11-86.55c.08,0,35.5,10.54,53.32,19.54,0,0,11.14,14.36,18,47.49,0,0,7.28,79.53-9,108.62,0,0-51.34,10.27-133.48-18V497.75s89.84,4.71,108.24,6.85Z"/><path class="cls-13" d="M1707.07,485.77c1.15,29.09,8,85.57,69,115.8l.49.23c-16.52-55.13-37-126.2-46.59-171C1718.79,447.52,1706.45,469.75,1707.07,485.77Z"/><path class="cls-11" d="M1703.46,358.89s52.1,3.67,64.65,31.62,16.55,120.93.57,148.31c0,0-22,6.26-60.88-1l-1.44-.27s-12.4-30.38-1.28-36.37c0,0,32.8,1.71,29.38-9.12S1703.46,358.89,1703.46,358.89Z"/><path class="cls-6" d="M1572.82,509.38l1.54,4.93,85.5-26.59a3.28,3.28,0,0,0,.57-3,2.43,2.43,0,0,0-2.11-1.91Z"/><polygon class="cls-6" points="1566.64 514.04 1572.82 509.38 1574.36 514.31 1566.64 514.04"/><path class="cls-4" d="M1553.07,626.1s-21.69,12-24.54,21.12-.9,28.25,2.55,28,8.58-20.55,11.43-22,6.85-5.7,6.85-2.56-2.85,8.84-1.43,9.7,6-8,9.13-9.7,4.46-15.83,7.51-19.62S1553.07,626.1,1553.07,626.1Z"/><path class="cls-4" d="M1632.35,497.75s-19.4-11.94-27.53-10.11-28.88,16.86-18.9,20.11,18-.16,21.89,2.2,6.66,6.68,24.54,6.62S1632.35,497.75,1632.35,497.75Z"/><path class="cls-14" d="M107,369.41c-3.25-6.27,70.94-28.85,72.12,33,0,0,139-3.42,72.62-80.88-23-26.82-20.61-49-19.92-69.63S217.46,171.31,166,177.35c0,0-13.48-5.49-30.29,3.24C97.5,200.42,11.85,392.24,107,369.41Z"/><path class="cls-4" d="M334.16,438.6s9-13.77,16.34-14,20.79-4.05,19.71-1.35-9.45,3-10.26,4.59,12.42,4.05,16.2,4.32,12.7,0,12.43,1.89-16.06,9.72-27.21,8.64-24.91,3.24-24.91,3.24Z"/><path class="cls-15" d="M203.33,443.06A135.44,135.44,0,0,0,217.17,464c10.75,13.47,27.33,29,48.14,32.09,9.94,1.47,19.66-.67,28.59-4.64h0c25.27-11.22,44.27-37,44.27-37,4.46-12.15-2.83-20.39-2.83-20.39s-51,11.48-55.9,9.05-33.21-84.11-40-94.38-29.76-15.59-29.76-15.59Z"/><path class="cls-16" d="M217.17,464c10.75,13.47,27.33,29,48.14,32.09,9.94,1.47,19.66-.67,28.59-4.64-1,.13-26.23,3.25-36.29-14.75-10.26-18.37-21.36-47.53-36.61-37.81C214.42,443.07,214.72,453.49,217.17,464Z"/><path class="cls-5" d="M12.93,994S-2.65,1008.18.39,1018.28s17.1,16.83,19,29.17,9.5,19.07,16.34,19.07H68.31s5-8.68-7.12-11.3-16.74-17.12-16-30.59-1.14-31.41-1.14-31.41l-25.82-6Z"/><path class="cls-5" d="M144.74,1000s-5.61,60.21,1.23,63.57l87.5-.18s0-10.1-14.05-12.34-38.75-10.47-42.93-28.8S144.74,1000,144.74,1000Z"/><path class="cls-4" d="M82.39,568.06c18-40.38,29-52,26.91-64.5-1.56-9.33,4.77-173.92,4.77-173.92,2.14-.66,6.42-1.25,8.76-1.77a22,22,0,0,0,16-14c3.07-8.58,5.51-21.25,5.45-37.13l2.31.45,38.78,7.68s-.89,12.21-.91,23.7v.29a22.31,22.31,0,0,0,16.09,21.57l9.16,2.62s14.24,40.66,17,82.42-25.89,59.91.22,143.38C253.59,644.13,72.44,590.37,82.39,568.06Z"/><path class="cls-17" d="M185.41,284.91s-.89,12.21-.91,23.7c-21.7-.61-33.17-20.41-37.87-31.38Z"/><path class="cls-4" d="M192.65,295.8s-51.34.84-51.38-31.14-6.68-53.41,26.1-55.31,39.16,10.31,41.77,21S206,294.75,192.65,295.8Z"/><path class="cls-14" d="M190.75,208.57s-14.06,37.52-35.63,43.07-30.93-.23-30.93-.23,16.55-13.15,20-36.1C144.17,215.31,180.15,190.71,190.75,208.57Z"/><path class="cls-14" d="M187.27,211.62s10.42,3.89,14.71,11.5a51.64,51.64,0,0,1,6.94,29.36s10.6-25.5-1.31-39.93C195,197.25,187.27,211.62,187.27,211.62Z"/><path class="cls-18" d="M181.48,276a12.89,12.89,0,0,0,10.63,4.32,9.43,9.43,0,0,0,7.91-5.22S189.54,272.54,181.48,276Z"/><path class="cls-15" d="M77.43,402.45a349.48,349.48,0,0,0,0,40.44c.87,14.62,15.66,34.21,17.76,39.05,5.26,12.15,11.2,14.13,11.2,14.13l45.94,11.26,16.15,3.95,50.94-15.21s23.2-64.76,13.89-101.21-23.55-61.77-23.55-61.77-41.57,40.7-95.69-3.45Z"/><path class="cls-19" d="M90.88,448.86c.86,14.62,2.21,28.24,4.31,33.08,5.26,12.15,11.2,14.13,11.2,14.13l45.94,11.26,19.95-5.86s-66.6-10.1-59.22-67.4Z"/><path class="cls-13" d="M216.18,505.9S241.41,584.42,243,611.15s-48.22,379.77-50.23,392.09c-1.89,11.61-16.31,19-16.31,19s-6.63,3.91-16.09,1.24c-13.13-3.71-17.28-8.14-17.28-8.14s-19.64-251.79-7.49-341.73a1425.55,1425.55,0,0,0,12.3-167.72Z"/><path class="cls-11" d="M109.3,503.56s-38.47,51.63-42.06,86.53S61.61,747.59,54,781.61s-35.72,99.5-35.72,205.62c0,0,2.91,6.09,11.93,9.33a99.56,99.56,0,0,0,10.49,2.9,16.5,16.5,0,0,0,18.45-8.76c19-38.22,79.45-161.5,82.55-187.09,2.2-18.11,21.29-138,62.94-208.29,10-16.89-6.14-84-6.14-84Z"/><path class="cls-9" d="M182.62,276.81s.89,3.77,10.27,3.19c0,0,7.87-.49,7.63-4.63C200.52,275.37,192.88,272.42,182.62,276.81Z"/><path class="cls-5" d="M220.21,493.78s-10.12,8-30.24,8.41c-24,.49-83.58-6.12-83.58-6.12a49.47,49.47,0,0,0-2.54,15.2s72.73,18.34,114.86,2.67C218.71,513.94,224.15,503.72,220.21,493.78Z"/><path class="cls-9" d="M184.77,510.49c0-6.84,4.92-12.41,11-12.41s11,5.57,11,12.41-4.92,12.41-11,12.41S184.77,517.34,184.77,510.49Zm3.63,0c0,4.84,3.29,8.78,7.33,8.78s7.33-3.94,7.33-8.78-3.29-8.77-7.33-8.77S188.4,505.65,188.4,510.49Z"/><rect class="cls-20" x="60.36" y="421.81" width="98.8" height="135.24" transform="matrix(-0.75, -0.66, 0.66, -0.75, -128.87, 930.61)"/><path class="cls-4" d="M123.2,508.22s27.3,3.19,27.21,9.67-6.8,19.8-10.17,20.39-22.22-18-22.22-18Z"/><path class="cls-15" d="M114.07,329.64s-36.45,2.55-50.42,36.51-40.48,91-40.48,100.58S38,505.9,117.5,522.9c0,0,8.23-8.65,7.73-15.49,0,0-49.64-42.64-49.51-47.62.25-9.43,8.14-21.87,51.72-65.47C139.29,382.47,114.07,329.64,114.07,329.64Z"/><path class="cls-1" d="M516.75,1064.66h-.34a3.62,3.62,0,0,1-3.63-3.71l5.5-238.4,16.2-1.89L520.67,1061A3.92,3.92,0,0,1,516.75,1064.66Z"/><path class="cls-2" d="M422.33,1064.66H422a3.62,3.62,0,0,1-3.63-3.71l5.5-238.4,16.2-1.89L426.25,1061A3.92,3.92,0,0,1,422.33,1064.66Z"/><path class="cls-1" d="M682.88,1064.66h.34a3.62,3.62,0,0,0,3.63-3.71l-5.5-238.4-16.2-1.89L679,1061A3.92,3.92,0,0,0,682.88,1064.66Z"/><path class="cls-1" d="M411.6,807.76V644.4a52,52,0,0,1,52-52h117.7a52.05,52.05,0,0,1,52,52V814Z"/><path class="cls-2" d="M411.6,807.76H654.49a0,0,0,0,1,0,0v25.79a0,0,0,0,1,0,0H427.23a15.63,15.63,0,0,1-15.63-15.63V807.76A0,0,0,0,1,411.6,807.76Z"/><rect class="cls-1" x="498.23" y="807.76" width="195.04" height="25.79" rx="11.56"/><path class="cls-5" d="M675,767.06C658.18,796.4,637,807.73,637,807.73H548.74S687.91,744.67,675,767.06Z"/><path class="cls-4" d="M607.28,994.12a8.14,8.14,0,0,0-1.45,8.72.06.06,0,0,0,0,0c2.1,5.81,9.06,12.31,17.13,18.79,1,.83,1.95,1.59,2.75,2.29l.62.56.47.42c7.53,7,4.7,8.54,18.23,22.62,15.42,16,26.05,16.34,29.07,14.88,2.55-1.25-2.64-9.76-8.39-19.33l-.84-1.39c-.77-1.27-1.53-2.57-2.29-3.84-6.75-11.52-5-16.92-3.41-34.06,1.29-13.93,21.66-77.8,21.66-77.8l-29.56-5.09s-8.91,50.86-18.71,58.69c-5.25,4.18-11.12,4.23-16.16,7.33q-.54.31-1,.66A38.87,38.87,0,0,0,607.28,994.12Z"/><path class="cls-5" d="M607.28,994.12a8.14,8.14,0,0,0-1.45,8.72.06.06,0,0,0,0,0c2.57,5.81,9.35,12.27,17.16,18.73,1,.85,1.92,1.63,2.72,2.35l.62.56.47.42c7.53,7,4.7,8.54,18.23,22.62,15.42,16,26.05,16.34,29.07,14.88,2.55-1.25-2.64-9.76-8.39-19.33a65.6,65.6,0,0,1-27.5-20.26c-9.29-11.85-15.49-27.08-21.81-35.9q-.54.31-1,.66A38.87,38.87,0,0,0,607.28,994.12Z"/><path class="cls-4" d="M845.66,975.65c1.82,9.13,14.83,7.61,29.36,4.06s11.08.67,31.76-1.62,27-10,27.58-13.08c.57-2.73-9.65-3.69-20.61-5l-4.15-.5c-12.38-1.55-21.44-9.54-32.68-16.1-10.65-6.21-26.54-31.52-26.54-31.52L822,914.19s14.89,22.6,20.65,32.43c3.38,5.78,3.2,13.43,2.78,19.33A36.24,36.24,0,0,0,845.66,975.65Z"/><path class="cls-5" d="M875,979.71c14.54-3.55,11.08.67,31.76-1.62s27-10,27.58-13.08c.57-2.73-9.65-3.69-20.61-5l-.11.21A58.36,58.36,0,0,1,884,969.48c-14,.34-28.89-3.68-38.58-3.53a36.24,36.24,0,0,0,.22,9.7C847.48,984.78,860.49,983.26,875,979.71Z"/><path class="cls-5" d="M737,794.29l-26.52,71.35L675.82,958.8a56,56,0,0,1-18.39-1.68c-8.28-2.4-17.78-8.66-17.78-8.66s9.61-100,27.54-157.45c4.6-14.74,9.75-26.66,15.43-33.37C710.42,724.78,737,794.29,737,794.29Z"/><path class="cls-21" d="M710,681c-17.37-5.6-66.92,1.59-116.69,11.34l-10.42-17.19-107.5-8.4s-35.48,78.67-16.05,128.79c2.85,7.37,8.52,12.1,18.19,12.25h1.57l84.76,0c53.46,0,113.14-36.75,120.86-38.3,12.64-2.53,17.7,22.75,30.33,49.29S833.84,936.24,833.84,936.24s16.32.16,23.06-2.36c7.24-2.72,9.9-6.25,9.9-6.25S749.17,693.61,710,681Z"/><path class="cls-5" d="M578.66,362.09c-13.77-7.23-34.72-8.21-38.13-8.67-40.74-5.47-65.25,53.72-66.69,71.66-2.66,33.06-20.15,38.1-44.77,58.8-49.36,41.52-34.88,89.76-7.89,107.68,16.19,10.76,44.73,0,44.73,0,.41.29,78.07-43.41,116.35-64.49C639.65,518.91,613.75,380.52,578.66,362.09Z"/><path class="cls-4" d="M550.17,509.13c.17.11-18.83,6.6-31.54,1-11.95-5.28-21-25-20.83-25,5.44-.25,11.41-5,16-36.2l2.32.83,38.93,14s-2.82,12.49-4.64,24.38C548.87,498.15,548.05,507.72,550.17,509.13Z"/><path class="cls-7" d="M555.05,463.78s-2.82,12.49-4.64,24.38c-22.37-4-31.14-26.3-34.29-38.39Z"/><path class="cls-4" d="M560.85,476.18s-53.27-7.15-48.3-40.26S514,379.6,548.2,382.77s38.92,16.78,39.95,28.23S574.84,477.18,560.85,476.18Z"/><path class="cls-5" d="M586.21,392.86s-34.1,29.38-57.3,31.75-32-5.07-32-5.07a90.49,90.49,0,0,0,21.89-29.67,16.33,16.33,0,0,1,13.45-9.62C548.84,378.82,580.24,378.17,586.21,392.86Z"/><path class="cls-5" d="M564.89,390.23s11.41,11,15,19.21c3.47,7.89,4.51,26.77,1.75,34.27,0,0,17.77-34.56,7.71-51.35C578.68,374.56,564.89,390.23,564.89,390.23Z"/><path class="cls-9" d="M595,587.6c-1.61,107.83-.44,85.3-12.24,95.53-2.84,2.46-10.83,3.93-21.35,4.62-33.06,2.2-91.18-3.25-93.39-9.36-7.63-21.14-2.25-27.71-8.61-60.08-.66-3.44-1.48-7.17-2.45-11.23-5.3-22.23-10.47-29.79,8.36-65.51,17.06-32.35,34.8-58.61,36.39-57.66,45,26.73,48.67,4.26,48.67,4.26S595.82,535,595,587.6Z"/><path class="cls-21" d="M710.44,865.64,675.82,958.8a56,56,0,0,1-18.39-1.68c-8.28-2.4-17.78-8.66-17.78-8.66s9.61-100,27.54-157.45Z"/><path class="cls-9" d="M550.41,488.16S596.74,496,602.19,516s37.46,137.24,37.46,137.24-23.56,4.23-34.44-6.65-37.87-101-37.87-101Z"/><path class="cls-22" d="M561.44,687.75c-33.06,2.2-91.18-3.25-93.39-9.36-7.63-21.14-2.25-27.71-8.61-60.08l15.95-44.91s-2.64,50,12.11,63.16,60.38,25.39,67.55,36.38C558.51,678.22,560.78,683.51,561.44,687.75Z"/><path class="cls-4" d="M523.56,666.72s32.62-7.26,37.88-4.37,18.13,13.44,19.74,17.11-11.72-2.79-16-4c-2.81-.75-10.2,1.82-13.86,3-15.39,5.13-24.83,2.49-24.83,2.49Z"/><path class="cls-9" d="M501.71,483.88s-43.8,2.7-59,23.85c-21.34,29.77-63.68,156.64-39.42,173.56,27.33,19.05,124.38,5,124.38,5s3.23-15.09-1.27-22.39-77.51-19.1-80.88-22.47,42.13-65.72,42.13-75.83S501.71,483.88,501.71,483.88Z"/><path class="cls-4" d="M563,671.43s6.84,8.82,9.08,9.87a6.69,6.69,0,0,0,3.68.79l-4.6-8.29Z"/><path class="cls-4" d="M561.44,662.35,581.31,672s-.84,1.39-3.29,1.27-8.62-2.36-8.62-2.36Z"/><polygon class="cls-11" points="572.1 694.81 729.29 694.81 776.57 577.22 619.63 577.22 572.1 694.81"/><polygon class="cls-13" points="731.13 690.23 523.56 690.23 523.56 694.81 729.29 694.81 731.13 690.23"/><path class="cls-9" d="M689.61,636c1.18-4.13-1.21-7.48-5.34-7.48a10.71,10.71,0,0,0-9.63,7.48c-1.19,4.14,1.2,7.49,5.34,7.49S688.42,640.15,689.61,636Z"/><path class="cls-23" d="M1393.08,1069h.46a5,5,0,0,0,4.79-5.2L1391.06,730l-21.43-2.64,18.27,336.46A5.33,5.33,0,0,0,1393.08,1069Z"/><path class="cls-23" d="M524.34,1069h-.46a5,5,0,0,1-4.79-5.2L526.36,730l21.43-2.64-18.28,336.46A5.31,5.31,0,0,1,524.34,1069Z"/><rect class="cls-23" x="488.53" y="695.88" width="943.94" height="40.28" rx="13.6"/><path class="cls-24" d="M302.34,123.79C298.88,38.08,370.72,0,444.17,0S597.56,19,604.49,133c4.45,73.32-34.63,118.43-147.18,118.43-38,0-67.46-6-90.05-16.66l-56.26,50,27.65-69.1C314.15,192.89,303.84,160.77,302.34,123.79Z"/><path class="cls-5" d="M1971.84,1068.65s2.07-16.1,6.85-25.67,35.25-3.48,35.25-3.48,6.09,5.22,7.4,29.59Z"/><path class="cls-5" d="M1868.06,1068.43c7.16-4.36,3.08-37,3.08-37s-33.35-26.69-37.93-6.26-31.69,29.6-47.11,32.1c-10.65,1.73-13.95,7.63-15,11.11Z"/><path class="cls-25" d="M1937.14,831.39a153.83,153.83,0,0,0-2.45,18c-3.1,60.47-50.9,198.75-59.45,202-13.23,5-34.07-5.62-45-9.09-4.52-1.44-7.56-6-6.56-10.62,23.67-108.84,32.38-265.56,35.54-358.34,1.6-46.74,9.62-79,9.62-79s116.6-31.11,117.29,8.24C1986.78,637.37,1947.54,774,1937.14,831.39Z"/><path class="cls-5" d="M1937.14,831.39l-77.89-158.06c1.6-46.74,9.62-79,9.62-79s116.6-31.11,117.29,8.24C1986.78,637.37,1947.54,774,1937.14,831.39Z"/><path class="cls-25" d="M1911.2,602.69l61.64,446.73s27.07,6.53,48.12,1.31c0,0,18-237.59,16.54-295s12.95-153.71-3.3-164.32S1911.2,602.69,1911.2,602.69Z"/><path class="cls-15" d="M2046.22,595.25a8.56,8.56,0,0,1-6.18,8.83c-8.6,2.5-18.51,4.23-37.63,8.19a364.58,364.58,0,0,1-71.8,7.22c-47.21.3-65.09-16-65.09-16-2,0,1.07-9.85,3.87-56.83.95-15.92,1.87-36.09,2.53-61.59.59-22.94,1-50.2,1-82.53,0-38.9,60.26-80.74,61.37-80.74v0c0,5.6,8.83,15.93,22.42,16.82,16.14,1.06,35.94-7,35.94-16.26,0-.1,29.17,46.66,39.53,96.48C2037.45,444,2035.33,443.29,2046.22,595.25Z"/><path class="cls-15" d="M1934.32,321.83s-56-.47-69.46,18.42-43,120.55-27.6,154.37,44.27-14,60.28-34.71S1934.32,321.83,1934.32,321.83Z"/><path class="cls-4" d="M1933.75,313.29l0,5.78s-1.57,18.1,20.71,20.74,38.83-3.37,38.23-17.34c-2-10.82-3.87-21.92-4-30.87a62.52,62.52,0,0,1,.79-10.84l-43.18-.86L1933.59,282Z"/><path class="cls-26" d="M1933.59,282l.16,31.31a36.57,36.57,0,0,0,15.57,3.43c19.85,0,32.67-14.55,39.38-25.12a62.52,62.52,0,0,1,.79-10.84l-43.18-.86Z"/><path class="cls-4" d="M1992.8,273.82c-5,27-39.81,26.08-54.84,24.38-4.24-.47-6.9-1-6.9-1-4.77-1.27-7.43-8.79-8.67-18.63-2.45-19.49.65-48.09,3.94-55.4,5-11,14.28-22.91,49.32-14.32S1999.23,239.26,1992.8,273.82Z"/><path class="cls-16" d="M1877.07,397.59s-21.65,47.81-21,62.15a74.66,74.66,0,0,1,21,2.7C1894,467.49,1877.07,397.59,1877.07,397.59Z"/><path class="cls-5" d="M1915.58,197.49a115.74,115.74,0,0,0,33.61-9.09c14.77-6.42,33.4.65,39.44,3.83a9.05,9.05,0,0,0-1.47-3.64s2.71,1.93,3.11,4.62c.28.21.41.35.33.39s3.08-.56,5.06.33c0,0-1.38-.2-1.88.69a.75.75,0,0,1-.22.25c23,11.13,25.16,47.53,17.75,55.95-8.92,10.14-22.39,33.07-22.39,33.07s-1.12-5.5.5-14.42-6.08-8.92-15.81-13-1.62-15.41-10.13-22.3-39.73-2.83-39.32-8.1C1912.57,221.88,1915.58,198.68,1915.58,197.49Z"/><path class="cls-16" d="M1999.86,487.16c-9.14,36.71-108,55.67-130.47,59.53.95-15.92,1.87-36.09,2.53-61.59Z"/><path class="cls-4" d="M1978.16,499.09c.94,0,22-3.14,25.74-5s21-26.37,9.71-32.65S1972,480.25,1972,480.25Z"/><path class="cls-15" d="M1850.23,506.37s81.35,4.41,135.94-7.28c0,0,1.38-15.77-15.78-22.78,0,0-85.09-18-105.53-13S1850.23,506.37,1850.23,506.37Z"/><path class="cls-15" d="M2037,442.53c-16.88,20.35-39,37-63.28,40.86h0a45.33,45.33,0,0,1-6-27.17,54.39,54.39,0,0,1,8.85-24.94,54.47,54.47,0,0,0,4.79-9.64c13.29-33.9,11.31-99.23,11.31-99.23s56.42,5.9,74,31C2077.45,368.81,2063.72,410.34,2037,442.53Z"/><path class="cls-26" d="M1938,298.2c-4.24-.47-6.9-1-6.9-1-4.77-1.27-7.43-8.79-8.67-18.63,8.95,2.2,13,9.11,14.76,12.06C1937.92,291.94,1938.08,294.91,1938,298.2Z"/><path class="cls-4" d="M1915.23,313.45s-19.49-32.15-4.34-33.55,21.24,8.86,23.43,12.63-.57,20.76-.57,20.76Z"/><path class="cls-15" d="M1989.49,455.14a41.89,41.89,0,0,1-3.32,11.16,53.4,53.4,0,0,1-12.41,17.09h0c-50.61-22.84-60.85-101.28-62.56-144.38-.69-17.32,0-28.94,0-28.94,22.83-7.56,29.24,5.58,29.24,5.58s27,64.1,40.94,106C1986.73,437.67,1990.17,450.45,1989.49,455.14Z"/><path class="cls-16" d="M2037,442.53c-16.88,20.35-39,37-63.28,40.86h0c-50.61-22.84-60.85-101.28-62.56-144.38,0,0,23.94,86.85,56.54,117.21,5.89,5.49,12.06,9.14,18.43,10.08,0,0,41.1-11.61,49.72-22.55A4.69,4.69,0,0,1,2037,442.53Z"/><polygon class="cls-21" points="1115.33 695.88 958.14 695.88 910.86 578.3 1067.8 578.3 1115.33 695.88"/><polygon class="cls-21" points="956.3 691.3 1163.87 691.3 1163.87 695.88 958.14 695.88 956.3 691.3"/><path class="cls-9" d="M997.82,637.09c-1.18-4.13,1.21-7.49,5.34-7.49s8.44,3.36,9.63,7.49-1.2,7.48-5.34,7.48A10.73,10.73,0,0,1,997.82,637.09Z"/></g></g></svg>