<svg xmlns="http://www.w3.org/2000/svg" xmlns:xlink="http://www.w3.org/1999/xlink" viewBox="0 0 795.07 470.13"><defs><style>.cls-1{fill:#175db8;}.cls-2{fill:#53b1fb;}.cls-3{fill:#ff7e33;}.cls-4{fill:#ffbc47;}.cls-5{isolation:isolate;}.cls-6{clip-path:url(#clip-path);}.cls-7{clip-path:url(#clip-path-2);}.cls-8{clip-path:url(#clip-path-3);}.cls-9{clip-path:url(#clip-path-4);}.cls-10{clip-path:url(#clip-path-5);}.cls-11{clip-path:url(#clip-path-6);}.cls-12{fill:#fea086;}.cls-13{fill:#2c4482;}.cls-14{fill:#07495c;}.cls-15{fill:#042c37;}.cls-16{fill:#c6d9ff;}.cls-17{fill:#5177a8;}.cls-18{fill:#f59d83;}.cls-19{fill:#1657ab;}.cls-20{fill:#fff;}.cls-21{fill:#4b71db;}</style><clipPath id="clip-path"><path class="cls-1" d="M205.46,335.66h21.13q-13.71,0-21,12.15-5.52,9-5.52,28.33,0,23.92,6.58,32.79t18.5,8.88H204q-11.91,0-18.5-8.88T179,376.14q0-19.31,5.51-28.33Q191.77,335.66,205.46,335.66Z"/></clipPath><clipPath id="clip-path-2"><path class="cls-1" d="M204.48,302.38h21.13q24.64,0,38.74,11t20.94,33.76H264.16q-6.84-22.75-20.94-33.76T204.48,302.38Z"/></clipPath><clipPath id="clip-path-3"><path class="cls-1" d="M265.41,401.61h21.13Q283,418,275.34,429a49.9,49.9,0,0,1-19,16.59q-11.34,5.6-28.87,5.59H206.35q17.52,0,28.87-5.59a49.8,49.8,0,0,0,19-16.59Q261.85,418,265.41,401.61Z"/></clipPath><clipPath id="clip-path-4"><path class="cls-1" d="M347.16,336.05h21.13a23.56,23.56,0,0,0-19.58,9.52q-7.36,9.53-7.38,31.5,0,21.8,7.34,31.31t20,9.53H347.51q-12.63,0-20-9.53t-7.34-31.31q0-22,7.38-31.5A23.56,23.56,0,0,1,347.16,336.05Z"/></clipPath><clipPath id="clip-path-5"><path class="cls-1" d="M347.25,302.38h21.13q32.55,0,50.16,19.29H397.41Q379.8,302.4,347.25,302.38Z"/></clipPath><clipPath id="clip-path-6"><path class="cls-1" d="M397.41,321.67h21.13q17.61,19.29,17.61,54,0,25.23-7.69,41.37a58.34,58.34,0,0,1-22.23,25.13q-14.55,9-36.25,9H348.85q21.7,0,36.25-9a58.34,58.34,0,0,0,22.23-25.13Q415,400.93,415,375.7,415,341,397.41,321.67Z"/></clipPath></defs><title>Welcome</title><g id="Layer_2" data-name="Layer 2"><g id="Hand_with_phone" data-name="Hand with phone"><path class="cls-2" d="M738.14,226.85c-2.53-6.11-7.75-6.07-13.57-6.74-2.87-.34-6.77-1.21-5-4.27.78-1.37,3.41-2.84,4.64-3.87l11.52-9.61c10.71-8.93,30.19-20.22,29.71-35.91-.19-6-3.42-11.18-9.34-12.81-6.81-1.87-14,1.47-20.87.31,7.39-13.32,22.83-35.79,8-47.62-5.52-4.41-12.9-3.26-17.93,1.9-7.75,8-7.42,22.21-17.1,28.38-8.55,5.46-15.39-5-23.75-4.57-7.07.39-10.61,7.34-10.29,13.62.25,4.88,2.8,9,4.86,13.23,2.78,5.69,5.76,18.69-5,18.53-7.45-.1-14.31-5.24-20.87,1.44-6.89,7-4.85,17.17-2,25,2.19,6,4.68,12,3.36,18.68s-5.46,12.22-10.1,17c-1.61,1.68,1.19,3.76,2.81,2.09,5.28-5.49,9.76-12,11-19.56,1.35-8.42-2.59-15.53-4.93-23.21-1.59-5.19-2.13-11.49,1.36-16.38,3.84-5.4,9.51-3.47,14.6-2.28,5.33,1.24,10.94,1.1,14.27-4.18,4.52-7.17.72-14.91-2.49-21.33-2.64-5.27-5.53-12.14-.25-17.08,4.13-3.87,8.57-1,12.67,1.08,5.19,2.62,10.6,4.42,16.2,1.07,7.18-4.28,9.56-12.76,12.58-19.83,2.6-6.08,8.11-15.41,16.14-12.4,5.74,2.15,8,9,7.31,14.69-1.34,11.1-9.51,22.44-14.69,32.26a1.71,1.71,0,0,0,.92,2.29c5.71,1.76,11.17.34,17-.07,4.87-.34,9.6.4,11.9,5.12,2.43,5,.57,11.06-2.54,15.51-5.32,7.62-14,13.35-21.11,19.27l-22,18.31a1.82,1.82,0,0,0-.73,1.63c1.37,6.79,7.48,6.5,13.24,7.21,7.12.87,9.78,7.85,6.53,14.25-2.68,5.27-8.58,8.29-13.73,10.55a318,318,0,0,1-54,17.7c-2.25.52-1.91,4,.35,3.5a372.42,372.42,0,0,0,47.85-15.1C725.81,250.42,744.36,241.84,738.14,226.85Z"/><path class="cls-2" d="M707.56,164.28c-.13-2.27-3.7-1.75-3.56.51,2.13,36-21.07,67.14-49.19,88.77a1.74,1.74,0,1,0,2.1,2.77C686.11,233.88,709.78,201.53,707.56,164.28Z"/><path class="cls-3" d="M626.73,48.2s-47.8,29.27-25.18,76.88C601.55,125.08,648.17,113.56,626.73,48.2Z"/><path class="cls-3" d="M523.35,142s49.74,25.65,78.57-18.55C601.92,123.47,567.9,89.58,523.35,142Z"/><path class="cls-3" d="M669.9,117.71s-55,10.32-50.8,62.91C619.1,180.62,666.74,186.47,669.9,117.71Z"/><path class="cls-3" d="M540.05,168.58s37.36,41.72,80,10.67C620,179.25,600.27,135.43,540.05,168.58Z"/><path class="cls-3" d="M684.94,183.92s-55.89-3-64.16,49.14C620.78,233.06,665.68,250,684.94,183.92Z"/><path class="cls-3" d="M546.82,202.65S573.29,252,622,231.94C622,231.94,613.13,184.67,546.82,202.65Z"/><path class="cls-3" d="M684,252.68S629.71,239,611.56,288.5C611.56,288.5,652.34,313.83,684,252.68Z"/><path class="cls-3" d="M544.87,244.35S561.32,298,613,287.64C613,287.64,613.37,239.53,544.87,244.35Z"/><path class="cls-3" d="M604.81,128.15c-14-28.79-31.53-41.21-31.71-41.33l-.94,1.36c.17.12,17.44,12.35,31.22,40.8,12.73,26.27,25,72.14,11.22,141.46-9.18,46.13-26.85,72.25-43.93,97.52-4.07,6-8.06,11.92-11.83,18h1.95c3.59-5.73,7.38-11.34,11.24-17.05,16.38-24.21,34.94-51.66,44.19-98.12C630.11,200.92,617.69,154.66,604.81,128.15Z"/><path class="cls-3" d="M515.23,23.36s4.28,59.34,59.37,66.33C574.6,89.69,586.24,41.52,515.23,23.36Z"/><path class="cls-4" d="M64.21,93.14s45.41,6.5,43.84,49.62C108.05,142.76,69.28,149.2,64.21,93.14Z"/><path class="cls-4" d="M172.3,130.14s-29.07,35.4-65.05,11.53C107.25,141.67,121.83,105.17,172.3,130.14Z"/><path class="cls-4" d="M54.29,159.36s44.7-10.07,58.56,30.82C112.85,190.18,79,210,54.29,159.36Z"/><path class="cls-4" d="M168.36,155.51S153.8,199,111.72,189.45C111.72,189.45,112.36,150.12,168.36,155.51Z"/><path class="cls-4" d="M64.44,214s41-20.35,64.14,16.14C128.58,230.13,100.34,257.42,64.44,214Z"/><path class="cls-4" d="M174.31,183.31s-3.89,45.7-47,46.38C127.31,229.69,118.65,191.29,174.31,183.31Z"/><path class="cls-4" d="M87.46,265.36s36.32-27.91,66,3.45C153.48,268.81,131,301.06,87.46,265.36Z"/><path class="cls-4" d="M189.29,214s5,45.62-37.15,54.6C152.14,268.62,136.25,232.6,189.29,214Z"/><path class="cls-4" d="M211.11,240.58s15.58,43.18-23.25,61.84C187.86,302.42,164,271.12,211.11,240.58Z"/><path class="cls-4" d="M124.87,314s28-36.39,64.64-13.75C189.51,300.22,176,337.22,124.87,314Z"/><path class="cls-4" d="M249.39,348.39l2.26.53c-12.53-15-26.72-24.07-41.69-33.65-21-13.45-42.77-27.35-64.62-59-32.83-47.62-38.46-86.07-37.41-109.94,1.15-25.85,10.16-40.63,10.25-40.78l-1.15-.72c-.09.15-9.27,15.17-10.44,41.34C105.5,170.21,111.16,209,144.23,257c22,31.92,44.85,46.53,65,59.42C223.6,325.6,237.25,334.34,249.39,348.39Z"/><path class="cls-4" d="M140,38.34s16,46-23.13,69.08C116.83,107.42,92.48,75,140,38.34Z"/><g class="cls-5"><path class="cls-1" d="M205.46,335.66h21.13q-13.71,0-21,12.15-5.52,9-5.52,28.33,0,23.92,6.58,32.79t18.5,8.88H204q-11.91,0-18.5-8.88T179,376.14q0-19.31,5.51-28.33Q191.77,335.66,205.46,335.66Z"/><g class="cls-6"><g class="cls-5"><path class="cls-1" d="M205.46,335.66h21.13a22.75,22.75,0,0,0-15.89,5.81H189.57a22.75,22.75,0,0,1,15.89-5.81Z"/><path class="cls-1" d="M189.57,341.47H210.7a23.73,23.73,0,0,0-1.92,2H187.65a23.73,23.73,0,0,1,1.92-2Z"/><path class="cls-1" d="M187.65,343.43h21.13c-.52.58-1,1.19-1.49,1.84H186.16c.48-.65,1-1.26,1.49-1.84Z"/><path class="cls-1" d="M186.16,345.27h21.13c-.45.61-.88,1.24-1.3,1.91H184.86c.42-.67.85-1.3,1.3-1.91Z"/><path class="cls-1" d="M184.86,347.18H206c-.13.21-.27.42-.39.63-.22.36-.43.72-.64,1.1H183.83c.21-.38.42-.74.63-1.1.13-.21.26-.42.4-.63Z"/><path class="cls-1" d="M183.83,348.91H205c-.25.48-.5,1-.74,1.49H183.09c.24-.52.49-1,.74-1.49Z"/><path class="cls-1" d="M183.09,350.4h21.13c-.24.54-.48,1.1-.71,1.68H182.38c.23-.58.46-1.14.71-1.68Z"/><path class="cls-1" d="M182.38,352.08h21.13c-.24.63-.48,1.29-.69,2H181.68c.22-.68.45-1.34.7-2Z"/><path class="cls-1" d="M181.68,354.05h21.14q-.37,1.14-.69,2.37H181c.21-.82.44-1.61.68-2.37Z"/><path class="cls-1" d="M181,356.42h21.13c-.24.94-.47,1.93-.67,2.95H180.33c.2-1,.43-2,.67-2.95Z"/><path class="cls-1" d="M180.33,359.37h21.13q-.36,1.86-.63,3.9H179.7q.27-2,.63-3.9Z"/><path class="cls-1" d="M179.7,363.27h21.13c-.22,1.71-.4,3.51-.52,5.41H179.18c.12-1.9.3-3.7.52-5.41Z"/><path class="cls-1" d="M179.18,368.68h21.13c-.15,2.35-.23,4.83-.23,7.46v1.14H179v-1.14c0-2.63.08-5.11.23-7.46Z"/><path class="cls-1" d="M179,377.28h21.13c0,3.93.19,7.54.5,10.84H179.44q-.45-5-.49-10.84Z"/><path class="cls-1" d="M179.44,388.12h21.14a78.08,78.08,0,0,0,1.21,8.51H180.66a78,78,0,0,1-1.22-8.51Z"/><path class="cls-1" d="M180.66,396.63h21.13a32.84,32.84,0,0,0,4.42,11.67H185.08a32.84,32.84,0,0,1-4.42-11.67Z"/><path class="cls-1" d="M185.08,408.3h21.13c.15.21.3.43.45.63.39.53.8,1,1.21,1.51H186.74c-.42-.48-.82-1-1.21-1.51-.15-.2-.3-.42-.45-.63Z"/><path class="cls-1" d="M186.74,410.44h21.13c.47.53.95,1,1.45,1.5H188.18c-.49-.47-1-1-1.44-1.5Z"/><path class="cls-1" d="M188.18,411.94h21.14c.41.4.84.78,1.28,1.14H189.47q-.66-.54-1.29-1.14Z"/><path class="cls-1" d="M189.47,413.08H210.6c.4.32.81.62,1.23.91H190.7c-.42-.29-.83-.59-1.23-.91Z"/><path class="cls-1" d="M190.7,414h21.13c.4.28.8.53,1.21.78H191.91c-.41-.25-.81-.5-1.21-.78Z"/><path class="cls-1" d="M191.91,414.77H213c.4.23.81.46,1.23.67H193.14c-.42-.21-.83-.44-1.23-.67Z"/><path class="cls-1" d="M193.14,415.44h21.13c.42.21.85.4,1.28.58H194.42c-.44-.18-.86-.37-1.28-.58Z"/><path class="cls-1" d="M194.42,416h21.13c.45.19.9.36,1.37.52H195.79c-.47-.16-.92-.33-1.37-.52Z"/><path class="cls-1" d="M195.79,416.54h21.13c.49.16,1,.31,1.49.45H197.28c-.51-.14-1-.29-1.49-.45Z"/><path class="cls-1" d="M197.28,417h21.13c.55.14,1.12.27,1.69.37H199c-.57-.1-1.14-.23-1.69-.37Z"/><path class="cls-1" d="M199,417.36H220.1c.65.12,1.31.22,2,.29H201c-.67-.07-1.33-.17-2-.29Z"/><path class="cls-1" d="M201,417.65h21.13c.79.08,1.6.13,2.44.15H203.39c-.84,0-1.65-.07-2.44-.15Z"/><path class="cls-1" d="M203.39,417.8h0Z"/></g></g></g><polygon class="cls-1" points="264.16 347.14 285.3 347.14 249.72 355.88 228.58 355.88 264.16 347.14"/><g class="cls-5"><path class="cls-1" d="M204.48,302.38h21.13q24.64,0,38.74,11t20.94,33.76H264.16q-6.84-22.75-20.94-33.76T204.48,302.38Z"/><g class="cls-7"><g class="cls-5"><path class="cls-1" d="M204.48,302.38h21.13q1.14,0,2.25,0H206.73q-1.11,0-2.25,0Z"/><path class="cls-1" d="M206.73,302.41h21.13q4.08.07,7.87.48H214.6q-3.79-.4-7.87-.48Z"/><path class="cls-1" d="M214.6,302.89h21.13c2,.22,4,.5,5.94.86H220.54c-1.92-.36-3.9-.64-5.94-.86Z"/><path class="cls-1" d="M220.54,303.75h21.13c1.62.3,3.2.65,4.73,1.05H225.27c-1.53-.4-3.11-.75-4.73-1.05Z"/><path class="cls-1" d="M225.27,304.8H246.4c1.37.36,2.69.76,4,1.19H229.25c-1.29-.43-2.61-.83-4-1.19Z"/><path class="cls-1" d="M229.25,306h21.13c1.18.4,2.33.84,3.45,1.31H232.7c-1.12-.47-2.27-.91-3.45-1.31Z"/><path class="cls-1" d="M232.7,307.3h21.13c1.06.44,2.08.91,3.08,1.4H235.78c-1-.49-2-1-3.08-1.4Z"/><path class="cls-1" d="M235.78,308.7h21.13c1,.49,1.9,1,2.81,1.53H238.59c-.91-.53-1.85-1-2.81-1.53Z"/><path class="cls-1" d="M238.59,310.23h21.13c.91.54,1.79,1.1,2.64,1.69H241.23c-.85-.59-1.73-1.15-2.64-1.69Z"/><path class="cls-1" d="M241.23,311.92h21.13c.68.47,1.34,1,2,1.46l.62.49H243.84l-.62-.49c-.65-.5-1.31-1-2-1.46Z"/><path class="cls-1" d="M243.84,313.87H265c1,.81,2,1.65,2.9,2.55H246.74c-.94-.9-1.91-1.74-2.9-2.55Z"/><path class="cls-1" d="M246.74,316.42h21.13c1.12,1.06,2.19,2.18,3.23,3.37H250c-1-1.19-2.11-2.31-3.23-3.37Z"/><path class="cls-1" d="M250,319.79H271.1a57,57,0,0,1,4.15,5.4H254.12a57,57,0,0,0-4.15-5.4Z"/><path class="cls-1" d="M254.12,325.19h21.13a79.41,79.41,0,0,1,10,21.95H264.16a79.41,79.41,0,0,0-10-21.95Z"/></g></g></g><polygon class="cls-1" points="230.1 389.83 251.23 389.83 286.54 401.61 265.41 401.61 230.1 389.83"/><g class="cls-5"><path class="cls-1" d="M265.41,401.61h21.13Q283,418,275.34,429a49.9,49.9,0,0,1-19,16.59q-11.34,5.6-28.87,5.59H206.35q17.52,0,28.87-5.59a49.8,49.8,0,0,0,19-16.59Q261.85,418,265.41,401.61Z"/><g class="cls-8"><g class="cls-5"><path class="cls-1" d="M265.41,401.61h21.13c-.29,1.34-.6,2.65-.93,3.94H264.48c.33-1.29.64-2.6.93-3.94Z"/><path class="cls-1" d="M264.48,405.55h21.13q-.71,2.71-1.53,5.27H263q.82-2.55,1.53-5.27Z"/><path class="cls-1" d="M263,410.82h21.13c-.5,1.58-1.05,3.11-1.62,4.59H261.32q.87-2.22,1.63-4.59Z"/><path class="cls-1" d="M261.32,415.41h21.14q-.82,2.11-1.74,4.11H259.59c.61-1.33,1.19-2.7,1.73-4.11Z"/><path class="cls-1" d="M259.59,419.52h21.13c-.6,1.29-1.23,2.55-1.88,3.76H257.71c.65-1.21,1.28-2.47,1.88-3.76Z"/><path class="cls-1" d="M257.71,423.28h21.13c-.66,1.23-1.35,2.41-2.07,3.55H255.64c.72-1.14,1.41-2.32,2.07-3.55Z"/><path class="cls-1" d="M255.64,426.83h21.13c-.47.74-.94,1.46-1.43,2.16l-.95,1.33H253.25c.33-.44.64-.88.95-1.33q.74-1,1.44-2.16Z"/><path class="cls-1" d="M253.25,430.32h21.14q-1.42,1.92-3,3.67H250.29q1.54-1.75,3-3.67Z"/><path class="cls-1" d="M250.29,434h21.13a53.35,53.35,0,0,1-3.94,4H246.34a51.61,51.61,0,0,0,3.95-4Z"/><path class="cls-1" d="M246.34,438h21.14a48.77,48.77,0,0,1-11.13,7.58q-11.34,5.6-28.87,5.59H206.35q17.52,0,28.87-5.59A48.49,48.49,0,0,0,246.34,438Z"/></g></g></g><g class="cls-5"><path class="cls-1" d="M347.16,336.05h21.13a23.56,23.56,0,0,0-19.58,9.52q-7.36,9.53-7.38,31.5,0,21.8,7.34,31.31t20,9.53H347.51q-12.63,0-20-9.53t-7.34-31.31q0-22,7.38-31.5A23.56,23.56,0,0,1,347.16,336.05Z"/><g class="cls-9"><g class="cls-5"><path class="cls-1" d="M347.16,336.05h21.13a23.44,23.44,0,0,0-16.38,6.05H330.78a23.44,23.44,0,0,1,16.38-6.05Z"/><path class="cls-1" d="M330.78,342.1h21.13a26.11,26.11,0,0,0-2,2H328.76a26.11,26.11,0,0,1,2-2Z"/><path class="cls-1" d="M328.76,344.15h21.13c-.4.46-.79.93-1.18,1.42l-.29.39H327.29l.29-.39c.38-.49.78-1,1.18-1.42Z"/><path class="cls-1" d="M327.29,346h21.13c-.34.46-.67.94-1,1.44H326.31c.31-.5.64-1,1-1.44Z"/><path class="cls-1" d="M326.31,347.4h21.13c-.31.48-.6,1-.89,1.52H325.42c.29-.53.58-1,.89-1.52Z"/><path class="cls-1" d="M325.42,348.92h21.13c-.28.53-.56,1.08-.82,1.65H324.6c.26-.57.53-1.12.82-1.65Z"/><path class="cls-1" d="M324.6,350.57h21.13c-.28.6-.54,1.22-.79,1.86H323.81c.25-.64.51-1.26.79-1.86Z"/><path class="cls-1" d="M323.81,352.43h21.13c-.27.69-.52,1.41-.76,2.15H323.05c.24-.74.49-1.46.76-2.15Z"/><path class="cls-1" d="M323.05,354.58h21.13c-.26.82-.51,1.66-.73,2.54H322.31c.23-.88.48-1.72.74-2.54Z"/><path class="cls-1" d="M322.31,357.12h21.14c-.26,1-.5,2.05-.71,3.13H321.61c.21-1.08.45-2.12.7-3.13Z"/><path class="cls-1" d="M321.61,360.25h21.13c-.25,1.29-.47,2.63-.65,4H321c.18-1.4.4-2.74.65-4Z"/><path class="cls-1" d="M321,364.28h21.13q-.34,2.61-.53,5.49H320.43q.18-2.88.53-5.49Z"/><path class="cls-1" d="M320.43,369.77h21.13q-.22,3.47-.23,7.3v.86H320.2v-.86q0-3.84.23-7.3Z"/><path class="cls-1" d="M320.2,377.93h21.13c0,3.09.16,6,.41,8.7H320.61q-.37-4.06-.41-8.7Z"/><path class="cls-1" d="M320.61,386.63h21.13a67.25,67.25,0,0,0,1.12,7.76H321.73a67.25,67.25,0,0,1-1.12-7.76Z"/><path class="cls-1" d="M321.73,394.39h21.13a35.56,35.56,0,0,0,5,12.88H326.74a35.38,35.38,0,0,1-5-12.88Z"/><path class="cls-1" d="M326.74,407.27h21.13c.26.38.53.76.8,1.11s.71.89,1.07,1.3H328.61c-.37-.41-.72-.85-1.07-1.3s-.54-.73-.8-1.11Z"/><path class="cls-1" d="M328.61,409.68h21.13c.53.61,1.08,1.19,1.65,1.73H330.26c-.57-.54-1.12-1.12-1.65-1.73Z"/><path class="cls-1" d="M330.26,411.41h21.13c.48.46,1,.88,1.47,1.29H331.73c-.5-.41-1-.83-1.47-1.29Z"/><path class="cls-1" d="M331.73,412.7h21.13c.45.36.91.71,1.38,1H333.11c-.47-.32-.93-.67-1.38-1Z"/><path class="cls-1" d="M333.11,413.73h21.13c.44.3.89.59,1.35.86H334.46c-.46-.27-.91-.56-1.35-.86Z"/><path class="cls-1" d="M334.46,414.59h21.13c.44.27.9.51,1.36.74H335.82c-.47-.23-.92-.47-1.36-.74Z"/><path class="cls-1" d="M335.82,415.33H357c.46.24.93.45,1.4.65H337.22c-.47-.2-.94-.41-1.4-.65Z"/><path class="cls-1" d="M337.22,416h21.13c.49.2,1,.39,1.5.56H338.72c-.51-.17-1-.36-1.5-.56Z"/><path class="cls-1" d="M338.72,416.54h21.13c.53.18,1.07.35,1.62.49H340.34c-.55-.14-1.09-.31-1.62-.49Z"/><path class="cls-1" d="M340.34,417h21.13c.59.16,1.2.29,1.82.41H342.16c-.62-.12-1.23-.25-1.82-.41Z"/><path class="cls-1" d="M342.16,417.44h21.13c.68.12,1.39.22,2.1.3H344.26c-.71-.08-1.42-.18-2.1-.3Z"/><path class="cls-1" d="M344.26,417.74h21.13c.84.09,1.7.14,2.57.16H346.83c-.87,0-1.73-.07-2.57-.16Z"/><path class="cls-1" d="M346.83,417.9h0Z"/></g></g></g><g class="cls-5"><path class="cls-1" d="M347.25,302.38h21.13q32.55,0,50.16,19.29H397.41Q379.8,302.4,347.25,302.38Z"/><g class="cls-10"><g class="cls-5"><path class="cls-1" d="M347.25,302.38h21.13c.75,0,1.49,0,2.23,0H349.47q-1.1,0-2.22,0Z"/><path class="cls-1" d="M349.47,302.41h21.14q4.17.07,8.1.5H357.58q-3.93-.42-8.11-.5Z"/><path class="cls-1" d="M357.58,302.91h21.13q3.24.34,6.33.91H363.91q-3.09-.57-6.33-.91Z"/><path class="cls-1" d="M363.91,303.82H385q2.68.49,5.24,1.17H369.15c-1.71-.45-3.45-.84-5.24-1.17Z"/><path class="cls-1" d="M369.15,305h21.13c1.54.4,3.05.85,4.52,1.35H373.67c-1.47-.5-3-.95-4.52-1.35Z"/><path class="cls-1" d="M373.67,306.34H394.8c1.37.47,2.71,1,4,1.51H377.68c-1.31-.54-2.64-1-4-1.51Z"/><path class="cls-1" d="M377.68,307.85h21.13c1.25.53,2.48,1.09,3.67,1.69H381.35c-1.2-.6-2.42-1.16-3.67-1.69Z"/><path class="cls-1" d="M381.35,309.54h21.13c1.17.58,2.32,1.21,3.43,1.87H384.78c-1.11-.66-2.26-1.29-3.43-1.87Z"/><path class="cls-1" d="M384.78,311.41h21.13q1.69,1,3.3,2.1H388.08q-1.6-1.11-3.3-2.1Z"/><path class="cls-1" d="M388.08,313.51h21.13c1.12.77,2.2,1.59,3.26,2.44H391.33c-1.05-.85-2.13-1.67-3.25-2.44Z"/><path class="cls-1" d="M391.33,316h21.14q1.72,1.38,3.34,2.93H394.68c-1.08-1-2.19-2-3.35-2.93Z"/><path class="cls-1" d="M394.68,318.88h21.13q1.41,1.33,2.73,2.79H397.41q-1.32-1.46-2.73-2.79Z"/></g></g></g><g class="cls-5"><path class="cls-1" d="M397.41,321.67h21.13q17.61,19.29,17.61,54,0,25.23-7.69,41.37a58.34,58.34,0,0,1-22.23,25.13q-14.55,9-36.25,9H348.85q21.7,0,36.25-9a58.34,58.34,0,0,0,22.23-25.13Q415,400.93,415,375.7,415,341,397.41,321.67Z"/><g class="cls-11"><g class="cls-5"><path class="cls-1" d="M397.41,321.67h21.13c.3.32.58.64.87,1H398.28l-.87-1Z"/><path class="cls-1" d="M398.28,322.64h21.13a58.32,58.32,0,0,1,4.35,5.64H402.63a58.32,58.32,0,0,0-4.35-5.64Z"/><path class="cls-1" d="M402.63,328.28h21.13a69.73,69.73,0,0,1,10.3,25.29H412.93a69.73,69.73,0,0,0-10.3-25.29Z"/><path class="cls-1" d="M412.93,353.57h21.13a96.6,96.6,0,0,1,1.6,11H414.53a98.9,98.9,0,0,0-1.6-11Z"/><path class="cls-1" d="M414.53,364.55h21.13q.46,4.92.49,10.22H415c0-3.53-.19-6.94-.49-10.22Z"/><path class="cls-1" d="M415,374.77h21.13v.93q0,5-.3,9.69H414.72q.3-4.67.3-9.69v-.93Z"/><path class="cls-1" d="M414.72,385.39h21.13c-.18,2.72-.43,5.35-.77,7.89H414q.49-3.81.77-7.89Z"/><path class="cls-1" d="M414,393.28h21.13c-.28,2.13-.61,4.2-1,6.2H412.94q.58-3,1-6.2Z"/><path class="cls-1" d="M412.94,399.48h21.13q-.51,2.64-1.15,5.13H411.79c.42-1.66.81-3.37,1.15-5.13Z"/><path class="cls-1" d="M411.79,404.61h21.13c-.39,1.5-.81,3-1.27,4.38H410.52c.46-1.42.88-2.88,1.27-4.38Z"/><path class="cls-1" d="M410.52,409h21.13c-.42,1.32-.88,2.61-1.37,3.86H409.15c.49-1.25.94-2.54,1.37-3.86Z"/><path class="cls-1" d="M409.15,412.85h21.13c-.47,1.2-1,2.37-1.48,3.51H407.66c.53-1.14,1-2.31,1.49-3.51Z"/><path class="cls-1" d="M407.66,416.36H428.8c-.11.24-.23.47-.34.71-.48,1-1,2-1.52,3H405.81c.53-1,1-2,1.52-3l.33-.71Z"/><path class="cls-1" d="M405.81,420.07h21.13c-.69,1.27-1.41,2.51-2.16,3.71H403.65c.75-1.2,1.47-2.44,2.16-3.71Z"/><path class="cls-1" d="M403.65,423.78h21.13q-1.21,1.91-2.53,3.69H401.12q1.32-1.79,2.53-3.69Z"/><path class="cls-1" d="M401.12,427.47h21.13c-1,1.35-2,2.64-3.14,3.88H398c1.1-1.24,2.14-2.53,3.14-3.88Z"/><path class="cls-1" d="M398,431.35h21.13a56,56,0,0,1-4.39,4.46H393.59a56,56,0,0,0,4.39-4.46Z"/><path class="cls-1" d="M393.59,435.81h21.13a58.19,58.19,0,0,1-8.49,6.39q-14.55,9-36.25,9H348.85q21.7,0,36.25-9a58.19,58.19,0,0,0,8.49-6.39Z"/></g></g></g><rect class="cls-1" x="469.28" y="338.99" width="21.13" height="109.73"/><polygon class="cls-1" points="436.28 304.84 457.41 304.84 510.4 304.84 489.27 304.84 436.28 304.84"/><polygon class="cls-1" points="489.27 304.84 510.4 304.84 530.84 392.38 509.71 392.38 489.27 304.84"/><polygon class="cls-1" points="549.96 338.99 571.09 338.99 545.67 448.72 524.54 448.72 549.96 338.99"/><rect class="cls-1" x="582.96" y="304.84" width="21.13" height="143.88"/><polygon class="cls-1" points="530 304.84 551.13 304.84 604.09 304.84 582.96 304.84 530 304.84"/><rect class="cls-1" x="648.96" y="387.77" width="21.13" height="28.36"/><rect class="cls-1" x="648.96" y="335.56" width="21.13" height="22.87"/><polygon class="cls-1" points="648.96 358.43 670.09 358.43 732.8 358.43 711.67 358.43 648.96 358.43"/><rect class="cls-1" x="711.67" y="358.43" width="21.13" height="29.35"/><polygon class="cls-1" points="608.58 304.84 629.71 304.84 737.69 304.84 716.56 304.84 608.58 304.84"/><rect class="cls-1" x="716.56" y="304.84" width="21.13" height="30.72"/><rect class="cls-1" x="718.52" y="416.13" width="21.13" height="32.59"/><polygon class="cls-1" points="648.96 416.13 670.09 416.13 739.65 416.13 718.52 416.13 648.96 416.13"/><polygon class="cls-1" points="128.21 144.35 149.34 144.35 187.61 144.35 166.48 144.35 128.21 144.35"/><polygon class="cls-1" points="166.48 144.35 187.61 144.35 201.39 224.9 180.26 224.9 166.48 144.35"/><polygon class="cls-1" points="219.52 197.64 240.65 197.64 217.87 288.23 196.74 288.23 219.52 197.64"/><polygon class="cls-1" points="200.43 144.35 221.56 144.35 259.7 144.35 238.56 144.35 200.43 144.35"/><polygon class="cls-1" points="238.56 144.35 259.7 144.35 279.91 224.79 258.78 224.79 238.56 144.35"/><polygon class="cls-1" points="310.65 144.35 331.78 144.35 303.03 288.23 281.9 288.23 310.65 144.35"/><polygon class="cls-1" points="272.58 144.35 293.71 144.35 331.78 144.35 310.65 144.35 272.58 144.35"/><rect class="cls-1" x="364.11" y="227.28" width="21.13" height="28.36"/><rect class="cls-1" x="364.11" y="175.06" width="21.13" height="22.87"/><polygon class="cls-1" points="364.11 197.93 385.24 197.93 447.95 197.93 426.81 197.93 364.11 197.93"/><rect class="cls-1" x="426.81" y="197.93" width="21.13" height="29.35"/><polygon class="cls-1" points="323.72 144.35 344.85 144.35 452.84 144.35 431.71 144.35 323.72 144.35"/><rect class="cls-1" x="431.71" y="144.35" width="21.13" height="30.72"/><rect class="cls-1" x="433.67" y="255.64" width="21.13" height="32.59"/><polygon class="cls-1" points="364.11 255.64 385.24 255.64 454.8 255.64 433.67 255.64 364.11 255.64"/><rect class="cls-1" x="495.67" y="144.35" width="21.13" height="108.45"/><polygon class="cls-1" points="455.37 144.35 476.5 144.35 516.8 144.35 495.67 144.35 455.37 144.35"/><rect class="cls-1" x="558.55" y="252.8" width="21.13" height="35.43"/><polygon class="cls-1" points="495.67 252.8 516.8 252.8 579.69 252.8 558.55 252.8 495.67 252.8"/><polygon class="cls-2" points="310.65 144.35 281.9 288.23 242.39 288.23 219.52 197.64 196.74 288.23 157.22 288.23 128.21 144.35 166.48 144.35 180.26 224.9 200.43 144.35 238.56 144.35 258.78 224.79 272.58 144.35 310.65 144.35"/><polygon class="cls-2" points="431.71 144.35 431.71 175.06 364.11 175.06 364.11 197.93 426.81 197.93 426.81 227.28 364.11 227.28 364.11 255.64 433.67 255.64 433.67 288.23 323.72 288.23 323.72 144.35 431.71 144.35"/><polygon class="cls-2" points="495.67 144.35 495.67 252.8 558.55 252.8 558.55 288.23 455.37 288.23 455.37 144.35 495.67 144.35"/><path class="cls-2" d="M204.48,302.38q24.65,0,38.74,11t20.94,33.76l-35.58,8.74a35,35,0,0,0-3.91-9.62,24,24,0,0,0-8.27-7.85,21.87,21.87,0,0,0-10.94-2.75q-13.71,0-21,12.15-5.51,9-5.51,28.33,0,23.92,6.58,32.79t18.5,8.88q11.57,0,17.48-7.17t8.59-20.8l35.31,11.77Q261.86,418,254.2,429a49.8,49.8,0,0,1-19,16.59q-11.35,5.6-28.87,5.59-21.27,0-34.74-6.81t-23.26-24q-9.78-17.17-9.78-43.95,0-35.68,17.21-54.87T204.48,302.38Z"/><path class="cls-2" d="M397.41,321.67Q415,341,415,375.7q0,25.23-7.69,41.37A58.34,58.34,0,0,1,385.1,442.2q-14.55,9-36.25,9-22.07,0-36.52-7.75T288.9,418.89q-9-16.8-9-42,0-35.24,17.79-54.87t49.55-19.63Q379.8,302.38,397.41,321.67Zm-29.79,86.91q7.11-9.33,7.11-33.47,0-20.31-7.42-29.69t-20.15-9.37a23.56,23.56,0,0,0-19.58,9.52q-7.38,9.53-7.38,31.5,0,21.8,7.34,31.31t20,9.53q13,0,20.11-9.33Z"/><polygon class="cls-2" points="582.96 304.84 582.96 448.72 549.96 448.72 549.96 338.99 524.54 448.72 494.67 448.72 469.28 338.99 469.28 448.72 436.28 448.72 436.28 304.84 489.27 304.84 509.71 392.38 530 304.84 582.96 304.84"/><polygon class="cls-2" points="716.56 304.84 716.56 335.56 648.96 335.56 648.96 358.43 711.67 358.43 711.67 387.77 648.96 387.77 648.96 416.13 718.52 416.13 718.52 448.72 608.58 448.72 608.58 304.84 716.56 304.84"/><path class="cls-12" d="M756.16,247.48c-2.64-2.33-13.36.61-13.36.61l-.72,5.58c2.23,2.8,7.17-2.78,10.8.26s7.76,2.26,8.17,1.21S758.8,249.82,756.16,247.48Z"/><path class="cls-4" d="M745.4,248c-10.13-1.43-12-1.1-22.19-1.77s-20.71-2.91-28.88-9.38c-6.67-5.28-9.63-16.63-13-24.29-4-9-7.11-18.64-14.9-24.95-1.53-1.24-3.69-1.67-5.66-2.31-1.1-.36-4.42-2.16-5.55-1.8-.21.07-8.43,2.79-14.21,13.24s-10,54.71-10,54.71,11.41,13.19,24.26,4.41c0,0,.83-24.71,6.69-26.47a33.88,33.88,0,0,0,5.77-2c8.46,8,17.73,27.61,28.64,30.5,18.76,5,29.8-2.18,49.07-3.82Q745.42,251,745.4,248Z"/><path class="cls-4" d="M709.26,260.34a50.32,50.32,0,0,1-13.09-1.76c-7.28-1.93-13.58-10.67-19.67-19.12-3.12-4.32-6.07-8.42-8.92-11.21a29.91,29.91,0,0,1-4.41,1.54l-1,.31c-3.89,1.17-5.84,16.42-6.16,25.76v.4l-.32.22c-13.21,9-25.08-4.41-25.2-4.54l-.22-.26,0-.34c.17-1.81,4.26-44.41,10.13-55s14.28-13.47,14.63-13.58c1-.32,2.64.35,4.69,1.26.54.23,1,.44,1.29.54l1.25.38a13.06,13.06,0,0,1,4.63,2c6.8,5.52,10.18,13.53,13.44,21.28.56,1.33,1.11,2.65,1.69,4,.78,1.78,1.52,3.72,2.31,5.78,2.56,6.69,5.47,14.27,10.44,18.21,6.81,5.39,16.12,8.41,28.48,9.23,3.14.21,5.49.32,7.53.42a129.3,129.3,0,0,1,14.72,1.36l.63.09,0,7.42-.68.06a134.09,134.09,0,0,0-17.6,2.93C721.52,259.08,715.7,260.34,709.26,260.34ZM667.83,226.4l.37.35c3.06,2.9,6.17,7.21,9.46,11.78,5.67,7.85,12.09,16.76,18.87,18.55,12.11,3.2,20.89,1.31,31.05-.88a136.55,136.55,0,0,1,17.11-2.9l0-4.65a126.85,126.85,0,0,0-13.95-1.26c-2.05-.1-4.41-.21-7.56-.42-12.65-.84-22.23-4-29.27-9.53-5.3-4.2-8.28-12-10.92-18.87-.78-2-1.52-4-2.28-5.71-.58-1.33-1.14-2.66-1.7-4-3.19-7.58-6.48-15.41-13-20.68a12.26,12.26,0,0,0-4.14-1.79c-.43-.12-.86-.25-1.28-.39s-.83-.33-1.42-.59c-.94-.41-3.15-1.39-3.7-1.21-.33.11-8.19,2.75-13.8,12.89-5.43,9.83-9.49,49.85-9.91,54,1.64,1.77,11.55,11.61,22.78,4.25.16-4,1.27-25,7.21-26.78l1-.3a25.09,25.09,0,0,0,4.61-1.68Z"/><path class="cls-13" d="M668,261c-2.52.63-5.06,1.3-7.6,2a20.31,20.31,0,0,1-3.73-6.81s-11.91,7.13-25.59-4.76c0,0-29.12,42.08-.33,53.47l.22.09.63.23c.34.13.67.25,1,.36l.24.07c.47.15.93.29,1.41.42l.11,0c.55.14,1.11.28,1.66.4h0c37.4,8.22,75.46-8.48,75.46-8.48h0a51.42,51.42,0,0,0,9.16-3.73l12.31-6.63c-.87.47-13.82,7.82-19.37,28.05C707.8,336.63,699,373.75,699,373.75h8.2S763,294.27,759.42,280,702.23,252.39,668,261Zm65,26.65h0Z"/><path class="cls-14" d="M716.92,380.64c-3.83-.73-7.94-1.36-8.24-2.63a43.06,43.06,0,0,0-1.51-4.26H699a56,56,0,0,0-1.46,13.78h27.35S720.74,381.37,716.92,380.64Z"/><path class="cls-12" d="M677.28,160.94c-8.84,0-11.16,4.18-11.16,4.18-1.86,3.26-3.72,9.3-3.25,11.16a7.42,7.42,0,0,0,1,2.19,12.3,12.3,0,0,0,8.72,5.25c6.51.93,11.62-10.23,12.08-13S686.11,160.94,677.28,160.94Z"/><path class="cls-12" d="M658.87,184.27s7.37,4.69,8.71,2.68,6-8.7,6-8.7l-6.7-7.37Z"/><path class="cls-13" d="M683.94,157c-6.26-2.85-6.26-8.54-13.09-6.26s-17.64,8.53-27.32,4S623.61,149,617.35,153s-13.09,9.68-22.19,8-13.09-4-15.37,2.85-2.27,23.9,21.63,25.61,32.44-9.11,39.84-13.09,14.61,4.56,22.65,2.16c0,0,.68-8.42,3-10.13s1.7,2.27,4.55,2.84,7.4-3.41,9.11-4.55,2.84,0,3.41,2.85-1.52,6.77-1.52,6.77,6.07-5.07,5.5-11.33S690.2,159.8,683.94,157Z"/><path class="cls-15" d="M792.72,207.64,765.8,255.25c-.37.65-.88,1.36-1.23,2.07l.12,0c.39-.26.77.08,0,0a.78.78,0,0,0-.25.28c0,.06-.06.12-.08.18a.75.75,0,0,1,.08-.18l.13-.3-.25,0c-2.84-.56-6.31,0-9.19,0H697.89a1.33,1.33,0,0,0,0,2.65h65.65c1.58,0,2.17.1,3.2-1.18,2.07-2.57,3.52-6.21,5.15-9.1l8.78-15.52L794.89,209C795.72,207.51,793.55,206.18,792.72,207.64Z"/><path class="cls-15" d="M764.69,257.34l-.12,0-.13.3A.78.78,0,0,1,764.69,257.34Z"/><path class="cls-12" d="M405.27,76.82c-2-.73-6.78-7-8.71-6.81-2.26.17.95,4.23-.81,4.39-3.5.34-12.15-3.1-12.2-.78s6,7.23,9.09,7.68,9.48.21,11.86.57S407,77.45,405.27,76.82Z"/><path class="cls-16" d="M470.45,56.92c-.24.16-.48.32-.71.5-5.64,4.16-7,11.25-12.22,15.64a27.94,27.94,0,0,1-10.18,5.33c-12.85,3.77-27.45.44-39.89-3.24-4.78-1.42-8.12,6.64-5.3,8.31,48.71,29,63.47,16,74.67,1.88,4.76-6,10.59-14,9.42-22.13S477,52.71,470.45,56.92Z"/><path class="cls-17" d="M449.16,101.25c-11,0-25.94-4.68-47.27-17.36-1.41-.84-1.68-3.07-.65-5.42,1.09-2.51,3.49-4.65,6.35-3.8,12.47,3.69,26.92,7,39.6,3.24a27.22,27.22,0,0,0,10-5.24,27.09,27.09,0,0,0,5.63-7.4c1.76-3,3.59-6,6.61-8.26.24-.18.49-.35.74-.51h0a11.55,11.55,0,0,1,11-1.24,9.78,9.78,0,0,1,5.53,7.88c1.13,7.83-3.9,15.45-9.52,22.51C470.68,93.88,463,101.25,449.16,101.25ZM406.34,75.48c-1.86,0-3.4,1.59-4.19,3.39-.69,1.58-.82,3.52.25,4.16,21.88,13,38.58,18.57,51.09,17,11.27-1.4,17.75-8.49,22.94-15,5.47-6.89,10.39-14.29,9.31-21.75a8.76,8.76,0,0,0-5-7.1,10.54,10.54,0,0,0-10.06,1.16q-.35.22-.69.48c-2.86,2.11-4.63,5.09-6.34,8-1.61,2.71-3.27,5.51-5.85,7.66a28.14,28.14,0,0,1-10.36,5.43c-12.94,3.79-27.57.49-40.17-3.24A3.37,3.37,0,0,0,406.34,75.48Z"/><path class="cls-18" d="M491.85,33.47c.36,1.45-1,7.65-.55,12.56a11.7,11.7,0,0,0,.82,3.72,5.46,5.46,0,0,0,.75,1.24c3.33,4-10.62,12.12-12.32,12s-4.17-5.4-3.59-7.51c.45-1.63,3.19,1.3,3.78-3.27a21,21,0,0,0,.05-3.84c-.05-.81-.12-1.73-.24-2.75C479.08,32.31,491.85,33.47,491.85,33.47Z"/><path class="cls-12" d="M479.11,7.25c5.84-1.39,17,5.39,18.71,12.43s-2.37,16.77-6.36,20.91c-3.73,3.87-10,6.86-13.27,6.26s-10.52-11.57-5.77-36.49C473.54,4.48,479.11,7.25,479.11,7.25Z"/><path class="cls-19" d="M497.35,5.06c6.92,4.25,12.52,12.21,5.4,18.41-2,1.73-1.35,4.91-2.8,7.24a17.65,17.65,0,0,1-6.7,5.78c4.12-2.19,4.16-8.9-.94-9.84,1.07.2-1.76-11.77-1.8-13C488,14,484.2,15.4,482,13.42c-2,1.24-7.22,1.66-8.68-.76-1.7,2.31-8.93,3.51-10.55-3.29s4.35-6.07,6.5-6.58S475.64.43,479.48.06C484.07-.37,491.56,1.5,497.35,5.06Z"/><path class="cls-16" d="M456.67,88.8c0,18.49.54,47.34,2,55.75h52.29c2-8.57,2.5-34.29,7.62-52.83,5.48-19.82-6-29.57-9.44-32.07C506.88,58,495.21,53.47,493.46,51c-2.34,3.8-15.77,13.8-15.19,3.51-5.25,0-7.73,1.74-7.73,1.74C466.31,59.31,456.67,68.21,456.67,88.8Z"/><path class="cls-17" d="M511.34,145.05H458.23l-.07-.42c-1.46-8.52-2-38.06-2-55.83,0-19.8,8.82-29.15,14.08-33,.11-.08,2.67-1.84,8-1.84h.53l0,.52c-.12,2.2.41,3.5,1.58,3.87,3.42,1.07,11-5,12.68-7.66l.4-.65.44.62c1,1.46,6.26,3.93,10.08,5.74a47,47,0,0,1,5.46,2.81c4.67,3.4,14.95,13.39,9.64,32.6-3.2,11.56-4.57,25.77-5.67,37.19-.64,6.64-1.19,12.38-1.95,15.62Zm-52.27-1h51.47c.71-3.24,1.24-8.76,1.85-15.11,1.1-11.45,2.47-25.71,5.69-37.36,5.15-18.6-4.76-28.24-9.25-31.52a47.18,47.18,0,0,0-5.31-2.71c-3.92-1.86-8.32-3.94-10-5.56-2.32,3.06-9.65,8.75-13.46,7.55-1.55-.48-2.32-1.94-2.29-4.34-4.66.11-6.91,1.64-6.93,1.65-5.1,3.7-13.66,12.8-13.66,32.15C457.17,106.26,457.68,135.08,459.07,144.05Z"/><polygon class="cls-4" points="481.23 70.7 483.34 126.93 476.88 136.16 473.16 127.87 477.65 70.58 480.57 66.49 481.23 70.7"/><path class="cls-4" d="M483.82,59.35c.95.77,1.76,4.71,1.58,5.62s-3.18,5.55-4.17,5.73c-1-.6-2.87-.74-3.58-.12-.58-.76-1.78-4.84-1.47-6.37s1.22-4.31,2.24-4.86S483.82,59.35,483.82,59.35Z"/><path class="cls-20" d="M492.12,49.75A29.31,29.31,0,0,1,498,53c1.59,1-10.8,12.41-11.82,14.38-1.46-3.28-4.81-7.35-4.6-8.42C482.62,58.69,490.85,53.84,492.12,49.75Z"/><path class="cls-20" d="M479.72,52.32c.64,1,1.29,6.09,1.62,6.68s-5.76,6.44-6.53,6.51-1.86-9.4-1.62-10.37S479.41,51.83,479.72,52.32Z"/><path class="cls-12" d="M486.22,141.86c-.87-.15-10.68,5.14-11.68,6-1.18,1-1.93,3-.53,3.18,8.78,1,8.86-1.1,16.65-3.87C498.85,144.24,486.22,141.86,486.22,141.86Z"/><path class="cls-16" d="M499.49,84.52c-3-4.84,8.36-26,10.45-24.24,33,27.65,23.26,77.12-23.93,89.82-1.55.42-5.24-6.61-4.37-7.13C483.88,141.64,524.05,124.18,499.49,84.52Z"/><path class="cls-17" d="M481.79,145.15c-.86-2-.42-2.29-.27-2.37s.38-.21.74-.39c16.12-8.27,21.85-18.45,23.82-25.54,2.71-9.73.42-20.57-6.78-32.21-2.63-4.25,5.48-20.88,9.25-24.14.66-.57,1.17-.7,1.54-.4,15.52,13,22.39,31.67,18.37,49.86-4.26,19.28-20.11,34.36-42.39,40.36a.63.63,0,0,1-.19,0C484.55,150.35,482.59,147,481.79,145.15Zm27.06-84.3c-3.61,3.12-11.63,19.56-9.16,23.55l-.2.12.2-.12c7.27,11.75,9.57,22.71,6.83,32.57-2,7.18-7.79,17.48-24,25.82l-.71.37c-.23.29.58,2.51,2,4.6,1.12,1.71,1.9,2.21,2.23,2.12,22.11-5.95,37.84-20.91,42.06-40,4-18-2.82-36.49-18.22-49.41a.21.21,0,0,0-.14,0A1.46,1.46,0,0,0,508.85,60.85Z"/><path class="cls-1" d="M402.65,416.05s-56.15,2-58.45,11.22,94.65,35.42,122.27,25,35-16.89,35-16.89,2.08-10.54-42.24-16.16S402.65,416.05,402.65,416.05Z"/><path class="cls-12" d="M422.24,300.14c-4.7.14-8.64,3.92-10.26,8.23-2.56,6.83-.85,22.62,5.12,24.75s12.8,2,15.36-3.48c3.86-8.27,3-27.79-8.67-29.42A9.05,9.05,0,0,0,422.24,300.14Z"/><path class="cls-3" d="M443.23,439.49s31.22-10.21,33.62-18.05-9-63.6-15-69c-5.81-5.23-37.09-9.9-39.06-10.19v0h-.1v0c-2,.29-33.25,5-39.06,10.19-6,5.4-17.41,61.16-15,69s33.62,18.05,33.62,18.05l3-7.51-22.06-17.7s9.26-30.62,12.36-23.42,9.1,31.52,9.1,31.52h36.2s6-24.31,9.1-31.52,12.46,23.42,12.46,23.42l-20.64,18.09Z"/><polygon class="cls-20" points="392.01 439.49 422.78 439.49 453.55 439.49 465.55 405.27 422.78 405.27 380 405.27 392.01 439.49"/><path class="cls-12" d="M427.55,343.94V329.49H418v14.45S422.87,348.58,427.55,343.94Z"/><path class="cls-14" d="M436.9,322.73a100,100,0,0,0,5.17-12.12c1.8-5-1.57-5.85-3.15-8.5s-1.8-1.95.68-3.83,2-4.6-2.7-6.27-7,1.25-14.12,2.09-3-1.25-8.85.63-8.1,7.94-8.1,13.58,1.58,7.27,2.25,12.12a9.94,9.94,0,0,0,1.2,3.52c-.93,8.63,1.47,18.22,4.65,18.28,4.05.08,5.41-2.32,8.75,0s14.67-1,11.85-5.7c-1.6-2.67-.27-7.63.55-11.07A22,22,0,0,0,436.9,322.73Zm-9.35,1.87c-5.65-1.36-9.12.67-11.82,1.93-1.2.57-2.3-1.21-3.15-3.35a32.36,32.36,0,0,1,.9-7.61c1.35-4.85,4-4.34,10.73-4.54s7.06-4.15,8,1.46a104.07,104.07,0,0,1,.91,10.57C431.57,324.6,432.15,325.7,427.55,324.6Z"/><path class="cls-12" d="M419.69,327.19c0,.81,1.38,1.46,3.09,1.46s3.08-.65,3.08-1.46-1.38-1.47-3.08-1.47S419.69,326.38,419.69,327.19Z"/><path class="cls-13" d="M349.38,425.26a11,11,0,0,0-5.18,2c-4.88,4-2.58,10.88,1.17,16.18a28.07,28.07,0,0,0,5.14,5.57c6.88,5.48,16.5,8.22,25.61,10a199.79,199.79,0,0,0,31.72,3.09c3.16.1,23.22,2,24.88.19l5.21-5.81c.13-.15-28.28-14-30.07-14.76C392.42,434.88,367.7,422.27,349.38,425.26Z"/><path class="cls-1" d="M444.6,459.88l-2.92-1.52-2.29,7.33c4,2.69,24.52,8,23,.8S444.6,459.88,444.6,459.88Z"/><path class="cls-13" d="M493.63,428.65c-18.32-3-43,9.62-58.48,16.48-1.79.79-30.2,14.61-30.07,14.75l5.21,5.81c1.66,1.85,21.72-.08,24.88-.19a199.79,199.79,0,0,0,31.72-3.09c9.11-1.78,18.73-4.52,25.61-10a28.07,28.07,0,0,0,5.14-5.57c3.75-5.3,6.05-12.18,1.17-16.17A10.94,10.94,0,0,0,493.63,428.65Z"/><path class="cls-1" d="M387.3,466.49c-1.53,7.24,19,1.89,23-.8L408,458.36l-2.92,1.52S388.84,459.24,387.3,466.49Z"/><path class="cls-21" d="M57.8,376c-.89-7.12-5.87-79.43,27.29-115.28h31.85s16.41,10.38,20.86,40.61-20.86,152-20.86,152H106.69S106.89,320,101,320s-12.1,49.78-21.88,66.67S37.3,448,36,448s-9.54-4.2-9.54-4.2S58.69,383.12,57.8,376Z"/><path class="cls-13" d="M61.62,298.75l-10.73,6.71a1.22,1.22,0,0,1-1.69-.39L35,282.3l13.27-4.89a1.22,1.22,0,0,1,1.68.38l12,19.27A1.22,1.22,0,0,1,61.62,298.75Z"/><path class="cls-20" d="M47.2,274.57c0,4.66.3,7.74.3,7.74L53.21,285c1.37-2.3,2.56-4.44,3.6-6.42,5.74-10.91,7.29-17.52,11.54-24.42,1.73-2.8,10.46-15.7,12.22-15.53,2.84.27,4.48,21.66,4.52,22.07,12.09,9.22,31.85,0,31.85,0l3.72-21.57a1.22,1.22,0,0,1,2.24-.24c3.38,6.2,10.27,25.59,16.45,29.13,9.13,5.24,30.23,1.15,40.59-2.2l.95-.31a21.94,21.94,0,0,0,4.48-1.92c2.15-1.74,1.55-4.54,2.11-8.2,0-.12,0-.23-.21-.32a16.83,16.83,0,0,0-4.7-.61c-.73,0-1.55-.05-2.44-.06-10.7-.12-29,1-31.34-1.63-3.39-3.88-7-27.34-20.08-41.87-6.54-7.27-19.32-10.84-27.65-11S78,204.14,67.56,215.75C61,223.05,52.35,240.94,51.2,244.1,47.65,253.86,47.11,266.56,47.2,274.57Z"/><path class="cls-14" d="M53.4,285.68l-6.38-3,0-.29s-.26-3.15-.3-7.78c-.1-8.65.52-21,4-30.64C51.78,241,60.39,223,67.18,215.42c10-11.13,24.54-16,33.88-15.94,9.06.12,21.6,4,28,11.12,8.76,9.73,13.33,23.5,16.35,32.61,1.49,4.49,2.66,8,3.73,9.26,1.62,1.84,13,1.67,22.07,1.53,3.23-.05,6.28-.1,8.9-.07q1.35,0,2.46.06a16.5,16.5,0,0,1,4.87.65.83.83,0,0,1,.51.86c-.15,1-.22,1.93-.28,2.83-.16,2.3-.29,4.29-2,5.68a23,23,0,0,1-4.63,2l-1,.31c-8,2.58-30.86,8-41,2.16-4.65-2.66-9.61-13.85-13.24-22-1.34-3-2.5-5.64-3.4-7.3a.72.72,0,0,0-.71-.37.68.68,0,0,0-.61.51l-3.76,21.77-.23.11c-.82.39-20.18,9.25-32.37-.05l-.17-.13,0-.4c-1.15-13.93-2.91-21.33-4-21.44-1.42.17-9,10.82-11.75,15.29a78.75,78.75,0,0,0-5.37,11.11c-1.59,3.77-3.39,8-6.15,13.28-1.11,2.12-2.33,4.29-3.61,6.45ZM48,282l5,2.4c1.19-2,2.32-4,3.35-6,2.75-5.22,4.54-9.46,6.12-13.2a78,78,0,0,1,5.44-11.25c.1-.16,10.1-15.77,12.64-15.77h.06c2.58.25,4.11,12.25,4.95,22.31,11,8.18,28.67.89,30.92-.09l3.67-21.3a1.71,1.71,0,0,1,1.49-1.28,1.66,1.66,0,0,1,1.68.88c.93,1.69,2.1,4.33,3.45,7.38,3.56,8,8.45,19.05,12.82,21.56,8.72,5,29.28,1.28,40.18-2.25l.95-.3a22.62,22.62,0,0,0,4.36-1.86c1.34-1.09,1.45-2.71,1.6-4.95.06-.83.12-1.76.27-2.74a17.52,17.52,0,0,0-4.41-.53q-1.1,0-2.43-.06c-2.62,0-5.65,0-8.87.07-12.64.19-21.05.17-22.84-1.87-1.2-1.38-2.35-4.83-3.93-9.61-3-9-7.52-22.68-16.15-32.26-6.16-6.85-18.65-10.67-27.28-10.78h-.33c-9.11,0-23.13,4.84-32.79,15.6-6.31,7-15,24.69-16.26,28.19-3.46,9.5-4.07,21.72-4,30.29h0C47.73,278.35,47.91,281.12,48,282Zm139-26.64h0Z"/><path class="cls-12" d="M103.81,172.12c3.62,1.16,6.85,4.73,6.69,8.64-.15,3.65-.63,8.51-2.12,11.85a10.71,10.71,0,0,1-3.63,4.37v2.9c0,1.86-1.51,2.58-3.37,2.58h0c-1.87,0-3.38-.72-3.38-2.58v-1.81c-2.86-1.08-4.71-4-5.89-6.89-2.06-5-2.77-11.16.48-15.49A10.44,10.44,0,0,1,103.81,172.12Z"/><path class="cls-14" d="M18.54,187.71c14.24-2.25,30.5,11.55,41.1-2.94,6.13-8.37,12-3,16.64-5.25s4.73-2.38,16-9.5,21.88,1.5,20.94,9.75-4.86,12.84-4.86,12.84,3.93-9-.79-10.2-13.13-4.32-13.51.18-.68,11.21.39,12.77S85,217.75,59.11,212.13c-12.5-2.72-13,11.62-24.58,19.86S7.09,229.62,1.69,221,4.3,190,18.54,187.71Z"/><path class="cls-13" d="M117,453.05s12.31,3.26,17.34,9.76h-29l1.41-9.76Z"/><path class="cls-13" d="M36.18,447.22s10.32,7.46,12.67,15.35l-27-10.43,4.83-8.6Z"/><path class="cls-12" d="M51.83,289.25c-8.94,2.44-8.37,10.09-10.78,6.74s6.45-13.68,6.45-13.68L53.21,285C58.91,287.76,60.78,286.8,51.83,289.25Z"/><path class="cls-12" d="M186.94,255.41s13.37-2.93,15.09.83-4.64-.54-11.2,6-4.8,5.41-4.33-.9Z"/><path class="cls-16" d="M101.31,202.4l2.66,4.35s3.46-2.24,4-6l-3.2-2.47S104.22,201.92,101.31,202.4Z"/><path class="cls-16" d="M101.41,202.4l-2.66,4.35s-3.46-2.24-4-6l3.2-2.47S98.5,201.92,101.41,202.4Z"/><path class="cls-16" d="M179.94,265.85l.95-.31a16.81,16.81,0,0,0,4.48-1.92c2.15-1.74,1.55-4.54,2.11-8.2,0-.12,0-.23-.21-.32-.55-.34-2.15-.53-4.7-.61-.73,0-1.55-.05-2.44-.06C181,258.36,180.38,263.19,179.94,265.85Z"/><path class="cls-16" d="M47.2,274.57c0,4.66.3,7.74.3,7.74L53.21,285c1.37-2.3,2.56-4.44,3.6-6.42C53.23,278.14,49.18,275.82,47.2,274.57Z"/></g></g></svg>